<svg width="61" height="68" viewBox="0 0 61 68" fill="none" xmlns="http://www.w3.org/2000/svg">
<path fill-rule="evenodd" clip-rule="evenodd" d="M10.1303 63.7972C10.2391 63.8 10.3475 63.8028 10.4555 63.8028C12.0696 63.8028 13.2024 62.9158 13.2047 61.2149C13.2047 60.8247 13.1252 60.4455 12.9419 60.0885C12.4031 58.9952 11.3608 58.8223 10.2611 58.8223C9.75547 58.8223 9.21888 58.8799 8.74854 58.9708V66.7698H9.80184V63.7917C9.91142 63.7917 10.021 63.7945 10.1303 63.7972ZM9.80184 59.7292C10.0204 59.707 10.2479 59.696 10.4775 59.696C11.5529 59.696 12.1271 60.2126 12.1271 61.3059C12.1271 62.3747 11.5198 62.9269 10.4665 62.9269C10.2479 62.9269 10.0204 62.9158 9.80184 62.9047V59.7292Z" fill="#6C1C73"/>
<path fill-rule="evenodd" clip-rule="evenodd" d="M16.9452 62.0775C16.8193 62.042 16.614 62.0309 16.4307 62.0309C15.9272 62.0309 15.4922 62.3414 15.2162 62.756V66.7697H14.2534V61.3058H15.0219L15.1257 61.869C15.4348 61.4322 15.9736 61.1572 16.5124 61.1572C16.6846 61.1572 16.8436 61.1794 17.0269 61.2371L16.9452 62.0775Z" fill="#6C1C73"/>
<path fill-rule="evenodd" clip-rule="evenodd" d="M17.2788 64.0089C17.2788 65.6521 18.1842 66.9183 19.9132 66.9183C21.6068 66.9183 22.5696 65.6188 22.5718 64.0089C22.5718 62.4212 21.6311 61.1328 19.9485 61.1328C18.2747 61.1328 17.2788 62.4101 17.2788 64.0089ZM18.3189 64.0089C18.3189 62.9977 18.8002 61.8934 19.9463 61.8934C21.0923 61.8934 21.5163 63.0088 21.5141 64.0089C21.5141 65.0223 21.057 66.1599 19.911 66.1599C18.7649 66.1599 18.3189 65.0201 18.3189 64.0089Z" fill="#6C1C73"/>
<path fill-rule="evenodd" clip-rule="evenodd" d="M25.3673 66.9185C24.6695 66.9185 24.2212 66.6435 23.9805 66.1025C23.8657 65.8386 23.8193 65.4128 23.8193 64.7232V61.9735H23.0288V61.3171H23.8193V60.2815L24.7931 59.9023V61.3171H26.3168V61.9602H24.7931V64.7786C24.7931 65.1933 24.8263 65.5037 24.8969 65.6878C25.0007 65.9628 25.2171 66.1246 25.5726 66.1246C25.8597 66.1246 26.1799 65.9982 26.5575 65.721L26.7054 66.4218C26.2726 66.7588 25.8376 66.9185 25.3673 66.9185Z" fill="#6C1C73"/>
<path fill-rule="evenodd" clip-rule="evenodd" d="M30.7169 64.2422C31.0218 64.2446 31.3336 64.2472 31.6563 64.2397C31.6895 63.998 31.7005 63.7674 31.7049 63.5523C31.7049 62.7119 31.4289 61.9402 30.7311 61.4812C30.3888 61.2617 29.9869 61.1353 29.5519 61.1353C27.8914 61.1353 26.9971 62.448 26.9971 64.0003C26.9971 65.6212 27.8671 66.9207 29.5961 66.9207C30.316 66.9207 30.9917 66.7366 31.5879 66.2887L31.4731 65.4948C30.9365 65.9206 30.3623 66.1379 29.733 66.1379C28.6576 66.1379 28.0967 65.2398 28.0614 64.2397H30.2718C30.4188 64.2397 30.567 64.2409 30.7169 64.2422ZM28.0702 63.4791C28.1497 62.6631 28.5848 61.9158 29.4791 61.9158C30.2806 61.9158 30.6825 62.6298 30.6803 63.3749C30.6803 63.3927 30.6776 63.4099 30.6748 63.427C30.672 63.4442 30.6693 63.4614 30.6693 63.4791H28.0702Z" fill="#6C1C73"/>
<path fill-rule="evenodd" clip-rule="evenodd" d="M35.1034 66.9183C33.5003 66.9183 32.4116 65.6875 32.4116 64.1109C32.4116 62.3968 33.5223 61.1328 35.2403 61.1328C35.8365 61.1328 36.3974 61.2814 36.9009 61.6495L36.7065 62.3968C36.2472 62.0863 35.7791 61.9134 35.2756 61.9134C34.1296 61.9134 33.4539 62.8913 33.4539 63.9845C33.4539 65.0888 34.0368 66.1466 35.2403 66.1466C35.7791 66.1466 36.2936 65.9847 36.786 65.6632L36.9693 66.3883C36.3864 66.7342 35.757 66.9183 35.1034 66.9183Z" fill="#6C1C73"/>
<path fill-rule="evenodd" clip-rule="evenodd" d="M39.6961 66.9185C38.9983 66.9185 38.5501 66.6435 38.3094 66.1025C38.1946 65.8386 38.1504 65.4128 38.1504 64.7232V61.9735H37.3599V61.3171H38.1504V60.2815L39.1242 59.9023V61.3171H40.6479V61.9602H39.1242V64.7786C39.1242 65.1933 39.1573 65.5037 39.228 65.6878C39.3318 65.9628 39.5482 66.1246 39.9037 66.1246C40.1908 66.1246 40.5109 65.9982 40.8885 65.721L41.0365 66.4218C40.6015 66.7588 40.1665 66.9185 39.6961 66.9185Z" fill="#6C1C73"/>
<path fill-rule="evenodd" clip-rule="evenodd" d="M45.0346 64.2422C45.34 64.2446 45.6517 64.2472 45.9742 64.2397C46.0074 63.998 46.0206 63.7674 46.0184 63.5523C46.0184 62.7119 45.7424 61.9402 45.0446 61.4812C44.7023 61.2617 44.3004 61.1353 43.8654 61.1353C42.2049 61.1353 41.3105 62.448 41.3105 64.0003C41.3105 65.6212 42.1806 66.9207 43.9096 66.9207C44.6317 66.9207 45.3074 66.7366 45.9036 66.2887L45.7887 65.4948C45.2522 65.9206 44.678 66.1379 44.0487 66.1379C42.9733 66.1379 42.4102 65.2398 42.3771 64.2397H44.5875C44.7354 64.2397 44.8842 64.241 45.0346 64.2422ZM42.3881 63.4791C42.4676 62.6631 42.9026 61.9158 43.797 61.9158C44.5985 61.9158 45.0004 62.6298 45.0004 63.3749C45.0004 63.3927 44.9977 63.4099 44.9949 63.427C44.9921 63.4442 44.9894 63.4614 44.9894 63.4791H42.3881Z" fill="#6C1C73"/>
<path fill-rule="evenodd" clip-rule="evenodd" d="M50.6467 66.2863L50.7615 66.7697H51.5035V58.6382H50.5407V61.5608C50.2205 61.3302 49.695 61.1573 49.2246 61.1573C47.9196 61.1573 46.7051 62.3525 46.7051 64.0777C46.7051 65.7098 47.6104 66.9183 49.0767 66.9183C49.5934 66.9183 50.2227 66.701 50.6467 66.2863ZM49.3284 61.9733C49.8208 61.9733 50.2912 62.1684 50.5429 62.3636H50.5407V65.5412C50.2669 65.8517 49.7524 66.1156 49.2246 66.1156C48.3435 66.1156 47.7473 65.3683 47.7473 64.0334C47.7473 62.6053 48.5953 61.9733 49.3284 61.9733Z" fill="#6C1C73"/>
<path fill-rule="evenodd" clip-rule="evenodd" d="M0.0219727 35.0577C0.60935 35.3348 1.36897 35.4745 2.27653 35.4745C6.79889 35.4745 10.3762 32.5763 12.9089 26.8618L15.8039 19.8102H20.3836L21.3972 17.8233H16.5127L16.6982 17.3776C18.3543 13.3816 20.4919 11.3549 23.0467 11.3549C23.5921 11.3549 24.2899 11.53 25.1202 11.8738L26.6328 9.56534C26.0123 9.28594 24.9877 9.01318 24.0095 9.01318C19.4849 9.01318 15.9077 11.9114 13.3727 17.6304L13.2888 17.8211H4.93077L3.9128 19.8124L12.4739 19.8079L11.3588 22.4468H1.45288L0.437111 24.4203H10.6478L9.53925 27.1102C7.8809 31.1083 5.76105 33.1351 3.2393 33.1351C2.69829 33.1351 2.02921 32.9688 1.20114 32.6273L0.0219727 35.0577Z" fill="#6C1C73"/>
<path fill-rule="evenodd" clip-rule="evenodd" d="M51.1637 20.593C50.435 19.8857 49.629 19.5331 48.7479 19.5331C48.1605 19.5331 47.646 19.6839 47.2044 19.9877C46.7605 20.2893 46.5243 20.6884 46.4978 21.1829C46.4757 21.5444 46.5817 21.8548 46.8091 22.112C47.0388 22.3737 47.4407 22.662 48.0148 22.9835L49.6113 23.8772C50.1037 24.1521 50.4637 24.5069 50.6911 24.9371C50.9186 25.3673 51.0157 25.8396 50.987 26.3497C50.9119 27.7001 50.3643 28.7667 49.3463 29.5517C48.3306 30.3389 47.0653 30.7314 45.5637 30.7314C44.241 30.7314 43.0729 30.3988 42.0615 29.7402L43.3445 27.6181C43.6315 27.9241 44.0533 28.2057 44.612 28.4607C45.1706 28.7179 45.652 28.8466 46.0605 28.8466C46.7583 28.8466 47.3457 28.6559 47.8183 28.2789C48.293 27.9019 48.5492 27.3941 48.5867 26.7488C48.6044 26.4184 48.5028 26.1257 48.2776 25.8663C48.0523 25.6068 47.6571 25.3097 47.0896 24.9726L45.4842 24.0546C44.9918 23.7641 44.6296 23.396 44.4 22.9525C44.1703 22.5112 44.0688 22.0366 44.0975 21.5333C44.1637 20.3624 44.6672 19.4222 45.6167 18.7148C46.5618 18.003 47.699 17.646 49.0173 17.646C49.9315 17.646 51.0179 17.9387 52.2766 18.5197L51.1637 20.593Z" fill="#6C1C73"/>
<path fill-rule="evenodd" clip-rule="evenodd" d="M41.3239 20.1894C40.7829 19.7526 40.0387 19.5353 39.0892 19.5353C37.645 19.5353 36.4482 20.1074 35.4943 21.2494C34.5381 22.3936 34.0148 23.7973 33.922 25.4626C33.8624 26.4849 34.1053 27.2987 34.6485 27.9085C35.1917 28.5183 35.8321 28.8199 36.5674 28.8199C37.7046 28.8199 38.8154 28.4673 39.8952 27.7644L39.5154 30.0528C38.4665 30.5074 37.3315 30.7336 36.1103 30.7336C34.5602 30.7336 33.3943 30.2879 32.6148 29.3965C31.8353 28.505 31.4864 27.3209 31.5703 25.8462C31.705 23.4425 32.4712 21.4778 33.8734 19.9455C35.2756 18.4154 36.9914 17.6504 39.0274 17.6504C40.2308 17.6504 41.1671 17.8633 41.8317 18.2802L41.3239 20.1894Z" fill="#6C1C73"/>
<path fill-rule="evenodd" clip-rule="evenodd" d="M29.3575 20.593C28.631 19.8857 27.825 19.5331 26.9418 19.5331C26.3544 19.5331 25.8399 19.6839 25.396 19.9877C24.9522 20.2893 24.7181 20.6884 24.6894 21.1829C24.6695 21.5444 24.7733 21.8548 25.003 22.112C25.2304 22.3737 25.6345 22.662 26.2108 22.9835L27.8052 23.8772C28.2976 24.1521 28.6597 24.5069 28.885 24.9371C29.1124 25.3673 29.2118 25.8396 29.1809 26.3497C29.1058 27.7001 28.5581 28.7667 27.5402 29.5517C26.5222 30.3389 25.2613 30.7314 23.7576 30.7314C22.4349 30.7314 21.2667 30.3988 20.2554 29.7402L21.5383 27.6181C21.8254 27.9241 22.2494 28.2057 22.8058 28.4607C23.3645 28.7179 23.8481 28.8466 24.2566 28.8466C24.9522 28.8466 25.5396 28.6559 26.0165 28.2789C26.4935 27.9019 26.7474 27.3941 26.785 26.7488C26.8026 26.4184 26.6989 26.1257 26.4758 25.8663C26.2528 25.6068 25.8553 25.3097 25.2878 24.9726L23.6825 24.0546C23.1878 23.7641 22.8279 23.396 22.5983 22.9525C22.3686 22.5112 22.267 22.0366 22.2957 21.5333C22.362 20.3624 22.8677 19.4222 23.815 18.7148C24.7623 18.003 25.8973 17.646 27.2178 17.646C28.132 17.646 29.2162 17.9387 30.4771 18.5197L29.3575 20.593Z" fill="#6C1C73"/>
<path fill-rule="evenodd" clip-rule="evenodd" d="M33.2618 0.675293C32.4183 0.675293 31.5748 0.693033 30.729 0.732948C28.2824 0.850475 25.8335 1.09218 23.4067 1.56229C20.9821 2.02796 18.5686 2.67104 16.2433 3.66447C15.0818 4.16119 13.9402 4.73996 12.8626 5.47173C12.3238 5.83762 11.8005 6.23898 11.3102 6.69357C10.82 7.14594 10.3563 7.65153 9.96105 8.22586C9.56578 8.79797 9.23897 9.44548 9.03802 10.144C8.83487 10.8403 8.77083 11.5876 8.85475 12.2994C8.93203 13.0134 9.14181 13.6875 9.42667 14.304C9.45758 14.3705 9.49291 14.4348 9.52603 14.4991C9.57903 14.5679 9.66294 14.6122 9.75569 14.6122C9.91688 14.6122 10.0472 14.4858 10.0472 14.3306C10.0472 14.2907 10.0383 14.2552 10.0251 14.2197L10.0273 14.222C10.0008 14.1577 9.96988 14.0933 9.94559 14.0268C9.72256 13.4436 9.5702 12.8316 9.53707 12.2129C9.50395 11.5964 9.58786 10.9844 9.78218 10.4101C9.9765 9.83576 10.279 9.30134 10.6456 8.82015C11.3831 7.85554 12.3481 7.08607 13.3727 6.44965C14.4039 5.81544 15.5014 5.29433 16.6254 4.85527C17.7493 4.41399 18.9042 4.06141 20.0679 3.75317C21.2316 3.44494 22.4108 3.19658 23.5944 2.99257C25.966 2.59564 28.3574 2.34285 30.7533 2.25637C33.147 2.17654 35.5583 2.18984 37.952 2.29628C39.1511 2.34728 40.3457 2.44264 41.5359 2.56238C42.7261 2.68212 43.9141 2.844 45.0911 3.05688C47.445 3.4782 49.7746 4.10797 51.9607 5.1258C53.0494 5.64248 54.1005 6.25451 55.0677 6.99958C55.549 7.37434 56.0106 7.78236 56.4412 8.22586C56.8717 8.67157 57.2692 9.15055 57.6292 9.66279C58.349 10.6895 58.9077 11.8537 59.2566 13.0977C59.6099 14.3373 59.7556 15.6567 59.749 16.9628C59.7203 19.5905 59.0512 22.1894 58.0068 24.551C57.4812 25.733 56.8673 26.8661 56.1806 27.9372C55.4894 29.006 54.7298 30.0172 53.915 30.964C53.1002 31.9109 52.2301 32.7935 51.3137 33.6006C50.8566 34.0064 50.3907 34.3967 49.9115 34.7648C49.4368 35.1374 48.9488 35.4899 48.4519 35.8203C46.4712 37.1508 44.3513 38.1775 42.1564 38.7962L41.7501 38.9071C41.6331 38.9381 41.4432 38.9847 41.3327 39.0091C41.0611 39.0712 40.7895 39.1266 40.5157 39.171C39.9703 39.2663 39.4182 39.3306 38.8662 39.3572C38.3119 39.3816 37.7577 39.3861 37.2012 39.3528C36.6448 39.3173 36.0883 39.253 35.534 39.1665C33.3126 38.8029 31.1177 37.9935 29.0022 36.9136C26.9045 35.8336 24.8751 34.512 22.9121 32.9842L22.8922 32.9642L22.89 32.9664C22.8789 32.9576 22.8701 32.9509 22.8591 32.9443C22.8613 32.9465 22.8613 32.9487 22.8635 32.9509C22.8259 32.9199 22.7774 32.8999 22.7244 32.8999C22.6029 32.8999 22.5035 32.9953 22.5035 33.1128C22.5035 33.1638 22.5234 33.2081 22.5543 33.2458L22.5477 33.2525C24.1531 35.3436 26.3833 37.428 29.0906 39.2841L29.0773 39.2708C30.8814 40.4882 32.8754 41.4373 35.0151 41.9539C35.6445 42.1114 36.287 42.2222 36.9385 42.2932C37.5877 42.3642 38.2435 42.4019 38.9015 42.3797C39.5596 42.3619 40.2198 42.3043 40.8734 42.2023C41.2003 42.1469 41.5271 42.0825 41.8495 42.0071C42.035 41.9628 42.1432 41.9384 42.322 41.8896L42.8012 41.7588C45.3229 41.0248 47.6901 39.7453 49.7901 38.1044C51.8945 36.4634 53.7229 34.4499 55.2664 32.2324C56.0371 31.1215 56.7326 29.9529 57.3465 28.7421C57.9626 27.5314 58.5036 26.2785 58.9408 24.9857C59.7601 22.5841 60.2768 20.0473 60.2834 17.5061V17.4107C60.2834 17.2577 60.2812 17.1047 60.2768 16.9517C60.2459 15.5902 60.0515 14.2397 59.6717 12.9469C59.2875 11.6585 58.709 10.4478 57.9648 9.37674C57.2229 8.30347 56.3307 7.36769 55.3525 6.56717C54.3787 5.76 53.3188 5.07923 52.2191 4.50269C50.0197 3.3385 47.6702 2.55129 45.2898 1.97253C44.0974 1.68647 42.8939 1.45807 41.6861 1.2718C40.4782 1.08775 39.2615 0.96135 38.0448 0.859345C36.828 0.75734 35.6069 0.708555 34.388 0.68638C34.059 0.681945 33.7322 0.679728 33.4031 0.679728H33.2618V0.675293Z" fill="url(#paint0_linear_12382_6361)"/>
<defs>
<linearGradient id="paint0_linear_12382_6361" x1="24.5556" y1="46.4019" x2="65.7743" y2="23.4665" gradientUnits="userSpaceOnUse">
<stop offset="0.1057" stop-color="#6C1C73"/>
<stop offset="0.4319" stop-color="#1F3B72"/>
<stop offset="0.7202" stop-color="#AAC811"/>
<stop offset="0.9648" stop-color="#6C1C73"/>
</linearGradient>
</defs>
</svg>
