<svg xmlns="http://www.w3.org/2000/svg" xmlns:xlink="http://www.w3.org/1999/xlink" width="150" height="37" viewBox="0 0 150 37">
    <defs>
        <path id="a" d="M.098.047h109.9V23.69H.098z"/>
    </defs>
    <g fill="none" fill-rule="evenodd">
        <g transform="translate(39.087 12.926)">
            <mask id="b" fill="#fff">
                <use xlink:href="#a"/>
            </mask>
            <path fill="#191919" d="M102.083 5.193h2.247V1.144h2.978v4.05h2.69v2.22h-2.69v7.21c0 .313.013.584.039.81.026.226.087.418.183.574a.87.87 0 0 0 .43.353c.192.079.454.118.784.118.21 0 .419-.004.627-.013.21-.01.418-.04.627-.092v2.299l-.966.104a8.773 8.773 0 0 1-.967.053c-.783 0-1.415-.074-1.894-.222-.479-.148-.853-.366-1.123-.653a2.248 2.248 0 0 1-.549-1.084 8.125 8.125 0 0 1-.17-1.49V7.415h-2.246v-2.22zm-7.68 11.52c.662 0 1.236-.138 1.724-.417a3.631 3.631 0 0 0 1.202-1.097c.313-.453.544-.963.692-1.529a6.847 6.847 0 0 0 0-3.461 4.624 4.624 0 0 0-.692-1.528 3.695 3.695 0 0 0-1.202-1.084c-.488-.279-1.062-.418-1.724-.418-.662 0-1.237.14-1.724.418-.488.278-.888.64-1.202 1.084a4.619 4.619 0 0 0-.692 1.528 6.88 6.88 0 0 0 0 3.461c.148.566.379 1.076.692 1.529.314.453.714.818 1.202 1.097.487.279 1.062.418 1.724.418zm0 2.352c-1.08 0-2.042-.179-2.887-.536a6.147 6.147 0 0 1-2.142-1.476 6.3 6.3 0 0 1-1.332-2.246c-.305-.87-.457-1.829-.457-2.874 0-1.027.152-1.976.457-2.847.304-.871.749-1.62 1.332-2.247a6.156 6.156 0 0 1 2.142-1.476c.845-.356 1.807-.535 2.887-.535s2.042.179 2.887.535c.844.357 1.558.85 2.142 1.476a6.32 6.32 0 0 1 1.332 2.247c.305.87.457 1.82.457 2.847 0 1.045-.152 2.003-.457 2.874a6.316 6.316 0 0 1-1.332 2.246 6.156 6.156 0 0 1-2.142 1.476c-.845.357-1.807.536-2.887.536zm-12.095-.366h2.978V.047h-2.978V18.7zm-5.64 0h2.978V5.193h-2.978V18.7zm0-15.83h2.978V.046h-2.978v2.821zm-5.25 9.09c0-.61-.079-1.201-.236-1.776a4.823 4.823 0 0 0-.705-1.528 3.646 3.646 0 0 0-1.175-1.071c-.47-.27-1.01-.405-1.62-.405-1.254 0-2.199.435-2.834 1.306-.636.87-.954 2.029-.954 3.474 0 .68.082 1.311.248 1.894.166.584.414 1.084.745 1.502.33.418.727.75 1.188.993.462.244.997.366 1.607.366.68 0 1.254-.14 1.724-.418.47-.279.858-.64 1.163-1.084a4.4 4.4 0 0 0 .653-1.515c.13-.566.196-1.145.196-1.738zM61.02 5.193h2.822v1.829h.052c.418-.784 1.001-1.345 1.75-1.685a5.81 5.81 0 0 1 2.43-.51c1.062 0 1.99.188 2.782.562a5.49 5.49 0 0 1 1.972 1.542 6.698 6.698 0 0 1 1.176 2.285c.261.871.392 1.803.392 2.796 0 .905-.118 1.785-.353 2.638a6.868 6.868 0 0 1-1.071 2.26 5.36 5.36 0 0 1-1.816 1.567c-.731.392-1.593.588-2.586.588-.435 0-.871-.04-1.306-.118a5.641 5.641 0 0 1-1.254-.378c-.4-.174-.77-.396-1.11-.667a3.69 3.69 0 0 1-.85-.953H64v6.74H61.02V5.193zm-10.005 0h2.247V1.144h2.978v4.05h2.69v2.22h-2.69v7.21c0 .313.013.584.04.81.025.226.086.418.182.574a.87.87 0 0 0 .431.353c.192.079.453.118.784.118.209 0 .418-.004.627-.013.209-.01.418-.04.627-.092v2.299l-.967.104a8.773 8.773 0 0 1-.966.053c-.784 0-1.416-.074-1.894-.222-.48-.148-.854-.366-1.124-.653a2.247 2.247 0 0 1-.548-1.084 8.125 8.125 0 0 1-.17-1.49V7.415h-2.247v-2.22zm-9.822 9.17c.087.87.418 1.48.993 1.828.574.349 1.262.523 2.063.523.279 0 .597-.022.954-.065a4.142 4.142 0 0 0 1.006-.249c.313-.121.57-.3.77-.535.2-.235.292-.544.275-.928a1.317 1.317 0 0 0-.418-.94 2.903 2.903 0 0 0-1.006-.588 9.803 9.803 0 0 0-1.398-.379 65.545 65.545 0 0 1-1.593-.34 14.87 14.87 0 0 1-1.607-.443 5.162 5.162 0 0 1-1.384-.706 3.255 3.255 0 0 1-.98-1.136c-.244-.461-.366-1.032-.366-1.711 0-.732.179-1.346.536-1.842.357-.496.81-.896 1.358-1.201a5.926 5.926 0 0 1 1.829-.64c.67-.122 1.31-.183 1.92-.183a8.81 8.81 0 0 1 1.998.222c.636.148 1.21.388 1.725.718.513.331.94.762 1.28 1.293.34.532.552 1.172.64 1.92h-3.109c-.14-.714-.466-1.192-.98-1.436s-1.101-.366-1.763-.366c-.209 0-.457.017-.745.052-.287.035-.557.1-.81.196a1.701 1.701 0 0 0-.64.418c-.174.183-.26.422-.26.718 0 .366.126.662.378.888.253.227.583.414.993.562.409.148.875.274 1.397.379.523.104 1.062.218 1.62.34.54.121 1.071.27 1.594.444.522.174.988.409 1.397.705.41.296.74.67.993 1.123.252.453.379 1.01.379 1.672 0 .801-.183 1.48-.549 2.038a4.334 4.334 0 0 1-1.424 1.358c-.583.349-1.232.601-1.946.758a9.858 9.858 0 0 1-2.116.235 9.21 9.21 0 0 1-2.364-.288c-.723-.191-1.35-.483-1.88-.875a4.22 4.22 0 0 1-1.255-1.462c-.305-.584-.466-1.276-.483-2.077h2.978zm-5.068 4.336H33.2v-1.88h-.052c-.365.679-.91 1.223-1.632 1.632-.723.409-1.46.614-2.208.614-1.776 0-3.06-.44-3.853-1.32-.793-.879-1.189-2.207-1.189-3.983V5.193h2.978v8.281c0 1.185.226 2.021.68 2.508.452.488 1.088.732 1.907.732.626 0 1.149-.096 1.567-.288a2.766 2.766 0 0 0 1.019-.77c.261-.322.448-.71.561-1.163.113-.452.17-.94.17-1.463V5.193h2.978V18.7zM14.544 5.193h2.795v2.613h.052a3.01 3.01 0 0 1 .51-1.071c.252-.348.557-.666.914-.954a4.616 4.616 0 0 1 1.188-.692c.436-.174.88-.261 1.333-.261.348 0 .588.009.718.026l.405.052V7.78a14.374 14.374 0 0 0-.64-.092 5.358 5.358 0 0 0-.64-.039c-.505 0-.98.1-1.424.3-.444.2-.832.497-1.162.889-.331.391-.592.875-.784 1.45-.192.574-.287 1.236-.287 1.985v6.426h-2.978V5.193zM.098.047h15.1v2.821H9.266V18.7H6.002V2.87H.098V.046z" mask="url(#b)"/>
        </g>
        <path fill="#00B67A" d="M13.64 12.97L0 12.968l11.036 8.02L6.82 33.96l11.034-8.016 11.03 8.016-4.212-12.97 11.034-8.016-13.64-.003L17.854.001z"/>
        <path fill="#005128" d="M25.628 23.93l-.955-2.94-6.818 4.954z"/>
    </g>
</svg>
