<svg width="35" height="35" viewBox="0 0 35 35" fill="none" xmlns="http://www.w3.org/2000/svg">
<path fill-rule="evenodd" clip-rule="evenodd" d="M17.5005 0C7.85108 0 0 7.85202 0 17.5005C0 27.148 7.85108 35 17.5005 35C27.1489 35 35 27.148 35 17.5005C35 7.85202 27.1499 0 17.5005 0ZM23.9928 18.054C23.9928 21.328 21.3263 24.028 18.0485 24.028C14.7697 24.028 12.1042 21.328 12.1042 18.054C12.1042 17.266 12.5004 16.0011 12.781 15.3125H9.84375V24.1699C9.84375 25.3191 10.777 26.25 11.9263 26.25H24.1685C25.3157 26.25 26.25 25.3191 26.25 24.1699V15.3125H23.3117C23.5944 16.0011 23.9928 17.266 23.9928 18.054ZM28.4375 24.2365C28.4375 26.5544 26.5133 28.4375 24.1893 28.4375H11.9045C9.5805 28.4375 7.65625 26.5544 7.65625 24.2365V11.8573C7.65625 9.54049 9.5805 7.65625 11.9045 7.65625H24.1882C26.5133 7.65625 28.4375 9.54049 28.4375 11.8573V24.2365ZM26.25 13.1119V9.84375L25.9716 9.84593L22.9688 9.85574L22.982 13.125L26.25 13.1119ZM18.0452 21.875C20.1546 21.875 21.875 20.159 21.875 18.0474C21.875 17.2135 21.603 16.444 21.1508 15.8156C20.455 14.8516 19.3244 14.2188 18.0474 14.2188C16.7694 14.2188 15.6399 14.8505 14.943 15.8145C14.4897 16.4429 14.2198 17.2124 14.2188 18.0463C14.2166 20.1579 15.9348 21.875 18.0452 21.875Z" fill="#F9C000"/>
</svg>
