<svg width="35" height="35" viewBox="0 0 35 35" fill="none" xmlns="http://www.w3.org/2000/svg">
<path fill-rule="evenodd" clip-rule="evenodd" d="M28.7813 27.781H24.0322V18.2291C24.0322 17.1103 23.763 16.3264 22.2845 16.3264C19.8313 16.3264 18.6828 18.2291 18.6828 18.2291V27.781H14.2344V12.6107H18.6828V13.8093C19.3612 13.326 21.0568 12.1951 23.4308 12.1951C24.9701 12.1951 28.4057 13.1908 28.4057 18.3633V27.781H28.7813ZM10.0776 11.1563C8.92935 11.1563 8 10.2256 8 9.07812C8 7.9307 8.93138 7 10.0776 7C11.2259 7.00203 12.1562 7.93273 12.1562 9.07812C12.1562 10.2256 11.2259 11.1563 10.0776 11.1563ZM8 27.781H12.1562V12.1951H8V27.781ZM17.5 0C7.83545 0 0 7.83745 0 17.5C0 27.1656 7.83545 35 17.5 35C27.1646 35 35 27.1656 35 17.5C35 7.83445 27.1646 0 17.5 0Z" fill="#F9C000"/>
</svg>
