<svg width="35" height="35" viewBox="0 0 35 35" fill="none" xmlns="http://www.w3.org/2000/svg">
<path fill-rule="evenodd" clip-rule="evenodd" d="M0 17.5C0 7.835 7.835 0 17.5 0C27.165 0 35 7.835 35 17.5C35 27.165 27.165 35 17.5 35C7.835 35 0 27.165 0 17.5ZM21.0455 17.5C21.0455 19.4679 19.4585 21.0625 17.5 21.0625C15.5094 21.0625 13.9545 19.4668 13.9545 17.5V11.5625C13.9545 9.59459 15.5415 8 17.5 8C19.4585 8 21.0455 9.59459 21.0455 11.5625V17.5ZM22.2273 15.9822C22.2273 15.5221 22.6224 15.125 23.1136 15.125C23.6048 15.125 24 15.5221 24 15.9822V17.5C24 20.799 21.5514 23.5303 18.3864 23.9656V25.2188H19.8636C20.5358 25.2188 21.075 25.7828 21.044 26.4645C21.0296 26.7693 20.7582 27 20.4545 27H14.5455C14.2426 27 13.9704 26.7699 13.956 26.4645C13.9235 25.7821 14.4646 25.2188 15.1364 25.2188H16.6136V23.9181C13.3625 23.469 11 20.5025 11 17.1753V15.9822C11 15.5221 11.397 15.125 11.8864 15.125C12.3757 15.125 12.7727 15.5221 12.7727 15.9822V17.3107C12.7727 19.7678 14.753 22.0842 17.1935 22.2389C19.9386 22.4133 22.2273 20.2212 22.2273 17.5V15.9822Z" fill="#F9C000"/>
</svg>
