<svg width="35" height="35" viewBox="0 0 35 35" fill="none" xmlns="http://www.w3.org/2000/svg">
<path fill-rule="evenodd" clip-rule="evenodd" d="M26.6383 13.3569C26.6461 13.5478 26.6516 13.7398 26.6516 13.9307C26.6516 19.7688 22.1381 26.5 13.8795 26.5C11.3454 26.5 8.9861 25.7693 7 24.5163C7.35088 24.5569 7.70845 24.5788 8.07047 24.5788C10.1746 24.5788 12.1095 23.8712 13.6456 22.6862C11.6818 22.6511 10.0232 21.374 9.45283 19.6174C9.72574 19.669 10.0076 19.6975 10.2961 19.6975C10.7049 19.6975 11.1025 19.6448 11.479 19.5439C9.4261 19.139 7.87888 17.3539 7.87888 15.2111C7.87888 15.1925 7.87888 15.1738 7.87999 15.1563C8.48484 15.4854 9.17658 15.6862 9.91177 15.7082C8.70874 14.9171 7.91564 13.5632 7.91564 12.0315C7.91564 11.2196 8.1373 10.4614 8.52272 9.80862C10.7361 12.4835 14.0444 14.2412 17.7738 14.4266C17.6969 14.103 17.6579 13.7661 17.6579 13.4183C17.6579 10.9793 19.6674 9 22.1459 9C23.4369 9 24.602 9.53762 25.4219 10.3956C26.4456 10.1981 27.4035 9.83056 28.2735 9.32257C27.936 10.3561 27.2264 11.2196 26.2974 11.7682C27.2064 11.6618 28.073 11.4248 28.875 11.0737C28.2768 11.958 27.5149 12.737 26.6383 13.3569ZM17.5 0C7.85131 0 0 7.85002 0 17.5005C0 27.149 7.85131 35 17.5 35C27.1487 35 35 27.149 35 17.5005C35 7.85002 27.1507 0 17.5 0Z" fill="#F9C000"/>
</svg>
