<svg width="32" height="32" viewBox="0 0 32 32" fill="none" xmlns="http://www.w3.org/2000/svg">
<path fill-rule="evenodd" clip-rule="evenodd" d="M29.1176 21.4718C28.3547 23.7459 25.7066 22.9644 25.7066 22.9644C24.9909 22.6695 23.9574 22.8776 23.4137 23.4206C22.8179 24.0173 22.6146 25.0408 22.9099 25.7573C22.9099 25.7573 23.4137 28.6619 21.4536 29.1491C19.4934 29.6363 17.9576 27.8059 17.9576 27.8059C17.6589 27.0912 16.7764 26.5101 16.0121 26.5101C15.1679 26.5101 14.2977 27.0895 13.9972 27.8077C13.9972 27.8077 12.8219 29.9238 10.5385 29.1715C8.25505 28.4192 9.04138 25.7677 9.04138 25.7677C9.33668 25.0512 9.12823 24.0191 8.5828 23.4778C7.98699 22.8811 6.96214 22.6764 6.24474 22.9748C6.24474 22.9748 3.56866 23.7082 2.82498 21.4529C2.0813 19.1976 4.1985 18.0152 4.1985 18.0152C4.91416 17.7169 5.49607 16.8408 5.49607 16.0776C5.49607 15.2362 4.9159 14.3706 4.19676 14.0722C4.19676 14.0722 2.08129 12.8881 2.85672 10.5677C3.63214 8.24738 6.24647 9.11441 6.24647 9.11441C6.96387 9.40931 7.99742 9.20115 8.53937 8.65645C9.13692 8.06144 9.34189 7.03796 9.04312 6.32152C9.04312 6.32152 8.39929 4.05479 10.4327 2.96211C12.4661 1.86943 13.9989 4.27977 13.9989 4.27977C14.2977 4.99447 15.1801 5.5756 15.9444 5.5756C16.7886 5.5756 17.6589 4.9962 17.9594 4.27803C17.9594 4.27803 19.466 1.85194 21.5128 2.95336C23.5596 4.05479 22.9204 6.30938 22.9204 6.30938C22.6216 7.03276 22.83 8.06838 23.372 8.60961C23.9695 9.20635 24.9909 9.41278 25.7222 9.10921C25.7222 9.10921 28.5157 8.70281 29.1981 10.7955C29.8805 12.8881 27.758 14.0722 27.758 14.0722C27.0424 14.3706 26.4605 15.2466 26.4605 16.0099C26.4605 16.8512 27.0406 17.7169 27.7598 18.0152C27.7598 18.0152 29.8805 19.1976 29.1176 21.4718ZM15.9787 9.10197C12.1398 9.10197 9.0305 12.2071 9.0305 16.0408C9.0305 19.8745 12.1398 22.9797 15.9787 22.9797C19.8176 22.9797 22.9269 19.8745 22.9269 16.0408C22.9269 14.202 22.1973 12.4361 20.8911 11.135C19.5883 9.83402 17.82 9.10197 15.9787 9.10197Z" fill="#F9C000"/>
</svg>
