<svg width="32" height="32" viewBox="0 0 32 32" fill="none" xmlns="http://www.w3.org/2000/svg">
<path fill-rule="evenodd" clip-rule="evenodd" d="M16 29.3334C23.3638 29.3334 29.3334 23.3638 29.3334 16C29.3334 8.63622 23.3638 2.66669 16 2.66669C8.63622 2.66669 2.66669 8.63622 2.66669 16C2.66669 23.3638 8.63622 29.3334 16 29.3334ZM16.0039 8C17.1252 8 18.0321 8.73616 17.9991 9.62215L17.6693 18.7166C17.6446 19.4332 16.9026 20 15.9957 20C15.0888 20 14.3468 19.4267 14.322 18.7166L14.0005 9.62215C13.9758 8.73616 14.8744 8 16.0039 8ZM14 23C14 24.1032 14.8968 25 16 25C17.1032 25 18 24.1032 18 23C18 21.8968 17.1032 21 16 21C14.8968 21 14 21.8968 14 23Z" fill="#F9C000"/>
</svg>
