<svg width="32" height="32" viewBox="0 0 32 32" fill="none" xmlns="http://www.w3.org/2000/svg">
<path fill-rule="evenodd" clip-rule="evenodd" d="M27.4262 14.8159L19.9323 8.20584V12.9362H15.043C11.2879 12.9362 7.48851 16.4216 5.56282 20.9876C8.5109 18.2246 11.3056 16.8631 15.0488 16.6569H19.9395L19.9372 21.4059L27.4262 14.8159ZM16.999 25.7213H19.36L18.4847 26.4916C17.6803 27.3006 17.0259 26.9885 16.999 25.7984L16.999 25.7213ZM16.998 10.1359V3.88741C16.998 2.63632 17.6631 2.28854 18.4846 3.11715L30.0485 13.3173C30.4378 13.6767 30.6666 14.2323 30.6666 14.8158C30.6666 15.404 30.4417 15.9548 30.0505 16.3143L19.3618 25.7208H17.0009V19.5598H14.0705C9.02133 20.3315 5.82322 24.7604 2.09898 29.2616C2.01096 29.3783 1.3399 29.4271 1.33614 28.8037C1.33237 28.1802 1.33237 27.6694 1.33614 27.0669C1.38699 18.9277 7.57199 10.1359 15.042 10.1359H16.998Z" fill="#F9C000"/>
</svg>
