<svg width="32" height="32" viewBox="0 0 32 32" fill="none" xmlns="http://www.w3.org/2000/svg">
<path fill-rule="evenodd" clip-rule="evenodd" d="M26.477 15.1472C26.4785 15.1427 26.4799 15.1383 26.4799 15.1324C26.6061 14.4769 26.6721 13.8097 26.6663 13.1483C26.6663 7.24363 21.6712 2.46667 15.6181 2.67314C10.2923 2.85044 5.89236 6.91282 5.38136 12.1209C5.28525 13.1306 5.33331 14.1403 5.52571 15.1324C5.53157 15.1383 5.53157 15.15 5.53157 15.156C5.53447 15.1644 5.54008 15.1904 5.54977 15.2353C5.56034 15.2843 5.57577 15.3557 5.59779 15.4513C5.76617 16.1716 6.00643 16.8684 6.31916 17.5355C6.31916 17.5385 6.32063 17.5415 6.32209 17.5445C6.32356 17.5474 6.32502 17.5504 6.32502 17.5534C7.52731 20.358 10.1841 24.6627 16.0027 29.3334C21.8214 24.6567 24.4783 20.358 25.6804 17.5534C25.6804 17.5504 25.6819 17.5474 25.6835 17.5445C25.685 17.5415 25.6865 17.5385 25.6865 17.5355C25.999 16.8684 26.2455 16.1716 26.4079 15.457C26.4423 15.3267 26.4605 15.232 26.4694 15.1857C26.4714 15.1753 26.4729 15.1673 26.4741 15.1619C26.4741 15.156 26.4755 15.1516 26.477 15.1472ZM16.0005 7.11119C16.5387 7.11119 17.0766 7.20356 17.588 7.37163C20.0536 8.18766 21.3447 10.7358 20.4662 13.0483C19.7934 14.8143 18.0003 16.0001 16.0005 16.0001C15.4627 16.0001 14.9248 15.9077 14.4137 15.7396C13.2211 15.3442 12.2706 14.5284 11.7237 13.4604C11.1768 12.384 11.1141 11.1812 11.5355 10.0629C12.208 8.29697 14.0011 7.11119 16.0005 7.11119Z" fill="#F9C000"/>
</svg>
