<svg width="32" height="32" viewBox="0 0 32 32" fill="none" xmlns="http://www.w3.org/2000/svg">
<mask id="path-1-inside-1_3031_6585" fill="white">
<path fill-rule="evenodd" clip-rule="evenodd" d="M26.477 15.1472C26.4785 15.1427 26.48 15.1383 26.48 15.1324C26.6062 14.4769 26.6722 13.8097 26.6663 13.1483C26.6663 7.24363 21.6712 2.46667 15.6181 2.67314C10.2923 2.85044 5.89239 6.91282 5.38139 12.1209C5.28528 13.1306 5.33334 14.1403 5.52574 15.1324C5.5316 15.1383 5.5316 15.15 5.5316 15.156C5.5345 15.1644 5.54011 15.1904 5.5498 15.2353C5.56038 15.2843 5.5758 15.3557 5.59782 15.4513C5.7662 16.1716 6.00646 16.8684 6.31919 17.5355C6.31919 17.5385 6.32066 17.5415 6.32212 17.5445C6.32359 17.5474 6.32505 17.5504 6.32505 17.5534C7.52734 20.358 10.1841 24.6627 16.0028 29.3334C21.8214 24.6567 24.4784 20.358 25.6805 17.5534C25.6805 17.5504 25.682 17.5474 25.6835 17.5445C25.685 17.5415 25.6865 17.5385 25.6865 17.5355C25.9991 16.8684 26.2456 16.1716 26.4079 15.457C26.4424 15.3267 26.4605 15.232 26.4694 15.1857C26.4714 15.1753 26.473 15.1673 26.4741 15.1619C26.4741 15.156 26.4756 15.1516 26.477 15.1472ZM15.9985 8.62614C16.4021 8.62614 16.8056 8.69542 17.1891 8.82148C19.0383 9.4335 20.0066 11.3446 19.3478 13.079C18.8432 14.4035 17.4983 15.2928 15.9985 15.2928C15.5951 15.2928 15.1917 15.2235 14.8084 15.0975C13.9139 14.8009 13.2011 14.1891 12.7909 13.3881C12.3807 12.5807 12.3337 11.6787 12.6497 10.84C13.1541 9.51548 14.4989 8.62614 15.9985 8.62614Z"/>
</mask>
<path d="M26.48 15.1324L25.007 14.8488L24.98 14.9893V15.1324H26.48ZM26.6663 13.1483H25.1663L25.1664 13.1616L26.6663 13.1483ZM15.6181 2.67314L15.668 4.17231L15.6693 4.17227L15.6181 2.67314ZM5.38139 12.1209L3.88855 11.9745L3.88814 11.9788L5.38139 12.1209ZM5.52574 15.1324L4.05318 15.418L4.13939 15.8625L4.45712 16.185L5.52574 15.1324ZM5.5316 15.156H4.0316V15.4061L4.11276 15.6427L5.5316 15.156ZM5.5498 15.2353L4.08357 15.5518L4.08357 15.5518L5.5498 15.2353ZM5.59782 15.4513L4.13614 15.7882L4.13719 15.7927L5.59782 15.4513ZM6.31919 17.5355H7.81919V17.2014L7.67739 16.8989L6.31919 17.5355ZM6.32212 17.5445L4.97648 18.2072L4.97657 18.2074L6.32212 17.5445ZM6.32505 17.5534H4.82505V17.8613L4.9464 18.1444L6.32505 17.5534ZM16.0028 29.3334L15.0638 30.5031L16.0034 31.2573L16.9425 30.5025L16.0028 29.3334ZM25.6805 17.5534L27.0592 18.1443L27.1805 17.8613V17.5534H25.6805ZM25.6835 17.5445L27.0201 18.2252L27.0202 18.225L25.6835 17.5445ZM25.6865 17.5355L24.3282 16.8992L24.1865 17.2016V17.5355H25.6865ZM26.4079 15.457L24.9578 15.0734L24.951 15.099L24.9452 15.1248L26.4079 15.457ZM26.4694 15.1857L27.9426 15.4684L27.9426 15.4683L26.4694 15.1857ZM26.4741 15.1619L27.9416 15.4725L27.9741 15.3189V15.1619H26.4741ZM17.1891 8.82148L17.6604 7.39744L17.6574 7.39647L17.1891 8.82148ZM19.3478 13.079L20.7495 13.613L20.75 13.6117L19.3478 13.079ZM14.8084 15.0975L14.3363 16.5213L14.3398 16.5224L14.8084 15.0975ZM12.7909 13.3881L11.4536 14.0675L11.4558 14.0718L12.7909 13.3881ZM12.6497 10.84L11.2479 10.3061L11.246 10.3111L12.6497 10.84ZM24.98 15.1324C24.98 14.8725 25.0541 14.6724 25.0534 14.6746L27.9006 15.6197C27.9029 15.6131 27.98 15.4041 27.98 15.1324H24.98ZM25.1664 13.1616C25.1713 13.7151 25.116 14.2826 25.007 14.8488L27.9529 15.4159C28.0963 14.6712 28.1731 13.9044 28.1663 13.135L25.1664 13.1616ZM15.6693 4.17227C20.8981 3.99391 25.1663 8.11569 25.1663 13.1483H28.1663C28.1663 6.37158 22.4443 0.939428 15.567 1.17401L15.6693 4.17227ZM6.87422 12.2674C7.30972 7.82873 11.0738 4.32525 15.668 4.17231L15.5682 1.17397C9.51085 1.37562 4.47505 5.99691 3.88856 11.9745L6.87422 12.2674ZM6.9983 14.8468C6.83342 13.9966 6.79203 13.131 6.87464 12.2631L3.88814 11.9788C3.77854 13.1303 3.83326 14.284 4.05318 15.418L6.9983 14.8468ZM7.0316 15.156C7.0316 15.156 7.03179 15.1229 7.02998 15.0829C7.02815 15.0425 7.02371 14.9774 7.01062 14.8986C6.99236 14.7885 6.92243 14.4128 6.59436 14.0797L4.45712 16.185C4.28687 16.0122 4.19214 15.832 4.13959 15.7027C4.08703 15.5734 4.06307 15.4618 4.05111 15.3898C4.02893 15.2561 4.0316 15.1441 4.0316 15.156H7.0316ZM7.01603 14.9188C7.01185 14.8995 7.00621 14.8732 7.00124 14.8512C6.99872 14.8401 6.9945 14.8217 6.98926 14.8008C6.98663 14.7903 6.97305 14.7352 6.95045 14.6693L4.11276 15.6427C4.10025 15.6062 4.092 15.5774 4.08829 15.5641C4.08399 15.5488 4.08094 15.5368 4.07934 15.5304C4.07628 15.5182 4.07461 15.5107 4.07507 15.5127C4.07605 15.5171 4.07806 15.5263 4.08357 15.5518L7.01603 14.9188ZM7.0595 15.1144C7.03991 15.0294 7.02628 14.9663 7.01603 14.9188L4.08357 15.5518C4.09447 15.6023 4.11169 15.6821 4.13614 15.7882L7.0595 15.1144ZM7.67739 16.8989C7.40988 16.3282 7.20354 15.7306 7.05845 15.1099L4.13719 15.7927C4.32886 16.6127 4.60304 17.4085 4.961 18.1722L7.67739 16.8989ZM7.66776 16.8817C7.6601 16.8661 7.69592 16.9356 7.72717 17.0202C7.76076 17.1111 7.81919 17.2949 7.81919 17.5355H4.81919C4.81919 17.7791 4.87836 17.9659 4.91305 18.0598C4.9315 18.1097 4.94896 18.1488 4.95922 18.1711C4.96458 18.1827 4.96908 18.192 4.97185 18.1977C4.97327 18.2007 4.97444 18.2031 4.97519 18.2046C4.97587 18.206 4.97648 18.2072 4.97648 18.2072L7.66776 16.8817ZM7.82505 17.5534C7.82505 17.3098 7.7659 17.1231 7.73117 17.029C7.71271 16.9791 7.69524 16.94 7.68496 16.9177C7.6796 16.9061 7.67509 16.8967 7.67232 16.891C7.6709 16.8881 7.66973 16.8857 7.66898 16.8842C7.66829 16.8828 7.66769 16.8815 7.66768 16.8815L4.97657 18.2074C4.98423 18.223 4.94838 18.1534 4.91711 18.0688C4.88347 17.9778 4.82505 17.794 4.82505 17.5534H7.82505ZM16.9417 28.1636C11.3076 23.641 8.80548 19.5325 7.70371 16.9624L4.9464 18.1444C6.2492 21.1835 9.06063 25.6844 15.0638 30.5031L16.9417 28.1636ZM24.3018 16.9625C23.2005 19.5318 20.6984 23.6349 15.0631 28.1642L16.9425 30.5025C22.9444 25.6786 25.7562 21.1841 27.0592 18.1443L24.3018 16.9625ZM24.3469 16.8637C24.3469 16.8637 24.3462 16.865 24.3455 16.8664C24.3447 16.8679 24.3435 16.8704 24.342 16.8733C24.3391 16.8791 24.3344 16.8886 24.3288 16.9004C24.318 16.9229 24.2996 16.9628 24.2801 17.0137C24.2436 17.1093 24.1805 17.3016 24.1805 17.5534H27.1805C27.1805 17.8021 27.118 17.9915 27.0827 18.0841C27.0497 18.1704 27.012 18.2411 27.0201 18.2252L24.3469 16.8637ZM24.1865 17.5355C24.1865 17.287 24.2488 17.0978 24.2841 17.0053C24.3171 16.9189 24.3547 16.8483 24.3468 16.8639L27.0202 18.225C27.0202 18.225 27.0209 18.2237 27.0216 18.2223C27.0224 18.2207 27.0236 18.2183 27.0251 18.2153C27.028 18.2095 27.0328 18.1999 27.0384 18.1881C27.0492 18.1655 27.0676 18.1257 27.087 18.0747C27.1235 17.9792 27.1865 17.787 27.1865 17.5355H24.1865ZM24.9452 15.1248C24.8087 15.7253 24.5993 16.3203 24.3282 16.8992L27.0449 18.1718C27.3988 17.4164 27.6824 16.618 27.8706 15.7893L24.9452 15.1248ZM24.9963 14.9029C24.9898 14.9371 24.9792 14.9925 24.9578 15.0734L27.858 15.8407C27.9056 15.6609 27.9313 15.5269 27.9426 15.4684L24.9963 14.9029ZM25.0066 14.8514C25.0018 14.8743 24.997 14.8997 24.9963 14.903L27.9426 15.4683C27.9437 15.4624 27.9441 15.4604 27.9443 15.4593C27.9444 15.459 27.9442 15.46 27.9438 15.4618C27.9435 15.4635 27.9427 15.4673 27.9416 15.4725L25.0066 14.8514ZM25.0534 14.6746C25.051 14.6817 24.9741 14.8904 24.9741 15.1619H27.9741C27.9741 15.4216 27.9001 15.6214 27.9006 15.6197L25.0534 14.6746ZM17.6574 7.39647C17.134 7.22443 16.5727 7.12614 15.9985 7.12614V10.1261C16.2316 10.1261 16.4771 10.1664 16.7207 10.2465L17.6574 7.39647ZM20.75 13.6117C21.7376 11.0119 20.2506 8.25471 17.6604 7.39744L16.7178 10.2455C17.826 10.6123 18.2757 11.6773 17.9455 12.5463L20.75 13.6117ZM15.9985 16.7928C18.0732 16.7928 20.0069 15.5622 20.7495 13.613L17.946 12.545C17.6795 13.2447 16.9234 13.7928 15.9985 13.7928V16.7928ZM14.3398 16.5224C14.8632 16.6945 15.4246 16.7928 15.9985 16.7928V13.7928C15.7656 13.7928 15.5202 13.7525 15.277 13.6726L14.3398 16.5224ZM11.4558 14.0718C12.0496 15.2313 13.077 16.1037 14.3363 16.5213L15.2805 13.6737C14.7509 13.4981 14.3526 13.1468 14.126 12.7044L11.4558 14.0718ZM11.246 10.3111C10.7818 11.5432 10.8522 12.8838 11.4536 14.0675L14.1282 12.7086C13.9092 12.2776 13.8856 11.8141 14.0534 11.3688L11.246 10.3111ZM15.9985 7.12614C13.924 7.12614 11.9903 8.35673 11.2479 10.3061L14.0515 11.3738C14.3179 10.6742 15.0739 10.1261 15.9985 10.1261V7.12614Z" fill="#F9C000" mask="url(#path-1-inside-1_3031_6585)"/>
</svg>
