<svg width="32" height="32" viewBox="0 0 32 32" fill="none" xmlns="http://www.w3.org/2000/svg">
<path fill-rule="evenodd" clip-rule="evenodd" d="M29.3916 25.3307L17.3854 4.88837C16.6895 3.70388 14.9469 3.70388 14.2509 4.88837L2.24473 25.3307C1.5488 26.5152 2.42012 28 3.81198 28H27.8244C29.2162 28 30.0876 26.5152 29.3916 25.3307ZM15.8215 10.857C16.7899 10.857 17.5731 11.488 17.5446 12.2474L17.2598 20.0427C17.2384 20.6569 16.5976 21.1427 15.8144 21.1427C15.0311 21.1427 14.3903 20.6513 14.3689 20.0427L14.0913 12.2474C14.0699 11.488 14.846 10.857 15.8215 10.857ZM15.8181 25.4286C14.8654 25.4286 14.0908 24.6599 14.0908 23.7143C14.0908 22.7687 14.8654 22 15.8181 22C16.7708 22 17.5454 22.7687 17.5454 23.7143C17.5454 24.6599 16.7708 25.4286 15.8181 25.4286Z" fill="#F9C000"/>
</svg>
