<svg width="32" height="32" viewBox="0 0 32 32" fill="none" xmlns="http://www.w3.org/2000/svg">
<path fill-rule="evenodd" clip-rule="evenodd" d="M29.1857 25.3307L17.2698 4.88837C16.5791 3.70388 14.8495 3.70388 14.1588 4.88837L2.24289 25.3307C1.55219 26.5152 2.41696 28 3.79836 28H27.6302C29.0116 28 29.8764 26.5152 29.1857 25.3307ZM17.8807 23.5926C17.499 23.7978 16.9449 23.993 16.6338 24.0825C16.3228 24.172 15.9624 24.2243 15.5518 24.2243C14.921 24.2243 14.4298 24.07 14.0801 23.7623C13.7304 23.4546 13.5564 23.0646 13.5564 22.5906C13.5564 22.4063 13.5693 22.2177 13.595 22.0257C13.6216 21.8337 13.6636 21.6177 13.721 21.3751L14.3733 19.0711C14.4307 18.85 14.4804 18.64 14.5198 18.4446C14.5593 18.2474 14.5781 18.0666 14.5781 17.902C14.5781 17.6089 14.5173 17.4031 14.3964 17.2874C14.2738 17.1717 14.0433 17.1151 13.6996 17.1151C13.5636 17.1151 13.4536 17.1395 13.2909 17.1756L13.2646 17.1814C12.785 17.2874 12.4797 16.8355 12.9835 16.6226C12.9835 16.6226 13.7356 16.3103 14.1256 16.1869C14.5156 16.0617 14.8841 16 15.2313 16C15.8578 16 16.3413 16.1526 16.6816 16.4543C17.0201 16.7569 17.1907 17.1503 17.1907 17.6337C17.1907 17.734 17.1787 17.9106 17.1556 18.1626C17.1324 18.4154 17.0887 18.646 17.0253 18.8577L16.3764 21.1549C16.3233 21.3391 16.2761 21.55 16.2333 21.7857C16.1913 22.0214 16.1707 22.2014 16.1707 22.3223C16.1707 22.6274 16.2384 22.8357 16.3756 22.9463C16.511 23.0569 16.7484 23.1126 17.0844 23.1126C17.243 23.1126 17.3784 23.0951 17.621 23.0294C18.159 22.8751 18.2012 23.4541 17.8807 23.5926ZM17.8571 13.2143C17.8571 14.0427 17.1856 14.7143 16.3571 14.7143C15.5287 14.7143 14.8571 14.0427 14.8571 13.2143C14.8571 12.3859 15.5287 11.7143 16.3571 11.7143C17.1856 11.7143 17.8571 12.3859 17.8571 13.2143Z" fill="#F9C000"/>
</svg>
