<svg width="32" height="32" viewBox="0 0 32 32" fill="none" xmlns="http://www.w3.org/2000/svg">
<path fill-rule="evenodd" clip-rule="evenodd" d="M24.4847 11.556V26.7941H26.9089V11.556H24.4847ZM23.2727 9.01575H28.1212C28.7906 9.01575 29.3333 9.58428 29.3333 10.2856V28.0634C29.3333 28.7647 28.7906 29.3332 28.1212 29.3332H23.2727C22.6033 29.3332 22.0606 28.7647 22.0606 28.0634V10.2856C22.0606 9.58428 22.6033 9.01575 23.2727 9.01575ZM14.788 5.20625V26.7935H17.2122V5.20625H14.788ZM13.5758 2.66669H18.4243C19.0938 2.66669 19.6364 3.23521 19.6364 3.93653V28.0635C19.6364 28.7648 19.0938 29.3334 18.4243 29.3334H13.5758C12.9064 29.3334 12.3637 28.7648 12.3637 28.0635V3.93653C12.3637 3.23521 12.9064 2.66669 13.5758 2.66669ZM5.09102 15.3652V26.7937H7.51526V15.3652H5.09102ZM3.87881 12.8253H8.72729C9.39673 12.8253 9.93942 13.3938 9.93942 14.0951V28.0634C9.93942 28.7647 9.39673 29.3332 8.72729 29.3332H3.87881C3.20937 29.3332 2.66669 28.7647 2.66669 28.0634V14.0951C2.66669 13.3938 3.20937 12.8253 3.87881 12.8253Z" fill="#F9C000"/>
</svg>
