<svg width="32" height="32" viewBox="0 0 32 32" fill="none" xmlns="http://www.w3.org/2000/svg">
<path d="M8.4465 23.5952C10.5748 25.6818 13.0996 26.7251 16.0208 26.7251C18.9421 26.7251 21.446 25.6818 23.5326 23.5952C25.6609 21.4668 26.7251 18.9421 26.7251 16.0208C26.7251 15.1027 26.579 14.1012 26.2869 13.0161C25.494 13.2248 24.4924 13.3291 23.2822 13.3291C18.6917 13.3291 15.061 11.4512 12.3902 7.69532C11.013 11.0339 8.67602 13.4335 5.37921 14.8941C5.33747 15.1445 5.31661 15.5201 5.31661 16.0208C5.31661 18.9421 6.3599 21.4668 8.4465 23.5952ZM6.56856 6.63116C9.19767 4.00205 12.3484 2.6875 16.0208 2.6875C19.6932 2.6875 22.8231 4.00205 25.4105 6.63116C28.0396 9.21854 29.3542 12.3484 29.3542 16.0208C29.3542 19.6932 28.0396 22.844 25.4105 25.4731C22.8231 28.0605 19.6932 29.3542 16.0208 29.3542C12.3484 29.3542 9.19767 28.0605 6.56856 25.4731C3.98119 22.844 2.6875 19.6932 2.6875 16.0208C2.6875 12.3484 3.98119 9.21854 6.56856 6.63116ZM18.8377 16.2086C19.1716 15.8748 19.568 15.7078 20.0271 15.7078C20.4861 15.7078 20.8826 15.8748 21.2165 16.2086C21.5503 16.5007 21.7172 16.8763 21.7172 17.3354C21.7172 17.7944 21.5503 18.1909 21.2165 18.5247C20.8826 18.8586 20.4861 19.0255 20.0271 19.0255C19.568 19.0255 19.1716 18.8586 18.8377 18.5247C18.5039 18.1909 18.337 17.7944 18.337 17.3354C18.337 16.8763 18.5039 16.5007 18.8377 16.2086ZM10.8252 16.2086C11.1591 15.8748 11.5555 15.7078 12.0146 15.7078C12.4736 15.7078 12.8701 15.8748 13.2039 16.2086C13.5378 16.5007 13.7047 16.8763 13.7047 17.3354C13.7047 17.7944 13.5378 18.1909 13.2039 18.5247C12.8701 18.8586 12.4736 19.0255 12.0146 19.0255C11.5555 19.0255 11.1591 18.8586 10.8252 18.5247C10.4914 18.1909 10.3244 17.7944 10.3244 17.3354C10.3244 16.8763 10.4914 16.5007 10.8252 16.2086Z" fill="#F9C000"/>
</svg>
