<svg width="32" height="32" viewBox="0 0 32 32" fill="none" xmlns="http://www.w3.org/2000/svg">
<path fill-rule="evenodd" clip-rule="evenodd" d="M26.6667 23.7685C26.6667 25.4864 25.3774 26.5264 24.0187 26.5264H8.00803C6.74936 26.5264 5.33337 25.5692 5.33337 23.7685V15.892C5.33337 14.8984 6.44803 11.0878 8.00003 11.0878V8.28081C7.9947 8.28081 7.98936 8.28221 7.98403 8.28221V8.28081C7.97336 8.28081 7.36803 8.28081 7.3587 8.27941C7.06803 8.24432 6.6667 7.7166 6.6667 6.8773C6.6667 6.00853 7.09736 5.47379 7.38803 5.47379H24.612C24.904 5.47379 25.3334 6.00853 25.3334 6.8773C25.3334 7.71239 24.9347 8.23871 24.6454 8.278C24.6347 8.28081 24.0174 8.28081 24.0054 8.28081C24.004 8.28081 24.0027 8.28081 24 8.28081C23.1134 8.27941 22.2267 8.27941 21.34 8.28081C21.3334 9.68011 21.34 11.8373 21.34 13.9327C21.34 16.0296 20.6654 16.7075 19.3774 16.7075C18.1747 16.7075 17.4667 16.024 17.3454 14.0366C17.3427 13.9931 17.348 12.5545 17.3454 12.5096C15.56 14.5012 13.336 12.5685 13.336 11.0878C13.336 10.1012 13.336 9.16502 13.336 8.28081H10.6787C10.6787 8.73414 10.6787 9.66888 10.6787 11.0878C10.6787 13.2155 12.524 15.892 15.156 15.892C15.156 17.9005 17.204 19.5271 19.3774 19.5271C21.552 19.5271 23.988 17.5987 24 15.2984C24 13.9454 24 12.5419 24 11.0878C25.46 11.0878 26.6667 15.0682 26.6667 15.892V23.7685ZM26.912 9.9523C27.5774 9.18458 28 8.09546 28 6.87721C28 4.5516 26.4827 2.66669 24.612 2.66669H7.38802C5.51735 2.66669 4.00002 4.5516 4.00002 6.87721C4.00002 8.08563 4.41469 9.16774 5.07069 9.93546C3.62402 11.6211 2.66669 14.2176 2.66669 15.8919V23.7684C2.66669 26.9207 4.81869 29.3334 7.20002 29.3334H24.8C27.2027 29.3334 29.3334 27.0821 29.3334 23.7684V15.8919C29.3334 14.4548 28.3987 11.7235 26.912 9.9523Z" fill="#F9C000"/>
</svg>
