<svg width="32" height="32" viewBox="0 0 32 32" fill="none" xmlns="http://www.w3.org/2000/svg">
<path fill-rule="evenodd" clip-rule="evenodd" d="M2 23.1819H7C7.756 23.1819 8.448 22.745 8.788 22.0497L10.374 16.7681L13.06 27.7784C13.28 28.685 14.068 29.3229 14.98 29.3332C15.888 29.3455 16.69 28.724 16.93 27.8236L21.05 12.3685L23.076 17.5927C23.322 18.4746 24.106 19.0818 25 19.0797H30C31.104 19.0797 32 18.1629 32 17.0286C32 15.8964 31.104 14.9775 30 14.9775H26.512L22.924 4.15587C22.678 3.26979 21.884 2.65856 20.988 2.66677C20.088 2.67292 19.308 3.29236 19.068 4.18048L15.088 19.1782L12.94 10.3728C12.734 9.54207 12.046 8.93084 11.216 8.83854C10.384 8.74624 9.586 9.19338 9.212 9.9605L5.76 19.0797H2C0.896 19.0797 0 19.9986 0 21.1308C0 22.2651 0.896 23.1819 2 23.1819Z" fill="#F9C000"/>
</svg>
