<svg width="32" height="32" viewBox="0 0 32 32" fill="none" xmlns="http://www.w3.org/2000/svg">
<path d="M16 4L16.356 3.06551L15.9917 2.92671L15.6295 3.07116L16 4ZM3.65343 7.6334C3.13537 7.82481 2.87057 8.39994 3.06198 8.918C3.25338 9.43605 3.82851 9.70086 4.34657 9.50945L3.65343 7.6334ZM27.644 9.50592C28.1601 9.70253 28.7379 9.44353 28.9345 8.92742C29.1311 8.41132 28.8721 7.83355 28.356 7.63694L27.644 9.50592ZM9 12C9 11.4477 8.55228 11 8 11C7.44772 11 7 11.4477 7 12H9ZM7 23.8937C7 24.446 7.44772 24.8937 8 24.8937C8.55228 24.8937 9 24.446 9 23.8937H7ZM17 12C17 11.4477 16.5523 11 16 11C15.4477 11 15 11.4477 15 12H17ZM15 23.8937C15 24.446 15.4477 24.8937 16 24.8937C16.5523 24.8937 17 24.446 17 23.8937H15ZM25 12C25 11.4477 24.5523 11 24 11C23.4477 11 23 11.4477 23 12H25ZM23 23.8937C23 24.446 23.4477 24.8937 24 24.8937C24.5523 24.8937 25 24.446 25 23.8937H23ZM4 27C3.44772 27 3 27.4477 3 28C3 28.5523 3.44772 29 4 29V27ZM28 29C28.5523 29 29 28.5523 29 28C29 27.4477 28.5523 27 28 27V29ZM15.6295 3.07116C13.2958 4.00204 10.3032 5.14209 7.8902 6.05085C6.68452 6.50491 5.62507 6.90065 4.86708 7.18285C4.48811 7.32394 4.18454 7.43664 3.97578 7.51404C3.87141 7.55274 3.79074 7.58261 3.7362 7.60279C3.70894 7.61288 3.6882 7.62055 3.67431 7.62569C3.66736 7.62826 3.66212 7.63019 3.65863 7.63148C3.65688 7.63213 3.65557 7.63261 3.6547 7.63293C3.65427 7.63309 3.65395 7.63321 3.65373 7.63329C3.65363 7.63333 3.65355 7.63336 3.6535 7.63338C3.65345 7.6334 3.65343 7.6334 4 8.57143C4.34657 9.50945 4.3466 9.50944 4.34667 9.50942C4.34673 9.5094 4.34682 9.50936 4.34693 9.50932C4.34717 9.50923 4.34751 9.50911 4.34796 9.50894C4.34887 9.5086 4.35022 9.5081 4.35201 9.50744C4.35559 9.50612 4.36091 9.50415 4.36794 9.50155C4.38201 9.49635 4.40291 9.48862 4.43036 9.47846C4.48524 9.45815 4.56628 9.42814 4.67104 9.3893C4.88057 9.31162 5.18499 9.19861 5.5649 9.05716C6.32468 8.77429 7.38654 8.37766 8.59508 7.92252C11.0105 7.01287 14.0179 5.86721 16.3705 4.92884L15.6295 3.07116ZM15.644 4.93449L27.644 9.50592L28.356 7.63694L16.356 3.06551L15.644 4.93449ZM15 12V23.8937H17V12H15ZM4 29H16V27H4V29ZM16 29H28V27H16V29ZM7 12V17.251H9V12H7ZM7 17.251V23.8937H9V17.251H7ZM23 12V17.251H25V12H23ZM23 17.251V23.8937H25V17.251H23Z" fill="#F9C000"/>
</svg>
