<svg width="34" height="34" viewBox="0 0 34 34" fill="none" xmlns="http://www.w3.org/2000/svg">
<path fill-rule="evenodd" clip-rule="evenodd" d="M17.9362 25.9999H16.0639C15.4752 25.9999 15 25.4915 15 24.8617V9.13828C15 8.50843 15.4752 8 16.0639 8H17.9362C18.5249 8 19 8.50843 19 9.13828V24.8617C19 25.4915 18.5249 25.9999 17.9362 25.9999ZM10.9362 26H9.06388C8.47522 26 8.00005 25.5481 8.00005 24.9882V19.0118C8.00005 18.4519 8.47522 18 9.06388 18H10.9362C11.5249 18 12 18.4519 12 19.0118V24.9882C12 25.5481 11.5249 26 10.9362 26ZM23.0639 26H24.9362C25.5249 26 26 25.545 26 24.9881V15.0187C26 14.455 25.5249 14 24.9362 14H23.0639C22.4752 14 22 14.455 22 15.0187V24.9813C22 25.545 22.4752 26 23.0639 26Z" fill="#F9C000"/>
</svg>
