<svg width="32" height="32" viewBox="0 0 32 32" fill="none" xmlns="http://www.w3.org/2000/svg">
<path fill-rule="evenodd" clip-rule="evenodd" d="M16.522 10.5436C16.5405 10.5488 16.5605 10.554 16.579 10.5578C16.6176 8.24842 16.4079 0.680881 11.1172 3.15888C9.80029 3.7761 9.29913 4.50226 9.33459 5.25434C12.1534 6.14129 15.2575 9.20928 16.522 10.5436ZM8.77683 5.42218C7.02897 4.83096 5.36824 5.17186 4.37709 7.44465C1.82669 13.2935 12.933 12.0161 16.1074 10.7513C16.0162 10.742 15.8412 10.5607 15.5253 10.2335L15.5253 10.2335C15.2099 9.90673 14.754 9.43449 14.1009 8.84269C12.529 7.41834 10.3237 5.9454 8.77683 5.42218ZM14.3247 12.4078C12.2167 12.7703 11.1548 16.5862 11.9531 20.9278C12.7518 25.2723 15.1079 28.4975 17.2158 28.1352L20.5277 27.4429C18.4201 27.8057 16.0636 24.5798 15.2651 20.2354C14.484 15.9866 15.4844 12.2414 17.503 11.7435L17.6367 11.7155C17.5916 11.7233 17.5471 11.7326 17.503 11.7435L14.3247 12.4078ZM8.93667 13.5778C6.82866 13.9403 5.76681 17.7562 6.56508 22.0978C7.36375 26.4423 9.7199 29.6674 11.8278 29.3052L15.1396 28.6129C13.032 28.9757 10.6756 25.7498 9.87707 21.4054C9.096 17.1566 10.0964 13.4114 12.1149 12.9135L12.2487 12.8855C12.2036 12.8933 12.159 12.9026 12.1149 12.9135L8.93667 13.5778ZM25.1081 26.6011L23.2144 26.8977C20.9023 27.2592 18.3182 24.0395 17.4421 19.7032C16.567 15.3694 17.7317 11.5606 20.0433 11.1989L21.9375 10.9026C24.2494 10.5407 26.8334 13.7629 27.7088 18.0967C28.5848 22.433 27.4205 26.2395 25.1081 26.6011Z" fill="#F9C000"/>
</svg>
