<svg width="32" height="32" viewBox="0 0 32 32" fill="none" xmlns="http://www.w3.org/2000/svg">
<path fill-rule="evenodd" clip-rule="evenodd" d="M24.6672 22.6667C23.5653 22.6667 22.6667 21.7713 22.6667 20.6667C22.6667 19.5651 23.5653 18.6667 24.6672 18.6667C25.7721 18.6667 26.6667 19.5651 26.6667 20.6667C26.6667 21.7713 25.7721 22.6667 24.6672 22.6667Z" stroke="#F9C000" stroke-width="1.2"/>
<path fill-rule="evenodd" clip-rule="evenodd" d="M26.667 28C25.9325 28 25.3333 27.4031 25.3333 26.6667C25.3333 25.9323 25.9325 25.3333 26.667 25.3333C27.4036 25.3333 28 25.9323 28 26.6667C28 27.4031 27.4036 28 26.667 28Z" stroke="#F9C000" stroke-width="1.2"/>
<path fill-rule="evenodd" clip-rule="evenodd" d="M21.979 15.2084C23.1845 14.4903 24 13.1479 24 11.6111C24 9.32047 22.1952 7.45683 19.9752 7.45683C19.7909 7.45683 19.6065 7.46909 19.4262 7.49502C18.9129 5.45483 17.1119 4 15.0457 4C13.6758 4 12.4094 4.62285 11.5447 5.71756C11.0287 5.56973 10.493 5.49441 9.95315 5.49441C6.67085 5.49441 4 8.25028 4 11.6371C4 15.0238 6.67085 17.7783 9.95315 17.7783C10.9241 17.7783 11.8842 17.5292 12.7462 17.0546C13.5166 18.0687 14.697 18.6667 15.9501 18.6667C17.7192 18.6667 19.2803 17.483 19.8214 15.7616C20.9348 15.7193 21.4572 15.5116 21.979 15.2084Z" stroke="#F9C000" stroke-width="1.2"/>
</svg>
