<svg width="32" height="32" viewBox="0 0 32 32" fill="none" xmlns="http://www.w3.org/2000/svg">
<path d="M27.4 4H22.6C22.4409 4 22.2883 4.06321 22.1757 4.17574C22.0632 4.28826 22 4.44087 22 4.6V11.2H19.6V7C19.5999 6.89145 19.5703 6.78497 19.5145 6.69188C19.4586 6.5988 19.3786 6.52259 19.2829 6.47137C19.1872 6.42016 19.0794 6.39584 18.971 6.40103C18.8626 6.40621 18.7576 6.44069 18.6672 6.5008L12.4 10.6785V7C12.3999 6.89145 12.3703 6.78497 12.3145 6.69188C12.2586 6.5988 12.1786 6.52259 12.0829 6.47137C11.9872 6.42016 11.8794 6.39584 11.771 6.40103C11.6626 6.40621 11.5576 6.44069 11.4672 6.5008L4.26718 11.3008C4.185 11.3556 4.11761 11.4298 4.071 11.5169C4.02439 11.604 4 11.7012 4 11.8V27.4C4 27.5591 4.06321 27.7117 4.17574 27.8243C4.28826 27.9368 4.44087 28 4.6 28H27.4C27.5591 28 27.7117 27.9368 27.8243 27.8243C27.9368 27.7117 28 27.5591 28 27.4V4.6C28 4.44087 27.9368 4.28826 27.8243 4.17574C27.7117 4.06321 27.5591 4 27.4 4ZM26.8 26.8H5.2V12.1211L11.2 8.12146V11.8C11.2001 11.9085 11.2297 12.015 11.2855 12.1081C11.3414 12.2012 11.4214 12.2774 11.5171 12.3286C11.6128 12.3798 11.7206 12.4042 11.829 12.399C11.9374 12.3938 12.0424 12.3593 12.1328 12.2992L18.4 8.12146V11.8C18.4 11.9591 18.4632 12.1117 18.5757 12.2243C18.6883 12.3368 18.8409 12.4 19 12.4H22.6C22.7591 12.4 22.9117 12.3368 23.0243 12.2243C23.1368 12.1117 23.2 11.9591 23.2 11.8V5.2H26.8V26.8Z" fill="#F9C000"/>
<path d="M22.6 17.2H9.4C9.24087 17.2 9.08826 17.2632 8.97574 17.3757C8.86321 17.4883 8.8 17.6409 8.8 17.8C8.8 17.9591 8.86321 18.1117 8.97574 18.2243C9.08826 18.3368 9.24087 18.4 9.4 18.4H22.6C22.7591 18.4 22.9117 18.3368 23.0243 18.2243C23.1368 18.1117 23.2 17.9591 23.2 17.8C23.2 17.6409 23.1368 17.4883 23.0243 17.3757C22.9117 17.2632 22.7591 17.2 22.6 17.2Z" fill="#F9C000"/>
<path d="M22.6 20.8H9.4C9.24087 20.8 9.08826 20.8632 8.97574 20.9757C8.86321 21.0883 8.8 21.2409 8.8 21.4C8.8 21.5591 8.86321 21.7117 8.97574 21.8243C9.08826 21.9368 9.24087 22 9.4 22H22.6C22.7591 22 22.9117 21.9368 23.0243 21.8243C23.1368 21.7117 23.2 21.5591 23.2 21.4C23.2 21.2409 23.1368 21.0883 23.0243 20.9757C22.9117 20.8632 22.7591 20.8 22.6 20.8Z" fill="#F9C000"/>
<path d="M27.4 4H22.6C22.4409 4 22.2883 4.06321 22.1757 4.17574C22.0632 4.28826 22 4.44087 22 4.6V11.2H19.6V7C19.5999 6.89145 19.5703 6.78497 19.5145 6.69188C19.4586 6.5988 19.3786 6.52259 19.2829 6.47137C19.1872 6.42016 19.0794 6.39584 18.971 6.40103C18.8626 6.40621 18.7576 6.44069 18.6672 6.5008L12.4 10.6785V7C12.3999 6.89145 12.3703 6.78497 12.3145 6.69188C12.2586 6.5988 12.1786 6.52259 12.0829 6.47137C11.9872 6.42016 11.8794 6.39584 11.771 6.40103C11.6626 6.40621 11.5576 6.44069 11.4672 6.5008L4.26718 11.3008C4.185 11.3556 4.11761 11.4298 4.071 11.5169C4.02439 11.604 4 11.7012 4 11.8V27.4C4 27.5591 4.06321 27.7117 4.17574 27.8243C4.28826 27.9368 4.44087 28 4.6 28H27.4C27.5591 28 27.7117 27.9368 27.8243 27.8243C27.9368 27.7117 28 27.5591 28 27.4V4.6C28 4.44087 27.9368 4.28826 27.8243 4.17574C27.7117 4.06321 27.5591 4 27.4 4ZM26.8 26.8H5.2V12.1211L11.2 8.12146V11.8C11.2001 11.9085 11.2297 12.015 11.2855 12.1081C11.3414 12.2012 11.4214 12.2774 11.5171 12.3286C11.6128 12.3798 11.7206 12.4042 11.829 12.399C11.9374 12.3938 12.0424 12.3593 12.1328 12.2992L18.4 8.12146V11.8C18.4 11.9591 18.4632 12.1117 18.5757 12.2243C18.6883 12.3368 18.8409 12.4 19 12.4H22.6C22.7591 12.4 22.9117 12.3368 23.0243 12.2243C23.1368 12.1117 23.2 11.9591 23.2 11.8V5.2H26.8V26.8Z" stroke="#F9C000" stroke-width="0.5"/>
<path d="M22.6 17.2H9.4C9.24087 17.2 9.08826 17.2632 8.97574 17.3757C8.86321 17.4883 8.8 17.6409 8.8 17.8C8.8 17.9591 8.86321 18.1117 8.97574 18.2243C9.08826 18.3368 9.24087 18.4 9.4 18.4H22.6C22.7591 18.4 22.9117 18.3368 23.0243 18.2243C23.1368 18.1117 23.2 17.9591 23.2 17.8C23.2 17.6409 23.1368 17.4883 23.0243 17.3757C22.9117 17.2632 22.7591 17.2 22.6 17.2Z" stroke="#F9C000" stroke-width="0.5"/>
<path d="M22.6 20.8H9.4C9.24087 20.8 9.08826 20.8632 8.97574 20.9757C8.86321 21.0883 8.8 21.2409 8.8 21.4C8.8 21.5591 8.86321 21.7117 8.97574 21.8243C9.08826 21.9368 9.24087 22 9.4 22H22.6C22.7591 22 22.9117 21.9368 23.0243 21.8243C23.1368 21.7117 23.2 21.5591 23.2 21.4C23.2 21.2409 23.1368 21.0883 23.0243 20.9757C22.9117 20.8632 22.7591 20.8 22.6 20.8Z" stroke="#F9C000" stroke-width="0.5"/>
</svg>
