<svg width="32" height="32" viewBox="0 0 32 32" fill="none" xmlns="http://www.w3.org/2000/svg">
<path fill-rule="evenodd" clip-rule="evenodd" d="M27.4306 8.38071H13.5646C12.8941 9.55779 11.6408 10.2854 10.2885 10.2854C8.87767 10.2854 7.64655 9.51936 6.98819 8.38033H4.57134C3.51997 8.38033 2.66667 7.52704 2.66667 6.47566C2.66667 5.42428 3.51997 4.57098 4.57134 4.57098H6.98862C7.64709 3.43237 8.87798 2.66669 10.2885 2.66669C11.6408 2.66669 12.8941 3.39427 13.5646 4.57136H27.4306C28.482 4.57136 29.3353 5.42465 29.3353 6.47603C29.3353 7.52741 28.482 8.38071 27.4306 8.38071ZM18.4374 14.0941H4.57134C3.51997 14.0941 2.66667 14.9474 2.66667 15.9988C2.66667 17.0502 3.51997 17.9035 4.57134 17.9035H18.4374C19.1078 19.0806 20.3611 19.8082 21.7134 19.8082C23.1237 19.8082 24.3544 19.0427 25.013 17.9044H27.4276C28.4789 17.9044 29.3322 17.0511 29.3322 15.9997C29.3322 14.9484 28.4789 14.0951 27.4276 14.0951H25.0141C24.3558 12.9557 23.1245 12.1895 21.7134 12.1895C20.3611 12.1895 19.1078 12.9171 18.4374 14.0941ZM27.4306 23.6176H13.5646C12.8941 22.4405 11.6408 21.7129 10.2885 21.7129C8.87744 21.7129 7.64616 22.4792 6.98787 23.6185H4.57134C3.51997 23.6185 2.66667 24.4718 2.66667 25.5232C2.66667 26.5746 3.51997 27.4279 4.57134 27.4279H6.98894C7.64749 28.5662 8.87821 29.3316 10.2885 29.3316C11.6408 29.3316 12.8941 28.604 13.5646 27.4269H27.4306C28.482 27.4269 29.3353 26.5736 29.3353 25.5223C29.3353 24.4709 28.482 23.6176 27.4306 23.6176Z" fill="#F9C000"/>
</svg>
