<svg width="32" height="32" viewBox="0 0 32 32" fill="none" xmlns="http://www.w3.org/2000/svg">
<path fill-rule="evenodd" clip-rule="evenodd" d="M4.56864 11.4257V24.1065C4.56864 25.8913 5.84782 27.3382 7.42578 27.3382H24.6351C26.2131 27.3382 27.4923 25.8913 27.4923 24.1065V11.3749C24.3126 11.3749 7.65654 11.4257 4.56864 11.4257ZM8.85705 3.66644C8.85705 3.11416 9.30476 2.66644 9.85705 2.66644H11.984C12.5363 2.66644 12.984 3.11416 12.984 3.66644V4.69712H8.85705V3.66644ZM19.0158 4.71942H12.984V5.76768C12.984 6.31997 12.5363 6.76768 11.984 6.76768H9.85705C9.30476 6.76768 8.85705 6.31997 8.85705 5.76768V4.71942H7.42857C4.79864 4.71942 2.66666 6.83868 2.66666 9.45293V24.6002C2.66666 27.2144 4.79864 29.3337 7.42857 29.3337H24.5714C27.2014 29.3337 29.3333 27.2144 29.3333 24.6002V9.45293C29.3333 6.83868 27.2014 4.71942 24.5714 4.71942H23.1428V5.76768C23.1428 6.31997 22.6951 6.76768 22.1428 6.76768H20.0158C19.4635 6.76768 19.0158 6.31997 19.0158 5.76768V4.71942ZM20.0158 2.66791C19.4635 2.66791 19.0158 3.11562 19.0158 3.66791V4.71909H23.1428V3.66791C23.1428 3.11562 22.6951 2.66791 22.1428 2.66791H20.0158Z" fill="#F9C000"/>
</svg>
