<svg width="32" height="32" viewBox="0 0 32 32" fill="none" xmlns="http://www.w3.org/2000/svg">
<path fill-rule="evenodd" clip-rule="evenodd" d="M5.5641 4H26.4359C28.7725 4 30.6667 6.06638 30.6667 8.61538V23.3846C30.6667 25.9336 28.7725 28 26.4359 28H5.5641C3.22751 28 1.33333 25.9336 1.33333 23.3846V8.61538C1.33333 6.06638 3.22751 4 5.5641 4ZM3.16667 13.2797V23.0533C3.16667 24.7658 4.28595 26.1541 5.66667 26.1541H26.3333C27.714 26.1541 28.8333 24.7658 28.8333 23.0533V13.231C26.0511 13.231 5.86859 13.2797 3.16667 13.2797ZM3.16667 9.49711V8.50435C3.16667 7.03651 4.28595 5.84658 5.66667 5.84658H26.3333C27.714 5.84658 28.8333 7.03651 28.8333 8.50435V9.53889C26.0511 9.53889 5.86859 9.49711 3.16667 9.49711Z" fill="#F9C000"/>
</svg>
