<svg width="32" height="32" viewBox="0 0 32 32" fill="none" xmlns="http://www.w3.org/2000/svg">
<path fill-rule="evenodd" clip-rule="evenodd" d="M1.45465 3.66669C1.45465 3.1144 1.90237 2.66669 2.45465 2.66669H8.38875C8.94103 2.66669 9.38875 3.1144 9.38875 3.66669V8.93952C9.38875 9.4918 8.94103 9.93952 8.38875 9.93952H2.45465C1.90237 9.93952 1.45465 9.4918 1.45465 8.93952V3.66669ZM12.0347 3.66669C12.0347 3.1144 12.4824 2.66669 13.0347 2.66669H18.9688C19.5211 2.66669 19.9688 3.1144 19.9688 3.66669V8.93952C19.9688 9.4918 19.5211 9.93952 18.9688 9.93952H13.0347C12.4824 9.93952 12.0347 9.4918 12.0347 8.93952V3.66669ZM23.6128 2.66669C23.0605 2.66669 22.6128 3.1144 22.6128 3.66669V8.93952C22.6128 9.4918 23.0605 9.93952 23.6128 9.93952H29.5469C30.0992 9.93952 30.5469 9.4918 30.5469 8.93952V3.66669C30.5469 3.1144 30.0992 2.66669 29.5469 2.66669H23.6128ZM1.45454 13.3635C1.45454 12.8112 1.90226 12.3635 2.45454 12.3635H8.38864C8.94092 12.3635 9.38864 12.8112 9.38864 13.3635V18.6363C9.38864 19.1886 8.94092 19.6363 8.38864 19.6363H2.45454C1.90226 19.6363 1.45454 19.1886 1.45454 18.6363V13.3635ZM13.0347 12.3633C12.4824 12.3633 12.0347 12.811 12.0347 13.3633V18.6361C12.0347 19.1884 12.4824 19.6361 13.0347 19.6361H18.9688C19.5211 19.6361 19.9688 19.1884 19.9688 18.6361V13.3633C19.9688 12.811 19.5211 12.3633 18.9688 12.3633H13.0347ZM22.6128 13.3633C22.6128 12.811 23.0605 12.3633 23.6128 12.3633H29.5469C30.0992 12.3633 30.5469 12.811 30.5469 13.3633V18.6361C30.5469 19.1884 30.0992 19.6361 29.5469 19.6361H23.6128C23.0605 19.6361 22.6128 19.1884 22.6128 18.6361V13.3633ZM2.45454 22.0605C1.90226 22.0605 1.45454 22.5082 1.45454 23.0605V28.3333C1.45454 28.8856 1.90226 29.3333 2.45454 29.3333H8.38864C8.94092 29.3333 9.38864 28.8856 9.38864 28.3333V23.0605C9.38864 22.5082 8.94092 22.0605 8.38864 22.0605H2.45454ZM12.0347 23.0606C12.0347 22.5083 12.4824 22.0606 13.0347 22.0606H18.9688C19.5211 22.0606 19.9688 22.5083 19.9688 23.0606V28.3334C19.9688 28.8857 19.5211 29.3334 18.9688 29.3334H13.0347C12.4824 29.3334 12.0347 28.8857 12.0347 28.3334V23.0606ZM23.6128 22.0606C23.0605 22.0606 22.6128 22.5083 22.6128 23.0606V28.3334C22.6128 28.8857 23.0605 29.3334 23.6128 29.3334H29.5469C30.0992 29.3334 30.5469 28.8857 30.5469 28.3334V23.0606C30.5469 22.5083 30.0992 22.0606 29.5469 22.0606H23.6128Z" fill="#F9C000"/>
</svg>
