<svg width="32" height="32" viewBox="0 0 32 32" fill="none" xmlns="http://www.w3.org/2000/svg">
<path fill-rule="evenodd" clip-rule="evenodd" d="M15.9913 25.0739C11.8751 25.0709 8.27715 22.2963 7.22693 18.3187C6.1752 14.3366 7.93413 10.1475 11.5109 8.11188C15.0877 6.07776 19.5877 6.70643 22.4724 9.64125C25.3586 12.5776 25.9026 17.0871 23.8022 20.6279C23.5907 20.9876 23.5378 21.4168 23.6511 21.8172L24.4097 24.3894L21.8136 23.6489C21.4132 23.5325 20.9825 23.5884 20.6244 23.8C19.2221 24.6342 17.6203 25.0755 15.9898 25.0739H15.9913ZM25.8043 27.606C26.3147 27.7519 26.863 27.6118 27.2392 27.2355C27.614 26.8621 27.7555 26.3136 27.6111 25.8031C27.4653 25.2925 26.3468 21.389 26.3482 21.3759C28.9994 16.2675 27.5294 9.98784 22.8877 6.58762C18.2459 3.18739 11.8148 3.68043 7.75049 7.7502C3.68183 11.82 3.18601 18.2528 6.58823 22.8944C9.98899 27.536 16.267 29.0064 21.3754 26.3515L25.8086 27.6089H25.8043V27.606Z" fill="#F9C000"/>
</svg>
