<svg width="32" height="32" viewBox="0 0 32 32" fill="none" xmlns="http://www.w3.org/2000/svg">
<path fill-rule="evenodd" clip-rule="evenodd" d="M27.1231 16C27.1231 22.1431 22.1431 27.1231 16 27.1231C9.85694 27.1231 4.87698 22.1431 4.87698 16C4.87698 9.85693 9.85694 4.87697 16 4.87697C22.1431 4.87697 27.1231 9.85693 27.1231 16ZM2.66669 16C2.66669 23.3638 8.63622 29.3334 16 29.3334C23.3638 29.3334 29.3334 23.3638 29.3334 16C29.3334 8.63622 23.3638 2.66669 16 2.66669C8.63622 2.66669 2.66669 8.63622 2.66669 16ZM16 17.3337H20C20.736 17.3337 21.3334 16.7363 21.3334 16.0003C21.3334 15.2643 20.736 14.667 20 14.667H17.3334V9.32033C17.3334 8.587 16.736 7.987 16 7.987C15.264 7.987 14.6667 8.587 14.6667 9.32033V16.0137C14.6734 16.7443 15.2667 17.3337 16 17.3337Z" fill="#F9C000"/>
</svg>
