<svg width="32" height="32" viewBox="0 0 32 32" fill="none" xmlns="http://www.w3.org/2000/svg">
<path fill-rule="evenodd" clip-rule="evenodd" d="M7.93395 4.58577C7.15288 3.80474 5.88651 3.80474 5.10543 4.58577L4.58699 5.10418C3.80592 5.8852 3.80592 7.1515 4.58699 7.93252L12.6554 16.0004L4.5858 24.0694C3.80473 24.8505 3.80473 26.1167 4.5858 26.8978L5.10425 27.4162C5.88532 28.1972 7.15169 28.1972 7.93276 27.4162L16.0023 19.3471L24.0715 27.4158C24.8526 28.1969 26.119 28.1969 26.9001 27.4158L27.4185 26.8974C28.1996 26.1164 28.1996 24.8501 27.4185 24.0691L19.3493 16.0004L27.4173 7.93285C28.1984 7.15183 28.1984 5.88554 27.4173 5.10451L26.8989 4.5861C26.1178 3.80508 24.8514 3.80508 24.0704 4.5861L16.0023 12.6536L7.93395 4.58577Z" fill="#F9C000"/>
</svg>
