<svg width="32" height="32" viewBox="0 0 32 32" fill="none" xmlns="http://www.w3.org/2000/svg">
<path d="M28.4314 4.26106H25.1726V2.88331C25.1726 2.71763 25.0383 2.58331 24.8726 2.58331H23.6977C23.532 2.58331 23.3977 2.71763 23.3977 2.88331V4.24742H9.18424V2.88331C9.18424 2.71763 9.04992 2.58331 8.88424 2.58331H7.69482C7.52913 2.58331 7.39482 2.71763 7.39482 2.88331V4.24742H3.55412C3.05949 4.24742 2.66669 4.61571 2.66669 5.07948V28.4179C2.66669 28.8817 3.05949 29.25 3.55412 29.25H28.4459C28.9406 29.25 29.3334 28.8817 29.3334 28.4179V5.09312C29.3188 4.62935 28.926 4.26106 28.4314 4.26106ZM7.39482 5.92517V6.73003C7.39482 6.89572 7.52913 7.03003 7.69482 7.03003H8.86969C9.03537 7.03003 9.16969 6.89572 9.16969 6.73003V5.92517H23.3977V6.73003C23.3977 6.89572 23.532 7.03003 23.6977 7.03003H24.8726C25.0383 7.03003 25.1726 6.89572 25.1726 6.73003V5.92517H27.5439V9.25339H4.44156V5.92517H7.39482ZM4.44156 27.5859V10.9175H27.5439V27.5859H4.44156Z" fill="#F9C000"/>
<path d="M22.874 21.8836C22.103 21.4335 21.2155 21.2153 20.0953 20.9288C19.688 20.8197 19.237 20.7106 18.7569 20.5742C19.6443 19.7012 20.1972 18.3099 20.1972 16.8367C20.1972 15.4591 19.9353 14.4088 19.4116 13.6449C18.7132 12.6355 17.6076 12.1309 16.0946 12.1309C14.567 12.1309 11.992 12.7447 11.992 16.8367C11.992 18.5418 12.5739 19.8649 13.6651 20.6833C13.1559 20.8197 12.6176 20.9288 12.1084 21.0379C11.1919 21.2289 10.319 21.4062 9.69343 21.72C8.12223 22.5247 7.86037 23.8478 7.94766 24.5026C8.00585 24.9254 8.3841 25.2255 8.83509 25.2255C8.87873 25.2255 8.90783 25.2255 8.95147 25.2255C9.43156 25.1709 9.78072 24.7481 9.72252 24.298C9.72252 24.298 9.66433 23.6432 10.5518 23.1931C10.9446 22.9885 11.7011 22.8385 12.5012 22.6748C13.0977 22.552 13.7232 22.4156 14.3343 22.2383C14.9016 22.0746 15.3381 21.6517 15.4836 21.1198C15.629 20.5742 15.4545 19.974 15.0326 19.5648C14.9889 19.5239 14.9453 19.483 14.9016 19.4557C13.9851 18.8691 13.7814 17.7097 13.7814 16.8367C13.7814 14.1496 15.0326 13.795 16.1091 13.795C17.2875 13.795 17.7094 14.2315 17.9422 14.5452C18.2768 15.0226 18.4368 15.8001 18.4368 16.8367C18.4368 17.9416 18.0295 18.9919 17.3894 19.5239C17.2875 19.6057 17.2148 19.7148 17.1566 19.8376C16.9238 20.3832 16.9093 20.9425 17.1421 21.3926C17.3166 21.7472 17.6221 22.0064 17.9858 22.1019C18.5969 22.2792 19.1497 22.4156 19.6589 22.552C20.6772 22.8112 21.4192 23.0021 21.972 23.3159C22.583 23.6705 22.7722 24.4207 22.7722 24.448C22.874 24.8981 23.3395 25.1846 23.8196 25.0891C24.2997 24.9936 24.6052 24.5571 24.5179 24.107C24.4597 23.9433 24.1397 22.6066 22.874 21.8836Z" fill="#F9C000"/>
</svg>
