<svg width="32" height="32" viewBox="0 0 32 32" fill="none" xmlns="http://www.w3.org/2000/svg">
<path fill-rule="evenodd" clip-rule="evenodd" d="M11.5419 2.66669C6.38455 2.66669 6.38455 10.4935 11.5419 10.4935C16.6993 10.4935 16.6993 2.66669 11.5419 2.66669ZM11.5403 4.68376C14.0393 4.68376 14.0393 8.4762 11.5403 8.4762C9.04134 8.4762 9.04134 4.68376 11.5403 4.68376ZM25.3772 6.37318C25.6398 5.38634 24.9638 4.81712 24.0617 4.89308C23.6039 4.93163 23.0284 5.10728 22.3439 5.39306C21.4187 5.77929 20.3178 6.52101 19.4697 7.09245L19.4697 7.09247L19.4696 7.09249C19.3836 7.15043 19.3003 7.20661 19.2199 7.2605C18.8767 7.18829 18.7214 7.1452 18.6032 7.11242C18.4209 7.06183 18.3271 7.03578 17.7674 6.96515C17.2574 6.90078 16.5933 7.15584 16.4328 7.72087C16.3672 8.01258 16.3931 8.81104 17.0802 8.97087C17.5358 9.0449 17.9108 9.14348 18.455 9.38693L18.979 9.59541L19.3254 9.34226C20.0752 8.79423 21.8158 7.58735 22.8493 7.15591C23.0272 7.08164 23.1931 7.01781 23.3436 6.96515C23.3012 7.13391 23.0626 8.91832 22.9807 9.9169L22.8667 10.8935L23.4053 11.1869C23.8018 11.4029 24.1095 11.7498 24.3633 12.0357C24.427 12.1076 24.4874 12.1756 24.5448 12.2367C24.7452 12.4498 24.8404 12.623 25.022 12.9536C25.0875 13.0728 25.1642 13.2125 25.2611 13.3819C25.5592 13.9027 25.7501 14.1918 26.0433 14.5162L26.1425 14.6263C26.6388 15.1776 26.7397 15.2896 27.9288 15.9763C27.9288 15.9763 28.29 16.2192 28.4482 16.3148C28.531 16.5185 28.6829 17.1672 28.6763 17.701C28.6671 18.4376 28.5283 18.931 28.4086 19.356C28.3867 19.4341 28.3654 19.5098 28.3456 19.5844C28.2394 19.6026 28.1235 19.6204 27.9996 19.6394L27.9996 19.6394C27.5926 19.7017 27.0983 19.7775 26.568 19.9296C26.2513 20.0204 25.6917 20.2756 24.9916 20.8457C24.6002 21.1645 23.9718 21.8774 23.3436 22.685C23.1099 22.9854 22.9173 23.317 22.7022 23.6874L22.7022 23.6875L22.7021 23.6877L22.702 23.6878C22.5713 23.913 22.4322 24.1524 22.2705 24.4079C22.1778 24.5544 21.9495 24.995 21.6877 25.5005L21.6876 25.5007C21.3295 26.1919 20.9086 27.0045 20.6854 27.3522C20.5844 27.3676 20.4577 27.3759 20.3263 27.3749C20.2239 27.3741 20.1257 27.3676 20.0428 27.3571C19.9525 27.1787 19.7875 26.8419 19.5357 26.3161C19.4227 26.0801 19.3292 25.886 19.2497 25.7232C19.4274 25.653 19.5818 25.5761 19.7088 25.4924C20.0401 25.2743 20.2557 24.7027 20.1013 24.2348C19.9468 23.7668 19.1474 23.5121 18.816 23.7302C17.6023 24.5294 12.9395 24.5606 11.1687 23.5214C10.4776 23.1224 10.0799 23.5592 9.93964 24.036C9.79937 24.5128 10.0119 25.1121 10.3495 25.3102C10.4063 25.3435 10.4658 25.3759 10.5276 25.4074C10.3863 25.6873 10.196 26.0871 10.0658 26.3607L10.0658 26.3607L10.0654 26.3615L10.0653 26.3616C9.99521 26.5089 9.94258 26.6195 9.92446 26.6549C9.79209 26.9133 9.66604 27.1291 9.53954 27.31C9.49078 27.3149 9.42574 27.2848 9.36444 27.2565C9.31751 27.2348 9.27278 27.2141 9.2392 27.2109L9.19937 27.1136C8.86807 26.3039 7.91212 23.9674 6.92268 22.0018C4.16477 16.9386 4.87784 12.8538 7.12291 11.355C7.56163 11.0768 7.84604 10.2962 7.6493 9.82562C7.39189 9.35601 6.67337 9.41395 6.37061 9.54463C5.29014 10.2392 4.45701 11.0772 3.87326 12.0421C3.61845 11.8218 3.44025 11.543 3.33757 11.1386C3.19377 10.4937 3.31542 9.5203 3.96224 9.38126C4.8118 9.2442 5.07706 9.08098 5.07706 8.39575C5.07706 7.71052 4.63952 7.52019 3.96224 7.52019C2.40585 7.51837 0.933069 9.20659 1.43237 11.4379C1.73453 12.6295 2.35562 13.7008 3.00156 14.314C2.52819 16.7193 3.17385 19.6373 4.95754 22.9112C5.55584 24.1005 6.29603 25.8065 6.84606 27.0743L6.84608 27.0743C7.25235 28.0107 7.55486 28.708 7.61983 28.7813L7.72282 28.8814C8.32943 29.3888 10.3701 29.541 10.9707 28.9599L11.0434 28.8814C11.2687 28.6092 11.4387 28.1699 11.6198 27.7022C11.6652 27.5849 11.7113 27.4658 11.7592 27.3471C11.7933 27.2623 11.8655 27.059 11.9478 26.827L11.9479 26.8268L11.9479 26.8267L11.948 26.8265C12.0569 26.5196 12.1836 26.1625 12.2639 25.9629C13.8766 26.2872 15.9136 26.3316 17.5075 26.1256C17.6306 26.4417 17.7674 26.8029 17.7674 26.8029C17.8085 26.9308 17.8468 27.0507 17.8827 27.1632L17.8831 27.1645L17.8837 27.1663C18.166 28.0503 18.3011 28.4734 18.4529 28.6765C19.0528 29.4031 21.5455 29.5639 22.2101 28.9493C22.2101 28.9493 24.0504 25.4187 24.2459 25.1099C24.9466 24.0478 25.6306 23.0371 26.025 22.6811C26.8404 21.9067 28.137 21.6498 29.3426 21.4109C29.5571 21.3684 29.7687 21.3264 29.9742 21.2823C30.3739 21.2271 30.6656 17.4269 30.6656 15.8269C30.6656 15.8269 30.5533 15.238 30.2442 15.0325C29.9351 14.827 29.6474 14.6541 29.1259 14.353L28.9376 14.2444C28.0204 13.7146 27.827 13.462 27.6127 13.1821L27.6127 13.182C27.5705 13.1269 27.5275 13.0707 27.4779 13.0111C27.1666 12.6356 26.8367 12.1279 26.5294 11.6549L26.5294 11.6548C26.3324 11.3517 26.1448 11.0629 25.9772 10.8323C25.8796 10.7285 25.7695 10.5905 25.6511 10.4422C25.4044 10.1333 25.1219 9.77941 24.8416 9.59541C24.9132 8.99087 25.2968 6.67542 25.3772 6.37318Z" fill="#F9C000"/>
</svg>
