<svg width="32" height="32" viewBox="0 0 32 32" fill="none" xmlns="http://www.w3.org/2000/svg">
<path d="M20.0768 2.66669H8.83379C7.90561 2.66779 7.01577 3.03703 6.35953 3.69339C5.70328 4.34975 5.33422 5.23961 5.33333 6.16774V25.8323C5.33422 26.7604 5.70328 27.6503 6.35953 28.3067C7.01577 28.963 7.90561 29.3323 8.83379 29.3334H23.1662C24.0944 29.3323 24.9842 28.963 25.6405 28.3067C26.2967 27.6503 26.6658 26.7604 26.6667 25.8323V10.0325L20.0768 2.66669ZM20.5375 5.68375L23.9674 9.51757H20.5375V5.68375ZM23.1662 27.665H8.83379C8.34786 27.6645 7.88199 27.4712 7.53839 27.1276C7.19479 26.784 7.00151 26.3182 7.00095 25.8323V6.16774C7.00151 5.68184 7.19479 5.216 7.53839 4.87242C7.88199 4.52883 8.34786 4.33557 8.83379 4.33501H18.8691V11.1851H24.999V25.8323C24.9985 26.3182 24.8052 26.784 24.4616 27.1276C24.118 27.4712 23.6521 27.6645 23.1662 27.665Z" fill="#F9C000"/>
<path d="M21.0734 13.777H10.9264V15.4454H21.0734V13.777Z" fill="#F9C000"/>
<path d="M21.0734 17.6208H10.9264V19.2891H21.0734V17.6208Z" fill="#F9C000"/>
<path d="M21.0734 21.4665H10.9264V23.134H21.0734V21.4665Z" fill="#F9C000"/>
</svg>
