<svg width="32" height="32" viewBox="0 0 32 32" fill="none" xmlns="http://www.w3.org/2000/svg">
<path fill-rule="evenodd" clip-rule="evenodd" d="M16.0169 2.66669C14.7545 2.66669 13.7312 3.70539 13.7312 4.9867V13.5626L13.3484 12.9798C12.6482 11.9137 11.229 11.6256 10.1787 12.3363C9.12833 13.0471 8.8445 14.4875 9.54474 15.5536L14.0738 22.4492C14.1487 22.5716 14.2345 22.6864 14.3299 22.7922C14.6574 23.1589 15.0752 23.3919 15.5175 23.4913C15.6783 23.5277 15.8454 23.5468 16.0169 23.5468C16.0553 23.5468 16.0935 23.5459 16.1314 23.544C16.8176 23.5099 17.4911 23.1665 17.9198 22.5137L22.4913 15.5536C23.1915 14.4875 22.9077 13.0471 21.8573 12.3363C20.807 11.6256 19.3878 11.9137 18.6876 12.9798L18.3026 13.566V4.9867C18.3026 3.70539 17.2793 2.66669 16.0169 2.66669ZM0 21.213C0 20.5723 0.511675 20.053 1.14286 20.053C1.77404 20.053 2.28571 20.5723 2.28571 21.213V25.389C2.28571 26.2571 3.11323 27.013 4.19048 27.013H27.8095C28.8868 27.013 29.7143 26.2571 29.7143 25.389V21.213C29.7143 20.5723 30.226 20.053 30.8571 20.053C31.4883 20.053 32 20.5723 32 21.213V25.389C32 27.5961 30.0986 29.333 27.8095 29.333H4.19048C1.90142 29.333 0 27.5961 0 25.389V21.213Z" fill="#F9C000"/>
</svg>
