<svg width="32" height="32" viewBox="0 0 32 32" fill="none" xmlns="http://www.w3.org/2000/svg">
<path fill-rule="evenodd" clip-rule="evenodd" d="M28.9955 24.475C28.9955 24.7876 28.7299 25.0444 28.4072 25.0444H3.59202C3.2702 25.0444 3.00368 24.7876 3.00368 24.475V8.06983L15.6095 18.5268C15.6162 18.5318 15.6279 18.5383 15.6346 18.5441C15.6405 18.5506 15.6539 18.5564 15.6589 18.5629C15.6782 18.5744 15.6908 18.5867 15.7084 18.5925C15.7151 18.5982 15.7218 18.5982 15.7276 18.604C15.7519 18.6163 15.7771 18.6286 15.8014 18.6409C15.8081 18.6409 15.814 18.6466 15.8198 18.6466C15.8391 18.6524 15.8575 18.6647 15.8827 18.6704C15.8886 18.6704 15.9003 18.677 15.907 18.677C15.9254 18.6827 15.9439 18.6885 15.9623 18.6885C15.969 18.6885 15.9816 18.6942 15.9875 18.6942C16.0059 18.7008 16.031 18.7008 16.0495 18.7065H16.0679C16.0922 18.7065 16.1232 18.7123 16.1484 18.7123C16.1727 18.7123 16.2037 18.7123 16.2288 18.7065H16.2473C16.2657 18.7065 16.2908 18.7008 16.3093 18.6942C16.3151 18.6942 16.3277 18.6885 16.3344 18.6885C16.3529 18.6827 16.3713 18.677 16.3889 18.677C16.3956 18.677 16.4082 18.6704 16.414 18.6704C16.4333 18.6647 16.4518 18.6589 16.4761 18.6466C16.4819 18.6466 16.4886 18.6409 16.4945 18.6409C16.5196 18.6286 16.5448 18.6163 16.5691 18.604C16.5758 18.5982 16.5817 18.5982 16.5875 18.5925C16.606 18.5802 16.6185 18.5744 16.637 18.5629C16.6437 18.5564 16.6554 18.5506 16.6621 18.5441C16.668 18.5383 16.6806 18.5318 16.6864 18.5268L28.9955 8.3283V24.475ZM28.0795 6.95372L16.1543 16.8462L4.22901 6.95372H28.0795ZM28.4071 5.33331H3.59198C2.34825 5.33331 1.33331 6.31715 1.33331 7.52417V24.4758C1.33331 25.6828 2.34825 26.6666 3.59198 26.6666H28.4071C29.6517 26.6666 30.6666 25.6828 30.6666 24.4758V7.52417C30.6666 6.31715 29.6517 5.33331 28.4071 5.33331Z" fill="#F9C000"/>
</svg>
