<svg width="32" height="32" viewBox="0 0 32 32" fill="none" xmlns="http://www.w3.org/2000/svg">
<path fill-rule="evenodd" clip-rule="evenodd" d="M25.6558 26C27.7754 26 29 24.7928 29 22.4016V9.58677C29 7.2072 27.7636 6 25.3025 6H6.3442C4.22464 6 3 7.19559 3 9.58677V22.4016C3 24.8044 4.23641 26 6.69746 26H25.6558ZM16.0237 17.3058C15.5527 17.3058 15.0935 17.0853 14.5989 16.5861L5.7085 7.93843C5.96755 7.83396 6.27371 7.77592 6.62697 7.77592H25.3734C25.7384 7.77592 26.0563 7.83396 26.3154 7.96164L17.4485 16.5861C16.9422 17.0853 16.483 17.3058 16.0237 17.3058ZM4.81353 22.599C4.80176 22.541 4.80176 22.4713 4.80176 22.4017V9.47075L11.5726 16.0175L4.81353 22.599ZM27.1979 22.5642L20.4741 16.0174L27.1979 9.50555V22.5642ZM25.3726 24.2239H6.6262C6.29649 24.2239 6.00211 24.1775 5.7666 24.073L12.8083 17.2129L13.5737 17.9558C14.3979 18.7567 15.1869 19.0934 16.0229 19.0934C16.8472 19.0934 17.6479 18.7567 18.4722 17.9558L19.2376 17.2129L26.2675 24.0614C26.0084 24.1775 25.7141 24.2239 25.3726 24.2239Z" fill="#F9C000"/>
</svg>
