<svg width="32" height="32" viewBox="0 0 32 32" fill="none" xmlns="http://www.w3.org/2000/svg">
<path d="M26.0534 9.09641H20.6782V8.19327C20.6782 6.61961 19.4976 5.33331 18.0534 5.33331H13.9089C12.4772 5.33331 11.2967 6.61961 11.2967 8.19327V9.09641H5.93407C4.86656 9.09641 4 10.0406 4 11.2037V24.5593C4 25.7224 4.86656 26.6666 5.93407 26.6666H26.0659C27.1334 26.6666 28 25.7224 28 24.5593V11.2037C27.9874 10.0406 27.1209 9.09641 26.0534 9.09641ZM12.4019 8.19327C12.4019 7.27644 13.0801 6.5375 13.9215 6.5375H18.0659C18.9074 6.5375 19.5856 7.27644 19.5856 8.19327V9.09641H12.4019V8.19327ZM26.8823 24.5456C26.8823 25.0382 26.5055 25.4488 26.0534 25.4488H5.93407C5.48195 25.4488 5.10518 25.0382 5.10518 24.5456V16.3079H26.8948L26.8823 24.5456ZM26.8823 15.1037H5.10518V11.2037C5.10518 10.7111 5.48195 10.3006 5.93407 10.3006H26.0659C26.5181 10.3006 26.8948 10.7111 26.8948 11.2037L26.8823 15.1037Z" fill="#F9C000"/>
<path d="M9.87764 21.6445C10.493 21.6445 10.9828 21.1108 10.9828 20.4403C10.9828 19.7698 10.493 19.2361 9.87764 19.2361C9.27482 19.2361 8.77246 19.7698 8.77246 20.4403C8.77246 21.0971 9.27482 21.6445 9.87764 21.6445Z" fill="#F9C000"/>
<path d="M22.474 21.6445C23.0844 21.6445 23.5792 21.1053 23.5792 20.4403C23.5792 19.7752 23.0844 19.2361 22.474 19.2361C21.8636 19.2361 21.3688 19.7752 21.3688 20.4403C21.3688 21.1053 21.8636 21.6445 22.474 21.6445Z" fill="#F9C000"/>
<path d="M26.0534 9.09641H20.6782V8.19327C20.6782 6.61961 19.4976 5.33331 18.0534 5.33331H13.9089C12.4772 5.33331 11.2967 6.61961 11.2967 8.19327V9.09641H5.93407C4.86656 9.09641 4 10.0406 4 11.2037V24.5593C4 25.7224 4.86656 26.6666 5.93407 26.6666H26.0659C27.1334 26.6666 28 25.7224 28 24.5593V11.2037C27.9874 10.0406 27.1209 9.09641 26.0534 9.09641ZM12.4019 8.19327C12.4019 7.27644 13.0801 6.5375 13.9215 6.5375H18.0659C18.9074 6.5375 19.5856 7.27644 19.5856 8.19327V9.09641H12.4019V8.19327ZM26.8823 24.5456C26.8823 25.0382 26.5055 25.4488 26.0534 25.4488H5.93407C5.48195 25.4488 5.10518 25.0382 5.10518 24.5456V16.3079H26.8948L26.8823 24.5456ZM26.8823 15.1037H5.10518V11.2037C5.10518 10.7111 5.48195 10.3006 5.93407 10.3006H26.0659C26.5181 10.3006 26.8948 10.7111 26.8948 11.2037L26.8823 15.1037Z" stroke="#F9C000" stroke-width="0.5"/>
<path d="M9.87764 21.6445C10.493 21.6445 10.9828 21.1108 10.9828 20.4403C10.9828 19.7698 10.493 19.2361 9.87764 19.2361C9.27482 19.2361 8.77246 19.7698 8.77246 20.4403C8.77246 21.0971 9.27482 21.6445 9.87764 21.6445Z" stroke="#F9C000" stroke-width="0.5"/>
<path d="M22.474 21.6445C23.0844 21.6445 23.5792 21.1053 23.5792 20.4403C23.5792 19.7752 23.0844 19.2361 22.474 19.2361C21.8636 19.2361 21.3688 19.7752 21.3688 20.4403C21.3688 21.1053 21.8636 21.6445 22.474 21.6445Z" stroke="#F9C000" stroke-width="0.5"/>
</svg>
