<svg width="32" height="32" viewBox="0 0 32 32" fill="none" xmlns="http://www.w3.org/2000/svg">
<path d="M13.9446 4.15853C14.2982 3.96874 14.7185 3.94831 15.0888 4.10291L26.114 8.70546C26.6104 8.91269 26.9337 9.39794 26.9337 9.93588V23.1682C26.9337 23.9046 26.3367 24.5015 25.6003 24.5015C24.864 24.5015 24.267 23.9046 24.267 23.1682V10.8241L16 7.373V23.907C16 24.2752 15.7015 24.5737 15.3333 24.5737C14.9651 24.5737 14.6667 24.2752 14.6667 23.907V6.81639L14.6468 6.80811L7.33333 10.7335V23.1682C7.33333 23.9046 6.73638 24.5015 6 24.5015C5.26362 24.5015 4.66667 23.9046 4.66667 23.1682V9.93588C4.66667 9.44473 4.93669 8.99335 5.36944 8.76107L13.9446 4.15853Z" fill="#F9C000"/>
<path d="M4 27.3298C4 26.9616 4.29848 26.6631 4.66667 26.6631H27.3296C27.6977 26.6631 27.9962 26.9616 27.9962 27.3298C27.9962 27.698 27.6977 27.9965 27.3296 27.9965H4.66667C4.29848 27.9965 4 27.698 4 27.3298Z" fill="#F9C000"/>
</svg>
