<svg width="32" height="32" viewBox="0 0 32 32" fill="none" xmlns="http://www.w3.org/2000/svg">
<path d="M2.66669 21.3334C2.66669 19.8606 3.86059 18.6667 5.33335 18.6667H16H26.6667C28.1394 18.6667 29.3334 19.8606 29.3334 21.3334C29.3334 22.8061 28.1394 24 26.6667 24H5.33336C3.8606 24 2.66669 22.8061 2.66669 21.3334Z" fill="#F9C000"/>
<path d="M2.66669 10.6667C2.66669 9.19391 3.86059 8 5.33335 8H16H26.6667C28.1394 8 29.3334 9.19391 29.3334 10.6667C29.3334 12.1394 28.1394 13.3333 26.6667 13.3333H5.33336C3.8606 13.3333 2.66669 12.1394 2.66669 10.6667Z" fill="#F9C000"/>
</svg>
