<svg width="32" height="32" viewBox="0 0 32 32" fill="none" xmlns="http://www.w3.org/2000/svg">
<g clip-path="url(#clip0_3031_6634)">
<path fill-rule="evenodd" clip-rule="evenodd" d="M17.3711 6.7022C26.0762 7.29538 31.5802 15.0627 31.8102 15.3925C32.0633 15.7544 32.0633 16.2439 31.8102 16.6068C31.5802 16.9366 26.0762 24.7039 17.3711 25.2971C17.0221 25.3209 16.6731 25.3334 16.3241 25.3334C10.8811 25.3334 5.48804 22.437 0.273002 16.7115C-0.0910007 16.3123 -0.0910007 15.687 0.273002 15.2877C5.82105 9.1952 11.5691 6.30813 17.3711 6.7022ZM2.39102 15.9991C7.29806 21.1334 12.2961 23.5663 17.2401 23.2272C23.6712 22.7885 28.2872 17.7662 29.7212 16.0002C28.2822 14.2351 23.6442 9.20039 17.2241 8.77002C12.2871 8.44336 7.29306 10.87 2.39102 15.9991ZM10 15.9985C10 12.567 12.691 9.77639 16 9.77639C19.3081 9.77639 22.0001 12.567 22.0001 15.9985C22.0001 19.43 19.3091 22.2207 16 22.2207C12.691 22.2207 10 19.43 10 15.9985ZM12 15.9985C12 18.2862 13.794 20.1466 16 20.1466C18.2051 20.1466 20.0001 18.2862 20.0001 15.9985C20.0001 13.7109 18.2061 11.8504 16 11.8504C13.794 11.8504 12 13.7109 12 15.9985Z" fill="#F9C000"/>
</g>
<defs>
<clipPath id="clip0_3031_6634">
<rect width="32" height="32" fill="white"/>
</clipPath>
</defs>
</svg>
