<svg width="32" height="32" viewBox="0 0 32 32" fill="none" xmlns="http://www.w3.org/2000/svg">
<g clip-path="url(#clip0_3031_6635)">
<path fill-rule="evenodd" clip-rule="evenodd" d="M25.1022 9.24714C29.2264 11.7415 31.659 15.1756 31.8102 15.3925C32.0633 15.7544 32.0633 16.2439 31.8102 16.6068C31.5802 16.9366 26.0762 24.7039 17.3711 25.2971C17.0221 25.3209 16.6731 25.3334 16.3241 25.3334C13.8659 25.3334 11.418 24.7426 8.99197 23.5673L7.66436 24.7474C7.25158 25.1143 6.61951 25.0771 6.25259 24.6644C5.88567 24.2516 5.92285 23.6195 6.33564 23.2526L7.1291 22.5473C4.81734 21.1349 2.52852 19.1878 0.273002 16.7115C-0.0910007 16.3123 -0.0910007 15.687 0.273002 15.2877C5.82105 9.1952 11.5691 6.30813 17.3711 6.7022C19.5285 6.8492 21.4892 7.43683 23.2218 8.24266L24.3356 7.25259C24.7484 6.88567 25.3805 6.92285 25.7474 7.33564C26.1143 7.74842 26.0771 8.38049 25.6644 8.74741L25.1022 9.24714ZM23.4707 10.6974C26.6027 12.439 28.8072 14.8791 29.7212 16.0002C28.2872 17.7662 23.6712 22.7885 17.2401 23.2272C15.0604 23.3767 12.8701 22.9874 10.6818 22.0653L23.4707 10.6974ZM21.5109 9.76344L8.7458 21.1102C6.61842 19.9075 4.49635 18.2019 2.39102 15.9991C7.29306 10.87 12.2871 8.44336 17.2241 8.77002C18.7618 8.8731 20.1972 9.2403 21.5109 9.76344Z" fill="#F9C000"/>
</g>
<defs>
<clipPath id="clip0_3031_6635">
<rect width="32" height="32" fill="white"/>
</clipPath>
</defs>
</svg>
