<svg width="32" height="32" viewBox="0 0 32 32" fill="none" xmlns="http://www.w3.org/2000/svg">
<path fill-rule="evenodd" clip-rule="evenodd" d="M28 24.1026V21.4026C28 21.0655 27.7267 20.7922 27.3896 20.7922C27.0524 20.7922 26.7791 21.0655 26.7791 21.4026V24.1026C26.7791 25.5784 25.5784 26.7791 24.1026 26.7791H21.4026C21.0655 26.7791 20.7922 27.0524 20.7922 27.3896C20.7922 27.7267 21.0655 28 21.4026 28H24.1026C26.2516 28 28 26.2516 28 24.1026ZM11.2078 27.3896C11.2078 27.0524 10.9345 26.7791 10.5974 26.7791H7.89737C6.42156 26.7791 5.22086 25.5784 5.22086 24.1026V21.4026C5.22086 21.0655 4.94755 20.7922 4.61043 20.7922C4.27331 20.7922 4 21.0655 4 21.4026V24.1026C4 26.2516 5.74837 28 7.89737 28H10.5974C10.9345 28 11.2078 27.7267 11.2078 27.3896ZM5.22086 10.5974V7.89737C5.22086 6.42154 6.42156 5.22086 7.89737 5.22086H10.5974C10.9345 5.22086 11.2078 4.94755 11.2078 4.61043C11.2078 4.27331 10.9345 4 10.5974 4H7.89737C5.74837 4 4 5.74835 4 7.89737V10.5974C4 10.9345 4.27331 11.2078 4.61043 11.2078C4.94755 11.2078 5.22086 10.9345 5.22086 10.5974ZM28 10.5974V7.89737C28 5.74835 26.2516 4 24.1026 4H21.4026C21.0655 4 20.7922 4.27331 20.7922 4.61043C20.7922 4.94755 21.0655 5.22086 21.4026 5.22086H24.1026C25.5784 5.22086 26.7791 6.42154 26.7791 7.89737V10.5974C26.7791 10.9345 27.0524 11.2078 27.3896 11.2078C27.7267 11.2078 28 10.9345 28 10.5974ZM20.1995 21.7281C20.4558 21.4922 20.4717 21.094 20.2349 20.8387C19.998 20.5834 19.5983 20.5676 19.3419 20.8034C18.4296 21.6427 17.2428 22.1049 16 22.1049C14.7572 22.1049 13.5704 21.6427 12.6581 20.8034C12.4017 20.5676 12.002 20.5834 11.7651 20.8387C11.5283 21.094 11.5442 21.4922 11.8005 21.7281C12.947 22.7828 14.4384 23.3636 16 23.3636C17.5616 23.3636 19.053 22.7828 20.1995 21.7281ZM17.2468 17.541V13.0475C17.2468 12.6985 16.9634 12.4156 16.6138 12.4156C16.2642 12.4156 15.9809 12.6985 15.9809 13.0475V17.541C15.9809 17.7346 15.8231 17.892 15.6292 17.892H15.1135C14.7639 17.892 14.4805 18.1749 14.4805 18.5239C14.4805 18.8729 14.7639 19.1558 15.1135 19.1558H15.6292C16.5211 19.1558 17.2468 18.4314 17.2468 17.541ZM21.6494 14.8179V13.0132C21.6494 12.6832 21.379 12.4156 21.0455 12.4156C20.7119 12.4156 20.4416 12.6832 20.4416 13.0132V14.8179C20.4416 15.148 20.7119 15.4156 21.0455 15.4156C21.379 15.4156 21.6494 15.148 21.6494 14.8179ZM11.1104 15.4156C10.7769 15.4156 10.5065 15.148 10.5065 14.8179V13.0132C10.5065 12.6832 10.7769 12.4156 11.1104 12.4156C11.4439 12.4156 11.7143 12.6832 11.7143 13.0132V14.8179C11.7143 15.148 11.4439 15.4156 11.1104 15.4156Z" fill="#F9C000" stroke="#F9C000"/>
</svg>
