<svg width="32" height="32" viewBox="0 0 32 32" fill="none" xmlns="http://www.w3.org/2000/svg">
<path fill-rule="evenodd" clip-rule="evenodd" d="M12.2105 17.2428L3.03318 5.42697C2.19936 4.34839 2.88022 2.66669 4.15073 2.66669H27.8493C29.1198 2.66669 29.8007 4.34839 28.9669 5.42697L19.7757 17.2178V27.664C19.7757 28.8947 18.7061 29.7017 17.7223 29.1637L13.0441 26.5954C12.5342 26.3165 12.2105 25.7345 12.2105 25.0965V17.2428ZM27.0792 4.69794L4.9184 4.7167L13.6126 15.8123C13.9242 16.1418 14.0959 16.5638 14.0959 17.0005V24.7111L17.9054 26.7464V17.0005C17.9054 16.5638 18.0771 16.1418 18.3887 15.8123L27.0792 4.69794Z" fill="#F9C000"/>
</svg>
