<svg width="32" height="32" viewBox="0 0 32 32" fill="none" xmlns="http://www.w3.org/2000/svg">
<path d="M27.8579 9.04723L27.8609 9.05321L27.8677 9.06006C28.0538 9.39021 28.0429 9.79599 27.8392 10.1156C27.6355 10.4353 27.2722 10.6168 26.8942 10.5879C26.5161 10.5589 26.1847 10.3242 26.0321 9.97731L26.024 9.96135C25.8386 9.5934 23.3858 4.72708 15.9914 4.72708C8.45735 4.72708 5.92318 9.29964 5.92318 9.34071C5.64138 9.83406 5.01276 10.0057 4.51912 9.72404C4.02548 9.44239 3.85376 8.81413 4.13557 8.32078L4.13915 8.3144C4.30763 8.01361 7.30262 2.66669 15.9845 2.66669C24.6768 2.66669 27.6956 8.72177 27.8579 9.04723Z" fill="#F9C000"/>
<path d="M15.6185 18.5135C16.0039 17.9466 16.6743 17.6428 17.355 17.7267C17.3558 17.7345 17.3569 17.7478 17.3585 17.7661C17.4071 18.3397 17.8775 23.888 23.5192 23.9079C23.5549 24.4569 23.3265 24.99 22.9043 25.3431C22.482 25.6961 21.9166 25.8266 21.3822 25.6945C18.7105 24.9497 16.5428 22.9961 15.5263 20.4168C15.1975 19.8153 15.2331 19.0805 15.6185 18.5135Z" fill="#F9C000"/>
<path d="M15.9854 6.08986C8.56096 6.08986 4.34191 12.2505 4.34191 16.3576C4.34191 22.7578 6.11583 25.0578 6.35555 25.2974C6.7527 25.6879 7.38986 25.6879 7.78701 25.2974C8.17941 24.8958 8.17941 24.2546 7.78701 23.853C7.78701 23.853 6.3624 21.8953 6.3624 16.3234C6.3624 13.6332 9.43079 8.10918 15.9511 8.10918C21.9852 8.10918 25.5399 12.449 25.5399 18.3769C25.6153 18.9413 25.4232 19.5086 25.0204 19.9112C24.6175 20.3139 24.0499 20.5058 23.4851 20.4305C22.8713 20.5018 22.25 20.3924 21.6975 20.1156C21.1777 19.6722 20.8389 19.0535 20.7455 18.3769C20.7455 14.9543 18.5743 13.4142 16.2114 13.4142C14.9666 13.405 13.7747 13.9162 12.9238 14.8243C11.9447 15.9468 11.4346 17.4025 11.4992 18.8903C11.4992 26.3188 19.2558 29.1081 19.7077 29.2706L19.7181 29.2744C20.2553 29.4634 20.844 29.1815 21.0332 28.6446C21.2223 28.1078 20.9402 27.5194 20.4031 27.3304C20.1222 27.2345 13.554 24.9003 13.554 18.8903C13.4954 17.9246 13.8063 16.9727 14.4238 16.2275C14.8877 15.7363 15.5356 15.4609 16.2114 15.4677C17.5812 15.4677 18.6908 16.2412 18.6908 18.3769C18.6908 19.5954 19.862 21.115 20.7455 21.7995C21.5474 22.3478 22.5194 22.5907 23.4851 22.484C25.7454 22.484 27.5946 21.156 27.5946 18.3769C27.6289 11.3469 23.1769 6.08986 15.9854 6.08986Z" fill="#F9C000"/>
<path d="M15.8446 11.4414C10.2532 11.4414 9.97263 16.4585 9.97263 18.4682C9.97263 18.4741 9.97174 18.4874 9.97039 18.5076C9.93995 18.9639 9.67207 22.9789 13.9264 27.5608C14.2857 27.9761 14.2751 28.6233 13.9024 29.0246C13.5297 29.426 12.9288 29.4374 12.5432 29.0505C7.67178 23.8039 7.98539 18.9366 8.01363 18.4983C8.01467 18.4822 8.01532 18.4721 8.01532 18.4682C8.01532 16.9996 8.08056 9.33335 15.8446 9.33335C23.9087 9.33335 24 17.6812 24 17.7655C24 18.3476 23.5618 18.8195 23.0213 18.8195C22.4809 18.8195 22.0427 18.3476 22.0427 17.7655C21.9923 16.6891 21.7157 15.6392 21.2337 14.6948C20.1494 12.6039 18.0664 11.3464 15.8446 11.4414Z" fill="#F9C000"/>
</svg>
