<svg width="32" height="32" viewBox="0 0 32 32" fill="none" xmlns="http://www.w3.org/2000/svg">
<path fill-rule="evenodd" clip-rule="evenodd" d="M18.0895 7.92308C17.7739 7.39507 17.5915 6.77066 17.5915 6.10156C17.5915 4.20453 19.0579 2.66669 20.8669 2.66669C22.6758 2.66669 24.1423 4.20453 24.1423 6.10156C24.1423 7.94772 22.7534 9.4537 21.0116 9.53314C20.8952 9.70486 20.7834 9.87476 20.6763 10.0434C22.0362 10.7947 23.5814 11.4 25.4531 11.926C26.3267 12.1715 26.8452 13.1132 26.6111 14.0294C26.377 14.9456 25.479 15.4893 24.6053 15.2438C22.5193 14.6576 20.7683 13.9699 19.2191 13.1241C18.8548 14.3254 18.6844 15.6416 18.6844 17.2648C18.6844 17.3362 18.6802 17.4067 18.6721 17.4758C20.6277 19.987 21.7165 23.3532 21.7165 27.6159C21.7165 28.5644 20.9832 29.3333 20.0788 29.3333C19.1743 29.3333 18.4411 28.5644 18.4411 27.6159C18.4411 22.4938 16.6488 19.2592 13.5506 17.3635C11.4434 16.0742 8.96801 15.5492 6.97174 15.5492C6.06727 15.5492 5.33405 14.7803 5.33405 13.8317C5.33405 12.8832 6.06727 12.1143 6.97174 12.1143C9.49791 12.1143 12.5178 12.7548 15.2012 14.3967C15.3231 14.4713 15.4435 14.5475 15.5624 14.6254C15.717 13.3933 15.9892 12.2849 16.383 11.2314C14.7503 9.91851 13.2866 8.3163 11.7518 6.32291C11.1835 5.58495 11.2934 4.50364 11.9971 3.90775C12.7008 3.31186 13.7319 3.42704 14.3001 4.165C15.5372 5.77171 16.6943 7.07079 17.9468 8.14504C17.9937 8.07114 18.0412 7.99716 18.0895 7.92308Z" fill="#F9C000"/>
</svg>
