<svg width="32" height="32" viewBox="0 0 32 32" fill="none" xmlns="http://www.w3.org/2000/svg">
<path d="M26.3963 20.3438L24.6694 19.3208C24.9819 18.9908 25.3403 18.71 25.733 18.4875C25.9897 18.3391 26.1788 18.0927 26.2592 17.802C26.3396 17.5112 26.3047 17.1997 26.1622 16.9352C26.0197 16.6707 25.781 16.4746 25.4982 16.3897C25.2154 16.3048 24.9113 16.3379 24.6521 16.4818C23.9024 16.9073 23.2381 17.4746 22.6942 18.1536L18.2191 15.5L22.6932 12.851C23.2369 13.5302 23.9013 14.0975 24.6511 14.5229C24.7796 14.5972 24.9212 14.6447 25.0678 14.6626C25.2143 14.6805 25.3628 14.6684 25.5047 14.6272C25.6467 14.5859 25.7792 14.5162 25.8948 14.4221C26.0103 14.328 26.1065 14.2114 26.1779 14.079C26.2492 13.9466 26.2943 13.8009 26.3105 13.6506C26.3267 13.5002 26.3137 13.348 26.2722 13.2028C26.2308 13.0576 26.1617 12.9223 26.069 12.8046C25.9762 12.6869 25.8617 12.5892 25.7319 12.5172C25.3394 12.2946 24.981 12.0138 24.6684 11.6839L26.3953 10.6609C26.5273 10.5885 26.6439 10.4896 26.738 10.3701C26.832 10.2505 26.9017 10.1128 26.9428 9.96516C26.984 9.81747 26.9957 9.6628 26.9774 9.51036C26.9591 9.35791 26.9111 9.2108 26.8362 9.07776C26.7614 8.94473 26.6612 8.82848 26.5416 8.73594C26.4221 8.6434 26.2856 8.57645 26.1403 8.53907C25.9951 8.50169 25.8439 8.49465 25.6959 8.51836C25.548 8.54207 25.4061 8.59605 25.2789 8.67708L23.552 9.69948C23.429 9.25674 23.3705 8.79779 23.3783 8.3375C23.3816 8.18676 23.3558 8.03685 23.3024 7.89636C23.249 7.75586 23.1691 7.62756 23.0673 7.51879C22.9655 7.41002 22.8437 7.32292 22.709 7.2625C22.5743 7.20207 22.4293 7.16951 22.2823 7.16667H22.2615C21.9687 7.16661 21.6876 7.2844 21.4786 7.49469C21.2697 7.70498 21.1495 7.99097 21.1441 8.29115C21.1284 9.16921 21.2748 10.0424 21.5758 10.8646L17.1017 13.5151V8.21771C17.9471 8.07444 18.7583 7.76817 19.4924 7.3151C19.7463 7.15825 19.9289 6.90442 20.0003 6.60944C20.0716 6.31446 20.0258 6.0025 19.8728 5.74219C19.7199 5.48187 19.4723 5.29453 19.1847 5.22137C18.897 5.14822 18.5928 5.19523 18.339 5.35208C17.9542 5.58926 17.5372 5.7667 17.1017 5.87865V4.14583C17.1017 3.84194 16.984 3.55049 16.7744 3.33561C16.5649 3.12072 16.2807 3 15.9843 3C15.688 3 15.4038 3.12072 15.1942 3.33561C14.9847 3.55049 14.867 3.84194 14.867 4.14583V5.87865C14.4315 5.7667 14.0145 5.58926 13.6297 5.35208C13.3759 5.19523 13.0717 5.14822 12.784 5.22137C12.4964 5.29453 12.2488 5.48187 12.0959 5.74219C11.9429 6.0025 11.8971 6.31446 11.9684 6.60944C12.0398 6.90442 12.2224 7.15825 12.4763 7.3151C13.2104 7.76817 14.0216 8.07444 14.867 8.21771V13.5151L10.3929 10.8646C10.6943 10.0421 10.8412 9.16858 10.8256 8.2901C10.8202 7.98993 10.7 7.70394 10.4911 7.49365C10.2821 7.28336 10.001 7.16557 9.70824 7.16563H9.6864C9.53966 7.1684 9.39489 7.2008 9.26035 7.26097C9.12582 7.32113 9.00417 7.40789 8.90234 7.51627C8.80051 7.62466 8.7205 7.75256 8.66688 7.89267C8.61326 8.03277 8.58709 8.18233 8.58985 8.33281C8.59804 8.79377 8.53967 9.25344 8.41666 9.69688L6.6898 8.67708C6.56263 8.5993 6.42166 8.5482 6.27507 8.52677C6.12848 8.50534 5.9792 8.51401 5.83591 8.55225C5.69261 8.5905 5.55816 8.65758 5.44036 8.74958C5.32257 8.84158 5.22378 8.95667 5.14973 9.08816C5.07569 9.21966 5.02787 9.36493 5.00906 9.51554C4.99024 9.66615 5.00081 9.8191 5.04014 9.96548C5.07947 10.1119 5.14678 10.2488 5.23815 10.3683C5.32953 10.4877 5.44316 10.5874 5.57242 10.6615L7.29928 11.6844C6.98669 12.0143 6.62831 12.2951 6.23574 12.5177C6.106 12.5897 5.99145 12.6874 5.89872 12.8051C5.80598 12.9228 5.73689 13.0581 5.69543 13.2033C5.65397 13.3485 5.64096 13.5007 5.65716 13.6511C5.67335 13.8015 5.71843 13.9471 5.78979 14.0795C5.86114 14.2119 5.95737 14.3285 6.07291 14.4226C6.18845 14.5167 6.32102 14.5864 6.46296 14.6277C6.60491 14.669 6.75342 14.681 6.89992 14.6631C7.04643 14.6452 7.18803 14.5977 7.31655 14.5234C8.06627 14.0979 8.73063 13.5306 9.2745 12.8516L13.7496 15.5L9.27551 18.149C8.73164 17.4699 8.06729 16.9026 7.31756 16.4771C7.18904 16.4028 7.04744 16.3553 6.90094 16.3374C6.75443 16.3195 6.60592 16.3316 6.46398 16.3728C6.32204 16.4141 6.18947 16.4838 6.07393 16.5779C5.95839 16.672 5.86216 16.7886 5.7908 16.921C5.71944 17.0534 5.67437 17.1991 5.65817 17.3494C5.64198 17.4998 5.65499 17.652 5.69645 17.7972C5.73791 17.9424 5.807 18.0777 5.89973 18.1954C5.99247 18.3131 6.10701 18.4108 6.23675 18.4828C6.62933 18.7054 6.9877 18.9862 7.30029 19.3161L5.57242 20.3438C5.44316 20.4178 5.32953 20.5175 5.23815 20.6369C5.14678 20.7564 5.07947 20.8933 5.04014 21.0397C5.00081 21.1861 4.99024 21.3391 5.00906 21.4897C5.02787 21.6403 5.07569 21.7855 5.14973 21.917C5.22378 22.0485 5.32257 22.1636 5.44036 22.2556C5.55816 22.3476 5.69261 22.4147 5.83591 22.453C5.9792 22.4912 6.12848 22.4999 6.27507 22.4784C6.42166 22.457 6.56263 22.4059 6.6898 22.3281L8.41666 21.3057C8.53965 21.7485 8.59818 22.2074 8.59036 22.6677C8.58519 22.9713 8.69771 23.2645 8.90321 23.4831C9.10871 23.7016 9.3904 23.8276 9.6864 23.8333H9.70723C10 23.8334 10.2811 23.7156 10.4901 23.5053C10.699 23.295 10.8191 23.009 10.8246 22.7089C10.8403 21.8308 10.6939 20.9576 10.3929 20.1354L14.867 17.4849V22.7823C14.0216 22.9256 13.2104 23.2318 12.4763 23.6849C12.2224 23.8417 12.0398 24.0956 11.9684 24.3906C11.8971 24.6855 11.9429 24.9975 12.0959 25.2578C12.2488 25.5181 12.4964 25.7055 12.784 25.7786C13.0717 25.8518 13.3759 25.8048 13.6297 25.6479C14.0145 25.4107 14.4315 25.2333 14.867 25.1214V26.8542C14.867 27.1581 14.9847 27.4495 15.1942 27.6644C15.4038 27.8793 15.688 28 15.9843 28C16.2807 28 16.5649 27.8793 16.7744 27.6644C16.984 27.4495 17.1017 27.1581 17.1017 26.8542V25.1214C17.5372 25.2333 17.9542 25.4107 18.339 25.6479C18.5928 25.8048 18.897 25.8518 19.1847 25.7786C19.4723 25.7055 19.7199 25.5181 19.8728 25.2578C20.0258 24.9975 20.0716 24.6855 20.0003 24.3906C19.9289 24.0956 19.7463 23.8417 19.4924 23.6849C18.7583 23.2318 17.9471 22.9256 17.1017 22.7823V17.4849L21.5758 20.1354C21.2744 20.9579 21.1275 21.8314 21.1431 22.7099C21.1485 23.0101 21.2687 23.2961 21.4776 23.5064C21.6866 23.7166 21.9677 23.8344 22.2605 23.8344H22.2823C22.429 23.8316 22.5738 23.7992 22.7083 23.739C22.8429 23.6789 22.9645 23.5921 23.0664 23.4837C23.1682 23.3753 23.2482 23.2474 23.3018 23.1073C23.3554 22.9672 23.3816 22.8177 23.3788 22.6672C23.3707 22.2062 23.429 21.7466 23.552 21.3031L25.2789 22.3255C25.4061 22.4092 25.5485 22.4657 25.6975 22.4913C25.8465 22.517 25.9991 22.5114 26.1459 22.4749C26.2928 22.4384 26.4309 22.3717 26.5519 22.2789C26.6729 22.1861 26.7743 22.069 26.8499 21.9349C26.9256 21.8007 26.9739 21.6522 26.992 21.4984C27.0101 21.3445 26.9975 21.1885 26.9551 21.0398C26.9127 20.891 26.8413 20.7527 26.7452 20.633C26.6492 20.5134 26.5305 20.415 26.3963 20.3438Z" fill="#F9C000"/>
</svg>
