<svg width="32" height="32" viewBox="0 0 32 32" fill="none" xmlns="http://www.w3.org/2000/svg">
<path fill-rule="evenodd" clip-rule="evenodd" d="M19.2603 10.9734L16.9656 10.0783L16.96 10.0825C16.892 10.1478 16.8127 10.2068 16.7248 10.2573L18.0393 13.2099C18.0401 13.211 18.0408 13.212 18.0416 13.2129C18.0435 13.2154 18.045 13.2173 18.045 13.2204V13.2246C18.1073 13.3721 18.1413 13.5279 18.1413 13.69C18.1413 14.4882 17.3481 15.1495 16.3141 15.2611C16.307 15.2621 16.2992 15.2632 16.2914 15.2643C16.2836 15.2653 16.2758 15.2664 16.2687 15.2674C16.1809 15.2758 16.0902 15.2822 15.9996 15.2822C15.9089 15.2822 15.8211 15.2758 15.7305 15.2674C15.7163 15.2653 15.7021 15.2632 15.6851 15.2611C14.6539 15.1495 13.8607 14.4882 13.8607 13.69C13.8607 13.5279 13.8919 13.3721 13.9542 13.2246V13.2204C13.9556 13.2183 13.9563 13.2167 13.957 13.2152C13.9577 13.2136 13.9584 13.212 13.9599 13.2099L15.2772 10.2573C15.1894 10.2068 15.1072 10.1478 15.0392 10.0825L15.0336 10.0783L12.7417 10.9734V8.46096L15.0307 9.00009L15.0392 8.99587C15.1015 8.9327 15.178 8.87794 15.2602 8.8295L15.2659 8.82319L14.3451 6.66669H15.9996H17.654L16.7333 8.82319L16.739 8.8295C16.824 8.87794 16.8976 8.9327 16.9628 8.99587L16.9685 9.00009L19.2603 8.46096V10.9734ZM9.35676 11.5248C9.01515 12.2549 8.0617 12.6054 7.22297 12.2998C6.39954 12.0033 6.00184 11.1631 6.346 10.433C6.69016 9.70066 7.64616 9.34571 8.46959 9.6445C9.30832 9.94777 9.70091 10.7947 9.35676 11.5248ZM6.09849 12.9614C5.75688 13.6912 4.80597 14.0416 3.96468 13.7362C3.14124 13.4397 2.74354 12.5998 3.0877 11.87C3.43186 11.1379 4.38787 10.783 5.20877 11.0795C6.05005 11.3849 6.44265 12.2315 6.09849 12.9614ZM2.3343 17.3258C3.17557 17.6313 4.12647 17.2809 4.46808 16.5508C4.81224 15.8229 4.41965 14.9737 3.58092 14.6705C2.75749 14.3717 1.80149 14.7266 1.45733 15.459C1.11317 16.1891 1.51087 17.0293 2.3343 17.3258ZM12.6161 12.9611C12.2744 13.6912 11.3209 14.0416 10.482 13.7361C9.65851 13.4396 9.26077 12.5994 9.60497 11.8693C9.94662 11.1369 10.9053 10.782 11.7263 11.0808C12.5651 11.3841 12.9603 12.2332 12.6161 12.9611ZM24.7781 12.2998C23.9366 12.6054 22.9853 12.2549 22.6436 11.5248C22.2994 10.7947 22.6921 9.94777 23.5311 9.6445C24.3548 9.34571 25.3111 9.70066 25.6554 10.433C25.9971 11.1631 25.6018 12.0033 24.7781 12.2998ZM25.9022 12.9614C26.2438 13.6912 27.1974 14.0416 28.0362 13.7362C28.8597 13.4397 29.2575 12.5998 28.9133 11.87C28.5716 11.1379 27.613 10.783 26.792 11.0795C25.9532 11.3849 25.558 12.2315 25.9022 12.9614ZM29.6674 17.3258C28.8259 17.6313 27.8721 17.2809 27.5329 16.5508C27.1887 15.8229 27.5814 14.9737 28.4204 14.6705C29.2441 14.3717 30.2004 14.7266 30.5447 15.459C30.8864 16.1891 30.4911 17.0293 29.6674 17.3258ZM19.3853 12.9611C19.7269 13.6912 20.6778 14.0416 21.5191 13.7361C22.3425 13.4396 22.7402 12.5994 22.396 11.8693C22.0544 11.1369 21.0959 10.782 20.2724 11.0808C19.4337 11.3841 19.0411 12.2332 19.3853 12.9611ZM15.9987 24.7007C19.6001 24.7007 23.007 24.9275 26.0438 25.3333C26.906 21.9588 27.9558 20.0262 29.0383 18.6498L26.9974 17.9736C27.2013 18.9377 27.2341 19.3849 27.0068 20.0066C26.6694 19.7012 26.3507 19.1362 26.1023 18.2768L25.1159 21.3393C25.7157 20.9554 26.1797 20.7046 26.7092 20.6937C25.7696 22.5805 24.5934 23.0669 23.8318 22.9338C22.9039 22.7768 22.4751 22.0046 22.6204 21.3502C22.8336 20.4232 23.8576 20.1811 24.3333 21.2586C25.2471 19.5245 23.6983 18.9835 22.7001 19.4983C24.2325 18.0761 24.4059 16.811 23.1711 15.2819C21.4488 16.5078 21.4278 17.7206 22.2033 19.4285C21.1958 18.3575 19.6329 18.9334 20.1976 20.6653C20.924 19.6183 21.8823 20.277 21.7324 21.2695C21.6058 22.1355 20.378 22.8357 18.8479 22.7114C16.6594 22.5259 16.5282 21.119 16.4743 19.9542C17.0132 19.8604 17.981 20.3272 18.8081 21.4069L19.1127 18.1568C18.2129 19.0293 17.3975 19.1951 16.4884 19.2213C16.7906 18.3444 18.1801 16.9048 18.1801 16.9048H16.1627H16.1603H13.8219C13.8219 16.9048 15.2114 18.3444 15.5136 19.2213C14.6068 19.1951 13.7891 19.0293 12.8893 18.1568L13.1939 21.4069C14.021 20.3272 14.9888 19.8604 15.5277 19.9542C15.4738 21.119 15.3426 22.5259 13.1541 22.7114C11.624 22.8357 10.3962 22.1355 10.2696 21.2695C10.1197 20.277 11.078 19.6183 11.8044 20.6653C12.3715 18.9334 10.8039 18.3575 9.79867 19.4285C10.5743 17.7206 10.5532 16.5078 8.83095 15.2819C7.5961 16.811 7.7695 18.0761 9.30192 19.4983C8.30374 18.9835 6.75491 19.5245 7.66874 21.2586C8.1444 20.1811 9.16836 20.4232 9.38159 21.3502C9.52686 22.0046 9.09807 22.7768 8.17018 22.9338C7.40631 23.0669 6.23239 22.5805 5.29278 20.6937C5.82233 20.7046 6.28628 20.9554 6.88847 21.3393L5.89966 18.2768C5.64894 19.1362 5.33261 19.7012 4.9952 20.0066C4.76791 19.3849 4.80072 18.9377 5.00223 17.9736L2.96368 18.6498C4.04622 20.0262 5.09596 21.9588 5.95824 25.3311C8.99262 24.9275 12.3996 24.7007 15.9987 24.7007Z" fill="#F9C000"/>
</svg>
