<svg width="32" height="32" viewBox="0 0 32 32" fill="none" xmlns="http://www.w3.org/2000/svg">
<path fill-rule="evenodd" clip-rule="evenodd" d="M20.389 24.4572C20.802 24.4572 21.0693 24.202 21.0693 23.789V21.8453C21.0693 18.9054 25.3333 17.0103 25.3333 11.7622C25.3333 6.23476 21.5916 2.54169 15.9913 2.54169C10.391 2.54169 6.66144 6.23476 6.66144 11.7622C6.66144 17.0103 10.9255 18.9054 10.9255 21.8453V23.789C10.9255 24.202 11.1927 24.4572 11.5936 24.4572H20.389ZM19.2593 22.6228H12.7356V21.8696C12.7356 18.298 8.49591 16.3908 8.49591 11.7744C8.49591 7.32816 11.4965 4.37614 15.9914 4.37614C20.4984 4.37614 23.499 7.32816 23.499 11.7744C23.499 16.3908 19.2593 18.298 19.2593 21.8696V22.6228ZM19.9393 27.737C20.5589 27.737 21.0691 27.2268 21.0691 26.5951C21.0691 25.9634 20.5589 25.4532 19.9393 25.4532H12.0551C11.4356 25.4532 10.9253 25.9634 10.9253 26.5951C10.9253 27.2268 11.4356 27.737 12.0551 27.737H19.9393ZM15.9914 30.6647C17.6678 30.6647 18.8583 29.8994 18.9798 28.721H13.015C13.1244 29.8994 14.3149 30.6647 15.9914 30.6647Z" fill="#F9C000"/>
</svg>
