<svg width="32" height="32" viewBox="0 0 32 32" fill="none" xmlns="http://www.w3.org/2000/svg">
<path fill-rule="evenodd" clip-rule="evenodd" d="M16 29.3334C23.3638 29.3334 29.3333 23.3638 29.3333 16C29.3333 8.63622 23.3638 2.66669 16 2.66669C8.63621 2.66669 2.66667 8.63622 2.66667 16C2.66667 23.3638 8.63621 29.3334 16 29.3334ZM18.8086 23.6201C18.3138 23.8861 17.5955 24.1392 17.1922 24.2553C16.789 24.3713 16.3219 24.439 15.7897 24.439C14.9719 24.439 14.3352 24.239 13.8819 23.8401C13.4285 23.4412 13.203 22.9357 13.203 22.3212C13.203 22.0824 13.2197 21.8379 13.253 21.589C13.2874 21.3401 13.3419 21.0601 13.4163 20.7457L14.2619 17.759C14.3363 17.4724 14.4008 17.2001 14.4519 16.9468C14.503 16.6912 14.5274 16.4568 14.5274 16.2435C14.5274 15.8635 14.4485 15.5968 14.2919 15.4468C14.133 15.2968 13.8341 15.2235 13.3885 15.2235C13.2123 15.2235 13.0697 15.2551 12.8588 15.3019L12.8247 15.3094C12.203 15.4468 11.8073 14.8609 12.4603 14.585C12.4603 14.585 13.4352 14.1801 13.9408 14.0201C14.4463 13.8579 14.9241 13.7779 15.3741 13.7779C16.1863 13.7779 16.813 13.9757 17.2541 14.3668C17.693 14.759 17.9141 15.269 17.9141 15.8957C17.9141 16.0257 17.8986 16.2546 17.8686 16.5812C17.8386 16.909 17.7819 17.2079 17.6997 17.4824L16.8586 20.4601C16.7897 20.699 16.7285 20.9724 16.673 21.2779C16.6185 21.5835 16.5919 21.8168 16.5919 21.9735C16.5919 22.369 16.6797 22.639 16.8574 22.7824C17.033 22.9257 17.3408 22.9979 17.7763 22.9979C17.9819 22.9979 18.1574 22.9753 18.4719 22.8901C19.1694 22.6901 19.224 23.4407 18.8086 23.6201ZM18.7777 10.1666C18.7777 11.2405 17.9072 12.111 16.8333 12.111C15.7594 12.111 14.8888 11.2405 14.8888 10.1666C14.8888 9.09269 15.7594 8.22214 16.8333 8.22214C17.9072 8.22214 18.7777 9.09269 18.7777 10.1666Z" fill="#F9C000"/>
</svg>
