<svg width="32" height="32" viewBox="0 0 32 32" fill="none" xmlns="http://www.w3.org/2000/svg">
<path d="M19.0625 23.4544L12.4403 28.1858C9.9524 29.9644 6.16551 29.7967 3.85885 26.8254C1.87154 24.264 2.42609 20.628 5.09525 18.721L8.89293 16.0064L9.83804 17.224L6.04036 19.9385C4.2192 21.2409 3.50713 23.8271 5.26572 26.0924C6.733 27.9808 9.52732 28.3742 11.4952 26.9662L18.1174 22.2348C22.105 19.3836 18.8489 13.3043 14.1687 14.5053L13.7587 13.0372C20.1522 11.3973 24.4203 19.6259 19.0625 23.4544ZM19.5631 3.81057L12.9409 8.54398C7.49685 12.4347 11.9505 20.4955 18.1713 18.9778L17.7808 17.5056C13.0898 18.6506 9.95024 12.5755 13.886 9.76357L20.5082 5.03223C22.3294 3.72982 25.1172 3.81885 26.8736 6.08203C28.3409 7.97042 27.931 10.6539 25.9631 12.0599L22.0079 14.8863L22.953 16.1038L26.9082 13.2774C29.4026 11.4946 30.3088 7.96421 28.0086 4.9991C26.0192 2.43569 22.2301 1.90354 19.5631 3.81057Z" fill="#F9C000" stroke="#F9C000" stroke-width="0.5"/>
</svg>
