<svg width="32" height="32" viewBox="0 0 32 32" fill="none" xmlns="http://www.w3.org/2000/svg">
<path fill-rule="evenodd" clip-rule="evenodd" d="M16.0101 5.09437C12.6231 5.09437 10.8083 7.88437 10.0829 10.7707H7.54268C8.25017 6.05332 11.7964 2.66669 16.0074 2.66669C20.2274 2.66669 23.7736 6.05332 24.4775 10.7707H21.9373C21.2191 7.88437 19.3971 5.09437 16.0101 5.09437ZM6.1353 14.1123C6.73783 13.0969 7.83641 12.722 9.36042 12.722H22.6619C24.1866 12.722 25.2854 13.0968 25.8878 14.1125C26.163 14.5765 26.2928 15.1123 26.3601 15.6612C26.4276 16.2108 26.4382 16.831 26.4382 17.4883V24.3164C26.4382 27.0159 24.0497 29.0794 21.2602 29.0794H10.7587C7.97029 29.0794 5.58411 27.0153 5.58411 24.3164V17.4883C5.58411 16.8309 5.59487 16.2107 5.66246 15.661C5.72996 15.112 5.86 14.5763 6.1353 14.1123ZM7.15125 15.844C7.09598 16.2936 7.08411 16.8322 7.08411 17.4883V24.3164C7.08411 26.0525 8.65755 27.5794 10.7587 27.5794H21.2602C23.3636 27.5794 24.9382 26.0519 24.9382 24.3164V17.4883C24.9382 16.8321 24.9265 16.2935 24.8713 15.8438C24.8161 15.3934 24.7231 15.0893 24.5976 14.8776C24.3985 14.5419 23.9842 14.222 22.6619 14.222H9.36042C8.03921 14.222 7.62463 14.5418 7.42531 14.8778C7.29968 15.0895 7.20662 15.3937 7.15125 15.844ZM17.1458 23.4444C17.1458 24.0621 16.6721 24.5639 16.088 24.5639C15.5039 24.5639 15.0282 24.0621 15.0282 23.4444L15.0272 21.2734C14.1841 20.856 13.594 19.9516 13.594 18.9102C13.594 17.4597 14.715 16.3522 16.088 16.3522C17.463 16.3522 18.584 17.4597 18.584 18.9102C18.584 19.9558 17.9959 20.856 17.1448 21.2734L17.1458 23.4444Z" fill="#F9C000"/>
</svg>
