<svg width="32" height="32" viewBox="0 0 32 32" fill="none" xmlns="http://www.w3.org/2000/svg">
<path fill-rule="evenodd" clip-rule="evenodd" d="M8.66966 10.0053H9.91147C10.6907 7.39426 13.1091 5.48498 15.9977 5.48498C18.8843 5.48498 21.3142 7.39426 22.0858 10.0053H23.3314C23.9302 10.0053 24.5003 10.0528 25.0473 10.1764C24.2911 5.90905 20.5311 2.66669 15.9977 2.66669C11.4738 2.66669 7.71383 5.90905 6.95378 10.1764C7.50079 10.0528 8.07083 10.0053 8.66966 10.0053ZM23.3308 11.4575H8.6691C5.53292 11.4575 5.33331 13.1291 5.33331 16.2897V24.505C5.33331 27.173 7.51559 29.3333 10.2103 29.3333H21.7858C24.4824 29.3333 26.6666 27.173 26.6666 24.505V16.2897C26.6666 13.1291 26.4689 11.4575 23.3308 11.4575ZM17.0105 24.5239V20.4391C17.8243 20.0625 18.3867 19.2505 18.3867 18.3073C18.3867 16.9989 17.3138 15.9435 15.999 15.9435C14.6862 15.9435 13.6152 16.9989 13.6152 18.3073C13.6152 19.2467 14.1795 20.0625 14.9856 20.4391V24.5239C14.9856 25.0811 15.4405 25.5337 15.999 25.5337C16.5576 25.5337 17.0105 25.0811 17.0105 24.5239Z" fill="#F9C000"/>
</svg>
