<svg width="32" height="32" viewBox="0 0 32 32" fill="none" xmlns="http://www.w3.org/2000/svg">
<path fill-rule="evenodd" clip-rule="evenodd" d="M14.5583 11.7582C14.5781 12.4619 15.2538 13.0179 16.0768 13.0035C16.0768 13.0035 17.5732 12.9773 17.5511 11.7058L17.4388 5.25852C17.4265 4.55215 16.7461 3.98594 15.9201 4.00039C15.0941 4.01485 14.4338 4.60453 14.4461 5.3109L14.5583 11.7582ZM22.6865 6.27719C26.0135 8.48873 28 12.1733 28 16.1331C28 22.6765 22.6167 28.0001 15.9999 28.0001C9.38286 28.0001 4 22.6765 4 16.1331C4 12.1846 5.9775 8.50626 9.2897 6.29327C9.96061 5.84463 10.8727 6.01944 11.3264 6.6834C11.78 7.34736 11.6034 8.24887 10.9319 8.69752C8.4287 10.3702 6.93397 13.1498 6.93397 16.1331C6.93397 21.0765 11.0007 25.0986 15.9999 25.0986C20.9988 25.0986 25.066 21.0765 25.066 16.1331C25.066 13.1409 23.5646 10.3569 21.0499 8.68567C20.3771 8.23848 20.1985 7.33744 20.6503 6.67204C21.1025 6.00711 22.0141 5.83049 22.6865 6.27719Z" fill="#F9C000"/>
</svg>
