<svg width="32" height="32" viewBox="0 0 32 32" fill="none" xmlns="http://www.w3.org/2000/svg">
<path d="M5.11999 4.8169C5.13999 4.8169 5.18 4.8169 5.2 4.8169L17.58 7.98287C17.72 8.02372 17.82 8.14627 17.82 8.30967V27.1421H5.11999C4.93999 27.1421 4.79999 26.9991 4.79999 26.8153V5.14371C4.77999 4.9803 4.93999 4.8169 5.11999 4.8169ZM5.11999 3.99988C4.49999 3.99988 3.99999 4.51051 3.99999 5.14371V26.8153C3.99999 27.4485 4.49999 27.9591 5.11999 27.9591H18.06C18.38 27.9591 18.62 27.6936 18.62 27.3872V8.30967C18.62 7.77861 18.26 7.32924 17.76 7.18627L5.37999 4.0203C5.29999 4.0203 5.19999 3.99988 5.11999 3.99988Z" fill="#F9C000" stroke="#F9C000" stroke-width="0.5"/>
<path d="M18.6798 11.6187L26.9598 13.7225C27.0998 13.7634 27.1998 13.886 27.1998 14.0494V26.8153C27.1998 26.9992 27.0598 27.1422 26.8798 27.1422L18.6798 27.1217V11.6187ZM18.4398 10.7404C18.1398 10.7404 17.8798 10.9855 17.8798 11.3123V27.4077C17.8798 27.7345 17.0398 27.9796 17.3598 27.9796L26.8798 28C27.4998 28 27.9998 27.4894 27.9998 26.8562V14.0902C27.9998 13.5591 27.6398 13.1098 27.1398 12.9668L18.5598 10.7813C18.5398 10.7404 18.4998 10.7404 18.4398 10.7404Z" fill="#F9C000" stroke="#F9C000" stroke-width="0.5"/>
<path d="M15.0002 21.8934V26.959H7.60022V21.8934H15.0002ZM15.2402 21.0764H7.36022C7.04021 21.0764 6.80022 21.342 6.80022 21.6483V27.3879C6.80022 27.7147 7.06021 27.7556 7.36022 27.7556H15.2402C15.5602 27.7556 15.8002 27.6943 15.8002 27.3879V21.6483C15.8002 21.342 15.5402 21.0764 15.2402 21.0764Z" fill="#F9C000" stroke="#F9C000" stroke-width="0.5"/>
<path d="M15.0002 16.7254V18.5433H7.60022V16.7254H15.0002ZM15.2402 15.9084H7.36022C7.04021 15.9084 6.80022 16.1739 6.80022 16.4803V18.768C6.80022 19.0948 7.06021 19.3399 7.36022 19.3399H15.2402C15.5602 19.3399 15.8002 19.0744 15.8002 18.768V16.4803C15.8002 16.1739 15.5402 15.9084 15.2402 15.9084Z" fill="#F9C000" stroke="#F9C000" stroke-width="0.5"/>
<path d="M15.0002 11.5574V13.3753H7.60022V11.5574H15.0002ZM15.2402 10.7404H7.36022C7.04021 10.7404 6.80022 11.0059 6.80022 11.3123V13.6C6.80022 13.9268 7.06021 14.1719 7.36022 14.1719H15.2402C15.5602 14.1719 15.8002 13.9064 15.8002 13.6V11.3123C15.8002 10.9855 15.5402 10.7404 15.2402 10.7404Z" fill="#F9C000" stroke="#F9C000" stroke-width="0.5"/>
<path d="M24.7602 16.7254V18.5433H20.7401V16.7254H24.7602ZM25.0002 15.9084H20.5001C20.1801 15.9084 19.9401 16.1739 19.9401 16.4803V18.768C19.9401 19.0948 20.2001 19.3399 20.5001 19.3399H25.0002C25.3202 19.3399 25.5602 19.0744 25.5602 18.768V16.4803C25.5602 16.1739 25.3202 15.9084 25.0002 15.9084Z" fill="#F9C000" stroke="#F9C000" stroke-width="0.5"/>
<path d="M24.7602 21.8934V23.7113H20.7401V21.8934H24.7602ZM25.0002 21.0764H20.5001C20.1801 21.0764 19.9401 21.342 19.9401 21.6483V23.936C19.9401 24.2628 20.2001 24.5079 20.5001 24.5079H25.0002C25.3202 24.5079 25.5602 24.2424 25.5602 23.936V21.6483C25.5602 21.342 25.3202 21.0764 25.0002 21.0764Z" fill="#F9C000" stroke="#F9C000" stroke-width="0.5"/>
</svg>
