<svg width="24" height="21" viewBox="0 0 24 21" fill="none" xmlns="http://www.w3.org/2000/svg">
<path fill-rule="evenodd" clip-rule="evenodd" d="M3.50006 2C2.67163 2 2.00006 2.67157 2.00006 3.5C2.00006 4.32843 2.67163 5 3.50006 5H20.5001C21.3285 5 22.0001 4.32843 22.0001 3.5C22.0001 2.67157 21.3285 2 20.5001 2H3.50006ZM2.00006 10.5C2.00006 9.67157 2.67163 9 3.50006 9H20.5001C21.3285 9 22.0001 9.67157 22.0001 10.5C22.0001 11.3284 21.3285 12 20.5001 12H3.50006C2.67163 12 2.00006 11.3284 2.00006 10.5ZM2.00006 17.5C2.00006 16.6716 2.67163 16 3.50006 16H20.5001C21.3285 16 22.0001 16.6716 22.0001 17.5C22.0001 18.3284 21.3285 19 20.5001 19H3.50006C2.67163 19 2.00006 18.3284 2.00006 17.5Z" fill="#F9C000"/>
</svg>
