<svg width="32" height="32" viewBox="0 0 32 32" fill="none" xmlns="http://www.w3.org/2000/svg">
<path d="M7.02278 9.42966C7.02278 7.90371 8.28323 6.66669 9.83808 6.66669C11.3929 6.66669 12.6534 7.90371 12.6534 9.42966V11.091L14.1194 10.2603C15.4659 9.49735 17.1877 9.95013 17.9652 11.2716C18.7426 12.5932 18.2812 14.283 16.9347 15.0459L16.4802 15.3034C14.9038 13.9175 12.4797 13.9679 10.9649 15.4546C9.39696 16.9934 9.39696 19.4882 10.9649 21.027L12.6323 22.6634C12.4616 24.029 11.2757 25.0865 9.83808 25.0865C8.28323 25.0865 7.02278 23.8495 7.02278 22.3235V20.6622L5.55677 21.4929C4.21023 22.2558 2.48842 21.8031 1.71099 20.4816C0.933568 19.16 1.39493 17.4702 2.74147 16.7073L4.20747 15.8766L2.74147 15.0459C1.39493 14.283 0.933569 12.5932 1.71099 11.2716C2.48842 9.95013 4.21023 9.49735 5.55677 10.2603L7.02278 11.091V9.42966Z" fill="#F9C000"/>
<path d="M12.1005 16.5691C13.0413 15.6458 14.5665 15.6458 15.5073 16.5691L18.6218 19.6257L26.5543 11.8407C27.4951 10.9174 29.0203 10.9174 29.9611 11.8407C30.9019 12.7639 30.9019 14.2609 29.9611 15.1841L20.3252 24.6409C19.3845 25.5642 17.8592 25.5642 16.9184 24.6409L12.1005 19.9125C11.1597 18.9892 11.1597 17.4923 12.1005 16.5691Z" fill="#F9C000"/>
</svg>
