<svg width="32" height="32" viewBox="0 0 32 32" fill="none" xmlns="http://www.w3.org/2000/svg">
<path d="M6.00001 2.66663C5.34073 2.66663 4.69627 2.86212 4.14811 3.22839C3.59994 3.59467 3.1727 4.11526 2.92041 4.72435C2.66812 5.33344 2.6021 6.00366 2.73072 6.65026C2.85934 7.29686 3.17681 7.89081 3.64298 8.35698C4.10916 8.82316 4.7031 9.14063 5.3497 9.26925C5.99631 9.39786 6.66653 9.33185 7.27562 9.07956C7.8847 8.82727 8.4053 8.40003 8.77157 7.85186C9.13784 7.3037 9.33334 6.65923 9.33334 5.99996C9.3323 5.11622 8.98077 4.26898 8.35588 3.64409C7.73098 3.01919 6.88374 2.66767 6.00001 2.66663ZM6.00001 7.99996C5.60444 7.99996 5.21776 7.88266 4.88887 7.6629C4.55997 7.44314 4.30362 7.13078 4.15225 6.76533C4.00087 6.39988 3.96127 5.99774 4.03844 5.60978C4.11561 5.22182 4.30609 4.86545 4.58579 4.58575C4.8655 4.30604 5.22186 4.11556 5.60983 4.03839C5.99779 3.96122 6.39992 4.00083 6.76537 4.1522C7.13082 4.30358 7.44318 4.55992 7.66294 4.88882C7.88271 5.21772 8 5.6044 8 5.99996C7.99942 6.53021 7.78852 7.03858 7.41358 7.41353C7.03863 7.78848 6.53026 7.99938 6.00001 7.99996Z" fill="#F9C000"/>
<path d="M26 9.3333C26.6593 9.3333 27.3037 9.1378 27.8519 8.77153C28.4001 8.40526 28.8273 7.88466 29.0796 7.27557C29.3319 6.66649 29.3979 5.99626 29.2693 5.34966C29.1407 4.70306 28.8232 4.10911 28.357 3.64294C27.8909 3.17676 27.2969 2.85929 26.6503 2.73068C26.0037 2.60206 25.3335 2.66807 24.7244 2.92036C24.1153 3.17265 23.5947 3.5999 23.2284 4.14806C22.8622 4.69622 22.6667 5.34069 22.6667 5.99996C22.6677 6.8837 23.0192 7.73094 23.6441 8.35584C24.269 8.98073 25.1163 9.33226 26 9.3333ZM26 3.99996C26.3956 3.99996 26.7823 4.11726 27.1112 4.33702C27.4401 4.55679 27.6964 4.86914 27.8478 5.23459C27.9991 5.60005 28.0388 6.00218 27.9616 6.39014C27.8844 6.77811 27.6939 7.13447 27.4142 7.41418C27.1345 7.69388 26.7782 7.88436 26.3902 7.96153C26.0022 8.0387 25.6001 7.9991 25.2346 7.84772C24.8692 7.69635 24.5568 7.44 24.3371 7.1111C24.1173 6.7822 24 6.39552 24 5.99996C24.0006 5.46971 24.2115 4.96134 24.5864 4.58639C24.9614 4.21144 25.4698 4.00054 26 3.99996Z" fill="#F9C000"/>
<path d="M16 2.66663C15.3407 2.66663 14.6963 2.86212 14.1481 3.22839C13.5999 3.59467 13.1727 4.11526 12.9204 4.72435C12.6681 5.33344 12.6021 6.00366 12.7307 6.65026C12.8593 7.29686 13.1768 7.89081 13.643 8.35698C14.1092 8.82316 14.7031 9.14063 15.3497 9.26925C15.9963 9.39786 16.6665 9.33185 17.2756 9.07956C17.8847 8.82727 18.4053 8.40003 18.7716 7.85186C19.1378 7.3037 19.3333 6.65923 19.3333 5.99996C19.3323 5.11622 18.9808 4.26898 18.3559 3.64409C17.731 3.01919 16.8837 2.66767 16 2.66663ZM16 7.99996C15.6044 7.99996 15.2178 7.88266 14.8889 7.6629C14.56 7.44314 14.3036 7.13078 14.1522 6.76533C14.0009 6.39988 13.9613 5.99774 14.0384 5.60978C14.1156 5.22182 14.3061 4.86545 14.5858 4.58575C14.8655 4.30604 15.2219 4.11556 15.6098 4.03839C15.9978 3.96122 16.3999 4.00083 16.7654 4.1522C17.1308 4.30358 17.4432 4.55992 17.6629 4.88882C17.8827 5.21772 18 5.6044 18 5.99996C17.9994 6.53021 17.7885 7.03858 17.4136 7.41353C17.0386 7.78848 16.5303 7.99938 16 7.99996Z" fill="#F9C000"/>
<path d="M6.00001 12.6666C5.34073 12.6666 4.69627 12.8621 4.14811 13.2284C3.59994 13.5947 3.1727 14.1153 2.92041 14.7243C2.66812 15.3334 2.6021 16.0037 2.73072 16.6503C2.85934 17.2969 3.17681 17.8908 3.64298 18.357C4.10916 18.8232 4.7031 19.1406 5.3497 19.2692C5.99631 19.3979 6.66653 19.3319 7.27562 19.0796C7.8847 18.8273 8.4053 18.4 8.77157 17.8519C9.13784 17.3037 9.33334 16.6592 9.33334 16C9.3323 15.1162 8.98077 14.269 8.35588 13.6441C7.73098 13.0192 6.88374 12.6677 6.00001 12.6666ZM6.00001 18C5.60444 18 5.21776 17.8827 4.88887 17.6629C4.55997 17.4431 4.30362 17.1308 4.15225 16.7653C4.00087 16.3999 3.96127 15.9977 4.03844 15.6098C4.11561 15.2218 4.30609 14.8655 4.58579 14.5857C4.8655 14.306 5.22186 14.1156 5.60983 14.0384C5.99779 13.9612 6.39992 14.0008 6.76537 14.1522C7.13082 14.3036 7.44318 14.5599 7.66294 14.8888C7.88271 15.2177 8 15.6044 8 16C7.99942 16.5302 7.78852 17.0386 7.41358 17.4135C7.03863 17.7885 6.53026 17.9994 6.00001 18Z" fill="#F9C000"/>
<path d="M26 12.6666C25.3407 12.6666 24.6963 12.8621 24.1481 13.2284C23.5999 13.5947 23.1727 14.1153 22.9204 14.7243C22.6681 15.3334 22.6021 16.0037 22.7307 16.6503C22.8593 17.2969 23.1768 17.8908 23.643 18.357C24.1091 18.8232 24.7031 19.1406 25.3497 19.2692C25.9963 19.3979 26.6665 19.3319 27.2756 19.0796C27.8847 18.8273 28.4053 18.4 28.7716 17.8519C29.1378 17.3037 29.3333 16.6592 29.3333 16C29.3323 15.1162 28.9808 14.269 28.3559 13.6441C27.731 13.0192 26.8837 12.6677 26 12.6666ZM26 18C25.6044 18 25.2178 17.8827 24.8889 17.6629C24.56 17.4431 24.3036 17.1308 24.1522 16.7653C24.0009 16.3999 23.9613 15.9977 24.0384 15.6098C24.1156 15.2218 24.3061 14.8655 24.5858 14.5857C24.8655 14.306 25.2219 14.1156 25.6098 14.0384C25.9978 13.9612 26.3999 14.0008 26.7654 14.1522C27.1308 14.3036 27.4432 14.5599 27.6629 14.8888C27.8827 15.2177 28 15.6044 28 16C27.9994 16.5302 27.7885 17.0386 27.4136 17.4135C27.0386 17.7885 26.5303 17.9994 26 18Z" fill="#F9C000"/>
<path d="M16 12.6666C15.3407 12.6666 14.6963 12.8621 14.1481 13.2284C13.5999 13.5947 13.1727 14.1153 12.9204 14.7243C12.6681 15.3334 12.6021 16.0037 12.7307 16.6503C12.8593 17.2969 13.1768 17.8908 13.643 18.357C14.1092 18.8232 14.7031 19.1406 15.3497 19.2692C15.9963 19.3979 16.6665 19.3319 17.2756 19.0796C17.8847 18.8273 18.4053 18.4 18.7716 17.8519C19.1378 17.3037 19.3333 16.6592 19.3333 16C19.3323 15.1162 18.9808 14.269 18.3559 13.6441C17.731 13.0192 16.8837 12.6677 16 12.6666ZM16 18C15.6044 18 15.2178 17.8827 14.8889 17.6629C14.56 17.4431 14.3036 17.1308 14.1522 16.7653C14.0009 16.3999 13.9613 15.9977 14.0384 15.6098C14.1156 15.2218 14.3061 14.8655 14.5858 14.5857C14.8655 14.306 15.2219 14.1156 15.6098 14.0384C15.9978 13.9612 16.3999 14.0008 16.7654 14.1522C17.1308 14.3036 17.4432 14.5599 17.6629 14.8888C17.8827 15.2177 18 15.6044 18 16C17.9994 16.5302 17.7885 17.0386 17.4136 17.4135C17.0386 17.7885 16.5303 17.9994 16 18Z" fill="#F9C000"/>
<path d="M6.00001 22.6666C5.34073 22.6666 4.69627 22.8621 4.14811 23.2284C3.59994 23.5947 3.1727 24.1153 2.92041 24.7243C2.66812 25.3334 2.6021 26.0037 2.73072 26.6503C2.85934 27.2969 3.17681 27.8908 3.64298 28.357C4.10916 28.8232 4.7031 29.1406 5.3497 29.2692C5.99631 29.3979 6.66653 29.3318 7.27562 29.0796C7.8847 28.8273 8.4053 28.4 8.77157 27.8519C9.13784 27.3037 9.33334 26.6592 9.33334 26C9.3323 25.1162 8.98077 24.269 8.35588 23.6441C7.73098 23.0192 6.88374 22.6677 6.00001 22.6666ZM6.00001 28C5.60444 28 5.21776 27.8827 4.88887 27.6629C4.55997 27.4431 4.30362 27.1308 4.15225 26.7653C4.00087 26.3999 3.96127 25.9977 4.03844 25.6098C4.11561 25.2218 4.30609 24.8655 4.58579 24.5857C4.8655 24.306 5.22186 24.1156 5.60983 24.0384C5.99779 23.9612 6.39992 24.0008 6.76537 24.1522C7.13082 24.3036 7.44318 24.5599 7.66294 24.8888C7.88271 25.2177 8 25.6044 8 26C7.99942 26.5302 7.78852 27.0386 7.41358 27.4135C7.03863 27.7885 6.53026 27.9994 6.00001 28Z" fill="#F9C000"/>
<path d="M26 22.6666C25.3407 22.6666 24.6963 22.8621 24.1481 23.2284C23.5999 23.5947 23.1727 24.1153 22.9204 24.7243C22.6681 25.3334 22.6021 26.0037 22.7307 26.6503C22.8593 27.2969 23.1768 27.8908 23.643 28.357C24.1091 28.8232 24.7031 29.1406 25.3497 29.2692C25.9963 29.3979 26.6665 29.3318 27.2756 29.0796C27.8847 28.8273 28.4053 28.4 28.7716 27.8519C29.1378 27.3037 29.3333 26.6592 29.3333 26C29.3323 25.1162 28.9808 24.269 28.3559 23.6441C27.731 23.0192 26.8837 22.6677 26 22.6666ZM26 28C25.6044 28 25.2178 27.8827 24.8889 27.6629C24.56 27.4431 24.3036 27.1308 24.1522 26.7653C24.0009 26.3999 23.9613 25.9977 24.0384 25.6098C24.1156 25.2218 24.3061 24.8655 24.5858 24.5857C24.8655 24.306 25.2219 24.1156 25.6098 24.0384C25.9978 23.9612 26.3999 24.0008 26.7654 24.1522C27.1308 24.3036 27.4432 24.5599 27.6629 24.8888C27.8827 25.2177 28 25.6044 28 26C27.9994 26.5302 27.7885 27.0386 27.4136 27.4135C27.0386 27.7885 26.5303 27.9994 26 28Z" fill="#F9C000"/>
<path d="M16 22.6666C15.3407 22.6666 14.6963 22.8621 14.1481 23.2284C13.5999 23.5947 13.1727 24.1153 12.9204 24.7243C12.6681 25.3334 12.6021 26.0037 12.7307 26.6503C12.8593 27.2969 13.1768 27.8908 13.643 28.357C14.1092 28.8232 14.7031 29.1406 15.3497 29.2692C15.9963 29.3979 16.6665 29.3318 17.2756 29.0796C17.8847 28.8273 18.4053 28.4 18.7716 27.8519C19.1378 27.3037 19.3333 26.6592 19.3333 26C19.3323 25.1162 18.9808 24.269 18.3559 23.6441C17.731 23.0192 16.8837 22.6677 16 22.6666ZM16 28C15.6044 28 15.2178 27.8827 14.8889 27.6629C14.56 27.4431 14.3036 27.1308 14.1522 26.7653C14.0009 26.3999 13.9613 25.9977 14.0384 25.6098C14.1156 25.2218 14.3061 24.8655 14.5858 24.5857C14.8655 24.306 15.2219 24.1156 15.6098 24.0384C15.9978 23.9612 16.3999 24.0008 16.7654 24.1522C17.1308 24.3036 17.4432 24.5599 17.6629 24.8888C17.8827 25.2177 18 25.6044 18 26C17.9994 26.5302 17.7885 27.0386 17.4136 27.4135C17.0386 27.7885 16.5303 27.9994 16 28Z" fill="#F9C000"/>
</svg>
