<svg width="32" height="32" viewBox="0 0 32 32" fill="none" xmlns="http://www.w3.org/2000/svg">
<path d="M29.1481 21.0532L24.069 15.974C23.8203 15.7254 23.4182 15.7254 23.1696 15.974C23.0479 16.0957 22.9844 16.2545 22.9844 16.4238V18.3231L19.3867 18.302C19.3179 18.302 19.2438 18.302 19.1751 18.3073V9.01672H21.0797C21.4289 9.01672 21.7146 8.73102 21.7146 8.38183C21.7146 8.21253 21.6458 8.0538 21.5294 7.93212L16.4503 2.853C16.2017 2.60434 15.7996 2.60434 15.5509 2.853L10.4718 7.93212C10.2231 8.18078 10.2231 8.58288 10.4718 8.83154C10.5935 8.95323 10.7522 9.01672 10.9215 9.01672H12.8262V11.9848C12.7521 11.9848 12.6833 11.9795 12.6093 11.9795L9.01684 12.0007V10.1013C9.01684 9.75213 8.73114 9.46643 8.38195 9.46643C8.21265 9.46643 8.05393 9.53521 7.93224 9.65161L2.85312 14.7307C2.60446 14.9794 2.60446 15.3815 2.85312 15.6301L7.93224 20.7093C8.1809 20.9579 8.583 20.9579 8.83166 20.7093C8.95335 20.5876 9.01684 20.4289 9.01684 20.2595V18.3496L12.6145 18.3284C12.7309 18.3284 12.8262 18.4237 12.8262 18.5401V28.6983C12.8262 29.0475 13.1119 29.3332 13.4611 29.3332C13.8103 29.3332 14.096 29.0475 14.096 28.6983V24.8678C14.1012 21.9473 16.4662 19.5823 19.3814 19.577L23.614 19.5982H23.6193C23.9685 19.5982 24.2542 19.3125 24.2542 18.9633V17.9581L27.799 21.5029L24.2542 25.0477V24.0424C24.2542 23.6932 23.9738 23.4075 23.6246 23.4075L19.3867 23.3864C18.5666 23.3864 17.9053 24.0477 17.9053 24.8678V28.6983C17.9053 29.0475 18.191 29.3332 18.5402 29.3332C18.8894 29.3332 19.1751 29.0475 19.1751 28.6983V24.8678C19.1751 24.7514 19.265 24.6562 19.3814 24.6562L22.9844 24.6773V26.582C22.9844 26.9312 23.2701 27.2169 23.6193 27.2169C23.7886 27.2169 23.9473 27.1481 24.069 27.0317L29.1481 21.9526C29.3968 21.7039 29.3968 21.3018 29.1481 21.0532ZM16.1382 12.9848C15.8736 12.8155 15.3657 12.588 15.3657 12.588C14.9583 12.3975 14.5351 12.2547 14.096 12.1541V8.38183C14.096 8.03264 13.8103 7.74694 13.4611 7.74694H12.4558L16.0006 4.20214L19.5454 7.74694H18.5402C18.191 7.74694 17.9053 8.03264 17.9053 8.38183V14.6672C17.7942 14.5191 17.6778 14.3709 17.5561 14.2281C17.2757 13.9107 16.9688 13.6197 16.6355 13.3604L16.1382 12.9848ZM16.0006 19.2226C15.7943 19.3813 15.3657 19.6564 15.371 19.6829C14.8896 20.0585 14.4557 20.4976 14.096 20.995V18.5401C14.096 17.72 13.4293 17.0586 12.6093 17.0586L8.37666 17.0798C8.02747 17.0798 7.74706 17.3655 7.74706 17.7147V18.7199L4.20226 15.1751L7.74706 11.6303V12.6356C7.74706 12.9848 8.03276 13.2705 8.38195 13.2705C8.38195 13.2705 8.38195 13.2705 8.38724 13.2705C8.38724 13.2705 13.1225 13.2652 13.3711 13.3022C15.9371 13.6726 17.8735 15.8894 17.9053 18.4713C17.4503 18.5771 17.0112 18.7305 16.5879 18.9316" fill="#F9C000"/>
<path d="M16.0006 19.2226C15.7943 19.3813 15.3657 19.6564 15.371 19.6829C14.8896 20.0585 14.4557 20.4976 14.096 20.995V18.5401C14.096 17.72 13.4293 17.0586 12.6093 17.0586L8.37666 17.0798C8.02747 17.0798 7.74706 17.3655 7.74706 17.7147V18.7199L4.20226 15.1751L7.74706 11.6303V12.6356C7.74706 12.9848 8.03276 13.2705 8.38195 13.2705C8.38195 13.2705 8.38195 13.2705 8.38724 13.2705C8.38724 13.2705 13.1225 13.2652 13.3711 13.3022C15.9371 13.6726 17.8735 15.8894 17.9053 18.4713C17.4503 18.5771 17.0112 18.7305 16.5879 18.9316M29.1481 21.0532L24.069 15.974C23.8203 15.7254 23.4182 15.7254 23.1696 15.974C23.0479 16.0957 22.9844 16.2545 22.9844 16.4238V18.3231L19.3867 18.302C19.3179 18.302 19.2438 18.302 19.1751 18.3073V9.01672H21.0797C21.4289 9.01672 21.7146 8.73102 21.7146 8.38183C21.7146 8.21253 21.6458 8.0538 21.5294 7.93212L16.4503 2.853C16.2017 2.60434 15.7996 2.60434 15.5509 2.853L10.4718 7.93212C10.2231 8.18078 10.2231 8.58288 10.4718 8.83154C10.5935 8.95323 10.7522 9.01672 10.9215 9.01672H12.8262V11.9848C12.7521 11.9848 12.6833 11.9795 12.6093 11.9795L9.01684 12.0007V10.1013C9.01684 9.75213 8.73114 9.46643 8.38195 9.46643C8.21265 9.46643 8.05393 9.53521 7.93224 9.65161L2.85312 14.7307C2.60446 14.9794 2.60446 15.3815 2.85312 15.6301L7.93224 20.7093C8.1809 20.9579 8.583 20.9579 8.83166 20.7093C8.95335 20.5876 9.01684 20.4289 9.01684 20.2595V18.3496L12.6145 18.3284C12.7309 18.3284 12.8262 18.4237 12.8262 18.5401V28.6983C12.8262 29.0475 13.1119 29.3332 13.4611 29.3332C13.8103 29.3332 14.096 29.0475 14.096 28.6983V24.8678C14.1012 21.9473 16.4662 19.5823 19.3814 19.577L23.614 19.5982H23.6193C23.9685 19.5982 24.2542 19.3125 24.2542 18.9633V17.9581L27.799 21.5029L24.2542 25.0477V24.0424C24.2542 23.6932 23.9738 23.4075 23.6246 23.4075L19.3867 23.3864C18.5666 23.3864 17.9053 24.0477 17.9053 24.8678V28.6983C17.9053 29.0475 18.191 29.3332 18.5402 29.3332C18.8894 29.3332 19.1751 29.0475 19.1751 28.6983V24.8678C19.1751 24.7514 19.265 24.6562 19.3814 24.6562L22.9844 24.6773V26.582C22.9844 26.9312 23.2701 27.2169 23.6193 27.2169C23.7886 27.2169 23.9473 27.1481 24.069 27.0317L29.1481 21.9526C29.3968 21.7039 29.3968 21.3018 29.1481 21.0532ZM16.1382 12.9848C15.8736 12.8155 15.3657 12.588 15.3657 12.588C14.9583 12.3975 14.5351 12.2547 14.096 12.1541V8.38183C14.096 8.03264 13.8103 7.74694 13.4611 7.74694H12.4558L16.0006 4.20214L19.5454 7.74694H18.5402C18.191 7.74694 17.9053 8.03264 17.9053 8.38183V14.6672C17.7942 14.5191 17.6778 14.3709 17.5561 14.2281C17.2757 13.9107 16.9688 13.6197 16.6355 13.3604L16.1382 12.9848Z" stroke="#F9C000" stroke-width="0.5"/>
</svg>
