<svg width="32" height="32" viewBox="0 0 32 32" fill="none" xmlns="http://www.w3.org/2000/svg">
<path fill-rule="evenodd" clip-rule="evenodd" d="M28.9017 19.0924C28.3686 18.5558 27.1865 18.2716 25.3875 18.2474C24.1698 18.2337 22.7041 18.3433 21.1625 18.5639C20.4722 18.1569 19.7608 17.714 19.2023 17.1806C17.7 15.7471 16.4459 13.7573 15.6645 11.5693C15.7154 11.365 15.7588 11.1854 15.7991 11.0021C15.7991 11.0021 16.6453 6.09064 16.4213 4.43008C16.3905 4.20234 16.3715 4.13629 16.3116 3.95927L16.2381 3.76632C16.008 3.22386 15.5567 2.64906 14.8491 2.6804L14.4342 2.66692L14.4228 2.66669C13.6338 2.66669 12.9907 3.07903 12.8219 3.69536C12.3088 5.62842 12.8383 8.52026 13.7977 12.2658L13.5521 12.8758C12.8651 14.5871 12.0042 16.3106 11.2446 17.831L11.1458 18.0288C10.3467 19.6269 9.6216 20.9834 8.96428 22.1326L8.2856 22.4993C8.23618 22.526 7.07304 23.1546 6.80022 23.3232C4.4858 24.7353 2.95212 26.3383 2.69767 27.6103C2.61668 28.0162 2.67697 28.5356 3.08876 28.7762L3.74517 29.1137C4.02992 29.2595 4.33019 29.3334 4.63781 29.3334C6.28622 29.3334 8.19996 27.2351 10.8363 22.5339C13.8801 21.5213 17.3455 20.6797 20.3827 20.2154C22.6973 21.5472 25.544 22.4721 27.3408 22.4721C27.6598 22.4721 27.9348 22.441 28.1583 22.3806C28.5029 22.2874 28.7933 22.0865 28.9704 21.814C29.319 21.278 29.3897 20.5396 29.295 19.7836C29.2668 19.5593 29.0914 19.2819 28.9017 19.0924ZM4.28049 28.0552C4.58106 27.2153 5.77096 25.555 7.53029 24.0818C7.6409 23.9901 7.91335 23.7292 8.16285 23.487C6.32306 26.4854 5.09101 27.6804 4.28049 28.0552ZM14.7009 3.53525C15.2308 3.53525 15.5322 4.90002 15.5572 6.1795C15.5822 7.45906 15.2893 8.35708 14.9261 9.02153C14.6252 8.03776 14.4798 6.48716 14.4798 5.47328C14.4798 5.47328 14.4577 3.53525 14.7009 3.53525ZM11.5925 21.0087C11.9616 20.3335 12.3457 19.6215 12.7381 18.8664C13.6947 17.0179 14.2988 15.5714 14.7488 14.3825C15.6437 16.0461 16.7582 17.4605 18.0683 18.5937C18.2317 18.735 18.4048 18.877 18.5867 19.0187C15.9225 19.5574 13.6199 20.2125 11.5925 21.0087ZM28.3899 20.8553C28.2276 20.959 27.7628 21.0189 27.4638 21.0189C26.4989 21.0189 25.305 20.5681 23.6313 19.8349C24.2744 19.7862 24.8641 19.7616 25.3929 19.7616C26.3607 19.7616 26.6474 19.7573 27.5938 20.0039C28.5402 20.2506 28.5521 20.7516 28.3899 20.8553Z" fill="#F9C000"/>
</svg>
