<svg width="32" height="32" viewBox="0 0 32 32" fill="none" xmlns="http://www.w3.org/2000/svg">
<path fill-rule="evenodd" clip-rule="evenodd" d="M12.4442 16.4329C8.926 16.4329 6.0739 13.6497 6.0739 10.2164C6.0739 6.78319 8.926 4 12.4442 4C15.9625 4 18.8146 6.78319 18.8146 10.2164C18.8146 13.6497 15.9625 16.4329 12.4442 16.4329ZM12.4481 13.2478C14.1664 13.2478 15.5593 11.8885 15.5593 10.2118C15.5593 8.53505 14.1664 7.17578 12.4481 7.17578C10.7298 7.17578 9.33692 8.53505 9.33692 10.2118C9.33692 11.8885 10.7298 13.2478 12.4481 13.2478ZM21.926 28.0004C22.826 28.0004 23.5556 27.2884 23.5556 26.4102V24.0971C23.5556 20.6638 20.7035 17.8806 17.1852 17.8806H7.70369C4.18544 17.8806 1.33334 20.6638 1.33334 24.0971V26.4102C1.33334 27.2884 2.06293 28.0004 2.96292 28.0004C3.86292 28.0004 4.5925 27.2884 4.5925 26.4102V24.0971C4.5925 22.4203 5.98543 21.061 7.70369 21.061H17.1852C18.9035 21.061 20.2964 22.4203 20.2964 24.0971V26.4102C20.2964 27.2884 21.026 28.0004 21.926 28.0004ZM30.6667 26.4094C30.6667 27.2877 29.9371 27.9996 29.0371 27.9996C28.1371 27.9996 27.4075 27.2877 27.4075 26.4094V24.0975C27.4065 22.7139 26.447 21.506 25.0742 21.1602C24.2027 20.9406 23.6787 20.0732 23.9037 19.2229C24.1287 18.3725 25.0175 17.8612 25.8889 18.0807C28.6999 18.789 30.6645 21.2622 30.6667 24.0963V26.4094ZM19.3248 5.75131C19.1015 6.60212 19.6274 7.46842 20.4992 7.68626C21.6843 7.98235 22.5131 9.02436 22.5131 10.2181C22.5131 11.4118 21.6843 12.4538 20.4992 12.7499C19.6274 12.9677 19.1015 13.834 19.3248 14.6848C19.548 15.5356 20.4358 16.0487 21.3076 15.8309C23.9348 15.1745 25.7723 12.8644 25.7723 10.2181C25.7723 7.5717 23.9348 5.26164 21.3076 4.60524C20.4358 4.3874 19.548 4.90051 19.3248 5.75131Z" fill="#F9C000"/>
</svg>
