<svg width="32" height="32" viewBox="0 0 32 32" fill="none" xmlns="http://www.w3.org/2000/svg">
<path d="M15.4771 10.866C15.4771 8.50754 13.4832 6.58826 11.0325 6.58826C8.58187 6.58826 6.58824 8.50754 6.58824 10.866C6.58824 13.2237 8.58187 15.1423 11.0325 15.1423C13.4832 15.1424 15.4771 13.2238 15.4771 10.866ZM8.79602 10.866C8.79602 9.67846 9.79927 8.71296 11.0325 8.71296C12.2657 8.71296 13.2694 9.67846 13.2694 10.866C13.2694 12.0521 12.2657 13.0176 11.0325 13.0176C9.79927 13.0176 8.79602 12.0521 8.79602 10.866Z" fill="#F9C000"/>
<path d="M20.9678 16.8577C18.5171 16.8577 16.5234 18.7763 16.5234 21.1341C16.5234 23.4925 18.5171 25.4118 20.9678 25.4118C23.4184 25.4118 25.412 23.4926 25.412 21.1341C25.412 18.7762 23.4184 16.8577 20.9678 16.8577ZM20.9678 23.2871C19.7345 23.2871 18.7312 22.3215 18.7312 21.1341C18.7312 19.9479 19.7345 18.9824 20.9678 18.9824C22.201 18.9824 23.2043 19.9479 23.2043 21.1341C23.2042 22.3215 22.2009 23.2871 20.9678 23.2871Z" fill="#F9C000"/>
<path d="M21.1043 7.13665C20.5275 6.82885 19.7985 7.02743 19.4769 7.58283L10.4042 23.2608C10.0826 23.8161 10.29 24.5174 10.8674 24.8273C11.0517 24.9255 11.2515 24.9725 11.4485 24.9725C11.8685 24.9725 12.276 24.7595 12.4949 24.3812L21.5675 8.70324C21.8891 8.14781 21.6818 7.44653 21.1043 7.13665Z" fill="#F9C000"/>
</svg>
