<svg width="32" height="32" viewBox="0 0 32 32" fill="none" xmlns="http://www.w3.org/2000/svg">
<path fill-rule="evenodd" clip-rule="evenodd" d="M4.8 20.8032H8.8C9.4048 20.8032 9.9584 20.4624 10.2304 19.92L11.4992 15.8L13.648 24.3888C13.824 25.096 14.4544 25.5936 15.184 25.6016C15.9104 25.6112 16.552 25.1264 16.744 24.424L20.04 12.368L21.6608 16.4432C21.8576 17.1312 22.4848 17.6048 23.2 17.6032H27.2C28.0832 17.6032 28.8 16.888 28.8 16.0032C28.8 15.12 28.0832 14.4032 27.2 14.4032H24.4096L21.5392 5.96159C21.3424 5.27039 20.7072 4.79359 19.9904 4.79999C19.2704 4.80479 18.6464 5.28799 18.4544 5.98079L15.2704 17.68L13.552 10.8112C13.3872 10.1632 12.8368 9.68639 12.1728 9.61439C11.5072 9.54239 10.8688 9.89119 10.5696 10.4896L7.808 17.6032H4.8C3.9168 17.6032 3.2 18.32 3.2 19.2032C3.2 20.088 3.9168 20.8032 4.8 20.8032Z" fill="#F9C000"/>
<mask id="mask0_3031_6621" style="mask-type:alpha" maskUnits="userSpaceOnUse" x="3" y="4" width="26" height="22">
<path fill-rule="evenodd" clip-rule="evenodd" d="M4.8 20.8032H8.8C9.4048 20.8032 9.9584 20.4624 10.2304 19.92L11.4992 15.8L13.648 24.3888C13.824 25.096 14.4544 25.5936 15.184 25.6016C15.9104 25.6112 16.552 25.1264 16.744 24.424L20.04 12.368L21.6608 16.4432C21.8576 17.1312 22.4848 17.6048 23.2 17.6032H27.2C28.0832 17.6032 28.8 16.888 28.8 16.0032C28.8 15.12 28.0832 14.4032 27.2 14.4032H24.4096L21.5392 5.96159C21.3424 5.27039 20.7072 4.79359 19.9904 4.79999C19.2704 4.80479 18.6464 5.28799 18.4544 5.98079L15.2704 17.68L13.552 10.8112C13.3872 10.1632 12.8368 9.68639 12.1728 9.61439C11.5072 9.54239 10.8688 9.89119 10.5696 10.4896L7.808 17.6032H4.8C3.9168 17.6032 3.2 18.32 3.2 19.2032C3.2 20.088 3.9168 20.8032 4.8 20.8032Z" fill="white"/>
</mask>
<g mask="url(#mask0_3031_6621)">
</g>
</svg>
