<svg width="32" height="32" viewBox="0 0 32 32" fill="none" xmlns="http://www.w3.org/2000/svg">
<path fill-rule="evenodd" clip-rule="evenodd" d="M16.0103 5.27433C12.8952 5.27433 10.3253 7.6992 10.3253 10.5754C10.3253 13.4516 12.8952 15.9315 16.0103 15.9315C19.1255 15.9315 21.6212 13.4516 21.6212 10.5754C21.6212 7.6992 19.1255 5.27433 16.0103 5.27433ZM23.7757 29.3333C23.4049 29.3371 23.0477 29.2018 22.7828 28.9573C22.5179 28.7127 22.367 28.379 22.3633 28.0295C22.3633 27.3098 22.9955 26.7257 23.7743 26.7257H24.3815C25.3581 26.7257 26.0802 25.8169 25.7095 24.9812C23.9998 21.1167 20.6896 18.539 16.0099 18.539C11.3289 18.539 8.04066 21.1167 6.33092 24.9812C5.9602 25.8169 6.68227 26.7257 7.65887 26.7257H8.26475C9.04492 26.7257 9.67708 27.3098 9.67708 28.0295C9.67708 28.7492 9.04492 29.3333 8.26613 29.3333H5.74579C3.98072 29.3333 2.34691 27.7775 2.72039 26.1856C3.74817 21.8061 7.08506 18.0681 10.7037 16.8088C8.77536 15.376 7.50025 13.0395 7.50025 10.5753C7.50025 6.2438 11.3489 2.64926 16.0437 2.66675C16.367 2.66796 16.6945 2.68588 17.0253 2.72142C20.7449 3.12038 23.7884 5.9429 24.3472 9.36278C24.8259 12.3107 23.5571 15.1439 21.3162 16.8088C24.8259 18.0253 28.2507 21.8061 29.2785 26.1856C29.6519 27.7775 28.0597 29.3333 26.2946 29.3333H23.7757ZM20.4165 25.264L16.0094 29.3332L13.0146 26.5678C12.75 26.3257 12.6007 25.993 12.6007 25.6454C12.6007 25.2978 12.75 24.965 13.0146 24.7229C13.5709 24.2151 14.4544 24.2151 15.0107 24.7229L16.0094 25.646L18.4191 23.4191C18.9724 22.9107 19.866 22.9107 20.4165 23.4191C20.9685 23.9289 20.9685 24.7542 20.4165 25.264Z" fill="#F9C000"/>
</svg>
