<svg width="32" height="32" viewBox="0 0 32 32" fill="none" xmlns="http://www.w3.org/2000/svg">
<path fill-rule="evenodd" clip-rule="evenodd" d="M20.2388 12.9319H28.1929C28.8272 12.9319 29.3342 12.4232 29.3342 11.7877C29.3342 9.55635 28.5272 7.41773 27.0519 5.75308C25.3228 3.78772 22.8443 2.66669 20.2275 2.66669C19.5932 2.66669 19.086 3.17519 19.086 3.81085V11.7877C19.0978 12.4232 19.605 12.9319 20.2388 12.9319ZM15.1568 5.18805L14.3849 5.18806C3.92532 5.22865 -0.928215 17.7164 5.68827 25.3139C12.6486 33.3062 26.7426 28.6669 26.7919 17.6908L26.7921 16.8852C26.7939 16.8572 26.7948 16.8289 26.7948 16.8005C26.7948 16.0892 26.2192 15.5127 25.5091 15.5127H16.4796V6.47531C16.4796 5.76408 15.904 5.18752 15.1939 5.18752C15.1815 5.18752 15.1691 5.1877 15.1568 5.18805ZM24.2102 18.0883H13.9082V7.77725C6.07534 8.18835 2.50933 17.7455 7.62597 23.6208C12.9819 29.7709 23.8253 26.3292 24.2102 18.0883Z" fill="#F9C000"/>
</svg>
