<svg width="32" height="32" viewBox="0 0 32 32" fill="none" xmlns="http://www.w3.org/2000/svg">
<path fill-rule="evenodd" clip-rule="evenodd" d="M22.698 25.3469H13.3803C13.958 24.6573 14.513 23.6827 14.9528 22.6561C15.5165 21.3426 15.8827 19.7415 15.8816 17.8637C15.8816 17.343 15.7832 16.5822 15.7251 16.0188H20.0611C20.7792 16.0188 21.3487 15.4353 21.3487 14.6667C21.3487 13.8971 20.7792 13.3815 20.0611 13.3815L15.4069 13.3381C15.3679 12.9853 15.3883 12.7307 15.3493 12.3659C15.2426 11.3802 15.1498 10.4055 15.1255 9.91632L15.1186 9.69176C15.1195 8.54266 15.5878 7.50405 16.3692 6.71775C17.1499 5.93535 18.2306 5.44891 19.3703 5.45069C20.1449 5.45069 20.8612 5.67428 21.4874 6.06224C22.1084 6.44841 22.9047 6.22287 23.2655 5.55827C23.6264 4.89366 23.4156 4.04149 22.7937 3.65532C21.7929 3.03258 20.6184 2.66669 19.3703 2.66669C17.5427 2.66847 15.8463 3.43157 14.5931 4.6837C13.3407 5.93129 12.5158 7.70882 12.5158 9.69241C12.5158 9.81508 12.5193 9.94391 12.527 10.0778C12.5677 10.8511 12.6462 12.0885 12.786 13.3391L9.39088 13.3381C8.67269 13.3381 8 13.8971 8 14.6667C8.00091 15.4355 8.6736 16.019 9.39164 16.019L13.1095 16.0199C13.1832 16.601 13.2799 17.359 13.2799 17.8648C13.279 19.3602 12.9963 20.5381 12.5869 21.4969C11.9736 22.9292 11.0509 23.887 10.2695 24.4933C9.8809 24.7951 9.53037 25.1364 9.28763 25.2664C9.16528 25.3314 9.07082 25.3767 9.01276 25.4028L8.9512 25.4298C8.35445 25.659 8.00058 26.181 8.10899 26.8472C8.21739 27.5137 8.75774 28 9.39088 28H22.6984C23.4165 28 24 27.4363 24 26.6677C23.9997 25.8979 23.4162 25.3469 22.698 25.3469Z" fill="#F9C000"/>
</svg>
