<svg width="32" height="32" viewBox="0 0 32 32" fill="none" xmlns="http://www.w3.org/2000/svg">
<path d="M4.46094 8.5625H7.79912C7.28298 7.8765 6.97656 7.0242 6.97656 6.10156C6.97656 3.83996 8.81652 2 11.0781 2C12.4404 2 13.445 2.48809 14.2396 3.53601C14.9043 4.41276 15.3903 5.63688 16 7.18355C16.6097 5.63683 17.0957 4.41276 17.7604 3.53601C18.555 2.48809 19.5596 2 20.9219 2C23.1835 2 25.0234 3.83996 25.0234 6.10156C25.0234 7.0242 24.717 7.8765 24.2009 8.5625H27.5391C28.896 8.5625 30 9.66648 30 11.0234V12.6641C30 13.7335 29.3142 14.6453 28.3594 14.9839V27.5391C28.3594 28.896 27.2554 30 25.8984 30H6.10156C4.7446 30 3.64062 28.896 3.64062 27.5391V14.9839C2.68584 14.6453 2 13.7335 2 12.6641V11.0234C2 9.66648 3.10398 8.5625 4.46094 8.5625ZM14.4942 7.83734C13.2376 4.64917 12.7598 3.64062 11.0781 3.64062C9.72116 3.64062 8.61719 4.7446 8.61719 6.10156C8.61719 7.45852 9.72116 8.5625 11.0781 8.5625H14.7812C14.6807 8.31012 14.5848 8.06714 14.4942 7.83734ZM20.9219 3.64062C19.2402 3.64062 18.7624 4.64917 17.5058 7.83734C17.4152 8.06714 17.3193 8.31012 17.2188 8.5625H20.9219C22.2788 8.5625 23.3828 7.45852 23.3828 6.10156C23.3828 4.7446 22.2788 3.64062 20.9219 3.64062ZM19.2812 28.3594H25.8984C26.3508 28.3594 26.7188 27.9914 26.7188 27.5391V15.125H19.2812V28.3594ZM19.2812 13.4844H27.5391C27.9914 13.4844 28.3594 13.1164 28.3594 12.6641V11.0234C28.3594 10.5711 27.9914 10.2031 27.5391 10.2031H19.2812V13.4844ZM14.3594 28.3594H17.6406V10.2031C17.4687 10.2031 15.3022 10.2031 14.3594 10.2031V28.3594ZM5.28125 27.5391C5.28125 27.9914 5.64924 28.3594 6.10156 28.3594H12.7188V15.125H5.28125V27.5391ZM3.64062 12.6641C3.64062 13.1164 4.00862 13.4844 4.46094 13.4844H12.7188V10.2031H4.46094C4.00862 10.2031 3.64062 10.5711 3.64062 11.0234V12.6641Z" fill="#F9C000"/>
</svg>
