<svg width="32" height="32" viewBox="0 0 32 32" fill="none" xmlns="http://www.w3.org/2000/svg">
<path fill-rule="evenodd" clip-rule="evenodd" d="M24.619 4.00012C24.0667 4.00012 23.619 4.44784 23.619 5.00012V27C23.619 27.5523 24.0667 28 24.619 28H25.6667C26.219 28 26.6667 27.5523 26.6667 27V5.00012C26.6667 4.44784 26.219 4.00012 25.6667 4.00012H24.619ZM17.5236 11.0001C17.5236 10.4478 17.9713 10.0001 18.5236 10.0001H19.5712C20.1234 10.0001 20.5712 10.4478 20.5712 11.0001V27C20.5712 27.5523 20.1234 28 19.5712 28H18.5236C17.9713 28 17.5236 27.5523 17.5236 27V11.0001ZM12.4284 15.9998C11.8761 15.9998 11.4284 16.4475 11.4284 16.9998V26.9997C11.4284 27.552 11.8761 27.9997 12.4284 27.9997H13.4761C14.0283 27.9997 14.4761 27.552 14.4761 26.9997V16.9998C14.4761 16.4475 14.0283 15.9998 13.4761 15.9998H12.4284ZM6.33333 19C5.78104 19 5.33333 19.4477 5.33333 20V26.9999C5.33333 27.5522 5.78104 27.9999 6.33333 27.9999H7.38085C7.93313 27.9999 8.38085 27.5522 8.38085 26.9999V20C8.38085 19.4477 7.93313 19 7.38085 19H6.33333Z" fill="#F9C000"/>
</svg>
