<svg width="32" height="32" viewBox="0 0 32 32" fill="none" xmlns="http://www.w3.org/2000/svg">
<path fill-rule="evenodd" clip-rule="evenodd" d="M10.4862 29.3334C13.6943 29.3334 15.4988 27.3055 15.4988 24.9734C15.4988 20.5121 11.2882 19.4981 10.386 19.0925C9.68423 18.7884 8.88222 17.5716 8.88222 16.2535C8.88222 11.2852 13.0927 6.82385 15.198 4.79596C16 4.1876 16 3.98481 16 3.47784C16 2.97087 15.6993 2.66669 14.9975 2.66669C14.2958 2.66669 13.6943 3.17366 13.193 3.47784C11.3885 4.59318 2.66669 10.981 2.66669 20.6135C2.66669 26.2915 7.37847 29.3334 10.4862 29.3334ZM25.0946 29.3334C28.2786 29.3334 30.1692 27.3055 30.1692 24.9734C30.1692 20.5121 25.8906 19.4981 24.9951 19.0925C24.2985 18.7884 23.5025 17.5716 23.5025 16.2535C23.5025 11.2852 27.6816 6.82385 29.8707 4.79596C30.6667 4.1876 30.6667 3.98481 30.6667 3.47784C30.6667 2.97087 30.3682 2.66669 29.6717 2.66669C28.8757 2.66669 28.2786 3.17366 27.7811 3.47784C25.9901 4.59318 17.3334 10.981 17.3334 20.6135C17.3334 26.2915 22.1095 29.3334 25.0946 29.3334Z" fill="#F9C000"/>
</svg>
