<svg width="32" height="32" viewBox="0 0 32 32" fill="none" xmlns="http://www.w3.org/2000/svg">
<mask id="mask0_3031_6638" style="mask-type:alpha" maskUnits="userSpaceOnUse" x="2" y="2" width="28" height="28">
<path d="M26.6644 14.211C27.275 13.6313 28.2649 13.6313 28.8754 14.211C29.486 14.7907 29.486 15.7306 28.8754 16.3103L17.7464 26.8769C14.2967 30.1522 8.70363 30.1522 5.25395 26.8769C1.80427 23.6015 1.80427 18.2912 5.25395 15.0159L16.383 4.44928C18.8863 2.07249 22.945 2.07249 25.4483 4.44928C27.9516 6.82606 27.9516 10.6796 25.4477 13.0569L14.3071 23.623C12.7502 25.1012 10.2259 25.1012 8.66896 23.623C7.11203 22.1447 7.11203 19.748 8.66962 18.2691L18.951 8.51892C19.5619 7.93956 20.5518 7.94011 21.162 8.52015C21.7722 9.1002 21.7716 10.0401 21.1607 10.6194L10.88 20.369C10.5442 20.6879 10.5442 21.2048 10.88 21.5237C11.2158 21.8425 11.7603 21.8425 12.0967 21.5231L23.2373 10.9571C24.5195 9.73971 24.5195 7.76594 23.2373 6.54856C21.9551 5.33118 19.8762 5.33118 18.5941 6.54856L7.46499 17.1151C5.23642 19.2311 5.23642 22.6617 7.46499 24.7776C9.69355 26.8935 13.3068 26.8935 15.5353 24.7776L26.6644 14.211Z" fill="white"/>
</mask>
<g mask="url(#mask0_3031_6638)">
<path d="M26.6644 14.211C27.275 13.6313 28.2649 13.6313 28.8754 14.211C29.486 14.7907 29.486 15.7306 28.8754 16.3103L17.7464 26.8769C14.2967 30.1522 8.70363 30.1522 5.25395 26.8769C1.80427 23.6015 1.80427 18.2912 5.25395 15.0159L16.383 4.44928C18.8863 2.07249 22.945 2.07249 25.4483 4.44928C27.9516 6.82606 27.9516 10.6796 25.4477 13.0569L14.3071 23.623C12.7502 25.1012 10.2259 25.1012 8.66896 23.623C7.11203 22.1447 7.11203 19.748 8.66962 18.2691L18.951 8.51892C19.5619 7.93956 20.5518 7.94011 21.162 8.52015C21.7722 9.1002 21.7716 10.0401 21.1607 10.6194L10.88 20.369C10.5442 20.6879 10.5442 21.2048 10.88 21.5237C11.2158 21.8425 11.7603 21.8425 12.0967 21.5231L23.2373 10.9571C24.5195 9.73971 24.5195 7.76594 23.2373 6.54856C21.9551 5.33118 19.8762 5.33118 18.5941 6.54856L7.46499 17.1151C5.23642 19.2311 5.23642 22.6617 7.46499 24.7776C9.69355 26.8935 13.3068 26.8935 15.5353 24.7776L26.6644 14.211Z" fill="#F9C000"/>
</g>
</svg>
