<svg width="32" height="32" viewBox="0 0 32 32" fill="none" xmlns="http://www.w3.org/2000/svg">
<path fill-rule="evenodd" clip-rule="evenodd" d="M14.9091 6.18183C10.0892 6.18183 6.18183 10.0892 6.18183 14.9091C6.18183 19.7291 10.0892 23.6365 14.9091 23.6365C19.7291 23.6365 23.6365 19.7291 23.6365 14.9091C23.6365 10.0892 19.7291 6.18183 14.9091 6.18183ZM4 14.9091C4 8.88419 8.88419 4 14.9091 4C20.9341 4 25.8183 8.88419 25.8183 14.9091C25.8183 20.9341 20.9341 25.8183 14.9091 25.8183C8.88419 25.8183 4 20.9341 4 14.9091Z" fill="#F9C000"/>
<path fill-rule="evenodd" clip-rule="evenodd" d="M21.7742 21.7742C22.2003 21.3481 22.891 21.3481 23.317 21.7742L27.6807 26.1378C28.1067 26.5639 28.1067 27.2546 27.6807 27.6806C27.2546 28.1066 26.5639 28.1066 26.1379 27.6806L21.7742 23.317C21.3482 22.8909 21.3482 22.2002 21.7742 21.7742Z" fill="#F9C000"/>
</svg>
