<svg width="32" height="32" viewBox="0 0 32 32" fill="none" xmlns="http://www.w3.org/2000/svg">
<path d="M16.0068 20.2862C16.5882 20.2862 17.0749 19.8396 17.0749 19.3186V6.57776L16.9938 4.72929L17.9132 5.6101L19.9549 7.60744C20.1442 7.80594 20.4282 7.90518 20.6851 7.90518C21.253 7.90518 21.6721 7.53301 21.6721 7.03677C21.6721 6.76385 21.5639 6.56535 21.3611 6.37926L16.791 2.33496C16.5206 2.08684 16.2772 2 16.0068 2C15.7228 2 15.493 2.08684 15.2225 2.33496L10.6524 6.37926C10.4496 6.56535 10.3279 6.76385 10.3279 7.03677C10.3279 7.53301 10.7335 7.90518 11.3014 7.90518C11.5718 7.90518 11.8558 7.80594 12.0451 7.60744L14.1003 5.6101L15.0197 4.71688L14.9251 6.57776V19.3186C14.9251 19.8396 15.4254 20.2862 16.0068 20.2862ZM8.24563 30H23.7544C26.5938 30 28 28.7098 28 26.1542V13.922C28 11.3664 26.5938 10.0762 23.7544 10.0762H19.9955V12.0735H23.7273C25.0524 12.0735 25.8231 12.7311 25.8231 14.0213V26.0549C25.8231 27.3451 25.0524 28.0027 23.7273 28.0027H8.2862C6.93408 28.0027 6.1769 27.3451 6.1769 26.0549V14.0213C6.1769 12.7311 6.93408 12.0735 8.2862 12.0735H12.018V10.0762H8.24563C5.43324 10.0762 4 11.354 4 13.922V26.1542C4 28.7222 5.43324 30 8.24563 30Z" fill="#F9C000"/>
</svg>
