<svg width="32" height="32" viewBox="0 0 32 32" fill="none" xmlns="http://www.w3.org/2000/svg">
<path d="M24 21.511C25.0833 21.511 26 21.9084 26.75 22.7032C27.5 23.4561 27.875 24.3555 27.875 25.4012C27.875 26.4888 27.4792 27.43 26.6875 28.2248C25.9375 28.9777 25.0417 29.3542 24 29.3542C22.9583 29.3542 22.0417 28.9777 21.25 28.2248C20.5 27.43 20.125 26.4888 20.125 25.4012C20.125 24.9829 20.1458 24.6901 20.1875 24.5228L10.75 19.0012C9.95833 19.7123 9.04167 20.0679 8 20.0679C6.91667 20.0679 5.97917 19.6705 5.1875 18.8757C4.39583 18.081 4 17.1398 4 16.0522C4 14.9646 4.39583 14.0234 5.1875 13.2287C5.97917 12.4339 6.91667 12.0365 8 12.0365C9.04167 12.0365 9.95833 12.3921 10.75 13.1032L20.125 7.64436C20.0417 7.22606 20 6.91234 20 6.70319C20 5.6156 20.3958 4.67443 21.1875 3.87966C21.9792 3.08489 22.9167 2.6875 24 2.6875C25.0833 2.6875 26.0208 3.08489 26.8125 3.87966C27.6042 4.67443 28 5.6156 28 6.70319C28 7.79077 27.6042 8.73194 26.8125 9.52672C26.0208 10.3215 25.0833 10.7189 24 10.7189C23 10.7189 22.0833 10.3424 21.25 9.58946L11.875 15.111C11.9583 15.5293 12 15.8431 12 16.0522C12 16.2614 11.9583 16.5751 11.875 16.9934L21.375 22.5149C22.125 21.8457 23 21.511 24 21.511Z" fill="#F9C000"/>
</svg>
