<svg width="32" height="32" viewBox="0 0 32 32" fill="none" xmlns="http://www.w3.org/2000/svg">
<path fill-rule="evenodd" clip-rule="evenodd" d="M23.4163 24.823C24.0572 24.823 24.6982 24.6035 25.2933 24.1207C25.8427 23.6378 26.3004 22.9794 26.6667 22.1893C25.6595 22.0576 24.6524 21.6186 23.6452 20.8724C22.6381 20.1701 21.6767 19.3799 20.8069 18.4581C20.2118 17.8875 19.6624 17.3168 19.1588 16.7023L17.6023 14.9465C18.289 14.2003 18.9757 13.4979 19.6624 12.7956C20.3033 12.181 21.0816 11.5226 21.9056 10.8203C22.7296 10.1618 23.4621 9.50341 24.103 8.84497C24.7439 8.23043 25.0644 7.74758 25.0644 7.4842C25.0644 6.86966 24.7439 6.38681 24.1946 5.94785C23.691 5.55279 23.0959 5.33331 22.455 5.33331C22.1345 5.33331 21.7225 5.55279 21.1731 5.94785C20.578 6.34292 19.8455 6.91356 19.0215 7.65979L16.8241 9.76678C16.1831 10.4252 15.5422 11.0837 14.9013 11.786C14.352 11.1276 13.8484 10.4691 13.299 9.76678C12.7497 9.10835 12.2003 8.40601 11.6967 7.70368C11.3305 7.26473 10.8727 6.82577 10.2776 6.38681C9.63665 5.94785 9.04151 5.72837 8.44638 5.72837C8.1717 5.72837 7.89702 5.77227 7.62234 5.86006C7.30188 5.99175 7.02721 6.12344 6.79831 6.29902C6.52363 6.4746 6.34051 6.65019 6.20317 6.82577C6.02005 7.08914 5.97427 7.30862 5.97427 7.5281C5.97427 8.09874 6.06583 8.5816 6.34051 8.93276C6.43207 9.10835 6.56941 9.28393 6.70675 9.41562L7.16455 9.85457C7.43922 10.2057 7.75968 10.513 8.08014 10.7764L8.85839 11.5226C9.36197 12.0933 9.86555 12.6639 10.4149 13.2345L12.0172 15.0343L8.99573 18.5898C7.57656 20.1701 6.61519 21.3553 6.11161 22.1015C5.56226 22.8916 5.33336 23.5061 5.33336 23.8573C5.33336 25.262 6.56941 26.1838 9.13307 26.6666C9.77399 25.4815 10.3691 24.4719 10.8727 23.6817C11.3305 22.9355 11.8341 22.1893 12.3834 21.3992C12.7497 20.8724 13.1159 20.3457 13.5279 19.8189C13.8942 19.2922 14.3062 18.7215 14.764 18.1509C15.3133 18.8532 15.9085 19.5116 16.5494 20.1701L18.4263 22.321C19.1588 23.1989 19.9829 23.8134 20.8984 24.2085C21.814 24.6474 22.6381 24.823 23.4163 24.823Z" fill="#F9C000"/>
</svg>
