<svg width="32" height="32" viewBox="0 0 32 32" fill="none" xmlns="http://www.w3.org/2000/svg">
<path d="M28.8983 12.7872C28.6748 12.0679 28.1176 11.5219 27.4225 11.3342L21.2106 9.66733L17.7737 3.99663C16.971 2.67068 15.0318 2.6649 14.2236 3.99663L10.7921 9.67021L4.58023 11.337C3.88236 11.5219 3.32516 12.0708 3.10173 12.7872C2.88106 13.5036 3.0245 14.2894 3.48239 14.87L7.57309 20.0439L7.16485 26.7458C6.84488 31.9977 14.3753 26.4223 15.9972 26.4541C17.6357 26.4887 25.1468 31.937 24.8296 26.7458L24.4269 20.0439L28.5176 14.87C28.9755 14.2923 29.1189 13.5036 28.8983 12.7872Z" fill="#F9C000"/>
</svg>
