<svg width="32" height="32" viewBox="0 0 32 32" fill="none" xmlns="http://www.w3.org/2000/svg">
<path fill-rule="evenodd" clip-rule="evenodd" d="M6.28374 21.1313C6.19088 21.6731 5.52443 25.5611 6.05932 26C6.51187 26.3713 8.45485 26.1143 10.0357 25.9052C10.4611 25.849 10.8603 25.7962 11.1972 25.76C16.2339 28.2632 22.4238 26.8768 25.7768 22.5005C29.1312 18.1241 28.6424 12.0588 24.6308 8.22164C20.6236 4.38443 14.2828 3.91956 9.70618 7.12549C5.12958 10.3314 3.68025 16.2523 6.29422 21.0687C6.29432 21.0696 6.29059 21.0913 6.28374 21.1313ZM16.3474 10C18.2674 10 20.1577 10.969 20.1577 13.2867C20.1577 14.7799 19.0669 15.6311 18.2457 16.2718C17.8914 16.5483 17.5873 16.7855 17.4427 17.0183C17.339 17.1836 17.2751 17.3681 17.2131 17.5471C17.0597 17.9904 16.9178 18.4 16.2126 18.4C15.5676 18.4 15.2526 17.8251 15.2526 17.2991C15.2526 16.273 15.9739 15.663 16.6602 15.0827C17.283 14.5561 17.877 14.0538 17.877 13.2871C17.877 12.3999 17.3382 11.874 16.4377 11.874C15.4111 11.874 15.1478 12.4941 14.9027 13.0712C14.6894 13.5734 14.4899 14.0431 13.8133 14.0431C13.2883 14.0431 12.8377 13.6979 12.8377 13.0408C12.8373 11.4286 14.517 10 16.3474 10ZM16.4978 19.5996C17.166 19.5996 17.7174 20.1402 17.7174 20.7996C17.7174 21.459 17.1671 21.9996 16.4978 21.9996C15.8286 21.9996 15.278 21.4597 15.278 20.7996C15.278 20.1406 15.8286 19.5996 16.4978 19.5996Z" fill="#F9C000"/>
</svg>
