<svg width="32" height="32" viewBox="0 0 32 32" fill="none" xmlns="http://www.w3.org/2000/svg">
<path d="M25.3333 4H21.3333C19.8606 4 18.6667 5.19391 18.6667 6.66667V10.6667C18.6667 12.1394 19.8606 13.3333 21.3333 13.3333H25.3333C26.8061 13.3333 28 12.1394 28 10.6667V6.66667C28 5.19391 26.8061 4 25.3333 4Z" stroke="#F9C000" stroke-width="2" stroke-linejoin="round"/>
<path d="M10.6667 18.6667H6.66667C5.19391 18.6667 4 19.8606 4 21.3333V25.3333C4 26.8061 5.19391 28 6.66667 28H10.6667C12.1394 28 13.3333 26.8061 13.3333 25.3333V21.3333C13.3333 19.8606 12.1394 18.6667 10.6667 18.6667Z" stroke="#F9C000" stroke-width="2" stroke-linejoin="round"/>
<path d="M25.3333 18.6667H21.3333C19.8606 18.6667 18.6667 19.8606 18.6667 21.3333V25.3333C18.6667 26.8061 19.8606 28 21.3333 28H25.3333C26.8061 28 28 26.8061 28 25.3333V21.3333C28 19.8606 26.8061 18.6667 25.3333 18.6667Z" stroke="#F9C000" stroke-width="2" stroke-linejoin="round"/>
<path d="M10.6667 4H6.66667C5.19391 4 4 5.19391 4 6.66667V10.6667C4 12.1394 5.19391 13.3333 6.66667 13.3333H10.6667C12.1394 13.3333 13.3333 12.1394 13.3333 10.6667V6.66667C13.3333 5.19391 12.1394 4 10.6667 4Z" fill="#F9C000" stroke="#F9C000" stroke-width="2" stroke-linejoin="round"/>
</svg>
