<svg width="32" height="32" viewBox="0 0 32 32" fill="none" xmlns="http://www.w3.org/2000/svg">
<path fill-rule="evenodd" clip-rule="evenodd" d="M22.4895 29.3337C24.8753 29.3337 26.4431 28.6929 27.8201 27.1387C27.9291 27.0297 28.0382 26.907 28.1336 26.7979C28.9516 25.8845 29.3334 24.9847 29.3334 24.1258C29.3334 23.1442 28.7608 22.2308 27.5474 21.3855L23.5801 18.6316C22.3531 17.7863 20.9216 17.6909 19.7764 18.8224L18.7267 19.8722C18.4131 20.1858 18.1404 20.1994 17.8405 20.0085C17.1043 19.545 15.6183 18.2498 14.6094 17.241C13.546 16.1912 12.5235 15.0188 11.9782 14.1599C11.801 13.8463 11.8146 13.5873 12.1282 13.2737L13.1643 12.2239C14.3095 11.0788 14.2141 9.63363 13.3688 8.42026L10.6149 4.45299C9.76962 3.23962 8.85619 2.68066 7.87459 2.66703C7.0157 2.65339 6.1159 3.04876 5.20247 3.86675C5.07977 3.97582 4.97071 4.07125 4.86164 4.16669C3.30745 5.55728 2.66669 7.1251 2.66669 9.48366C2.66669 13.3828 5.06614 18.1271 9.46969 22.5307C13.846 26.907 18.604 29.3337 22.4895 29.3337ZM22.503 27.234C19.0266 27.3022 14.5685 24.63 11.0375 21.1127C7.47918 17.568 4.68436 12.96 4.75253 9.48349C4.77979 7.98383 5.31149 6.68867 6.37489 5.7616C6.47032 5.67981 6.53849 5.61164 6.63392 5.54347C7.04292 5.18901 7.47918 4.99814 7.87455 4.99814C8.26991 4.99814 8.62437 5.14811 8.88341 5.55711L11.5283 9.52439C11.8146 9.94702 11.8418 10.4242 11.4192 10.8468L10.2195 12.0465C9.27877 12.9872 9.34694 14.1324 10.0286 15.0459C10.8057 16.0956 12.1554 17.6225 13.2052 18.6587C14.2413 19.7084 15.8909 21.1808 16.9543 21.9716C17.8677 22.6532 19.0129 22.7214 19.9536 21.7807L21.1533 20.581C21.576 20.1583 22.0395 20.1856 22.4758 20.4583L26.4431 23.1031C26.8521 23.3758 27.002 23.7166 27.002 24.1256C27.002 24.521 26.8111 24.9572 26.4567 25.3662C26.3749 25.4617 26.3204 25.5298 26.2386 25.6253C25.3115 26.6887 24.0163 27.2067 22.503 27.234Z" fill="#F9C000"/>
</svg>
