<svg width="32" height="32" viewBox="0 0 32 32" fill="none" xmlns="http://www.w3.org/2000/svg">
<path fill-rule="evenodd" clip-rule="evenodd" d="M10.2226 9.33614C7.98108 11.418 7.03197 14.5899 7.74159 17.6105C7.88758 18.2105 7.52716 18.8174 6.95545 18.9641C6.86504 18.9894 6.77878 19 6.68512 19C6.18572 19 5.74706 18.6511 5.62782 18.1447C4.72653 14.3249 5.92833 10.3118 8.76307 7.67417C10.8227 5.75562 13.4945 4.77604 16.2719 4.92065C18.1593 5.01802 19.9492 5.62187 21.4884 6.67049L21.4327 5.16423C21.4085 4.54281 21.877 4.02568 22.4794 4.00093C23.0789 3.97595 23.5857 4.4582 23.6099 5.07944L23.7579 9.15322V9.22678C23.7579 9.83115 23.2971 10.3223 22.7092 10.3471L18.6999 10.4992C18.0945 10.4992 17.613 10.0248 17.5889 9.42155C17.5647 8.80012 18.0332 8.283 18.6368 8.25819L19.757 8.21461C16.737 6.48929 12.8814 6.86508 10.2226 9.33614ZM16.2883 24.8482C18.3089 24.8482 20.2622 24.0891 21.7914 22.6646C24.0272 20.5808 24.9745 17.4076 24.2637 14.3891C24.1184 13.7898 24.4775 13.183 25.058 13.0334C25.6392 12.8835 26.2276 13.2537 26.3728 13.8523C27.2714 17.6789 26.0748 21.6872 23.2485 24.3262C21.3232 26.1186 18.8712 27.0941 16.2928 27.0941C16.1187 27.0941 15.9408 27.0893 15.7644 27.0797C13.9196 26.9836 12.1647 26.3975 10.6448 25.3812L10.7645 26.7729C10.8205 27.3916 10.3806 27.9348 9.85532 27.9803C9.78939 27.9973 9.73171 28.001 9.68423 27.9999C9.12356 27.9999 8.65176 27.5563 8.60379 26.9792L8.2472 22.8935C8.1912 22.2749 8.63108 21.7317 9.23053 21.6732L13.1932 21.3056C13.7942 21.2477 14.3204 21.6981 14.3765 22.3178C14.4325 22.9364 13.9926 23.4797 13.3932 23.5381L12.0811 23.6601C13.3487 24.4378 14.8023 24.8482 16.2883 24.8482Z" fill="#F9C000"/>
</svg>
