<svg width="32" height="32" viewBox="0 0 32 32" fill="none" xmlns="http://www.w3.org/2000/svg">
<path fill-rule="evenodd" clip-rule="evenodd" d="M27.759 14.5527L17.1597 5.49008C16.9629 5.32169 16.6875 5.28597 16.4563 5.39823C16.2252 5.51049 16.0776 5.75543 16.0776 6.02078V10.797C10.9329 10.9909 7.39654 12.8739 5.55704 16.3999C3.97329 19.4412 3.98805 23.0438 4.0028 25.4268C4.0028 25.6208 4.0028 25.8045 4.0028 25.978C4.0028 26.2892 4.20446 26.5648 4.49957 26.6464C4.55367 26.6617 4.61269 26.6668 4.6668 26.6668C4.90288 26.6668 5.12421 26.5393 5.24226 26.3198C8.83273 19.7525 11.7887 19.4361 16.0727 19.4208V24.1818C16.0727 24.4471 16.2203 24.692 16.4563 24.8043C16.6924 24.9166 16.9629 24.8808 17.1646 24.7125L27.759 15.6192C27.9114 15.4865 28 15.2926 28 15.0885C28 14.8844 27.9114 14.6854 27.759 14.5527ZM17.5191 22.2236V18.5033C17.5191 18.3319 17.4534 18.1699 17.3313 18.0508C17.2139 17.9317 17.0495 17.8603 16.8852 17.8603C14.3306 17.8603 12.3724 17.9317 10.4705 18.832C8.82692 19.6084 6.90406 20.9279 5.49997 23C5.55632 21.1089 6.30051 18.8511 7.31953 16.9409C8.93493 13.9114 12.0624 12.4109 16.8852 12.3681C17.2327 12.3633 17.5144 12.0775 17.5144 11.725V8L26 15.1023L17.5191 22.2236Z" fill="#F9C000"/>
</svg>
