<svg width="32" height="32" viewBox="0 0 32 32" fill="none" xmlns="http://www.w3.org/2000/svg">
<path fill-rule="evenodd" clip-rule="evenodd" d="M22.8356 6.47621H26.7386C26.7386 6.47621 28 6.47621 28 7.42859C28 8.38097 26.7386 8.38097 26.7386 8.38097L25.8873 25.7343C25.7942 27.753 24.0421 29.3334 21.8985 29.3334H10.1123C7.96854 29.3334 6.21618 27.753 6.12335 25.7343L5.27198 8.38097C5.27198 8.38097 4 8.38097 4 7.42859C4 6.47621 4.73313 6.47621 5.27198 6.47621H9.17501V4.66937C9.17501 3.63767 10.0318 2.66669 11.1265 2.66669H20.8841C21.9788 2.66669 22.8356 3.63767 22.8356 4.66937V6.47621ZM15.0297 24.4353C15.0297 25.0369 15.4664 25.5238 16.0053 25.5238C16.5442 25.5238 16.9812 25.0369 16.9812 24.4353V11.374C16.9812 10.7724 16.5442 10.2857 16.0053 10.2857C15.4664 10.2857 15.0297 10.7724 15.0297 11.374V24.4353ZM18.9327 24.4353V11.374C18.9327 10.7724 19.3695 10.2857 19.9083 10.2857C20.4472 10.2857 20.8842 10.7724 20.8842 11.374V24.4353C20.8842 25.0369 20.4472 25.5238 19.9083 25.5238C19.3695 25.5238 18.9327 25.0369 18.9327 24.4353ZM11.1266 24.4353C11.1266 25.0369 11.5634 25.5238 12.1025 25.5238C12.6414 25.5238 13.0782 25.0369 13.0782 24.4353V11.374C13.0782 10.7724 12.6414 10.2857 12.1025 10.2857C11.5634 10.2857 11.1266 10.7724 11.1266 11.374V24.4353ZM11.1266 4.57145H20.8842V6.47621H11.1266V4.57145Z" fill="#F9C000"/>
</svg>
