<svg width="32" height="32" viewBox="0 0 32 32" fill="none" xmlns="http://www.w3.org/2000/svg">
<path fill-rule="evenodd" clip-rule="evenodd" d="M16 7.27271C15.4017 7.27271 14.9167 7.76659 14.9167 8.36361V11.6363C10.9943 11.6388 9.86708 11.6839 8.74649 11.9344C7.05238 12.313 6.25005 13.2769 6.24999 14.909C6.24998 15.5115 6.74726 16 7.36072 16C7.97418 16 8.4715 15.5116 8.47151 14.9091C8.47153 14.3063 8.546 14.2168 9.23948 14.0618C10.1669 13.8545 11.345 13.817 15.4632 13.8181L15.9988 13.8182C15.9992 13.8182 15.9996 13.8182 16 13.8182C16.0004 13.8182 16.0008 13.8182 16.0012 13.8182L16.5368 13.8181C20.6551 13.817 21.8331 13.8545 22.7605 14.0618C23.454 14.2168 23.5285 14.3062 23.5285 14.9091C23.5285 15.5116 24.0258 16 24.6392 16C25.2527 16 25.75 15.5116 25.75 14.9091C25.75 13.2769 24.9477 12.313 23.2535 11.9344C22.1329 11.6839 21.0057 11.6388 17.0833 11.6363V8.36361C17.0833 7.76659 16.5983 7.27271 16 7.27271ZM6.24999 19.2727V21.4545H8.41666V19.2727H6.24999ZM6.24999 17.0909H8.41666C9.64792 17.0909 10.5833 18.0677 10.5833 19.2727V21.4545C10.5833 22.6595 9.64792 23.6363 8.41666 23.6363H6.24999C5.01873 23.6363 4.08333 22.6595 4.08333 21.4545V19.2727C4.08333 18.0677 5.01873 17.0909 6.24999 17.0909ZM14.9167 19.2727V21.4545H17.0833V19.2727H14.9167ZM17.0833 17.0909H14.9167C13.6854 17.0909 12.75 18.0677 12.75 19.2727V21.4545C12.75 22.6595 13.6854 23.6363 14.9167 23.6363H17.0833C18.3146 23.6363 19.25 22.6595 19.25 21.4545V19.2727C19.25 18.0677 18.3146 17.0909 17.0833 17.0909ZM23.5833 21.4545V19.2727H25.75V21.4545H23.5833ZM23.5833 17.0909H25.75C26.9813 17.0909 27.9167 18.0677 27.9167 19.2727V21.4545C27.9167 22.6595 26.9813 23.6363 25.75 23.6363H23.5833C22.3521 23.6363 21.4167 22.6595 21.4167 21.4545V19.2727C21.4167 18.0677 22.3521 17.0909 23.5833 17.0909Z" fill="#F9C000"/>
<mask id="mask0_3031_6672" style="mask-type:alpha" maskUnits="userSpaceOnUse" x="4" y="7" width="24" height="17">
<path fill-rule="evenodd" clip-rule="evenodd" d="M16 7.27271C15.4017 7.27271 14.9167 7.76659 14.9167 8.36361V11.6363C10.9943 11.6388 9.86708 11.6839 8.74649 11.9344C7.05238 12.313 6.25005 13.2769 6.24999 14.909C6.24998 15.5115 6.74726 16 7.36072 16C7.97418 16 8.4715 15.5116 8.47151 14.9091C8.47153 14.3063 8.546 14.2168 9.23948 14.0618C10.1669 13.8545 11.345 13.817 15.4632 13.8181L15.9988 13.8182C15.9992 13.8182 15.9996 13.8182 16 13.8182C16.0004 13.8182 16.0008 13.8182 16.0012 13.8182L16.5368 13.8181C20.6551 13.817 21.8331 13.8545 22.7605 14.0618C23.454 14.2168 23.5285 14.3062 23.5285 14.9091C23.5285 15.5116 24.0258 16 24.6392 16C25.2527 16 25.75 15.5116 25.75 14.9091C25.75 13.2769 24.9477 12.313 23.2535 11.9344C22.1329 11.6839 21.0057 11.6388 17.0833 11.6363V8.36361C17.0833 7.76659 16.5983 7.27271 16 7.27271ZM6.24999 19.2727V21.4545H8.41666V19.2727H6.24999ZM6.24999 17.0909H8.41666C9.64792 17.0909 10.5833 18.0677 10.5833 19.2727V21.4545C10.5833 22.6595 9.64792 23.6363 8.41666 23.6363H6.24999C5.01873 23.6363 4.08333 22.6595 4.08333 21.4545V19.2727C4.08333 18.0677 5.01873 17.0909 6.24999 17.0909ZM14.9167 19.2727V21.4545H17.0833V19.2727H14.9167ZM17.0833 17.0909H14.9167C13.6854 17.0909 12.75 18.0677 12.75 19.2727V21.4545C12.75 22.6595 13.6854 23.6363 14.9167 23.6363H17.0833C18.3146 23.6363 19.25 22.6595 19.25 21.4545V19.2727C19.25 18.0677 18.3146 17.0909 17.0833 17.0909ZM23.5833 21.4545V19.2727H25.75V21.4545H23.5833ZM23.5833 17.0909H25.75C26.9813 17.0909 27.9167 18.0677 27.9167 19.2727V21.4545C27.9167 22.6595 26.9813 23.6363 25.75 23.6363H23.5833C22.3521 23.6363 21.4167 22.6595 21.4167 21.4545V19.2727C21.4167 18.0677 22.3521 17.0909 23.5833 17.0909Z" fill="white"/>
</mask>
<g mask="url(#mask0_3031_6672)">
</g>
</svg>
