<svg width="32" height="32" viewBox="0 0 32 32" fill="none" xmlns="http://www.w3.org/2000/svg">
<path fill-rule="evenodd" clip-rule="evenodd" d="M21.947 5.86104C23.2301 6.94035 24.0691 8.36261 24.3543 9.92104C27.2276 10.617 29.3279 13.1337 29.3333 15.9631C29.3333 17.5266 28.7027 19.0296 27.5457 20.1996C26.3832 21.3798 24.8204 22.0859 23.093 22.1969H18.9666C18.5553 22.1969 18.2263 21.8943 18.2263 21.516C18.2263 21.1377 18.5553 20.8351 18.9666 20.8351H23.0656C25.7087 20.6485 27.8528 18.4697 27.8528 15.9631C27.8528 13.5977 26.0103 11.5249 23.5701 11.1416C23.2411 11.0911 22.9888 10.844 22.9559 10.5363C22.6489 7.58087 19.9784 5.35165 16.743 5.35165C14.3357 5.35165 12.1204 6.64278 11.0949 8.64504C10.9304 8.96278 10.5301 9.11408 10.1682 8.99304C9.87211 8.89217 9.55406 8.84174 9.23053 8.84174C7.71706 8.84174 6.48325 9.97652 6.48325 11.3685C6.48325 11.6762 6.53809 11.9636 6.64776 12.236C6.7684 12.5487 6.63679 12.8967 6.32423 13.0631C4.98075 13.7843 4.14725 15.1158 4.14725 16.5431C4.14725 18.7522 6.0336 20.7141 8.27639 20.8402L13.0327 20.8351C13.4439 20.8351 13.773 21.1377 13.773 21.516C13.773 21.8943 13.4439 22.1969 13.0327 22.1969L8.21058 22.2019C6.71905 22.1263 5.32073 21.4756 4.2624 20.3762C3.23149 19.3019 2.66668 17.9452 2.66668 16.5482C2.66668 14.8183 3.58244 13.1943 5.09042 12.1856C5.03559 11.9233 5.00269 11.656 5.00269 11.3786C5.00269 9.23513 6.90001 7.49009 9.23053 7.49009C9.50471 7.49009 9.77889 7.5153 10.0421 7.56069C10.6508 6.58226 11.5117 5.75009 12.5481 5.13478C13.7929 4.39339 15.246 4 16.7376 4C18.6678 4 20.5212 4.6607 21.947 5.86104ZM20.4131 16.0975C20.7018 16.3681 20.7018 16.8021 20.4131 17.0727C20.1243 17.3433 19.6612 17.3433 19.3779 17.0727L16.7355 14.5963V25.9774C16.7355 26.3603 16.4086 26.6667 16 26.6667C15.5914 26.6667 15.2645 26.3603 15.2645 25.9774V14.5963L12.6221 17.0727C12.4805 17.2105 12.2898 17.2769 12.1045 17.2769C11.9193 17.2769 11.7286 17.2054 11.5869 17.0727C11.2982 16.8021 11.2982 16.3681 11.5869 16.0975L15.4824 12.4467C15.6186 12.314 15.8093 12.2425 16 12.2425C16.1907 12.2425 16.3814 12.3191 16.5176 12.4467L20.4131 16.0975Z" fill="#F9C000"/>
</svg>
