<svg width="32" height="32" viewBox="0 0 32 32" fill="none" xmlns="http://www.w3.org/2000/svg">
<path fill-rule="evenodd" clip-rule="evenodd" d="M27.9999 11.7273C27.9999 12.0034 27.776 12.2273 27.4999 12.2273H4.86349C4.58735 12.2273 4.36349 12.0034 4.36349 11.7273V5.83331C4.36349 5.55717 4.58735 5.33331 4.86349 5.33331H27.4999C27.776 5.33331 27.9999 5.55717 27.9999 5.83331V11.7273ZM6.34034 9.84227C6.33564 9.81474 6.33319 9.78643 6.33319 9.75756V7.80301C6.33319 7.52687 6.55705 7.30301 6.83319 7.30301H8.8796L6.34034 9.84227ZM11.6652 7.30301H13.805L10.8505 10.2576H8.71063L11.6652 7.30301ZM13.6361 10.2576L16.5906 7.30301H18.7283L15.7737 10.2576H13.6361ZM18.5593 10.2576H20.6981L23.6526 7.30301H21.5139L18.5593 10.2576ZM25.5302 10.2576H23.4837L26.023 7.7182C26.0277 7.74577 26.0302 7.7741 26.0302 7.80301V9.75756C26.0302 10.0337 25.8063 10.2576 25.5302 10.2576ZM27.9999 26.5C27.9999 26.7761 27.776 27 27.4999 27H4.86349C4.58735 27 4.36349 26.7761 4.36349 26.5V14.6969C4.36349 14.4208 4.58735 14.1969 4.86349 14.1969H5.83319C6.10934 14.1969 6.33319 14.4208 6.33319 14.6969V24.5303C6.33319 24.8064 6.55705 25.0303 6.83319 25.0303H25.5302C25.8063 25.0303 26.0302 24.8064 26.0302 24.5303V14.6969C26.0302 14.4208 26.254 14.1969 26.5302 14.1969H27.4999C27.776 14.1969 27.9999 14.4208 27.9999 14.6969V26.5ZM13.3333 21.8576C13.3333 22.2293 13.7245 22.4711 14.0569 22.3048L20.4389 19.1139C20.8074 18.9296 20.8074 18.4037 20.4389 18.2194L14.0569 15.0284C13.7245 14.8622 13.3333 15.104 13.3333 15.4757V21.8576Z" fill="#F9C000"/>
</svg>
