<svg width="32" height="32" viewBox="0 0 32 32" fill="none" xmlns="http://www.w3.org/2000/svg">
<path d="M14.7592 18.3835L10.8949 14.8271L10.8949 14.8271L10.8939 14.8262C10.7022 14.6544 10.4537 14.5593 10.1962 14.5593C9.93888 14.5593 9.69056 14.6543 9.49886 14.826C9.40584 14.9082 9.33133 15.0092 9.28028 15.1223C9.22918 15.2356 9.20276 15.3584 9.20276 15.4827C9.20276 15.607 9.22918 15.7298 9.28028 15.8431C9.33124 15.956 9.40558 16.0569 9.49838 16.139C9.49863 16.1392 9.49889 16.1395 9.49915 16.1397L15.0637 21.2549L14.7592 18.3835ZM14.7592 18.3835V4.58809C14.7592 4.06866 15.2243 3.66471 15.7647 3.66471C16.3051 3.66471 16.7712 4.06953 16.7712 4.58809L16.7721 18.3835L20.641 14.8225L20.6415 14.8221C21.0305 14.4689 21.6481 14.4718 22.0342 14.8295C22.1261 14.9119 22.1997 15.0128 22.25 15.1256C22.3004 15.2387 22.3263 15.3612 22.326 15.485C22.3257 15.6087 22.2992 15.7311 22.2483 15.8439L22.1571 15.8027L22.2483 15.8439C22.1974 15.9565 22.1234 16.057 22.0311 16.139C22.0308 16.1392 22.0306 16.1394 22.0304 16.1396L16.4656 21.2549L16.4655 21.2551C16.27 21.4341 16.0163 21.5213 15.7647 21.5213C15.5133 21.5213 15.2585 21.4342 15.0638 21.2549L14.7592 18.3835ZM19.333 4.10741L19.4637 4.14953C24.488 5.76907 27.8647 10.4175 27.8647 15.7186C27.8647 22.4159 22.4369 27.8647 15.7647 27.8647C9.09251 27.8647 3.66471 22.4159 3.66471 15.7186C3.66471 10.4175 7.04049 5.76906 12.0657 4.15045L12.066 4.15038C12.1804 4.1138 12.301 4.10016 12.4207 4.11022C12.5405 4.12028 12.6571 4.15385 12.7638 4.20901C12.8706 4.26417 12.9654 4.33984 13.0429 4.43168C13.1204 4.52352 13.179 4.62973 13.2154 4.74424C13.2154 4.74425 13.2154 4.74426 13.2154 4.74427L13.1201 4.77456L19.333 4.10741ZM19.333 4.10741V4.12495V4.10741Z" fill="#F9C000" stroke="#F9C000" stroke-width="0.2"/>
</svg>
