<svg width="40" height="40" viewBox="0 0 40 40" fill="none" xmlns="http://www.w3.org/2000/svg">
<path fill-rule="evenodd" clip-rule="evenodd" d="M31.5491 24.7042C31.5491 25.5807 31.1685 26.449 30.303 26.449C29.4376 26.449 23.3793 26.449 23.3793 26.449C23.3793 26.449 23.3793 32.696 23.3793 33.5949C23.3793 34.4938 22.5696 34.9635 21.7171 34.967C20.7974 34.9402 19.9274 34.4842 19.9224 33.5949C19.9175 32.7056 19.9224 26.449 19.9224 26.449C19.9224 26.449 10.3505 26.449 9.0789 26.449C7.80735 26.449 7.33098 24.631 7.80099 23.8075C8.27099 22.9841 20.6046 5.77247 20.6046 5.77247C21.0283 5.18319 21.7267 4.40646 22.2405 4.74261C22.7543 5.07876 22.8062 5.77247 21.4239 7.9431C20.7309 9.03131 12.098 22.9222 12.098 22.9222C13.5156 22.9222 19.9714 22.9222 19.9714 22.9222C19.9714 22.9222 19.9714 16.6636 19.9714 15.8236C19.9714 14.9836 20.9706 14.5368 21.7171 14.5368C22.4635 14.5368 23.3793 14.9283 23.3793 15.8236C23.3793 16.7189 23.3793 22.9222 23.3793 22.9222C23.3793 22.9222 29.4376 22.9222 30.303 22.9222C31.1685 22.9222 31.5491 23.8276 31.5491 24.7042Z" fill="#B0BDBF"/>
</svg>
