<svg width="40" height="40" viewBox="0 0 40 40" fill="none" xmlns="http://www.w3.org/2000/svg">
<g clip-path="url(#clip0_758_2)">
<path fill-rule="evenodd" clip-rule="evenodd" d="M33.3194 25.9326C35.0566 27.907 36.3918 29.6386 36.4478 29.7117C36.7122 30.0561 36.7409 30.5202 36.52 30.8919C36.299 31.2635 35.8712 31.4719 35.4322 31.4211C35.3394 31.4104 33.1293 31.1518 30.5024 30.6756C26.8997 30.0225 24.3722 29.2977 22.9884 28.5207C22.7159 28.3674 22.4655 28.1913 22.2379 27.9965C23.0908 31.3903 23.8221 34.9689 23.8221 37.2577C23.8221 37.8507 23.3272 38.3319 22.7174 38.3319H15.618C15.0082 38.3319 14.5133 37.8507 14.5133 37.2577C14.5133 34.9689 15.2453 31.3903 16.0974 27.9965C15.8698 28.1913 15.6194 28.3674 15.3469 28.5207C13.9632 29.2977 11.4349 30.0225 7.83291 30.6756C5.20599 31.1518 2.99589 31.4104 2.9031 31.4211C2.46417 31.4727 2.03629 31.2635 1.81535 30.8919C1.59442 30.5202 1.62314 30.0554 1.88753 29.7117L1.89161 29.7064C1.99013 29.5789 3.30895 27.8726 5.01598 25.9326C7.39841 23.2255 9.30803 21.4595 10.6918 20.6825C11.9224 19.9921 13.3453 19.9119 14.5884 20.3445C14.7836 19.291 15.3543 18.3636 16.1615 17.6983C15.154 16.8676 14.5125 15.6286 14.5125 14.2465C14.5125 12.6932 15.1312 10.2017 16.3507 6.84153C17.2389 4.39563 18.1124 2.40798 18.1519 2.31807L18.1521 2.31764C18.3266 1.92304 18.7258 1.66666 19.1677 1.66666C19.6095 1.66666 20.0087 1.92304 20.184 2.31764C20.2208 2.40071 21.0957 4.3916 21.9853 6.84153C23.2042 10.2017 23.8228 12.6932 23.8228 14.2465C23.8228 15.6286 23.1813 16.8676 22.1739 17.6983C22.9803 18.3643 23.5518 19.291 23.7469 20.3445C24.9901 19.9119 26.4129 19.9921 27.6435 20.6825C29.0273 21.4595 30.9369 23.2255 33.3194 25.9326ZM5.33486 28.9167C8.37052 28.4441 12.5072 27.6355 14.2415 26.6616C15.4088 26.0063 15.8109 24.549 15.1363 23.4139C14.4625 22.2788 12.9638 21.8885 11.7965 22.5437C10.0636 23.5163 7.27395 26.5964 5.33486 28.9167ZM18.9909 25.6733C17.7397 30.2144 16.9716 33.8617 16.7735 36.1849H21.5611C21.3638 33.8617 20.5956 30.2144 19.3437 25.6733C19.2258 25.6776 19.108 25.6776 18.9909 25.6733ZM16.7226 21.1508C16.7226 22.4621 17.8192 23.5284 19.1677 23.5284C20.5154 23.5284 21.6127 22.4621 21.6127 21.1508C21.6127 19.8396 20.5161 18.7732 19.1677 18.7732C17.8192 18.7732 16.7226 19.8396 16.7226 21.1508ZM16.7226 14.2472C16.7226 15.5585 17.8192 16.6248 19.1677 16.6248C20.5154 16.6248 21.6127 15.5577 21.6127 14.2472C21.6127 12.3 20.2642 8.41133 19.1677 5.61907C18.0711 8.41204 16.7226 12.3014 16.7226 14.2472ZM23.1983 23.4139C22.5244 24.549 22.9258 26.0063 24.0931 26.6616C25.8274 27.6348 29.9641 28.4441 32.9997 28.9167C31.0606 26.5964 28.271 23.5163 26.5381 22.5437C25.3708 21.8878 23.8721 22.2788 23.1983 23.4139ZM4.96441 22.1785H4.96809C5.5764 22.1785 6.07056 21.7001 6.07277 21.1078C6.09413 14.6639 10.6668 11.2307 12.5852 10.1422C13.1125 9.84357 13.29 9.18543 12.9829 8.67339C12.6758 8.16063 11.999 7.98804 11.4724 8.28667C9.22921 9.55855 3.88845 13.5718 3.86341 21.1007C3.8612 21.6944 4.35389 22.177 4.96441 22.1785ZM25.7487 10.143C27.6708 11.233 32.239 14.6669 32.2611 21.1086C32.2633 21.7009 32.7575 22.1792 33.3658 22.1792H33.3695C33.9793 22.1771 34.4727 21.6944 34.4705 21.1015C34.4447 13.5569 29.0848 9.5479 26.8622 8.28748C26.3356 7.98885 25.6588 8.16144 25.3517 8.6742C25.0439 9.18624 25.2214 9.84366 25.7487 10.143Z" fill="#B0BDBF"/>
</g>
<defs>
<clipPath id="clip0_758_2">
<rect width="35" height="36.6667" fill="white" transform="translate(1.6665 1.66666)"/>
</clipPath>
</defs>
</svg>
