<svg width="40" height="40" viewBox="0 0 40 40" fill="none" xmlns="http://www.w3.org/2000/svg">
<path fill-rule="evenodd" clip-rule="evenodd" d="M20 3.33337C10.8098 3.33337 3.33329 10.81 3.33329 20C3.33329 29.1901 10.8099 36.6667 20 36.6667C29.19 36.6667 36.6666 29.1901 36.6666 20C36.6666 10.81 29.1901 3.33337 20 3.33337ZM8.04574 28.2171C6.39337 25.8633 5.41667 23.0195 5.41667 19.988C5.41667 18.9674 5.52738 17.9677 5.73731 17.0005C5.77391 17.0063 5.81232 17.0126 5.85196 17.019C6.11155 17.0614 6.42355 17.1122 6.62105 17.1146C6.80985 17.1166 7.00582 17.1192 7.19917 17.1342C8.28121 17.2175 9.0911 16.9174 9.80595 16.6524C10.1757 16.515 10.5253 16.3855 10.9056 16.3099C11.5227 16.1869 12.1289 16.7194 12.457 17.3015C12.8632 18.0222 13.0865 18.8946 13.0097 19.1615C12.8783 19.3265 12.6119 19.4864 12.3529 19.6418L12.3483 19.6446L12.3349 19.6525C11.8314 19.9536 11.3557 20.2381 10.8652 20.4362C10.7558 20.4805 10.6393 20.5235 10.5156 20.569L10.5127 20.5701C9.88034 20.8037 9.09354 21.0943 8.56116 21.8236C8.10868 22.4434 7.93941 23.2409 8.04488 24.2618C8.11174 24.9095 8.32679 25.4965 8.51647 26.0142L8.51819 26.0189C8.91272 27.0964 8.96285 27.4239 8.59045 27.8496C8.49493 27.9585 8.25587 28.1051 8.04574 28.2171ZM33.8403 15.4793C34.3217 16.905 34.5833 18.4219 34.5833 19.988C34.5833 27.8879 27.9257 34.5132 19.9875 34.5132C15.8748 34.5132 12.1126 32.7348 9.44156 29.9223C9.70556 29.7459 10.0287 29.5066 10.2252 29.2819C11.4957 27.8298 10.954 26.3517 10.5582 25.2717L10.5579 25.2709C10.3971 24.8327 10.2454 24.4187 10.2063 24.0391C10.1477 23.4714 10.2337 23.2188 10.3157 23.1062C10.4615 22.9066 10.8682 22.7561 11.2622 22.6103L11.2682 22.6081L11.2808 22.6034C11.4103 22.5554 11.5434 22.5061 11.6783 22.4519C12.3313 22.1882 12.9081 21.8425 13.4653 21.5086L13.4655 21.5085C13.8808 21.2598 14.3977 20.9499 14.7845 20.4174C15.8151 18.9974 14.6035 16.683 14.3502 16.2338C13.4804 14.6901 11.9615 13.8829 10.4811 14.1771C9.93365 14.2861 9.46635 14.459 9.05407 14.6116L9.04944 14.6133L9.0481 14.6138C8.44652 14.8369 7.97152 15.013 7.36454 14.9662C7.10152 14.946 6.85998 14.9427 6.64709 14.9401C6.62543 14.9399 6.57084 14.9397 6.5034 14.9394C6.45665 14.9391 6.40371 14.9389 6.3513 14.9386C6.91727 13.4558 7.72255 12.0811 8.71802 10.8643C9.11736 11.2042 9.67968 11.5313 10.1653 11.5313H10.1654C10.1927 11.5313 10.2194 11.5313 10.2467 11.53C10.6998 11.5137 11.0845 11.3874 11.4237 11.2761L11.4238 11.2761L11.4297 11.2741C11.6609 11.1986 11.8976 11.1212 12.0325 11.1322C12.1751 11.1439 12.414 11.2611 12.6451 11.375C13.0462 11.573 13.5638 11.8275 14.1718 11.8275C14.3391 11.8275 14.513 11.808 14.6933 11.7631C15.5006 11.5619 15.9895 10.9336 16.2812 10.5586C16.4778 10.3067 16.9381 9.71553 16.8164 8.946C16.7448 8.49344 16.5019 8.17856 16.3566 7.99033L16.3561 7.98962C16.0134 7.54632 15.5154 7.05773 15.0337 6.58512L15.0293 6.58077C15.0293 6.58077 14.9319 6.49233 14.8387 6.40707C16.4458 5.78329 18.1829 5.4397 19.9875 5.4397C20.8317 5.4397 21.6615 5.51489 22.4703 5.65879C22.2512 6.29661 21.9592 7.07549 21.7168 7.66996L21.7164 7.67081C21.3994 8.44801 21.0052 9.4145 21.1152 10.4948C21.3371 12.6778 22.9073 12.8092 23.6621 12.8724L23.6627 12.8724L23.6685 12.8729C23.9691 12.8981 24.2528 12.9219 24.399 13.0248C24.4772 13.0795 24.5618 13.1452 24.6516 13.2155C24.9661 13.461 25.3574 13.7663 25.888 13.9154C26.4134 14.0625 26.9016 14.0072 27.2936 13.9623C27.4303 13.9467 27.5599 13.9323 27.6699 13.9284C27.8222 13.9226 28.1054 13.9864 28.3365 14.0697C27.705 14.5586 26.8828 14.9134 26.0742 15.0384C25.9244 15.0617 25.7747 15.0801 25.6167 15.0996L25.6002 15.1016C24.6399 15.2188 23.3248 15.3796 22.5195 16.8308C22.3701 17.0997 22.269 17.3674 22.1796 17.6038L22.1777 17.6088L22.1758 17.6138C22.1081 17.7923 22.0442 17.9609 21.9733 18.0912C21.9433 18.1465 21.9108 18.1895 21.8828 18.2207C21.8216 18.1817 21.7467 18.1289 21.6894 18.0886L21.6856 18.0859C21.4981 17.9535 21.2649 17.7889 20.9772 17.6693C20.1256 17.3145 19.0846 17.4786 18.1217 18.1205C17.3411 18.6407 16.7994 19.3073 16.5546 20.0495C16.2115 21.0892 16.5013 22.2266 17.2747 22.8809L19.2617 24.5782L19.2634 24.5797C19.4633 24.7507 19.9876 25.1994 19.9941 25.4558C19.996 25.5521 19.957 25.7364 19.9218 25.8991C19.8053 26.4395 19.6113 27.3438 20.3157 28.0651C20.6985 28.4571 21.1614 28.5704 21.4674 28.6452C21.5397 28.6628 21.6367 28.6869 21.6764 28.7025C21.8053 28.8496 21.8574 29.515 21.8769 29.7676C21.9987 31.3275 22.7936 32.3627 23.9518 32.4681C24.013 32.474 24.0735 32.4766 24.1334 32.4766C25.2519 32.4766 26.08 31.5189 26.3359 30.5202C26.4212 30.1875 26.4563 29.864 26.4869 29.5782C26.5175 29.2937 26.5468 29.0248 26.6184 28.8249C26.7122 28.5664 26.927 28.2839 27.1549 27.9851C27.5162 27.5111 27.9257 26.9733 28.0976 26.2481C28.2252 25.7084 28.1855 25.2064 28.1503 24.7637L28.1502 24.7619C28.1249 24.441 28.101 24.1383 28.1575 23.9323C28.2368 23.6438 28.5204 23.3462 28.849 23.0013L28.8509 22.9994C29.1894 22.6446 29.5722 22.2422 29.8463 21.7201C30.2666 20.9185 30.2194 20.1573 30.1849 19.6007L30.1849 19.5996L30.1848 19.5992C30.1686 19.337 30.1543 19.1067 30.1901 18.9467C30.237 18.9038 30.3236 18.8414 30.3917 18.7923C30.3992 18.787 30.4064 18.7817 30.4134 18.7767C31.3658 18.0944 32.2545 17.321 33.0585 16.4746C33.2714 16.2502 33.603 15.8104 33.8403 15.4793ZM24.6254 6.21884C28.0137 7.38688 30.8756 9.78593 32.6495 12.8524C32.5443 13.0664 32.43 13.3304 32.3841 13.4987C32.3639 13.573 32.3378 13.6674 32.3007 13.793C32.1777 14.2051 31.8339 14.6062 31.4804 14.9786C30.7714 15.7253 29.9876 16.4076 29.1503 17.0072L29.1481 17.0088C28.8297 17.2373 28.3556 17.5777 28.1464 18.1901C27.9536 18.7557 27.9868 19.2966 28.0134 19.7316L28.0136 19.7351C28.0416 20.1901 28.0514 20.4597 27.9192 20.7116C27.7871 20.9636 27.539 21.2246 27.276 21.5C26.8118 21.987 26.2851 22.5398 26.0605 23.3568C25.9023 23.931 25.9446 24.4649 25.9824 24.9362L25.9832 24.9462C26.007 25.2531 26.0294 25.542 25.9811 25.7474C25.916 26.0228 25.6888 26.3217 25.4251 26.6674L25.4244 26.6682C25.1219 27.0651 24.7791 27.5148 24.5729 28.0873C24.4127 28.5319 24.3658 28.9642 24.3248 29.3451L24.3232 29.3601C24.2984 29.5876 24.275 29.8028 24.2291 29.9812C24.2122 30.0482 24.1875 30.1081 24.1601 30.1589C24.1113 30.03 24.0625 29.8412 24.0436 29.5983C23.9791 28.767 23.8704 27.3744 22.6614 26.7644C22.4231 26.6439 22.1953 26.5853 22.0084 26.5398C22.0192 26.4842 22.0315 26.4271 22.0422 26.3771C22.0438 26.3698 22.0453 26.3625 22.0468 26.3555L22.048 26.3501C22.1076 26.0708 22.175 25.7549 22.1666 25.4037C22.1373 24.1758 21.1849 23.362 20.6731 22.9252L18.6822 21.2246C18.597 21.1524 18.554 20.9278 18.6191 20.7312C18.7089 20.459 18.9602 20.1745 19.3274 19.9297C19.7031 19.6797 20.0123 19.6231 20.1412 19.6765C20.2089 19.7045 20.3242 19.7852 20.4349 19.864L20.4364 19.8651C20.7546 20.0896 21.1898 20.3966 21.7994 20.4317C22.6197 20.4799 23.4186 19.9812 23.8815 19.1322C24.023 18.8735 24.1204 18.6161 24.2065 18.3885L24.2109 18.377C24.2806 18.1927 24.3463 18.0189 24.4199 17.8861C24.6614 17.4512 24.9257 17.3744 25.8639 17.2598C26.0377 17.239 26.2174 17.2168 26.4062 17.1875C27.7584 16.9786 29.0918 16.347 30.0644 15.4551C30.2871 15.2507 30.5585 14.9623 30.6881 14.5398C30.8626 13.9694 30.7578 13.3933 30.3932 12.9174C29.6862 11.9942 28.2044 11.7364 27.5983 11.7565C27.4013 11.763 27.2146 11.7843 27.0498 11.8032L27.0475 11.8034L27.0414 11.8041C26.8187 11.8293 26.5894 11.8552 26.4746 11.823C26.3567 11.7904 26.1699 11.6446 25.9895 11.5033C25.8828 11.4193 25.7721 11.3327 25.6484 11.2461C25.0202 10.8052 24.3414 10.7482 23.8454 10.7066L23.8437 10.7064C23.6862 10.6934 23.455 10.6739 23.358 10.6426C23.3391 10.6009 23.3007 10.4942 23.2786 10.2748C23.2233 9.73436 23.4922 9.07506 23.7296 8.49285L23.7304 8.49092C23.7642 8.40806 23.8003 8.31977 23.8382 8.22718C24.0811 7.6339 24.3961 6.86436 24.6254 6.21884ZM10.1691 9.32552C10.9653 8.59212 11.8413 7.94415 12.7809 7.39787C13.0273 7.65033 13.3378 7.96552 13.5078 8.1322C13.8997 8.51631 14.304 8.9128 14.5638 9.2279L14.562 9.23011C14.4769 9.33896 14.2688 9.60519 14.1679 9.65368C14.0705 9.65304 13.7886 9.51473 13.614 9.42908L13.6061 9.42517L13.6058 9.42503C13.2302 9.24015 12.7635 9.01044 12.207 8.96553C11.6364 8.91999 11.1438 9.08121 10.7481 9.21073L10.7474 9.21098L10.7444 9.21194C10.5411 9.27864 10.3482 9.3419 10.205 9.35551C10.205 9.35551 10.191 9.34368 10.1691 9.32552Z" fill="#B0BDBF"/>
</svg>
