<svg width="40" height="40" viewBox="0 0 40 40" fill="none" xmlns="http://www.w3.org/2000/svg">
<path fill-rule="evenodd" clip-rule="evenodd" d="M20.0002 3.33334C10.81 3.33334 3.3335 10.8099 3.3335 20C3.3335 29.1901 10.8101 36.6667 20.0002 36.6667C29.1902 36.6667 36.6668 29.1901 36.6668 20C36.6668 10.8099 29.1903 3.33334 20.0002 3.33334ZM19.9877 34.5131C12.0495 34.5131 5.41687 27.8878 5.41687 19.988C5.41687 12.0882 12.0495 5.43966 19.9877 5.43966C27.9259 5.43966 34.5835 12.0882 34.5835 19.988C34.5835 27.8878 27.9259 34.5131 19.9877 34.5131ZM21.0873 9.99641C21.0873 9.36557 20.5911 8.85417 19.979 8.85417C19.3669 8.85417 18.8707 9.36557 18.8707 9.99641V19.7754L14.6094 23.5083C14.143 23.9168 14.0863 24.6377 14.4828 25.1183C14.8792 25.599 15.5786 25.6575 16.045 25.2489L20.6968 21.1739C20.9445 20.9569 21.0873 20.6387 21.0873 20.3036V9.99641Z" fill="#B0BDBF"/>
</svg>
