<svg width="40" height="40" viewBox="0 0 40 40" fill="none" xmlns="http://www.w3.org/2000/svg">
<path fill-rule="evenodd" clip-rule="evenodd" d="M26.0461 18.259H25.4464C25.3094 17.3276 24.9544 16.4699 24.4383 15.7424L24.8647 15.3001C25.191 14.9617 25.191 14.4128 24.8647 14.0743C24.5385 13.7359 24.0094 13.7359 23.6831 14.0743L23.2567 14.5166C22.5554 13.9812 21.7286 13.6129 20.8309 13.4707V12.8487C20.8309 12.37 20.4568 11.9819 19.9954 11.9819C19.5339 11.9819 19.1599 12.37 19.1599 12.8487V13.4707C18.262 13.6129 17.4353 13.9812 16.7341 14.5166L16.3076 14.0743C15.9814 13.7359 15.4523 13.7359 15.126 14.0743C14.7997 14.4127 14.7997 14.9616 15.126 15.3001L15.5524 15.7424C15.0363 16.4699 14.6813 17.3277 14.5443 18.259H13.9448C13.4834 18.259 13.1093 18.647 13.1093 19.1258C13.1093 19.6045 13.4834 19.9925 13.9448 19.9925H14.5445C14.6815 20.9239 15.0365 21.7816 15.5526 22.5091L15.1261 22.9514C14.7999 23.2899 14.7999 23.8387 15.1261 24.1772C15.2893 24.3464 15.5031 24.4311 15.7169 24.4311C15.9307 24.4311 16.1446 24.3464 16.3077 24.1772L16.7341 23.7349C17.4354 24.2703 18.2622 24.6386 19.1599 24.7808V25.4028C19.1599 25.8816 19.534 26.2696 19.9954 26.2696C20.4569 26.2696 20.8309 25.8816 20.8309 25.4028V24.7808C21.7288 24.6386 22.5555 24.2703 23.2567 23.7349L23.6832 24.1772C23.8463 24.3464 24.0602 24.4311 24.274 24.4311C24.4878 24.4311 24.7017 24.3464 24.8647 24.1772C25.191 23.8388 25.191 23.2899 24.8647 22.9514L24.4383 22.5091C24.9544 21.7816 25.3094 20.9239 25.4464 19.9925H26.0461C26.5075 19.9925 26.8816 19.6045 26.8816 19.1258C26.8816 18.647 26.5075 18.259 26.0461 18.259ZM19.9955 23.1129C17.8764 23.1129 16.1522 21.3242 16.1522 19.1258C16.1522 16.9273 17.8764 15.1387 19.9955 15.1387C22.1147 15.1387 23.8388 16.9273 23.8388 19.1258C23.8388 21.3242 22.1147 23.1129 19.9955 23.1129Z" fill="#B0BDBF"/>
<path fill-rule="evenodd" clip-rule="evenodd" d="M10.0294 19.1258C10.0294 13.4289 14.5001 8.79421 19.9955 8.79421C25.4909 8.79421 29.9616 13.4289 29.9616 19.1258C29.9616 24.8226 25.4909 29.4573 19.9955 29.4573C14.5002 29.4573 10.0294 24.8226 10.0294 19.1258ZM11.677 19.1258C11.677 23.8232 15.4636 27.7627 19.9955 27.7627C24.5275 27.7627 28.3283 23.8232 28.3283 19.1258C28.3283 14.4283 24.5275 10.475 19.9955 10.475C15.4636 10.475 11.677 14.4283 11.677 19.1258Z" fill="#B0BDBF"/>
<path fill-rule="evenodd" clip-rule="evenodd" d="M19.9944 36.6667C19.8527 36.6667 19.7112 36.6268 19.5903 36.5471C18.4734 35.8111 17.275 35.1196 16.0625 34.42C10.8063 31.3873 5 28.0372 5 19.9739L5.00895 7.93605C5.00895 7.60255 5.30835 7.09812 5.66874 7.07031L7.47556 6.93124C11.6185 6.61253 16.0929 5.48873 19.6615 3.43087C19.8869 3.30083 20.1731 3.30083 20.3986 3.43087C23.9668 5.48873 27.9359 6.61253 32.0788 6.93099L34.2813 7.07031C34.6414 7.09812 35 7.60255 35 7.93605L34.9911 19.9695C34.9911 27.8252 29.9685 30.7973 24.2637 34.1731C22.9932 34.925 21.6888 35.6968 20.3986 36.5471C20.2777 36.6268 20.1362 36.6667 19.9944 36.6667ZM19.9906 34.682C19.8646 34.682 19.7389 34.6469 19.6315 34.5766C18.639 33.9277 17.574 33.3182 16.4966 32.7015C11.7043 29.9585 6.66617 27.0747 6.66617 19.9666L6.67412 9.3548C6.67412 9.06081 6.94018 8.61613 7.26043 8.59161L8.86601 8.46902C12.5475 8.18806 16.5236 7.19738 19.6947 5.3833C19.895 5.26866 20.1494 5.26866 20.3497 5.3833C23.5206 7.19738 27.0475 8.18806 30.7291 8.4688L32.6862 8.59161C33.0063 8.61613 33.3249 9.06081 33.3249 9.3548L33.3169 19.9628C33.3169 26.8878 28.8538 29.5079 23.7844 32.4838C22.6556 33.1465 21.4961 33.8272 20.3497 34.5766C20.2423 34.6469 20.1166 34.682 19.9906 34.682Z" fill="#B0BDBF"/>
</svg>
