<svg width="40" height="40" viewBox="0 0 40 40" fill="none" xmlns="http://www.w3.org/2000/svg">
<path fill-rule="evenodd" clip-rule="evenodd" d="M36.155 24.2035C35.7259 23.9624 35.1853 24.0685 34.8788 24.4535C32.2492 27.7606 28.3216 29.6573 24.1028 29.6573C16.5156 29.6573 10.3429 23.4846 10.3429 15.8974C10.3429 11.6786 12.2396 7.75094 15.5467 5.12108C15.9319 4.81489 16.0377 4.27422 15.7967 3.84519C15.5556 3.41591 15.0385 3.22517 14.5767 3.39506C11.3121 4.59415 8.51743 6.73292 6.49487 9.57997C4.42679 12.4914 3.3335 15.9241 3.3335 19.5068C3.3335 24.0903 5.11852 28.3997 8.3595 31.6407C11.6005 34.8816 15.9098 36.6667 20.4933 36.6667C24.0761 36.6667 27.5088 35.5734 30.4202 33.5053C33.2672 31.4827 35.406 28.6881 36.6051 25.4235C36.775 24.9614 36.5843 24.4446 36.155 24.2035ZM20.4934 34.6612C12.1374 34.6612 5.33932 27.8629 5.33932 19.5069C5.33932 15.1907 7.1953 11.1583 10.259 8.33822C9.00983 10.6222 8.33742 13.2078 8.33742 15.8972C8.33742 20.1084 9.97724 24.0675 12.955 27.0453C15.9328 30.023 19.8919 31.6629 24.1031 31.6629C26.7922 31.6629 29.3783 30.9902 31.6623 29.7413C28.842 32.8052 24.8096 34.6612 20.4934 34.6612Z" fill="#B0BDBF"/>
</svg>
