<svg width="40" height="40" viewBox="0 0 40 40" fill="none" xmlns="http://www.w3.org/2000/svg">
<path fill-rule="evenodd" clip-rule="evenodd" d="M29.8292 9.762C29.8292 10.078 29.0135 10.9338 27.6523 11.6442C25.9877 12.5131 23.8087 13.0706 21.2822 13.1734V6.66539L20.3367 6.76682C13.4414 7.50644 9.88196 8.48105 9.88196 10.468C9.88196 10.4851 9.88213 10.5022 9.88243 10.5192C9.87856 10.5387 9.87545 10.5598 9.87311 10.5826V15.9567C8.84866 15.4796 7.98216 14.9307 7.31141 14.337C5.79645 12.9959 5.0429 11.342 5.0429 10.2265C5.0429 9.37085 5.80433 8.20762 7.38911 7.2414C9.65335 5.86092 13.2459 5.04765 18.2717 5.04765C23.218 5.04765 26.4472 5.84244 28.2587 7.16885C29.4015 8.00572 29.8292 8.92867 29.8292 9.762ZM11.5398 16.6208C13.6691 17.3423 16.255 17.7833 19.0721 17.7833C23.9422 17.7833 27.1615 17.0689 29.8938 16.063C29.8803 16.0074 29.8732 15.9495 29.8732 15.89V12.298C27.895 13.7753 24.3637 14.9049 20.4275 14.9049C16.3972 14.9049 13.3044 14.2679 11.5398 13.1172V16.6208ZM31.529 9.94997C31.5355 9.88725 31.5387 9.82457 31.5387 9.762C31.5387 6.12894 27.7207 3.33334 18.2717 3.33334C8.52601 3.33334 3.3335 6.49915 3.3335 10.2265C3.3335 10.2555 3.33381 10.2846 3.33412 10.3139C3.33476 10.373 3.3354 10.4327 3.3335 10.493V26.9248L3.4026 27.0865C6.12286 33.452 12.1927 36.6667 22.5233 36.6667C29.8222 36.6667 34.4052 35.8128 36.3935 33.962L36.6668 33.7077V12.5708L35.388 13.3036C35.2595 13.3773 34.8847 13.6098 34.5463 13.8197V13.8198C34.3047 13.9698 34.0815 14.1082 33.98 14.1689C33.3115 14.569 32.6645 14.9103 31.9235 15.2369C31.7962 15.293 31.6683 15.3488 31.5398 15.404V10.0201C31.5372 9.99462 31.5337 9.97129 31.529 9.94997ZM6.69918 29.3525C6.04246 28.5177 5.49286 27.5902 5.04278 26.5705V14.4313C5.37451 14.8442 6.00216 15.5153 6.42843 15.8926C9.30766 18.1615 13.4002 19.5481 18.9468 19.5481C25.2952 19.5481 29.1668 18.3247 32.6112 16.8065C33.4217 16.4493 34.1302 16.0756 34.856 15.6411C34.8835 15.6247 34.9178 15.6039 34.9573 15.5797V32.9327C34.1335 33.5477 32.7712 34.0313 30.881 34.371V28.3585C30.881 27.8715 30.4862 27.4768 29.9993 27.4768C29.5125 27.4768 29.1177 27.8715 29.1177 28.3585V34.4038C29.1177 34.4802 29.1273 34.5543 29.1457 34.625C27.8173 34.7808 26.2958 34.8825 24.5835 34.9268C24.5837 34.9205 24.5838 34.914 24.5838 34.9077V29.114C24.5838 28.6272 24.189 28.2325 23.7022 28.2325C23.2152 28.2325 22.8205 28.6272 22.8205 29.114V34.9077C22.8205 34.9225 22.8208 34.9373 22.8217 34.952C22.7227 34.9523 22.6232 34.9525 22.5232 34.9525C21.0067 34.9525 19.5946 34.8823 18.2822 34.7422C18.2849 34.7138 18.2863 34.685 18.2863 34.656V28.6105C18.2863 28.1237 17.8916 27.7288 17.4047 27.7288C16.9178 27.7288 16.5231 28.1237 16.5231 28.6105V34.5025C15.234 34.2863 14.0534 33.9923 12.9756 33.621C12.9894 33.562 12.9966 33.5007 12.9966 33.4377V27.1945C12.9966 26.7305 12.6019 26.3542 12.115 26.3542C11.6281 26.3542 11.2334 26.7305 11.2334 27.1945V32.9115C10.1812 32.4095 9.24786 31.8152 8.42598 31.1292C8.4497 31.0495 8.46243 30.965 8.46243 30.8775V24.3283C8.46243 23.8413 8.06771 23.4467 7.58081 23.4467C7.0939 23.4467 6.69918 23.8413 6.69918 24.3283V29.3525ZM19.5728 8.57897C14.5435 9.18067 11.5217 10.0332 11.5217 10.5048C11.5217 11.8741 14.4937 13.0606 19.5728 13.1811V8.57897Z" fill="#B0BDBF"/>
</svg>
