<svg width="40" height="40" viewBox="0 0 40 40" fill="none" xmlns="http://www.w3.org/2000/svg">
<path fill-rule="evenodd" clip-rule="evenodd" d="M35.979 5C33.7614 5 31.9575 6.91388 31.9575 9.26677C31.9575 10.3573 32.3463 11.3535 32.9832 12.1085L27.1994 19.4754C26.8038 19.3369 26.3815 19.2606 25.9422 19.2606C24.6778 19.2606 23.5477 19.8837 22.8099 20.8556L17.587 17.7342C17.762 17.2561 17.8587 16.7379 17.8587 16.1955C17.8587 13.8426 16.0547 11.9288 13.8372 11.9288C11.6196 11.9288 9.81554 13.8426 9.81554 16.1955C9.81554 17.271 10.1935 18.2537 10.8151 19.0052L5.32654 26.6989C4.9169 26.549 4.47833 26.467 4.02168 26.467C1.80404 26.467 0 28.3809 0 30.7331C0 33.0859 1.80404 35 4.02168 35C6.23932 35 8.04319 33.0859 8.04319 30.7331C8.04319 29.6577 7.66523 28.675 7.04362 27.9234L12.5322 20.2297C12.9418 20.3795 13.3804 20.4618 13.8372 20.4618C14.7917 20.4618 15.6686 20.1062 16.3588 19.5154L21.9691 22.868C21.9376 23.0828 21.9207 23.3026 21.9207 23.5268C21.9207 25.8797 23.7253 27.7935 25.9422 27.7935C28.1598 27.7935 29.9639 25.8797 29.9639 23.5268C29.9639 22.4363 29.5751 21.4401 28.9381 20.685L34.722 13.3181C35.1175 13.4566 35.5399 13.533 35.979 13.533C38.1967 13.533 40 11.6189 40 9.26604C40 6.91388 38.196 5 35.979 5ZM4.02165 32.8083C2.94271 32.8083 2.06557 31.8777 2.06557 30.7336C2.06557 29.5891 2.94271 28.6584 4.02165 28.6584C5.09974 28.6584 5.97688 29.5891 5.97688 30.7336C5.97688 31.8777 5.09974 32.8083 4.02165 32.8083ZM13.8372 18.2699C12.759 18.2699 11.8818 17.3395 11.8818 16.1955C11.8818 15.0515 12.759 14.1203 13.8372 14.1203C14.9153 14.1203 15.7931 15.0515 15.7931 16.1955C15.7931 17.3395 14.916 18.2699 13.8372 18.2699ZM25.9423 25.6017C24.8642 25.6017 23.9864 24.6712 23.9864 23.5265C23.9864 22.3825 24.8642 21.4518 25.9423 21.4518C27.0205 21.4518 27.8977 22.3825 27.8977 23.5265C27.8977 24.6712 27.0205 25.6017 25.9423 25.6017ZM35.9792 11.3414C34.9011 11.3414 34.0233 10.4108 34.0233 9.26676C34.0233 8.1222 34.9011 7.19157 35.9792 7.19157C37.0574 7.19157 37.9346 8.12293 37.9346 9.26676C37.9346 10.4108 37.0574 11.3414 35.9792 11.3414Z" fill="#B0BDBF"/>
</svg>
