<svg width="320" height="105" viewBox="0 0 320 105" fill="none" xmlns="http://www.w3.org/2000/svg">
<path fill-rule="evenodd" clip-rule="evenodd" d="M142.994 43.5906C142.994 46.5382 140.879 48.4419 138.016 48.4419C135.092 48.4419 133.1 46.354 133.1 43.5906C133.1 40.7657 135.154 38.7393 138.016 38.7393C141.003 38.7393 142.994 40.7657 142.994 43.5906ZM142.683 52.9247V87.1294H133.473V52.9247H142.683ZM179.037 69.7507C179.037 59.3727 172.939 52.1878 163.231 52.1878C153.835 52.1878 146.804 58.6972 146.804 70.1806C146.804 81.2956 153.524 87.805 162.858 87.805C170.574 87.805 179.037 82.7694 179.037 69.7507ZM163.045 58.8814C167.774 58.8814 169.703 64.5924 169.703 69.935C169.703 76.0145 167.338 81.1114 162.982 81.1114C158.502 81.1114 156.138 76.0759 156.138 69.9964C156.138 64.7766 157.942 58.8814 163.045 58.8814ZM212.79 66.189V87.1294H203.58V67.1716C203.58 62.9957 202.211 59.6797 198.291 59.6797C195.802 59.6797 192.379 61.5833 192.379 66.8031V87.1294H183.17V63.2414C183.17 59.2498 183.045 55.9951 182.921 52.9861H190.886L191.322 57.5918H191.508C193.064 55.074 196.486 52.2492 201.527 52.2492C207.874 52.2492 212.79 56.6092 212.79 66.189ZM128.046 54.0915L126.304 60.478C124.811 59.6797 122.384 58.6972 119.77 58.6972C116.97 58.6972 115.477 60.1096 115.477 61.9518C115.477 63.8555 116.783 64.838 120.766 66.4961C126.615 68.891 129.353 72.2071 129.353 76.9356C129.353 83.4449 124.375 87.7435 115.726 87.7435C111.93 87.7435 108.258 86.8224 105.956 85.4714L107.698 78.9007C109.503 79.9446 112.925 81.1728 115.788 81.1728C119.024 81.1728 120.579 79.8218 120.579 77.7339C120.579 75.646 119.397 74.5406 115.601 72.944C109.13 70.3648 106.765 66.7417 106.765 62.9958C106.765 56.8549 111.743 52.1878 119.459 52.1878C123.006 52.1878 126.055 53.0475 128.046 54.0915ZM102.022 87.1294V66.189C102.022 56.6092 97.1064 52.2492 90.7593 52.2492C85.719 52.2492 82.2965 55.074 80.7409 57.5918H80.5542L80.1186 52.9861H72.1536C72.2781 55.9951 72.4025 59.2498 72.4025 63.2414V87.1294H81.6121V66.8031C81.6121 61.5833 85.0345 59.6797 87.5236 59.6797C91.4438 59.6797 92.8128 62.9957 92.8128 67.1716V87.1294H102.022ZM66.1372 85.7891L64.8304 79.5254C62.4658 80.3237 59.7901 80.9378 56.3677 80.9378C51.3895 80.9378 47.1582 78.6042 46.9092 72.7704H67.6306C67.8173 71.7878 67.8795 70.4983 67.8795 69.1473C67.8795 58.0937 62.4036 52.1984 54.0031 52.1984C43.8602 52.1984 38.1353 60.6728 38.1353 70.4983C38.1353 81.122 44.2335 87.7542 54.9364 87.7542C59.2301 87.7542 63.2748 87.0172 66.1372 85.7891ZM59.3545 66.4453H46.9093C47.1582 63.0678 49.025 58.5235 53.443 58.5235C57.9856 58.5235 59.4168 62.8836 59.3545 66.4453ZM6.77148 87.1401V40.5307C9.75835 39.9781 13.8653 39.5482 19.1545 39.5482C25.1905 39.5482 29.733 40.715 32.7821 43.2941C35.6445 45.6891 37.3868 49.4964 37.3868 53.8565C37.3868 66.8137 26.435 69.6999 19.279 69.6999C17.9722 69.6999 16.8521 69.6385 15.9188 69.4543V87.1401H6.77148ZM15.9188 46.9787V62.3309C16.79 62.5151 17.7856 62.5765 19.1546 62.5765C24.8794 62.5765 28.2396 59.3833 28.2396 54.2863C28.2396 49.2508 25.0038 46.6102 19.9013 46.6102C18.0345 46.6102 16.7277 46.7945 15.9188 46.9787Z" fill="#343A40"/>
<path fill-rule="evenodd" clip-rule="evenodd" d="M248.586 64.3251C250.751 71.1375 247.297 81.309 239.247 88.0045C234.72 91.9772 225.541 96.5942 221.223 89.6283C219.08 86.17 219.755 80.9893 220.738 75.5928C221.843 69.5251 226.05 60.7391 231.064 54.0731C231.977 52.8591 223.566 49.8056 222.473 49.5202C221.329 49.235 220.404 50.1143 219.472 51.3063C213.708 58.6834 211.21 65.4726 209.939 72.4472C208.729 79.092 209.649 85.1452 212.538 89.8063C215.445 94.4965 220.171 97.4775 225.896 98.1975C231.723 98.9303 240.794 96.9432 247.292 91.1945C250.058 88.7475 252.629 85.2391 254.368 81.1445C256.074 83.6211 258.445 85.489 261.29 86.6331C265.761 88.4313 272.39 87.8245 279.999 85.5543C282.055 87.9532 284.975 89.6526 288.27 90.4608C292.957 91.61 298.608 91.0322 302.586 89.6958C307.676 87.9857 310.24 86.2329 312.133 83.6532C313.825 81.2665 313.825 78.8988 312.764 76.9928C312.208 76.0328 310.937 74.378 309.724 73.3861C308.941 72.7764 306.005 74.2951 307.397 76.1049C307.469 76.199 307.548 76.2995 307.631 76.4056C308.521 77.5391 309.913 79.3114 309.179 80.7201C308.349 82.3119 306.361 83.8893 302.193 85.3805C299.221 86.4349 294.548 87.5161 289.799 86.2329C285.805 84.9422 283.761 82.4306 284.541 77.5848C285.379 72.3813 288.948 69.1762 292.176 67.2684C295.472 65.3198 299.275 64.0315 300.466 64.6967C301.243 65.2622 300.065 69.6136 296.743 73.2879C294.142 76.1648 291.617 77.0257 289.529 77.7377C288.974 77.9267 288.451 78.1052 287.965 78.3082C287.517 78.4972 287.354 79.6651 287.722 80.7214C288.09 81.7781 288.819 82.308 289.618 82.1416C292.439 81.6698 297.814 79.3462 300.217 76.2833C303.843 71.6631 305.388 64.5263 303.197 61.1587C300.325 57.3804 291.15 59.1721 287.977 60.8239C287.349 61.1506 286.741 61.4904 286.153 61.8454C288.292 56.7918 289.095 51.2132 288.509 48.8235C287.442 44.4728 276.785 44.0398 269.259 46.7142C262.483 49.1222 257.093 53.4336 254.068 59.4753C251.931 54.9432 248.702 50.9262 244.962 47.6994C250.101 48.0897 255.182 48.0459 258.806 47.3433C268.391 45.4176 275.624 40.5666 279.509 34.4227C283.218 28.5577 286.02 14.0098 275.975 8.40468C270.683 5.83189 264.158 6.09267 257.197 9.43044C249.554 13.096 241.675 19.6552 233.443 30.6851C232.538 31.897 232.837 33.4012 233.443 33.8886C234.024 34.2843 242.381 36.4783 243.068 35.667C248.361 28.5511 253.039 23.8115 258.102 20.198C258.239 20.1002 258.407 19.9785 258.603 19.8367C261.741 17.5679 271.993 10.156 274.642 13.3821C279.989 19.894 275.055 28.3361 272.607 31.4199C268.45 36.6545 263.945 40.4332 256.808 41.6254C250.641 42.6555 242.085 41.6734 229.967 39.5226C229.893 39.5059 229.818 39.4882 229.742 39.4703L229.742 39.4703C228.871 39.2654 227.866 39.0291 227.273 39.7804C226.628 40.5974 224.067 44.3772 225.947 44.8098C226.312 44.8996 226.639 44.9817 226.946 45.0587L226.948 45.0591C227.425 45.1789 227.854 45.2864 228.298 45.3912C237.79 47.5948 246.42 57.5127 248.586 64.3251ZM277.759 71.7399C273.608 74.1533 268.444 75.6919 265.504 75.6919C263.575 75.6919 263.066 71.1572 264.703 70.8029C269.597 69.7653 273.874 67.6588 276.352 65.5681C280.676 61.9182 282.731 58.3631 284.105 52.8263C284.542 50.9801 279.075 52.0747 273.531 54.7935C267.502 57.7499 262.827 63.138 260.988 68.0239C259.149 72.9098 259.183 78.95 264.298 81.5563C267.419 82.8712 271.794 82.4525 277.425 80.8437C276.947 79.2221 276.774 77.4418 276.975 75.5296C277.118 74.1653 277.383 72.9061 277.759 71.7399Z" fill="#F9C000"/>
</svg>
