<svg width="24" height="24" viewBox="0 0 24 24" fill="none" xmlns="http://www.w3.org/2000/svg">
<path fill-rule="evenodd" clip-rule="evenodd" d="M17 4C17.3985 3.61761 18.0315 3.63067 18.4139 4.02916L21.7215 7.30762C22.0928 7.69454 22.0928 8.30545 21.7215 8.69237L18.4139 12C18.0315 12.3985 17.3985 12.4116 17 12.0292C16.6015 11.6468 16.5884 11.0138 16.9708 10.6153L18.624 9.03173H5.00007C4.44779 9.03173 4.00007 8.58402 4.00007 8.03173C4.00007 7.47945 4.44779 7.03173 5.00007 7.03173H18.6849L16.9708 5.41391C16.5884 5.01542 16.6015 4.38239 17 4ZM7 12C6.60151 11.6176 5.96847 11.6307 5.58609 12.0292L2.27846 15.3076C1.90718 15.6945 1.90718 16.3054 2.27846 16.6924L5.58609 20C5.96847 20.3985 6.60151 20.4116 7 20.0292C7.39849 19.6468 7.41155 19.0138 7.02916 18.6153L5.37597 17.0317H18.9999C19.5522 17.0317 19.9999 16.584 19.9999 16.0317C19.9999 15.4794 19.5522 15.0317 18.9999 15.0317H5.31505L7.02916 13.4139C7.41155 13.0154 7.39849 12.3824 7 12Z" fill="#F9C000"/>
</svg>
