<svg width="24" height="24" viewBox="0 0 24 24" fill="none" xmlns="http://www.w3.org/2000/svg">
<path d="M13.6686 3.13859C14.4613 1.85522 15.8808 1 17.5 1C19.9853 1 22 3.01472 22 5.5C22 6.62544 21.5868 7.65439 20.9039 8.44345C20.5745 7.80091 20.1775 7.19871 19.7224 6.64619C19.8998 6.30285 20 5.91313 20 5.5C20 4.11929 18.8807 3 17.5 3C16.8142 3 16.1929 3.27615 15.7412 3.72333C15.0822 3.45734 14.3885 3.25951 13.6686 3.13859Z" fill="#F9C000"/>
<path d="M10.3314 3.13859C9.5387 1.85522 8.11922 1 6.5 1C4.01472 1 2 3.01472 2 5.5C2 6.62544 2.41315 7.65439 3.09606 8.44345C3.42554 7.80091 3.82252 7.19871 4.27765 6.64619C4.10021 6.30285 4 5.91313 4 5.5C4 4.11929 5.11929 3 6.5 3C7.18582 3 7.80713 3.27615 8.25882 3.72333C8.91775 3.45734 9.61152 3.25951 10.3314 3.13859Z" fill="#F9C000"/>
<path fill-rule="evenodd" clip-rule="evenodd" d="M12 6C8.13401 6 5 9.13401 5 13C5 16.866 8.13401 20 12 20C15.866 20 19 16.866 19 13C19 9.13401 15.866 6 12 6ZM3 13C3 8.02944 7.02944 4 12 4C16.9706 4 21 8.02944 21 13C21 17.9706 16.9706 22 12 22C7.02944 22 3 17.9706 3 13Z" fill="#F9C000"/>
<path fill-rule="evenodd" clip-rule="evenodd" d="M16.2929 19.2929C16.6834 18.9024 17.3166 18.9024 17.7071 19.2929L19.7071 21.2929C20.0976 21.6834 20.0976 22.3166 19.7071 22.7071C19.3166 23.0976 18.6834 23.0976 18.2929 22.7071L16.2929 20.7071C15.9024 20.3166 15.9024 19.6834 16.2929 19.2929Z" fill="#F9C000"/>
<path fill-rule="evenodd" clip-rule="evenodd" d="M7.70711 19.2929C8.09763 19.6834 8.09763 20.3166 7.70711 20.7071L5.70711 22.7071C5.31658 23.0976 4.68342 23.0976 4.29289 22.7071C3.90237 22.3166 3.90237 21.6834 4.29289 21.2929L6.29289 19.2929C6.68342 18.9024 7.31658 18.9024 7.70711 19.2929Z" fill="#F9C000"/>
<path fill-rule="evenodd" clip-rule="evenodd" d="M12 8C12.5523 8 13 8.44772 13 9V12H15C15.5523 12 16 12.4477 16 13C16 13.5523 15.5523 14 15 14H12C11.4477 14 11 13.5523 11 13V9C11 8.44772 11.4477 8 12 8Z" fill="#F9C000"/>
</svg>
