<svg width="24" height="24" viewBox="0 0 24 24" fill="none" xmlns="http://www.w3.org/2000/svg">
<path fill-rule="evenodd" clip-rule="evenodd" d="M11.9999 0.960266C12.3612 0.960266 12.6943 1.15513 12.8715 1.47L23.5813 20.5097C23.7555 20.8194 23.7523 21.1982 23.5729 21.5048C23.3936 21.8115 23.065 22 22.7097 22H1.29004C0.934775 22 0.606183 21.8115 0.42683 21.5048C0.247476 21.1982 0.244291 20.8194 0.418464 20.5097L11.1283 1.47C11.3054 1.15513 11.6386 0.960266 11.9999 0.960266ZM11.9999 3.99999L2.99989 20H20.9999L11.9999 3.99999Z" fill="#F9C000"/>
<path fill-rule="evenodd" clip-rule="evenodd" d="M11.9999 17.75C12.6902 17.75 13.2499 17.1904 13.2499 16.5C13.2499 15.8096 12.6902 15.25 11.9999 15.25C11.3095 15.25 10.7499 15.8096 10.7499 16.5C10.7499 17.1904 11.3095 17.75 11.9999 17.75Z" fill="#F9C000"/>
<path d="M12.9999 10C12.9999 9.44771 12.5522 9 11.9999 9C11.4476 9 10.9999 9.44771 10.9999 10V13C10.9999 13.5523 11.4476 14 11.9999 14C12.5522 14 12.9999 13.5523 12.9999 13V10Z" fill="#F9C000"/>
</svg>
