<svg width="24" height="24" viewBox="0 0 24 24" fill="none" xmlns="http://www.w3.org/2000/svg">
<path fill-rule="evenodd" clip-rule="evenodd" d="M10.0217 3.00024C10.4601 3.00976 10.8411 3.30371 10.9615 3.72528L14.3283 15.5091L16.1425 12.4855C16.3232 12.1843 16.6487 12 17 12H22C22.5523 12 23 12.4477 23 13C23 13.5523 22.5523 14 22 14H17.5662L14.8575 18.5145C14.6525 18.8561 14.2643 19.0435 13.8693 18.9914C13.4743 18.9394 13.1479 18.6578 13.0385 18.2747L9.9265 7.38279L7.94868 13.3162C7.81257 13.7246 7.43043 14 7 14H2C1.44772 14 1 13.5523 1 13C1 12.4477 1.44772 12 2 12H6.27924L9.05132 3.68377C9.18996 3.26783 9.58339 2.99071 10.0217 3.00024Z" fill="#F9C000"/>
</svg>
