<svg width="24" height="24" viewBox="0 0 24 24" fill="none" xmlns="http://www.w3.org/2000/svg">
<path fill-rule="evenodd" clip-rule="evenodd" d="M12 3C7.02944 3 3 7.02944 3 12C3 16.9706 7.02944 21 12 21C13.7546 21 15.392 20.4979 16.7762 19.6295C16.9914 19.4945 17.2409 19.4214 17.4946 19.4347C18.4752 19.4861 18.8987 20.6243 18.0809 21.1678C16.339 22.3255 14.2483 23 12 23C5.92487 23 1 18.0751 1 12C1 5.92487 5.92487 1 12 1C18.0751 1 23 5.92487 23 12C23 14.2091 21.2091 16 19 16C17.8809 16 16.8692 15.5405 16.1432 14.7998C15.2443 16.1274 13.7241 17 12 17C9.23858 17 7 14.7614 7 12C7 9.23858 9.23858 7 12 7C13.1256 7 14.1643 7.37194 15 7.99963C15.0002 7.44752 15.4478 7 16 7C16.5523 7 17 7.44772 17 8V12C17 13.1046 17.8954 14 19 14C20.1046 14 21 13.1046 21 12C21 7.02944 16.9706 3 12 3ZM9 12C9 10.3431 10.3431 9 12 9C13.6569 9 15 10.3431 15 12C15 13.6569 13.6569 15 12 15C10.3431 15 9 13.6569 9 12Z" fill="#F9C000"/>
</svg>
