<svg width="24" height="24" viewBox="0 0 24 24" fill="none" xmlns="http://www.w3.org/2000/svg">
<path fill-rule="evenodd" clip-rule="evenodd" d="M14.1531 4.08412L5.56453 12.6727L5.56099 12.6763C5.55679 12.6806 5.54926 12.6885 5.53873 12.6997C5.51764 12.7221 5.48461 12.758 5.44231 12.8062C5.35752 12.903 5.23653 13.0484 5.1001 13.2345C4.82472 13.61 4.49965 14.1331 4.27549 14.7415C4.05196 15.3483 3.93772 16.0145 4.04795 16.698C4.15648 17.3709 4.49192 18.1213 5.26688 18.8962C6.04183 19.6712 6.79222 20.0066 7.46512 20.1151C8.14857 20.2254 8.81484 20.1111 9.42157 19.8876C10.03 19.6635 10.5531 19.3384 10.9286 19.063C11.1147 18.9266 11.2601 18.8056 11.3569 18.7208C11.4051 18.6785 11.441 18.6455 11.4634 18.6244C11.4746 18.6138 11.4825 18.6063 11.4868 18.6021L11.4895 18.5994L11.4899 18.599L11.4904 18.5986L19.7853 10.3037C20.1125 9.97644 20.6432 9.97643 20.9704 10.3037C21.2977 10.631 21.2977 11.1616 20.9704 11.4889L12.6742 19.7851L12.0816 19.1925C12.6742 19.7851 12.6739 19.7854 12.6736 19.7857L12.673 19.7864L12.6714 19.788L12.6671 19.7922L12.6542 19.8048C12.6437 19.815 12.6295 19.8286 12.6116 19.8454C12.5759 19.879 12.5255 19.9253 12.4615 19.9814C12.3337 20.0933 12.1504 20.2455 11.9198 20.4146C11.462 20.7503 10.8 21.166 10.001 21.4604C9.20033 21.7553 8.23699 21.9374 7.19823 21.7699C6.14892 21.6006 5.08451 21.0842 4.0817 20.0814C3.0789 19.0786 2.56249 18.0142 2.39325 16.9649C2.22571 15.9261 2.40776 14.9628 2.70274 14.1621C2.9971 13.3631 3.41276 12.7011 3.74849 12.2433C3.91761 12.0127 4.06976 11.8294 4.18173 11.7016C4.23781 11.6376 4.28407 11.5872 4.31766 11.5515C4.33447 11.5336 4.34813 11.5194 4.3583 11.5089L4.37089 11.496L4.37515 11.4917L4.37675 11.4901L4.37742 11.4895C4.37771 11.4892 4.378 11.4889 4.97058 12.0815L4.378 11.4889L12.9705 2.89637L13.5631 3.48896C12.9705 2.89637 12.9708 2.89607 12.9711 2.89577L12.9718 2.8951L12.9733 2.89361L12.977 2.88998L12.987 2.88017C12.9949 2.87252 13.0052 2.86269 13.0178 2.85092C13.0429 2.82738 13.0774 2.79594 13.1207 2.75844C13.207 2.68362 13.3295 2.58362 13.4834 2.47368C13.7879 2.25616 14.2331 1.98718 14.7796 1.80504C15.3294 1.62174 15.9983 1.52137 16.7274 1.6672C17.4627 1.81426 18.2001 2.20009 18.8964 2.89637C19.5927 3.59265 19.9785 4.33003 20.1256 5.06533C20.2714 5.79444 20.171 6.46331 19.9877 7.0132C19.8056 7.55961 19.5366 8.00482 19.3191 8.30936C19.2091 8.46326 19.1091 8.58571 19.0343 8.67204C18.9968 8.71531 18.9654 8.74981 18.9418 8.77497C18.9301 8.78756 18.9202 8.79784 18.9126 8.80574L18.9028 8.81579L18.8991 8.81947L18.8977 8.82097L18.897 8.82164C18.8967 8.82194 18.8964 8.82224 18.3038 8.22966L18.8964 8.82224L10.6002 17.1185L10.0076 16.5259C10.6002 17.1185 10.5999 17.1188 10.5996 17.1191L10.5989 17.1197L10.5976 17.121L10.5946 17.124L10.5871 17.1313C10.5815 17.1367 10.5746 17.1433 10.5665 17.1509C10.5503 17.166 10.5291 17.1853 10.5032 17.2078C10.4516 17.2525 10.3801 17.3108 10.291 17.3745C10.1161 17.4994 9.85604 17.6573 9.53185 17.7654C9.20419 17.8746 8.79457 17.9379 8.34323 17.8476C7.88571 17.7561 7.44463 17.5185 7.04464 17.1185C6.64465 16.7185 6.40696 16.2774 6.31546 15.8199C6.22519 15.3685 6.28852 14.9589 6.39775 14.6312C6.50581 14.3071 6.66368 14.047 6.78862 13.8721C6.85225 13.783 6.91059 13.7115 6.95531 13.6599C6.97777 13.634 6.99706 13.6128 7.01221 13.5966C7.01979 13.5885 7.02636 13.5816 7.0318 13.576L7.0391 13.5685L7.0421 13.5655L7.04342 13.5642L7.04405 13.5635C7.04434 13.5632 7.04464 13.5629 7.63723 14.1555L7.04464 13.5629L14.7483 5.85931C15.0755 5.53203 15.6062 5.53203 15.9334 5.85931C16.2607 6.18658 16.2607 6.71721 15.9334 7.04448L8.23516 14.7428C8.23289 14.7452 8.22832 14.7502 8.22192 14.7576C8.20645 14.7755 8.18146 14.8058 8.15251 14.8463C8.09226 14.9307 8.02791 15.041 7.98783 15.1613C7.9489 15.278 7.93816 15.3869 7.959 15.4912C7.97861 15.5892 8.03721 15.7407 8.22981 15.9333C8.42241 16.1259 8.57391 16.1845 8.67194 16.2041C8.77615 16.2249 8.88506 16.2142 9.00183 16.1753C9.12208 16.1352 9.23242 16.0708 9.31677 16.0106C9.35731 15.9816 9.38763 15.9566 9.40547 15.9412C9.41287 15.9348 9.41788 15.9302 9.42033 15.9279L17.7086 7.63964L17.7178 7.62994C17.7279 7.61922 17.745 7.60049 17.7677 7.57431C17.8133 7.52175 17.8799 7.4405 17.9552 7.33515C18.108 7.12117 18.2835 6.82565 18.3976 6.48318C18.5106 6.14418 18.5584 5.77602 18.482 5.39404C18.4069 5.01823 18.2001 4.57044 17.7112 4.08155C17.2223 3.59265 16.7745 3.3859 16.3987 3.31074C16.0167 3.23434 15.6486 3.28212 15.3096 3.39512C14.9671 3.50927 14.6716 3.68473 14.4576 3.83757C14.3523 3.91282 14.271 3.97948 14.2184 4.02504C14.1923 4.04772 14.1735 4.06489 14.1628 4.07492L14.1531 4.08412Z" fill="#F9C000"/>
</svg>
