<svg width="24" height="24" viewBox="0 0 24 24" fill="none" xmlns="http://www.w3.org/2000/svg">
<path fill-rule="evenodd" clip-rule="evenodd" d="M12 4C8.14117 4 5 7.13169 5 10.9908V21.0092C5 21.5502 5.44577 22 5.99406 22H18.0059C18.5553 22 19 21.5543 19 21.0092V10.9908C19 7.12914 15.8672 4 12 4ZM3 10.9908C3 6.02348 7.04025 2 12 2C16.9693 2 21 6.02206 21 10.9908V21.0092C21 22.6631 19.6557 24 18.0059 24H5.99406C4.33978 24 3 22.6534 3 21.0092V10.9908Z" fill="#F9C000"/>
<path fill-rule="evenodd" clip-rule="evenodd" d="M6 15C6 13.8954 6.89543 13 8 13H16C17.1046 13 18 13.8954 18 15V22C18 23.1046 17.1046 24 16 24H8C6.89543 24 6 23.1046 6 22V15ZM16 15H8V22H16V15Z" fill="#F9C000"/>
<path d="M22 16C22 15.4477 21.5523 15 21 15C20.4477 15 20 15.4477 20 16V20C20 20.5523 20.4477 21 21 21C21.5523 21 22 20.5523 22 20V16Z" fill="#F9C000"/>
<path d="M4 16C4 15.4477 3.55228 15 3 15C2.44772 15 2 15.4477 2 16V20C2 20.5523 2.44772 21 3 21C3.55228 21 4 20.5523 4 20V16Z" fill="#F9C000"/>
<path d="M16 17H8V18H16V17Z" fill="#F9C000"/>
<path fill-rule="evenodd" clip-rule="evenodd" d="M11.2929 6.29289C11.6834 5.90237 12.3166 5.90237 12.7071 6.29289L13.7071 7.29289C14.0976 7.68342 14.0976 8.31658 13.7071 8.70711L12.7071 9.70711C12.3166 10.0976 11.6834 10.0976 11.2929 9.70711L10.2929 8.70711C9.90237 8.31658 9.90237 7.68342 10.2929 7.29289L11.2929 6.29289Z" fill="#F9C000"/>
<path fill-rule="evenodd" clip-rule="evenodd" d="M10.1355 2H13.8645C13.7685 1.71458 13.6259 1.51542 13.4502 1.37388C13.1674 1.1461 12.716 1 12 1C11.284 1 10.8326 1.1461 10.5498 1.37388C10.3741 1.51542 10.2315 1.71458 10.1355 2ZM9.92252 0.595106C10.4545 0.166554 11.1687 0 12 0C12.8313 0 13.5455 0.166554 14.0775 0.595106C14.6202 1.03225 14.8915 1.67492 14.9727 2.4478L15.0306 3H8.96937L9.02734 2.4478C9.10847 1.67492 9.37983 1.03225 9.92252 0.595106Z" fill="#F9C000"/>
</svg>
