<svg width="25" height="24" viewBox="0 0 25 24" fill="none" xmlns="http://www.w3.org/2000/svg">
<path fill-rule="evenodd" clip-rule="evenodd" d="M5.67217 3.68561C6.42225 2.62827 7.63824 2 8.93462 2H21C23.2091 2 25 3.79086 25 6V18C25 20.2091 23.2091 22 21 22H8.93463C7.63824 22 6.42225 21.3717 5.67217 20.3144L0.594846 13.1572C0.103149 12.4641 0.103147 11.5359 0.594846 10.8428L5.67217 3.68561ZM8.93462 4C8.28643 4 7.67844 4.31413 7.3034 4.84281L2.22607 12L7.3034 19.1572C7.67844 19.6859 8.28643 20 8.93463 20H21C22.1046 20 23 19.1046 23 18V6C23 4.89543 22.1046 4 21 4H8.93462ZM10.2929 8.29289C10.6834 7.90237 11.3166 7.90237 11.7071 8.29289L14 10.5858L16.2929 8.29289C16.6834 7.90237 17.3166 7.90237 17.7071 8.29289C18.0976 8.68342 18.0976 9.31658 17.7071 9.70711L15.4142 12L17.7071 14.2929C18.0976 14.6834 18.0976 15.3166 17.7071 15.7071C17.3166 16.0976 16.6834 16.0976 16.2929 15.7071L14 13.4142L11.7071 15.7071C11.3166 16.0976 10.6834 16.0976 10.2929 15.7071C9.90237 15.3166 9.90237 14.6834 10.2929 14.2929L12.5858 12L10.2929 9.70711C9.90237 9.31658 9.90237 8.68342 10.2929 8.29289Z" fill="#F9C000"/>
</svg>
