<svg width="24" height="24" viewBox="0 0 24 24" fill="none" xmlns="http://www.w3.org/2000/svg">
<path fill-rule="evenodd" clip-rule="evenodd" d="M5 22C3.89543 22 3 21.1046 3 20V6.5H21V20C21 21.1046 20.1046 22 19 22H5ZM20.2816 4.5H3.71837L5.50186 2.35982C5.69186 2.13182 5.9733 2 6.27008 2H17.7299C18.0267 2 18.3081 2.13182 18.4981 2.35982L20.2816 4.5ZM1 20C1 22.2091 2.79086 24 5 24H19C21.2091 24 23 22.2091 23 20V5.7241C23 5.02229 22.754 4.34269 22.3047 3.80355L20.0346 1.07945C19.4646 0.39547 18.6203 0 17.7299 0H6.27008C5.37974 0 4.5354 0.39547 3.96542 1.07945L1.69534 3.80355C1.24605 4.34269 1 5.02229 1 5.7241V20ZM9 10C9 9.44771 8.55228 9 8 9C7.44772 9 7 9.44771 7 10C7 12.7614 9.23858 15 12 15C14.7614 15 17 12.7614 17 10C17 9.44771 16.5523 9 16 9C15.4477 9 15 9.44771 15 10C15 11.6569 13.6569 13 12 13C10.3431 13 9 11.6569 9 10Z" fill="#F9C000"/>
</svg>
