<svg width="24" height="24" viewBox="0 0 24 24" fill="none" xmlns="http://www.w3.org/2000/svg">
<g clip-path="url(#clip0_3031_6786)">
<path fill-rule="evenodd" clip-rule="evenodd" d="M5 7.24C5 3.27879 8.0974 0 12 0C15.9026 0 19 3.27879 19 7.24C19 9.1794 18.2593 11.5489 17.0936 13.4376C16.179 14.9194 14.8584 16.3257 13.2307 16.8165L13.7071 17.2929C13.9931 17.5789 14.0787 18.009 13.9239 18.3827C13.7696 18.7552 13.4067 18.9985 13.0038 19C13.029 20.3716 13.2132 21.4885 14.4472 22.1056C14.9412 22.3526 15.1414 22.9532 14.8944 23.4472C14.6474 23.9412 14.0468 24.1414 13.5528 23.8944C11.2189 22.7275 11.0174 20.4695 11.0012 19H11C10.5955 19 10.2309 18.7564 10.0761 18.3827C9.92134 18.009 10.0069 17.5789 10.2929 17.2929L10.7693 16.8165C9.14161 16.3257 7.82101 14.9194 6.90639 13.4376C5.74071 11.5489 5 9.1794 5 7.24ZM12 2C9.27518 2 7 4.3087 7 7.24C7 8.74685 7.60244 10.7574 8.60833 12.3871C9.64457 14.0661 10.8837 15 12 15C13.1163 15 14.3554 14.0661 15.3917 12.3871C16.3976 10.7574 17 8.74685 17 7.24C17 4.3087 14.7248 2 12 2ZM8 7C8 4.79086 9.79086 3 12 3C12.5523 3 13 3.44772 13 4C13 4.55228 12.5523 5 12 5C10.8954 5 10 5.89543 10 7C10 7.55228 9.55228 8 9 8C8.44772 8 8 7.55228 8 7Z" fill="#F9C000"/>
</g>
<defs>
<clipPath id="clip0_3031_6786">
<rect width="24" height="24" fill="white"/>
</clipPath>
</defs>
</svg>
