<svg width="24" height="24" viewBox="0 0 24 24" fill="none" xmlns="http://www.w3.org/2000/svg">
<path fill-rule="evenodd" clip-rule="evenodd" d="M1 21H23L24 23H0L1 21ZM2.5 18H21.5L22.5 20H1.5L2.5 18Z" fill="#F9C000"/>
<path fill-rule="evenodd" clip-rule="evenodd" d="M11.4265 1.18077C11.7709 0.939744 12.2291 0.939744 12.5735 1.18077L22.5735 8.18077C22.931 8.43107 23.085 8.88436 22.9537 9.30064C22.8225 9.71692 22.4365 10 22 10H2C1.56353 10 1.17748 9.71692 1.04626 9.30064C0.915042 8.88436 1.06897 8.43107 1.42654 8.18077L11.4265 1.18077ZM5.17237 8H18.8276L12 3.22066L5.17237 8Z" fill="#F9C000"/>
<path fill-rule="evenodd" clip-rule="evenodd" d="M11 11H13V18H11V11ZM15 11H17V18H15V11ZM3 11H5V18H3V11ZM19 11H21V18H19V11ZM7 11H9V18H7V11Z" fill="#F9C000"/>
<path d="M12 7C12.5523 7 13 6.55228 13 6C13 5.44772 12.5523 5 12 5C11.4477 5 11 5.44772 11 6C11 6.55228 11.4477 7 12 7Z" fill="#F9C000"/>
</svg>
