<svg width="24" height="24" viewBox="0 0 24 24" fill="none" xmlns="http://www.w3.org/2000/svg">
<path fill-rule="evenodd" clip-rule="evenodd" d="M1 5.00684C1 3.16423 2.6387 1.84811 4.45006 2.30095L12 4.18844L19.5499 2.30095C21.3589 1.84872 23 3.1629 23 5.00684V16.9931C23 18.4596 21.9524 19.8234 20.5201 20.1815L12.2425 22.2509C12.0812 22.2912 11.9147 22.2902 11.7575 22.2509L3.47992 20.1815C2.04926 19.8239 1 18.4602 1 16.9931V5.00684ZM3.96499 4.24124C3.4373 4.10932 3 4.44324 3 5.00684V16.9931C3 17.5534 3.43523 18.1088 3.96499 18.2412L11 20V5.99999L3.96499 4.24124ZM21 5.00684C21 4.44366 20.5619 4.10951 20.035 4.24124L13 5.99999V20L20.035 18.2412C20.5657 18.1086 21 17.5536 21 16.9931V5.00684Z" fill="#F9C000"/>
<path fill-rule="evenodd" clip-rule="evenodd" d="M4.51493 7.87872C4.5819 7.61083 4.85337 7.44795 5.12127 7.51492L9.12127 8.51492C9.38916 8.5819 9.55205 8.85336 9.48507 9.12126C9.4181 9.38916 9.14663 9.55204 8.87873 9.48506L4.87873 8.48506C4.61083 8.41809 4.44795 8.14662 4.51493 7.87872Z" fill="#F9C000"/>
<path fill-rule="evenodd" clip-rule="evenodd" d="M4.51493 10.8787C4.5819 10.6108 4.85337 10.4479 5.12127 10.5149L9.12127 11.5149C9.38916 11.5819 9.55205 11.8534 9.48507 12.1213C9.4181 12.3892 9.14663 12.552 8.87873 12.4851L4.87873 11.4851C4.61083 11.4181 4.44795 11.1466 4.51493 10.8787Z" fill="#F9C000"/>
<path fill-rule="evenodd" clip-rule="evenodd" d="M4.51493 13.8787C4.5819 13.6108 4.85337 13.4479 5.12127 13.5149L9.12127 14.5149C9.38916 14.5819 9.55205 14.8534 9.48507 15.1213C9.4181 15.3892 9.14663 15.552 8.87873 15.4851L4.87873 14.4851C4.61083 14.4181 4.44795 14.1466 4.51493 13.8787Z" fill="#F9C000"/>
<path fill-rule="evenodd" clip-rule="evenodd" d="M19.4851 7.87872C19.552 8.14662 19.3892 8.41809 19.1213 8.48506L15.1213 9.48506C14.8534 9.55204 14.5819 9.38916 14.5149 9.12126C14.448 8.85336 14.6108 8.5819 14.8787 8.51492L18.8787 7.51492C19.1466 7.44795 19.4181 7.61083 19.4851 7.87872Z" fill="#F9C000"/>
<path fill-rule="evenodd" clip-rule="evenodd" d="M19.4851 10.8787C19.552 11.1466 19.3892 11.4181 19.1213 11.4851L15.1213 12.4851C14.8534 12.552 14.5819 12.3892 14.5149 12.1213C14.448 11.8534 14.6108 11.5819 14.8787 11.5149L18.8787 10.5149C19.1466 10.4479 19.4181 10.6108 19.4851 10.8787Z" fill="#F9C000"/>
<path fill-rule="evenodd" clip-rule="evenodd" d="M19.4851 13.8787C19.552 14.1466 19.3892 14.4181 19.1213 14.4851L15.1213 15.4851C14.8534 15.552 14.5819 15.3892 14.5149 15.1213C14.448 14.8534 14.6108 14.5819 14.8787 14.5149L18.8787 13.5149C19.1466 13.4479 19.4181 13.6108 19.4851 13.8787Z" fill="#F9C000"/>
</svg>
