<svg width="24" height="24" viewBox="0 0 24 24" fill="none" xmlns="http://www.w3.org/2000/svg">
<path fill-rule="evenodd" clip-rule="evenodd" d="M8.00853 4C7.44702 4 7 4.45271 7 4.99509V19.1315L11.4453 16.1679C11.7812 15.944 12.2188 15.944 12.5547 16.1679L17 19.1315V4.99509C17 4.45143 16.555 4 15.9915 4H8.00853ZM5 4.99509C5 3.33375 6.35689 2 8.00853 2H15.9915C17.6465 2 19 3.33382 19 4.99509V20.0066C19 20.4713 18.8343 21.1102 18.2179 21.4321C17.6087 21.7503 16.9929 21.5305 16.611 21.2759L12 18.2019L7.38897 21.2759C7.00734 21.5303 6.39045 21.7517 5.78006 21.4318C5.16389 21.1087 5 20.4691 5 20.0066V4.99509Z" fill="#F9C000"/>
</svg>
