<svg width="24" height="24" viewBox="0 0 24 24" fill="none" xmlns="http://www.w3.org/2000/svg">
<path fill-rule="evenodd" clip-rule="evenodd" d="M3 7C3 4.23858 5.23858 2 8 2H16C18.7614 2 21 4.23858 21 7V20.3932C21 21.6041 19.6391 22.316 18.6444 21.6252L12.5704 17.4072C12.2274 17.169 11.7726 17.169 11.4296 17.4072L5.35559 21.6252C4.36093 22.316 3 21.6041 3 20.3932V7ZM8 4C6.34315 4 5 5.34315 5 7V19.4372L10.2888 15.7644C11.3177 15.0499 12.6823 15.0499 13.7112 15.7644L19 19.4372V7C19 5.34315 17.6569 4 16 4H8Z" fill="#F9C000"/>
</svg>
