<svg width="24" height="24" viewBox="0 0 24 24" fill="none" xmlns="http://www.w3.org/2000/svg">
<g clip-path="url(#clip0_3031_6830)">
<path fill-rule="evenodd" clip-rule="evenodd" d="M1.2517e-06 7C1.2517e-06 5.89543 0.895432 5 2 5H22C23.1046 5 24 5.89543 24 7V21C24 22.1046 23.1046 23 22 23H2C0.895432 23 1.2517e-06 22.1046 1.2517e-06 21V7ZM22 7H2V21H22V7Z" fill="#F9C000"/>
<path fill-rule="evenodd" clip-rule="evenodd" d="M10.0085 3C9.44844 3 9 3.45264 9 3.9981V6.0019H7V3.9981C7 2.33652 8.35546 1 10.0085 1H13.9915C15.6455 1 17 2.32696 17 3.9981V6.0019H15V3.9981C15 3.44645 14.556 3 13.9915 3H10.0085Z" fill="#F9C000"/>
<path fill-rule="evenodd" clip-rule="evenodd" d="M22 8.99908C22 8.99908 22 9 23 9C24 9 24 9.00104 24 9.00104L24 9.00219L24 9.00485L24 9.01158L23.9997 9.03056C23.9995 9.04562 23.999 9.06548 23.9982 9.08982C23.9966 9.13846 23.9935 9.20518 23.9876 9.28743C23.9759 9.45158 23.9529 9.67956 23.9078 9.95051C23.8183 10.4877 23.6373 11.2192 23.2655 11.9628C22.8918 12.7103 22.3154 13.4882 21.4322 14.0771C20.5427 14.6701 19.4016 15.0311 17.9689 15.0311H4.99082C3.7597 15.0311 2.78 14.6378 2.03307 14.011C1.30414 13.3993 0.849034 12.6103 0.561829 11.8828C0.273714 11.153 0.135596 10.4374 0.0680144 9.91421C0.0338851 9.64998 0.0169175 9.42817 0.00845861 9.26938C0.00422108 9.18983 0.00209606 9.12566 0.00103629 9.07941C0.000506103 9.05627 0.000241578 9.03757 0.000113308 9.02364L6.85453e-06 9.00632L0 9.0004L2.86102e-06 8.99814C2.86102e-06 8.99814 7.92742e-06 8.99635 1 9C1.99999 9.00365 2 9.00293 2 9.00293L2 9.00143L2.00003 9.00523L2.00051 9.0336C2.00114 9.06104 2.00254 9.10496 2.00563 9.16299C2.01182 9.27933 2.02474 9.45058 2.05154 9.65802C2.1058 10.0781 2.21366 10.6204 2.42211 11.1484C2.63146 11.6786 2.92348 12.1473 3.3187 12.479C3.69591 12.7955 4.21736 13.0311 4.99082 13.0311H17.9689C19.0517 13.0311 19.7973 12.7633 20.3228 12.413C20.8546 12.0585 21.2216 11.5786 21.4767 11.0684C21.7338 10.5542 21.8673 10.0279 21.935 9.62171C21.9684 9.421 21.9848 9.25592 21.9927 9.14493C21.9967 9.08961 21.9985 9.04824 21.9993 9.02319L22 8.99908ZM22 8.99584L22 8.99698L22 8.99908L22 8.99584Z" fill="#F9C000"/>
<path d="M18 12C18 11.4477 17.5523 11 17 11C16.4477 11 16 11.4477 16 12V16C16 16.5523 16.4477 17 17 17C17.5523 17 18 16.5523 18 16V12Z" fill="#F9C000"/>
<path d="M8 12C8 11.4477 7.55229 11 7 11C6.44772 11 6 11.4477 6 12V16C6 16.5523 6.44772 17 7 17C7.55229 17 8 16.5523 8 16V12Z" fill="#F9C000"/>
</g>
<defs>
<clipPath id="clip0_3031_6830">
<rect width="24" height="24" fill="white"/>
</clipPath>
</defs>
</svg>
