<svg width="24" height="24" viewBox="0 0 24 24" fill="none" xmlns="http://www.w3.org/2000/svg">
<path fill-rule="evenodd" clip-rule="evenodd" d="M21.5216 1.87511C21.8527 1.87511 22.2658 1.96692 22.5967 2.29782C22.9276 2.62872 23.0195 3.04185 23.0195 3.37298C23.0195 3.69138 22.9379 4.00141 22.8405 4.26922C22.6445 4.80805 22.2934 5.41737 21.882 6.0345C21.0491 7.28389 19.8207 8.78206 18.5763 10.2042C17.3257 11.6335 16.0331 13.0151 15.0551 14.0376C14.5656 14.5493 14.1538 14.9722 13.864 15.2676C13.7192 15.4153 13.6047 15.5311 13.5263 15.6102L13.4363 15.7009L13.405 15.7322C13.4049 15.7323 13.4044 15.7328 12.6972 15.0257L13.405 15.7322C13.16 15.9772 12.8048 16.0786 12.4675 15.999C12.1311 15.9196 11.8597 15.6721 11.7495 15.3447C11.7493 15.3443 11.7491 15.3435 11.7486 15.3422L11.7409 15.3205C11.7331 15.2992 11.7203 15.265 11.7025 15.2204C11.6666 15.1306 11.6115 15.0018 11.5377 14.8542C11.3844 14.5477 11.1761 14.2117 10.9295 13.9651C10.6829 13.7185 10.3468 13.5102 10.0403 13.3569C9.89273 13.2831 9.76395 13.228 9.67421 13.1921C9.62959 13.1742 9.59532 13.1614 9.57403 13.1537L9.55238 13.146C9.55104 13.1455 9.55018 13.1452 9.54982 13.1451L9.5513 13.1456L9.55238 13.146C9.22377 13.0363 8.97517 12.7643 8.89557 12.4271C8.81595 12.0898 8.91665 11.7353 9.16171 11.4902L9.86882 12.1973C9.16171 11.4902 9.16159 11.4903 9.16171 11.4902L9.19371 11.4583L9.28433 11.3683C9.36347 11.2899 9.47931 11.1754 9.627 11.0305C9.92232 10.7408 10.3452 10.329 10.857 9.83949C11.8794 8.86147 13.2611 7.56888 14.6904 6.31821C16.1125 5.07387 17.6107 3.84549 18.8601 3.01257C19.4772 2.60115 20.0865 2.25002 20.6253 2.05409C20.8932 1.9567 21.2032 1.87511 21.5216 1.87511ZM11.569 11.9304C11.8283 12.0996 12.0984 12.3056 12.3437 12.5509C12.589 12.7962 12.795 13.0662 12.9642 13.3256C13.1577 13.126 13.3746 12.901 13.6098 12.6551C14.5763 11.6447 15.847 10.2863 17.0712 8.88716C18.3017 7.48085 19.4598 6.0622 20.2179 4.9251C20.3797 4.68243 20.5169 4.4619 20.63 4.26461C20.4327 4.3777 20.2121 4.51489 19.9695 4.67667C18.8324 5.43473 17.4137 6.59284 16.0074 7.82337C14.6083 9.04758 13.2499 10.3182 12.2394 11.2848C11.9936 11.5199 11.7686 11.7368 11.569 11.9304ZM11.7495 15.3447C11.7493 15.3443 11.7491 15.3435 11.7486 15.3422L11.749 15.3433L11.7495 15.3447ZM11.749 15.3433C11.749 15.3432 11.749 15.3434 11.749 15.3433V15.3433ZM7.39395 13.3186C8.45981 13.3186 9.40627 13.8561 10.2224 14.6722C11.1214 15.5712 11.5034 16.6415 11.4416 17.6919C11.3813 18.7177 10.9034 19.6481 10.2224 20.329C9.31005 21.2414 7.8263 21.8446 6.31142 21.9455C4.77146 22.0482 3.04858 21.6405 1.73709 20.329L0.902382 19.4943L1.86296 18.8082C2.41569 18.4134 2.72988 18.0875 2.92419 17.8218C3.1139 17.5624 3.21699 17.3233 3.30748 17.0518C3.33476 16.9699 3.36152 16.8799 3.39034 16.7829C3.55454 16.2303 3.78585 15.4519 4.56552 14.6722C5.38162 13.8561 6.32808 13.3186 7.39395 13.3186ZM7.39395 15.3186C7.0456 15.3186 6.57784 15.4883 5.97973 16.0864C5.57734 16.4888 5.48852 16.7767 5.33228 17.2832C5.29527 17.4031 5.25448 17.5354 5.20484 17.6843C5.07437 18.0757 4.89019 18.5216 4.53853 19.0024C4.40124 19.1902 4.24296 19.3771 4.0594 19.5647C4.70674 19.884 5.4412 19.9991 6.17838 19.95C7.31515 19.8742 8.30628 19.4167 8.80816 18.9148C9.18783 18.5352 9.41702 18.0513 9.44507 17.5745C9.47167 17.1223 9.32339 16.6016 8.80816 16.0864C8.21005 15.4883 7.7423 15.3186 7.39395 15.3186Z" fill="#F9C000"/>
</svg>
