<svg width="24" height="24" viewBox="0 0 24 24" fill="none" xmlns="http://www.w3.org/2000/svg">
<path fill-rule="evenodd" clip-rule="evenodd" d="M6 4C5.44772 4 5 4.44772 5 5V19C5 19.5523 5.44772 20 6 20H18C18.5523 20 19 19.5523 19 19V5C19 4.44772 18.5523 4 18 4H6ZM3 5C3 3.34315 4.34315 2 6 2H18C19.6569 2 21 3.34315 21 5V19C21 20.6569 19.6569 22 18 22H6C4.34315 22 3 20.6569 3 19V5Z" fill="#F9C000"/>
<path fill-rule="evenodd" clip-rule="evenodd" d="M7 6.49539C7 6.22179 7.22765 6 7.50965 6H16.4904C16.7718 6 17 6.21575 17 6.49539V8.50461C17 8.77821 16.7723 9 16.4904 9H7.50965C7.22818 9 7 8.78425 7 8.50461V6.49539ZM7 10.5047C7 10.226 7.21575 10 7.49539 10H9.50461C9.77821 10 10 10.214 10 10.5047V11.4953C10 11.774 9.78425 12 9.50461 12H7.49539C7.22179 12 7 11.786 7 11.4953V10.5047ZM7 13.5047C7 13.226 7.21575 13 7.49539 13H9.50461C9.77821 13 10 13.214 10 13.5047V14.4953C10 14.774 9.78425 15 9.50461 15H7.49539C7.22179 15 7 14.786 7 14.4953V13.5047ZM7 16.5047C7 16.226 7.21575 16 7.49539 16H9.50461C9.77821 16 10 16.214 10 16.5047V17.4953C10 17.774 9.78425 18 9.50461 18H7.49539C7.22179 18 7 17.786 7 17.4953V16.5047ZM11 10.5047C11 10.226 11.2158 10 11.4954 10H13.5046C13.7782 10 14 10.214 14 10.5047V11.4953C14 11.774 13.7842 12 13.5046 12H11.4954C11.2218 12 11 11.786 11 11.4953V10.5047ZM11 13.5047C11 13.226 11.2158 13 11.4954 13H13.5046C13.7782 13 14 13.214 14 13.5047V14.4953C14 14.774 13.7842 15 13.5046 15H11.4954C11.2218 15 11 14.786 11 14.4953V13.5047ZM11 16.5047C11 16.226 11.2158 16 11.4954 16H13.5046C13.7782 16 14 16.214 14 16.5047V17.4953C14 17.774 13.7842 18 13.5046 18H11.4954C11.2218 18 11 17.786 11 17.4953V16.5047ZM15 10.5047C15 10.226 15.214 10 15.5047 10H16.4953C16.774 10 17 10.214 17 10.5047V11.4953C17 11.774 16.786 12 16.4953 12H15.5047C15.226 12 15 11.786 15 11.4953V10.5047ZM15 13.5047C15 13.226 15.214 13 15.5047 13H16.4953C16.774 13 17 13.214 17 13.5047V14.4953C17 14.774 16.786 15 16.4953 15H15.5047C15.226 15 15 14.786 15 14.4953V13.5047ZM15 16.5047C15 16.226 15.214 16 15.5047 16H16.4953C16.774 16 17 16.214 17 16.5047V17.4953C17 17.774 16.786 18 16.4953 18H15.5047C15.226 18 15 17.786 15 17.4953V16.5047Z" fill="#F9C000"/>
</svg>
