<svg width="24" height="24" viewBox="0 0 24 24" fill="none" xmlns="http://www.w3.org/2000/svg">
<path fill-rule="evenodd" clip-rule="evenodd" d="M5 4C4.44772 4 4 4.44772 4 5V19C4 19.5523 4.44772 20 5 20H19C19.5523 20 20 19.5523 20 19V5C20 4.44772 19.5523 4 19 4H5ZM2 5C2 3.34315 3.34315 2 5 2H19C20.6569 2 22 3.34315 22 5V19C22 20.6569 20.6569 22 19 22H5C3.34315 22 2 20.6569 2 19V5Z" fill="#F9C000"/>
<path d="M8 5.5C8 5.22386 7.77614 5 7.5 5C7.22386 5 7 5.22386 7 5.5V9.5C7 9.77614 7.22386 10 7.5 10C7.77614 10 8 9.77614 8 9.5V5.5Z" fill="#F9C000"/>
<path d="M5.5 7C5.22386 7 5 7.22386 5 7.5C5 7.77614 5.22386 8 5.5 8H9.5C9.77614 8 10 7.77614 10 7.5C10 7.22386 9.77614 7 9.5 7H5.5Z" fill="#F9C000"/>
<path d="M14.5 7C14.2239 7 14 7.22386 14 7.5C14 7.77614 14.2239 8 14.5 8H18.5C18.7761 8 19 7.77614 19 7.5C19 7.22386 18.7761 7 18.5 7H14.5Z" fill="#F9C000"/>
<path d="M14.5 15C14.2239 15 14 15.2239 14 15.5C14 15.7761 14.2239 16 14.5 16H18.5C18.7761 16 19 15.7761 19 15.5C19 15.2239 18.7761 15 18.5 15H14.5Z" fill="#F9C000"/>
<path d="M14.5 17C14.2239 17 14 17.2239 14 17.5C14 17.7761 14.2239 18 14.5 18H18.5C18.7761 18 19 17.7761 19 17.5C19 17.2239 18.7761 17 18.5 17H14.5Z" fill="#F9C000"/>
<path fill-rule="evenodd" clip-rule="evenodd" d="M13 11V3H11V11H3V13H11V21H13V13H21V11H13Z" fill="#F9C000"/>
<path fill-rule="evenodd" clip-rule="evenodd" d="M9.42426 14.5757C9.65858 14.8101 9.65858 15.1899 9.42426 15.4243L6.57383 18.2747C6.33951 18.509 5.95961 18.509 5.7253 18.2747C5.49098 18.0404 5.49098 17.6605 5.7253 17.4262L8.57574 14.5757C8.81005 14.3414 9.18995 14.3414 9.42426 14.5757Z" fill="#F9C000"/>
<path fill-rule="evenodd" clip-rule="evenodd" d="M5.56503 14.5867C5.33678 14.8269 5.34649 15.2067 5.58672 15.435L8.58672 18.2854C8.82694 18.5137 9.20672 18.5039 9.43497 18.2637C9.66322 18.0235 9.65351 17.6437 9.41328 17.4155L6.41328 14.565C6.17306 14.3368 5.79328 14.3465 5.56503 14.5867Z" fill="#F9C000"/>
</svg>
