<svg width="24" height="24" viewBox="0 0 24 24" fill="none" xmlns="http://www.w3.org/2000/svg">
<path fill-rule="evenodd" clip-rule="evenodd" d="M8 1C8 0.447715 7.55228 0 7 0C6.44772 0 6 0.447715 6 1V2H5C2.79086 2 1 3.79086 1 6V8V19C1 21.2091 2.79086 23 5 23H19C21.2091 23 23 21.2091 23 19V8V6C23 3.79086 21.2091 2 19 2H18V1C18 0.447715 17.5523 0 17 0C16.4477 0 16 0.447715 16 1V2H8V1ZM21 7V6C21 4.89543 20.1046 4 19 4H17H7H5C3.89543 4 3 4.89543 3 6V7H21ZM3 9H21V19C21 20.1046 20.1046 21 19 21H5C3.89543 21 3 20.1046 3 19V9ZM5.5 13C5.5 12.4477 5.94772 12 6.5 12H7.5C8.05228 12 8.5 12.4477 8.5 13C8.5 13.5523 8.05228 14 7.5 14H6.5C5.94772 14 5.5 13.5523 5.5 13ZM11.5 12C10.9477 12 10.5 12.4477 10.5 13C10.5 13.5523 10.9477 14 11.5 14H12.5C13.0523 14 13.5 13.5523 13.5 13C13.5 12.4477 13.0523 12 12.5 12H11.5ZM15.5 13C15.5 12.4477 15.9477 12 16.5 12H17.5C18.0523 12 18.5 12.4477 18.5 13C18.5 13.5523 18.0523 14 17.5 14H16.5C15.9477 14 15.5 13.5523 15.5 13ZM6.5 16C5.94772 16 5.5 16.4477 5.5 17C5.5 17.5523 5.94772 18 6.5 18H7.5C8.05228 18 8.5 17.5523 8.5 17C8.5 16.4477 8.05228 16 7.5 16H6.5ZM10.5 17C10.5 16.4477 10.9477 16 11.5 16H12.5C13.0523 16 13.5 16.4477 13.5 17C13.5 17.5523 13.0523 18 12.5 18H11.5C10.9477 18 10.5 17.5523 10.5 17ZM16.5 16C15.9477 16 15.5 16.4477 15.5 17C15.5 17.5523 15.9477 18 16.5 18H17.5C18.0523 18 18.5 17.5523 18.5 17C18.5 16.4477 18.0523 16 17.5 16H16.5Z" fill="#F9C000"/>
</svg>
