<svg width="24" height="24" viewBox="0 0 24 24" fill="none" xmlns="http://www.w3.org/2000/svg">
<path fill-rule="evenodd" clip-rule="evenodd" d="M0.978665 17.3882C0.846556 16.1992 1.43347 15.0454 2.47221 14.452L4.95631 13.0329C6.13088 12.3619 7.60921 12.5599 8.56573 13.5165L9.20302 14.1537C9.45474 14.4055 9.69464 14.4062 9.82641 14.3438C10.4453 14.0506 11.3843 13.4862 12.4348 12.4357C13.4852 11.3853 14.0496 10.4463 14.3428 9.82739C14.4052 9.69562 14.4045 9.45571 14.1528 9.20399L13.5155 8.56671C12.559 7.61019 12.3609 6.13185 13.0319 4.95729L14.451 2.47319C15.0444 1.43444 16.1982 0.847534 17.3872 0.979644L20.8552 1.36497C22.2221 1.51686 23.4542 2.6537 23.2883 4.23419C23.0231 6.76171 21.7871 11.5687 16.6781 16.6777C11.5691 21.7866 6.7616 23.0233 4.23375 23.289C2.65308 23.4551 1.51586 22.223 1.36395 20.8557L0.978665 17.3882ZM3.46428 16.1886C3.11803 16.3864 2.9224 16.771 2.96643 17.1673L3.35172 20.6349C3.37794 20.8709 3.48175 21.0531 3.60363 21.1631C3.7179 21.2664 3.85674 21.3176 4.0247 21.2999C6.14905 21.0766 10.5142 20.0131 15.2639 15.2635C20.0136 10.5138 21.0764 6.14928 21.2992 4.02546C21.3169 3.85756 21.2656 3.71879 21.1625 3.60457C21.0524 3.48273 20.8703 3.37896 20.6343 3.35274L17.1663 2.96741C16.77 2.92337 16.3854 3.11901 16.1876 3.46526L14.7685 5.94935C14.5448 6.34088 14.6109 6.83366 14.9297 7.1525L15.567 7.78978C16.2609 8.48375 16.6604 9.6067 16.1502 10.6836C15.765 11.4968 15.0713 12.6276 13.849 13.8499C12.6266 15.0723 11.4958 15.766 10.6826 16.1512C9.60572 16.6614 8.48278 16.2619 7.7888 15.568L7.15152 14.9307C6.83268 14.6118 6.3399 14.5458 5.94838 14.7695L3.46428 16.1886Z" fill="#F9C000"/>
</svg>
