<svg width="24" height="24" viewBox="0 0 24 24" fill="none" xmlns="http://www.w3.org/2000/svg">
<path fill-rule="evenodd" clip-rule="evenodd" d="M8.83205 5.0547C9.27133 4.39578 10.0109 4 10.8028 4H13.1972C13.9891 4 14.7287 4.39578 15.1679 5.0547L15.2011 5.10439C15.9906 6.28866 17.3197 7 18.7431 7C19.9895 7 21 8.01047 21 9.25694V17C21 18.6569 19.6569 20 18 20H6C4.34315 20 3 18.6569 3 17V9.25694C3 8.01047 4.01047 7 5.25694 7C6.68026 7 8.00941 6.28866 8.79893 5.10439L8.83205 5.0547ZM10.8028 2C9.34215 2 7.97816 2.72998 7.16795 3.9453L7.13483 3.99499C6.71624 4.62286 6.01155 5 5.25694 5C2.9059 5 1 6.9059 1 9.25694V17C1 19.7614 3.23858 22 6 22H18C20.7614 22 23 19.7614 23 17V9.25694C23 6.9059 21.0941 5 18.7431 5C17.9884 5 17.2838 4.62286 16.8652 3.99499L16.8321 3.9453C16.0218 2.72998 14.6579 2 13.1972 2H10.8028ZM9 13C9 11.3431 10.3431 10 12 10C13.6569 10 15 11.3431 15 13C15 14.6569 13.6569 16 12 16C10.3431 16 9 14.6569 9 13ZM12 8C9.23858 8 7 10.2386 7 13C7 15.7614 9.23858 18 12 18C14.7614 18 17 15.7614 17 13C17 10.2386 14.7614 8 12 8Z" fill="#F9C000"/>
</svg>
