<svg width="24" height="24" viewBox="0 0 24 24" fill="none" xmlns="http://www.w3.org/2000/svg">
<path fill-rule="evenodd" clip-rule="evenodd" d="M3.60227 10.1251C3.42567 10.2202 3.31574 10.3292 3.27494 10.3904L2.93735 10.8968C2.7035 11.2475 2.46282 11.787 2.28078 12.3892C2.09877 12.9913 2 13.5747 2 13.9979V17.0092C2 17.0209 2.00877 17.0768 2.06174 17.1433C2.08539 17.173 2.11041 17.1948 2.13152 17.2086C2.15107 17.2214 2.162 17.2241 2.162 17.2241C2.18091 17.2282 2.19955 17.2327 2.2182 17.2378L2.23446 17.242C2.25132 17.2462 2.2799 17.2533 2.32055 17.2628C2.40183 17.2817 2.53133 17.3103 2.71163 17.3454C3.07225 17.4156 3.63604 17.5117 4.42369 17.6087C5.99909 17.8027 8.46948 18 12 18C15.5308 18 17.9948 17.8038 19.5637 17.6111C20.3481 17.5147 20.9085 17.4192 21.2666 17.3495C21.4456 17.3147 21.574 17.2863 21.6545 17.2675C21.6947 17.2581 21.723 17.2511 21.7396 17.2469L21.7548 17.243C21.778 17.2366 21.8015 17.231 21.8251 17.2263C21.8347 17.2244 21.8847 17.2069 21.9379 17.1415C21.9915 17.0758 22 17.0207 22 17.0092V13.9979C22 13.5768 21.9012 12.9933 21.719 12.3902C21.5368 11.787 21.296 11.2468 21.0627 10.8968L20.7251 10.3904C20.6815 10.325 20.5711 10.2167 20.3974 10.1234C20.2229 10.0296 20.0757 10 20.0066 10H3.9934C3.92707 10 3.77951 10.0295 3.60227 10.1251ZM22.2486 19.181C23.2487 18.9646 24 18.0154 24 17.0092V13.9979C24 13.3194 23.8514 12.5328 23.6335 11.8118C23.4157 11.0909 23.1038 10.3529 22.7268 9.78736L22.3892 9.28097C22.1208 8.87848 21.7303 8.56903 21.3439 8.36146C20.9583 8.15432 20.4861 8 20.0066 8H3.9934C3.51128 8 3.03742 8.15752 2.65344 8.36446C2.26882 8.57174 1.87772 8.88064 1.61084 9.28097L1.27324 9.78736C0.896182 10.353 0.58421 11.0897 0.366333 11.8105C0.148419 12.5314 0 13.3177 0 13.9979V17.0092C0 17.9981 0.730646 18.9507 1.72009 19.1747L1.74324 19.1807C1.7725 19.1881 1.81341 19.1982 1.86628 19.2105C1.97202 19.2352 2.12563 19.2689 2.32966 19.3086C2.73771 19.388 3.34744 19.4913 4.17928 19.5937C5.84285 19.7985 8.39524 20 12 20C15.6045 20 18.1504 19.7998 19.8076 19.5961C20.6362 19.4943 21.2429 19.3916 21.6486 19.3127C21.8515 19.2732 22.0042 19.2396 22.1094 19.2151C22.162 19.2028 22.2026 19.1927 22.2318 19.1853L22.2486 19.181ZM2.2182 17.2378L2.21622 17.2372L2.2182 17.2378Z" fill="#F9C000"/>
<path fill-rule="evenodd" clip-rule="evenodd" d="M8.5 14C9.5 14 14.5 14 15.5 14C16.5 14 17.5 15 17.5 15.5C17.5 16 17 17 16.5 17C16 17 8 17 7.5 17C7 17 6.5 16 6.5 15.5C6.5 15 7.5 14 8.5 14Z" fill="#F9C000"/>
<path d="M19.1718 15.1997C19.9876 15.0558 20.4935 14.0574 20.3017 12.9696C20.1099 11.8818 19.2931 11.1166 18.4772 11.2605C17.6614 11.4043 17.1555 12.4028 17.3473 13.4906C17.5391 14.5783 18.356 15.3436 19.1718 15.1997Z" fill="#F9C000"/>
<path d="M4.82719 15.1997C5.64303 15.3436 6.45989 14.5783 6.6517 13.4906C6.8435 12.4028 6.33762 11.4043 5.52178 11.2605C4.70594 11.1166 3.88908 11.8818 3.69727 12.9696C3.50547 14.0574 4.01135 15.0558 4.82719 15.1997Z" fill="#F9C000"/>
<path fill-rule="evenodd" clip-rule="evenodd" d="M20 18L24 17V21.0002C24 21.5524 23.5566 22 22.9906 22H21.0094C20.4519 22 20 21.5566 20 20.9906V18Z" fill="#F9C000"/>
<path fill-rule="evenodd" clip-rule="evenodd" d="M0 17L4 19V21.001C4 21.5528 3.55665 22 2.99063 22H1.00937C0.45191 22 0 21.5563 0 21.0002V17Z" fill="#F9C000"/>
<path fill-rule="evenodd" clip-rule="evenodd" d="M5.22728 4.75113L5.20688 4.75642L5.18604 4.76088C5.14577 4.76949 5.0482 4.81195 4.94322 4.9204C4.83846 5.02863 4.79301 5.13396 4.78301 5.18396L4.2198 8H19.7802L19.217 5.18396C19.2071 5.13457 19.1616 5.02898 19.0568 4.91962C18.9507 4.8089 18.857 4.77009 18.8298 4.76405L18.8132 4.76035L18.7973 4.75625L18.7927 4.75507L18.7714 4.74973C18.7515 4.7448 18.7202 4.73717 18.6782 4.72724C18.5942 4.70738 18.4671 4.67829 18.3009 4.64304C17.9684 4.5725 17.4804 4.4774 16.8693 4.382C15.6453 4.19091 13.9365 4 12 4C10.0632 4 8.3602 4.18975 7.14241 4.37958C6.53432 4.47436 6.04936 4.56883 5.71925 4.63889C5.55425 4.6739 5.4281 4.70278 5.34478 4.72249C5.30313 4.73235 5.27219 4.73991 5.25248 4.7448L5.23139 4.75009L5.22728 4.75113ZM19.2811 2.81563C19.773 2.92941 20.194 3.21562 20.5009 3.5359C20.8126 3.86118 21.0792 4.29699 21.1781 4.79172L22.2198 10H1.7802L2.82185 4.79172C2.92097 4.29615 3.18829 3.85779 3.50621 3.52936C3.81953 3.20569 4.24697 2.92193 4.74648 2.80977L4.77095 2.80364C4.79748 2.79706 4.8354 2.7878 4.88423 2.77624C4.98186 2.75314 5.12316 2.72084 5.30408 2.68245C5.66582 2.60569 6.18666 2.5044 6.83437 2.40344C8.12819 2.20176 9.93681 2 12 2C14.0635 2 15.8782 2.20305 17.1778 2.40593C17.8284 2.5075 18.3521 2.60939 18.716 2.68659C18.898 2.7252 19.0401 2.75767 19.1384 2.7809C19.1875 2.79251 19.2257 2.80181 19.2523 2.80842L19.2811 2.81563Z" fill="#F9C000"/>
<path fill-rule="evenodd" clip-rule="evenodd" d="M24 8.5C24 7.5 23.5 7 22.5 7C21.5 7 21 8.5 21 10C22.5 10 24 9.5 24 8.5Z" fill="#F9C000"/>
<path fill-rule="evenodd" clip-rule="evenodd" d="M0 8.5C0 7.5 0.5 7 1.5 7C2.5 7 3 8.5 3 10C1.5 10 0 9.5 0 8.5Z" fill="#F9C000"/>
</svg>
