<svg width="24" height="24" viewBox="0 0 24 24" fill="none" xmlns="http://www.w3.org/2000/svg">
<path fill-rule="evenodd" clip-rule="evenodd" d="M0 2C0 1.44772 0.447715 1 1 1H3.39566C4.80175 1 6.01919 1.9766 6.32422 3.34921L6.80217 5.5H21.1208C22.7251 5.5 23.9142 6.98964 23.5587 8.55405L22.5366 13.0513C21.8122 16.2384 18.9789 18.5 15.7106 18.5H13.0075C9.62445 18.5 6.72554 16.0806 6.12037 12.7522L5.0196 6.69798L4.37184 3.78307C4.27017 3.32553 3.86436 3 3.39566 3H1C0.447715 3 0 2.55228 0 2ZM7.19821 7.5L8.08811 12.3944C8.52037 14.7719 10.591 16.5 13.0075 16.5H15.7106C18.0451 16.5 20.0689 14.8845 20.5863 12.6081L21.6084 8.11081C21.6795 7.79793 21.4417 7.5 21.1208 7.5H7.19821ZM6.5 21C6.5 19.8954 7.39543 19 8.5 19C9.60457 19 10.5 19.8954 10.5 21C10.5 22.1046 9.60457 23 8.5 23C7.39543 23 6.5 22.1046 6.5 21ZM20.5 19C19.3954 19 18.5 19.8954 18.5 21C18.5 22.1046 19.3954 23 20.5 23C21.6046 23 22.5 22.1046 22.5 21C22.5 19.8954 21.6046 19 20.5 19Z" fill="#F9C000"/>
</svg>
