<svg width="25" height="24" viewBox="0 0 25 24" fill="none" xmlns="http://www.w3.org/2000/svg">
<path fill-rule="evenodd" clip-rule="evenodd" d="M4.29247 2C2.08334 2 0.292475 3.79086 0.292475 6L0.292475 7C0.292475 7.55228 0.74019 8 1.29247 8C1.84476 8 2.29247 7.55228 2.29247 7L2.29247 6C2.29247 4.89543 3.18791 4 4.29247 4L20.2925 4C21.397 4 22.2925 4.89543 22.2925 6V18C22.2925 19.1046 21.397 20 20.2925 20H15.2925C14.7402 20 14.2925 20.4477 14.2925 21C14.2925 21.5523 14.7402 22 15.2925 22H20.2925C22.5016 22 24.2925 20.2091 24.2925 18V6C24.2925 3.79086 22.5016 2 20.2925 2L4.29247 2ZM4.16625 13.2658C5.13685 13.6678 6.01877 14.2571 6.76164 15C7.50451 15.7428 8.09378 16.6247 8.49582 17.5953C8.89786 18.5659 9.10478 19.6062 9.10478 20.6568C9.10478 21.2091 9.5525 21.6568 10.1048 21.6568C10.6571 21.6568 11.1048 21.2091 11.1048 20.6568C11.1048 19.3436 10.8461 18.0432 10.3436 16.83C9.84103 15.6167 9.10444 14.5143 8.17585 13.5857C7.24726 12.6572 6.14487 11.9206 4.93162 11.418C3.71836 10.9155 2.418 10.6568 1.10478 10.6568C0.552497 10.6568 0.104782 11.1045 0.104782 11.6568C0.104782 12.2091 0.552498 12.6568 1.10478 12.6568C2.15536 12.6568 3.19565 12.8637 4.16625 13.2658ZM3.38207 18.116C3.0831 17.817 2.72816 17.5798 2.33753 17.418C1.9469 17.2562 1.52823 17.173 1.10541 17.173C0.553129 17.173 0.105413 16.7252 0.105413 16.173C0.105413 15.6207 0.553128 15.173 1.10541 15.173C1.79087 15.173 2.46962 15.308 3.1029 15.5703C3.73618 15.8326 4.31159 16.2171 4.79629 16.7018C5.28098 17.1865 5.66546 17.7619 5.92777 18.3952C6.19009 19.0284 6.3251 19.7072 6.3251 20.3926C6.3251 20.9449 5.87738 21.3926 5.3251 21.3926C4.77281 21.3926 4.3251 20.9449 4.3251 20.3926C4.3251 19.9698 4.24182 19.5512 4.08001 19.1605C3.91821 18.7699 3.68105 18.415 3.38207 18.116ZM1.82796 21.1756C1.43744 21.5662 0.804271 21.5662 0.413747 21.1756C0.0232228 20.7851 0.0232228 20.1519 0.413747 19.7614C0.804271 19.3709 1.43744 19.3709 1.82796 19.7614C2.21848 20.1519 2.21848 20.7851 1.82796 21.1756Z" fill="#F9C000"/>
</svg>
