<svg width="24" height="24" viewBox="0 0 24 24" fill="none" xmlns="http://www.w3.org/2000/svg">
<path fill-rule="evenodd" clip-rule="evenodd" d="M14.1055 1.02612C12.6395 0.804558 11.566 2.02914 11.566 3.30884V10.0326C11.566 11.3589 12.6411 12.434 13.9674 12.434L20.6912 12.434C21.9709 12.434 23.1954 11.3605 22.9739 9.89449C22.8463 9.05019 22.6165 8.22253 22.2882 7.43004C21.7572 6.14811 20.979 4.98333 19.9978 4.00218C19.0167 3.02104 17.8519 2.24275 16.57 1.71176C15.7775 1.3835 14.9498 1.15373 14.1055 1.02612ZM13.4871 3.30884C13.4871 3.17134 13.5433 3.06012 13.6124 2.99422C13.6748 2.93468 13.7412 2.91397 13.8184 2.92564C14.5092 3.03004 15.1864 3.21804 15.8348 3.48662C16.8836 3.92107 17.8367 4.55784 18.6394 5.3606C19.4422 6.16335 20.0789 7.11636 20.5134 8.16521C20.782 8.81361 20.97 9.49078 21.0744 10.1816C21.086 10.2588 21.0653 10.3252 21.0058 10.3876C20.9399 10.4567 20.8287 10.5129 20.6912 10.5129L13.9674 10.5129C13.7021 10.5129 13.4871 10.2979 13.4871 10.0326V3.30884ZM7.93987 4.58636C8.42144 4.36385 8.63145 3.79307 8.40893 3.3115C8.18641 2.82993 7.61564 2.61992 7.13407 2.84244C5.56947 3.56539 4.20548 4.6601 3.16103 6.03114C2.11658 7.40218 1.42338 9.0079 1.14188 10.7083C0.86038 12.4087 0.999123 14.1522 1.54601 15.7866C2.0929 17.4211 3.03133 18.897 4.27948 20.0856C5.52762 21.2742 7.04758 22.1394 8.70683 22.6058C10.3661 23.0722 12.1142 23.1256 13.7988 22.7614C15.4835 22.3971 17.0534 21.6263 18.3718 20.5162C19.6902 19.406 20.717 17.9901 21.3626 16.3921C21.5613 15.9002 21.3237 15.3404 20.8318 15.1417C20.34 14.9429 19.7801 15.1806 19.5814 15.6724C19.0531 16.9799 18.213 18.1384 17.1344 19.0467C16.0557 19.955 14.7712 20.5857 13.3929 20.8837C12.0145 21.1817 10.5842 21.138 9.22668 20.7564C7.86911 20.3748 6.62551 19.6669 5.6043 18.6944C4.58309 17.7219 3.81528 16.5144 3.36783 15.1771C2.92037 13.8398 2.80685 12.4133 3.03717 11.0221C3.26749 9.63083 3.83465 8.31706 4.6892 7.1953C5.54375 6.07354 6.65975 5.17786 7.93987 4.58636Z" fill="#F9C000"/>
</svg>
