<svg width="24" height="24" viewBox="0 0 24 24" fill="none" xmlns="http://www.w3.org/2000/svg">
<path fill-rule="evenodd" clip-rule="evenodd" d="M22 2C22 1.44772 21.5523 1 21 1C20.4477 1 20 1.44772 20 2V22C20 22.5523 20.4477 23 21 23C21.5523 23 22 22.5523 22 22V2ZM15 7C15.5523 7 16 7.44772 16 8V22C16 22.5523 15.5523 23 15 23C14.4477 23 14 22.5523 14 22V8C14 7.44772 14.4477 7 15 7ZM10 12C10 11.4477 9.55228 11 9 11C8.44772 11 8 11.4477 8 12V22C8 22.5523 8.44772 23 9 23C9.55228 23 10 22.5523 10 22V12ZM4 14C4 13.4477 3.55228 13 3 13C2.44772 13 2 13.4477 2 14V22C2 22.5523 2.44772 23 3 23C3.55228 23 4 22.5523 4 22V14Z" fill="#F9C000"/>
</svg>
