<svg width="24" height="24" viewBox="0 0 24 24" fill="none" xmlns="http://www.w3.org/2000/svg">
<path fill-rule="evenodd" clip-rule="evenodd" d="M1 6.00247C1 4.3519 2.33273 3 3.9934 3H20.0066C21.6676 3 23 4.3589 23 6.00247V15.9975C23 17.6516 21.6624 19 20.0025 19H12.8284L9.70711 22.1213C9.31658 22.5118 8.68342 22.5118 8.29289 22.1213L5.17157 19H3.99896C2.33963 19 1 17.6458 1 15.9975V6.00247ZM3.9934 5C3.44843 5 3 5.4453 3 6.00247V15.9975C3 16.5484 3.45132 17 3.99896 17H5.58579C5.851 17 6.10536 17.1054 6.29289 17.2929L9 20L11.7071 17.2929C11.8946 17.1054 12.149 17 12.4142 17H20.0025C20.5516 17 21 16.5532 21 15.9975V6.00247C21 5.44942 20.549 5 20.0066 5H3.9934Z" fill="#F9C000"/>
<path d="M17 8H7C6.44772 8 6 8.44772 6 9C6 9.55228 6.44772 10 7 10H17C17.5523 10 18 9.55228 18 9C18 8.44772 17.5523 8 17 8Z" fill="#F9C000"/>
<path d="M17 12H7C6.44772 12 6 12.4477 6 13C6 13.5523 6.44772 14 7 14H17C17.5523 14 18 13.5523 18 13C18 12.4477 17.5523 12 17 12Z" fill="#F9C000"/>
</svg>
