<svg width="24" height="24" viewBox="0 0 24 24" fill="none" xmlns="http://www.w3.org/2000/svg">
<path d="M15.2929 22.7071C15.6834 23.0976 16.3166 23.0976 16.7071 22.7071L19.4142 20H20C21.5523 20 23 18.5523 23 17V11C23 9.44772 21.5523 8 20 8V10C20.4477 10 21 10.5523 21 11V17C21 17.4477 20.4477 18 20 18H19C18.7348 18 18.4804 18.1054 18.2929 18.2929L16 20.5858L13.7071 18.2929C13.5196 18.1054 13.2652 18 13 18H8C7.55228 18 7 17.4477 7 17L5 15.5V17C5 18.5523 6.44772 20 8 20H11.9259C12.4493 20 12.6511 20 12.7804 20L15.2929 22.7071Z" fill="#F9C000"/>
<path fill-rule="evenodd" clip-rule="evenodd" d="M1 3.99703C1 2.33358 2.35361 1 4.00685 1H15.9932C17.6456 1 19 2.3403 19 3.99703V10.003C19 11.653 17.6588 13 16.0092 13H11.8284L8.70711 16.1213C8.31658 16.5118 7.68342 16.5118 7.29289 16.1213L4.17157 13H4C2.34557 13 1 11.654 1 10.003V3.99703ZM4.00685 3C3.4464 3 3 3.4499 3 3.99703V10.003C3 10.5484 3.44915 11 4 11H4.58579C4.851 11 5.10536 11.1054 5.29289 11.2929L8 14L10.7071 11.2929C10.8946 11.1054 11.149 11 11.4142 11H16.0092C16.5495 11 17 10.5532 17 10.003V3.99703C17 3.45428 16.5505 3 15.9932 3H4.00685Z" fill="#F9C000"/>
</svg>
