<svg width="24" height="24" viewBox="0 0 24 24" fill="none" xmlns="http://www.w3.org/2000/svg">
<path fill-rule="evenodd" clip-rule="evenodd" d="M5 4C4.44772 4 4 4.44772 4 5V19C4 19.5523 4.44771 20 5 20H19C19.5523 20 20 19.5523 20 19V5C20 4.44771 19.5523 4 19 4H5ZM2 5C2 3.34315 3.34315 2 5 2H19C20.6569 2 22 3.34315 22 5V19C22 20.6569 20.6569 22 19 22H5C3.34315 22 2 20.6569 2 19V5ZM16.5825 7.16058C17.0375 7.47366 17.1525 8.09628 16.8394 8.55126L11.3238 16.5669C11.1464 16.8247 10.8586 16.9845 10.546 16.9989C10.2334 17.0133 9.93211 16.8806 9.73178 16.6402L7.23178 13.6402C6.87821 13.2159 6.93554 12.5853 7.35982 12.2318C7.78409 11.8782 8.41466 11.9355 8.76822 12.3598L10.4239 14.3466L15.1918 7.41752C15.5049 6.96254 16.1275 6.84751 16.5825 7.16058Z" fill="#F9C000"/>
</svg>
