<svg width="24" height="24" viewBox="0 0 24 24" fill="none" xmlns="http://www.w3.org/2000/svg">
<path fill-rule="evenodd" clip-rule="evenodd" d="M15 0C15.5523 0 16 0.447715 16 1V3H17C19.2091 3 21 4.79086 21 7V8H23C23.5523 8 24 8.44771 24 9C24 9.55229 23.5523 10 23 10H21V14H23C23.5523 14 24 14.4477 24 15C24 15.5523 23.5523 16 23 16H21V17C21 19.2091 19.2091 21 17 21H16V23C16 23.5523 15.5523 24 15 24C14.4477 24 14 23.5523 14 23V21H10V23C10 23.5523 9.55229 24 9 24C8.44771 24 8 23.5523 8 23V21H7C4.79086 21 3 19.2091 3 17V16H1C0.447715 16 0 15.5523 0 15C0 14.4477 0.447715 14 1 14H3V10H1C0.447715 10 0 9.55229 0 9C0 8.44771 0.447715 8 1 8H3V7C3 4.79086 4.79086 3 7 3H8V1C8 0.447715 8.44771 0 9 0C9.55229 0 10 0.447715 10 1V3H14V1C14 0.447715 14.4477 0 15 0ZM9 19H15H17C18.1046 19 19 18.1046 19 17V15V9V7C19 5.89543 18.1046 5 17 5H15H9H7C5.89543 5 5 5.89543 5 7V9V15V17C5 18.1046 5.89543 19 7 19H9ZM9.5 8C8.67157 8 8 8.67157 8 9.5V14.5C8 15.3284 8.67157 16 9.5 16H14.5C15.3284 16 16 15.3284 16 14.5V9.5C16 8.67157 15.3284 8 14.5 8H9.5ZM10 14V10H14V14H10Z" fill="#F9C000"/>
</svg>
