<svg width="24" height="24" viewBox="0 0 24 24" fill="none" xmlns="http://www.w3.org/2000/svg">
<path fill-rule="evenodd" clip-rule="evenodd" d="M2.99902 12C2.99902 7.02944 7.02846 3 11.999 3C16.9696 3 20.999 7.02944 20.999 12C20.999 16.9706 16.9696 21 11.999 21C7.02846 21 2.99902 16.9706 2.99902 12ZM11.999 1C5.92389 1 0.999023 5.92487 0.999023 12C0.999023 18.0751 5.92389 23 11.999 23C18.0742 23 22.999 18.0751 22.999 12C22.999 5.92487 18.0742 1 11.999 1ZM16.2061 10.2071C16.5967 9.81658 16.5967 9.18342 16.2061 8.79289C15.8156 8.40237 15.1824 8.40237 14.7919 8.79289L10.499 13.0858L9.20613 11.7929C8.81561 11.4024 8.18244 11.4024 7.79192 11.7929C7.40139 12.1834 7.40139 12.8166 7.79192 13.2071L9.79192 15.2071C10.1824 15.5976 10.8156 15.5976 11.2061 15.2071L16.2061 10.2071Z" fill="#F9C000"/>
</svg>
