<svg width="24" height="24" viewBox="0 0 24 24" fill="none" xmlns="http://www.w3.org/2000/svg">
<path fill-rule="evenodd" clip-rule="evenodd" d="M2.99902 12C2.99902 7.02944 7.02846 3 11.999 3C16.9696 3 20.999 7.02944 20.999 12C20.999 16.9706 16.9696 21 11.999 21C7.02846 21 2.99902 16.9706 2.99902 12ZM11.999 1C5.92389 1 0.999023 5.92487 0.999023 12C0.999023 18.0751 5.92389 23 11.999 23C18.0742 23 22.999 18.0751 22.999 12C22.999 5.92487 18.0742 1 11.999 1ZM9.87423 8.46121L11.9988 10.5858L14.1234 8.46121C14.5121 8.07248 15.1411 8.07122 15.5343 8.46447C15.9249 8.85499 15.9192 9.49378 15.5376 9.87543L13.413 12L15.5376 14.1246C15.9263 14.5133 15.9276 15.1423 15.5343 15.5355C15.1438 15.9261 14.505 15.9204 14.1234 15.5388L11.9988 13.4142L9.87423 15.5388C9.4855 15.9275 8.85651 15.9288 8.46327 15.5355C8.07274 15.145 8.07836 14.5062 8.46001 14.1246L10.5846 12L8.46001 9.87543C8.07129 9.4867 8.07002 8.85771 8.46327 8.46447C8.85379 8.07394 9.49258 8.07956 9.87423 8.46121Z" fill="#F9C000"/>
</svg>
