<svg width="24" height="24" viewBox="0 0 24 24" fill="none" xmlns="http://www.w3.org/2000/svg">
<path fill-rule="evenodd" clip-rule="evenodd" d="M5 3H11.9988L12 3.0011L12 21H5.00119L5 20.9989L5 3ZM3 2.9918C3 1.88652 3.89928 1 4.99754 1H12.0025C13.1076 1 14 1.90495 14 2.9918V22C14 22.5523 13.5523 23 13 23H4.99754C3.89241 23 3 22.0951 3 21.0082V2.9918Z" fill="#F9C000"/>
<path fill-rule="evenodd" clip-rule="evenodd" d="M19 7.72318L14.3685 10.3697C14.32 10.3975 14.216 10.4881 14.1216 10.65C14.0273 10.8119 14 10.9462 14 11.0025V21H18.9971L19 20.9999L19 7.72318ZM20.2417 5.57023C20.8201 5.90172 21 6.51166 21 7.00087V20.9991C21 22.0988 20.1197 23 18.9971 23H13C12.4477 23 12 22.5523 12 22V11.0025C12 10.5051 12.1709 10.0249 12.3938 9.6427C12.6166 9.26053 12.9488 8.87749 13.3763 8.63324L18.6315 5.63027C19.0521 5.38988 19.6668 5.24076 20.2417 5.57023Z" fill="#F9C000"/>
<path fill-rule="evenodd" clip-rule="evenodd" d="M6 4.49048C6 4.21959 6.23193 4 6.5 4C6.77614 4 7 4.21506 7 4.49048V7.50952C7 7.78041 6.76807 8 6.5 8C6.22386 8 6 7.78494 6 7.50952V4.49048ZM6 9.49048C6 9.21959 6.23193 9 6.5 9C6.77614 9 7 9.21506 7 9.49048V12.5095C7 12.7804 6.76807 13 6.5 13C6.22386 13 6 12.7849 6 12.5095V9.49048ZM6 14.4905C6 14.2196 6.23193 14 6.5 14C6.77614 14 7 14.2151 7 14.4905V17.5095C7 17.7804 6.76807 18 6.5 18C6.22386 18 6 17.7849 6 17.5095V14.4905ZM8 4.49048C8 4.21959 8.23193 4 8.5 4C8.77614 4 9 4.21506 9 4.49048V7.50952C9 7.78041 8.76807 8 8.5 8C8.22386 8 8 7.78494 8 7.50952V4.49048ZM8 9.49048C8 9.21959 8.23193 9 8.5 9C8.77614 9 9 9.21506 9 9.49048V12.5095C9 12.7804 8.76807 13 8.5 13C8.22386 13 8 12.7849 8 12.5095V9.49048ZM8 14.4905C8 14.2196 8.23193 14 8.5 14C8.77614 14 9 14.2151 9 14.4905V17.5095C9 17.7804 8.76807 18 8.5 18C8.22386 18 8 17.7849 8 17.5095V14.4905ZM10 4.49048C10 4.21959 10.2319 4 10.5 4C10.7761 4 11 4.21506 11 4.49048V7.50952C11 7.78041 10.7681 8 10.5 8C10.2239 8 10 7.78494 10 7.50952V4.49048ZM10 9.49048C10 9.21959 10.2319 9 10.5 9C10.7761 9 11 9.21506 11 9.49048V12.5095C11 12.7804 10.7681 13 10.5 13C10.2239 13 10 12.7849 10 12.5095V9.49048ZM10 14.4905C10 14.2196 10.2319 14 10.5 14C10.7761 14 11 14.2151 11 14.4905V17.5095C11 17.7804 10.7681 18 10.5 18C10.2239 18 10 17.7849 10 17.5095V14.4905ZM7 19.999C7 19.4472 7.44266 19 7.99896 19H9.00104C9.55275 19 10 19.4427 10 19.999V22H7V19.999Z" fill="#F9C000"/>
<path fill-rule="evenodd" clip-rule="evenodd" d="M15 16.5047C15 16.226 15.2319 16 15.5 16C15.7761 16 16 16.214 16 16.5047V17.4953C16 17.774 15.7681 18 15.5 18C15.2239 18 15 17.786 15 17.4953V16.5047ZM17 16.5047C17 16.226 17.2319 16 17.5 16C17.7761 16 18 16.214 18 16.5047V17.4953C18 17.774 17.7681 18 17.5 18C17.2239 18 17 17.786 17 17.4953V16.5047ZM15 13.5047C15 13.226 15.2319 13 15.5 13C15.7761 13 16 13.214 16 13.5047V14.4953C16 14.774 15.7681 15 15.5 15C15.2239 15 15 14.786 15 14.4953V13.5047ZM15 11.5C15 11.2239 15.2319 11 15.5 11C15.7761 11 16 11.2319 16 11.5C16 11.7761 15.7681 12 15.5 12C15.2239 12 15 11.7681 15 11.5ZM17 13.5047C17 13.226 17.2319 13 17.5 13C17.7761 13 18 13.214 18 13.5047V14.4953C18 14.774 17.7681 15 17.5 15C17.2239 15 17 14.786 17 14.4953V13.5047ZM17 10.5047C17 10.226 17.2319 10 17.5 10C17.7761 10 18 10.214 18 10.5047V11.4953C18 11.774 17.7681 12 17.5 12C17.2239 12 17 11.786 17 11.4953V10.5047ZM15 19.999C15 19.4472 15.4427 19 15.999 19H17.001C17.5528 19 18 19.4427 18 19.999V22H15V19.999Z" fill="#F9C000"/>
</svg>
