<svg width="24" height="24" viewBox="0 0 24 24" fill="none" xmlns="http://www.w3.org/2000/svg">
<path fill-rule="evenodd" clip-rule="evenodd" d="M11.5 5C9.01472 5 7 7.01472 7 9.5C7 9.67668 7.01013 9.85058 7.02977 10.0212C7.06761 10.3501 6.94027 10.6763 6.68967 10.8926C6.43907 11.1089 6.09769 11.1871 5.77792 11.1016C5.53092 11.0355 5.27038 11 5 11C3.34315 11 2 12.3431 2 14C2 15.6569 3.34315 17 5 17H8C8.55228 17 9 17.4477 9 18C9 18.5523 8.55228 19 8 19H5C2.23858 19 0 16.7614 0 14C0 11.2386 2.23858 9 5 9C5.00632 9 5.01263 9.00001 5.01894 9.00004C5.27424 5.6438 8.07837 3 11.5 3C14.2125 3 16.535 4.66072 17.5097 7.0198C17.6716 7.00668 17.8351 7 18 7C21.3137 7 24 9.68629 24 13C24 16.3137 21.3137 19 18 19H16C15.4477 19 15 18.5523 15 18C15 17.4477 15.4477 17 16 17H18C20.2091 17 22 15.2091 22 13C22 10.7909 20.2091 9 18 9C17.6762 9 17.3626 9.03827 17.0631 9.11009C16.5314 9.23756 15.9959 8.9144 15.8609 8.38459C15.3649 6.43828 13.5992 5 11.5 5ZM11.2929 10.2929C11.6834 9.90237 12.3166 9.90237 12.7071 10.2929L15.7071 13.2929C16.0976 13.6834 16.0976 14.3166 15.7071 14.7071C15.3166 15.0976 14.6834 15.0976 14.2929 14.7071L13 13.4142V21C13 21.5523 12.5523 22 12 22C11.4477 22 11 21.5523 11 21V13.4142L9.70711 14.7071C9.31658 15.0976 8.68342 15.0976 8.29289 14.7071C7.90237 14.3166 7.90237 13.6834 8.29289 13.2929L11.2929 10.2929Z" fill="#F9C000"/>
</svg>
