<svg width="24" height="24" viewBox="0 0 24 24" fill="none" xmlns="http://www.w3.org/2000/svg">
<path fill-rule="evenodd" clip-rule="evenodd" d="M11.5 4C9.01472 4 7 6.01472 7 8.5C7 8.67668 7.01013 8.85058 7.02977 9.02124C7.06761 9.35009 6.94027 9.67635 6.68967 9.89261C6.43907 10.1089 6.09769 10.1871 5.77792 10.1016C5.53092 10.0355 5.27038 10 5 10C3.34315 10 2 11.3431 2 13C2 14.6569 3.34315 16 5 16H8C8.55228 16 9 16.4477 9 17C9 17.5523 8.55228 18 8 18H5C2.23858 18 0 15.7614 0 13C0 10.2386 2.23858 8 5 8C5.00632 8 5.01263 8.00001 5.01894 8.00004C5.27424 4.6438 8.07837 2 11.5 2C14.2125 2 16.535 3.66072 17.5097 6.0198C17.6716 6.00668 17.8351 6 18 6C21.3137 6 24 8.68629 24 12C24 15.3137 21.3137 18 18 18H16C15.4477 18 15 17.5523 15 17C15 16.4477 15.4477 16 16 16H18C20.2091 16 22 14.2091 22 12C22 9.79086 20.2091 8 18 8C17.6762 8 17.3626 8.03827 17.0631 8.11009C16.5314 8.23756 15.9959 7.9144 15.8609 7.38459C15.3649 5.43828 13.5992 4 11.5 4Z" fill="#F9C000"/>
<path fill-rule="evenodd" clip-rule="evenodd" d="M12 12C12.5523 12 13 12.4477 13 13V21C13 21.5523 12.5523 22 12 22C11.4477 22 11 21.5523 11 21V13C11 12.4477 11.4477 12 12 12Z" fill="#F9C000"/>
<path fill-rule="evenodd" clip-rule="evenodd" d="M8.29289 19.2929C8.68342 18.9024 9.31658 18.9024 9.70711 19.2929L12 21.5858L14.2929 19.2929C14.6834 18.9024 15.3166 18.9024 15.7071 19.2929C16.0976 19.6834 16.0976 20.3166 15.7071 20.7071L12.7071 23.7071C12.3166 24.0976 11.6834 24.0976 11.2929 23.7071L8.29289 20.7071C7.90237 20.3166 7.90237 19.6834 8.29289 19.2929Z" fill="#F9C000"/>
</svg>
