<svg width="24" height="24" viewBox="0 0 24 24" fill="none" xmlns="http://www.w3.org/2000/svg">
<path fill-rule="evenodd" clip-rule="evenodd" d="M11.5 6C9.01472 6 7 8.01472 7 10.5C7 10.6767 7.01013 10.8506 7.02977 11.0212C7.06761 11.3501 6.94027 11.6763 6.68967 11.8926C6.43907 12.1089 6.09769 12.1871 5.77792 12.1016C5.53092 12.0355 5.27038 12 5 12C3.34315 12 2 13.3431 2 15C2 16.6569 3.34315 18 5 18H18C20.2091 18 22 16.2091 22 14C22 11.7909 20.2091 10 18 10C17.6762 10 17.3626 10.0383 17.0631 10.1101C16.5314 10.2376 15.9959 9.9144 15.8609 9.38459C15.3649 7.43828 13.5992 6 11.5 6ZM5.01894 10C5.27424 6.6438 8.07837 4 11.5 4C14.2125 4 16.535 5.66072 17.5097 8.0198C17.6716 8.00668 17.8351 8 18 8C21.3137 8 24 10.6863 24 14C24 17.3137 21.3137 20 18 20H5C2.23858 20 0 17.7614 0 15C0 12.2386 2.23858 10 5 10C5.00632 10 5.01263 10 5.01894 10Z" fill="#F9C000"/>
</svg>
