<svg width="24" height="24" viewBox="0 0 24 24" fill="none" xmlns="http://www.w3.org/2000/svg">
<path fill-rule="evenodd" clip-rule="evenodd" d="M12 3C7.02944 3 3 7.02944 3 12C3 16.9706 7.02944 21 12 21C16.9706 21 21 16.9706 21 12C21 7.02944 16.9706 3 12 3ZM1 12C1 5.92487 5.92487 1 12 1C18.0751 1 23 5.92487 23 12C23 18.0751 18.0751 23 12 23C5.92487 23 1 18.0751 1 12ZM12 5C8.13401 5 5 8.13401 5 12C5 15.866 8.13401 19 12 19C15.866 19 19 15.866 19 12C19 8.13401 15.866 5 12 5ZM4 12C4 7.58172 7.58172 4 12 4C16.4183 4 20 7.58172 20 12C20 16.4183 16.4183 20 12 20C7.58172 20 4 16.4183 4 12ZM10.0438 15C9.71084 15 9.48584 14.775 9.48584 14.496C9.48584 14.271 9.62084 14.064 9.86384 13.983L10.2238 13.866V12.597H10.0618C9.74684 12.597 9.48584 12.345 9.48584 12.03C9.48584 11.715 9.74684 11.454 10.0618 11.454H10.2238V10.725C10.2238 10.077 10.4128 9.53699 10.7638 9.18599C11.1328 8.81699 11.6638 8.60999 12.3568 8.60999C13.1578 8.60999 13.6888 8.88899 14.0848 9.29399C14.2108 9.41998 14.3008 9.56399 14.3008 9.78899C14.3008 10.167 13.9948 10.464 13.6168 10.464C13.3738 10.464 13.2118 10.347 13.1218 10.257C12.8878 10.014 12.6718 9.89699 12.3748 9.89699C12.1588 9.89699 11.9968 9.95999 11.8618 10.095C11.7178 10.239 11.6278 10.473 11.6278 10.761V11.454H13.1578C13.4728 11.454 13.7338 11.715 13.7338 12.03C13.7338 12.345 13.4728 12.597 13.1578 12.597H11.6278V13.803H13.8148C14.1478 13.803 14.4178 14.073 14.4178 14.406C14.4178 14.739 14.1478 15 13.8148 15H10.0438Z" fill="#F9C000"/>
</svg>
