<svg width="24" height="24" viewBox="0 0 24 24" fill="none" xmlns="http://www.w3.org/2000/svg">
<path fill-rule="evenodd" clip-rule="evenodd" d="M7.00098 3C4.23955 3 2.00098 5.23858 2.00098 8V11C2.00098 11.2011 2.0128 11.3991 2.0357 11.5932L2.06011 11.8001L1.99985 11.9996L2 20.8258L6.78747 16.7222C7.3312 16.2562 8.02371 16 8.73985 16H17.001C19.7624 16 22.001 13.7614 22.001 11V8C22.001 5.23858 19.7624 3 17.001 3H7.00098ZM0.000976562 8C0.000976562 4.13401 3.13498 1 7.00098 1H17.001C20.867 1 24.001 4.13401 24.001 8V11C24.001 14.866 20.867 18 17.001 18H8.73985C8.50114 18 8.2703 18.0854 8.08906 18.2407L3.30158 22.3443C2.00424 23.4563 0 22.5345 0 20.8258V12C0 11.881 0.0105035 11.7638 0.030777 11.6495C0.0110422 11.4354 0.000976562 11.2188 0.000976562 11V8Z" fill="#F9C000"/>
</svg>
