<svg width="24" height="24" viewBox="0 0 24 24" fill="none" xmlns="http://www.w3.org/2000/svg">
<path fill-rule="evenodd" clip-rule="evenodd" d="M8 7C8 8.10457 7.10457 9 6 9C4.89543 9 4 8.10457 4 7C4 5.89543 4.89543 5 6 5C7.10457 5 8 5.89543 8 7ZM9.87594 7.99238C9.43455 9.72147 7.86658 11 6 11C3.79086 11 2 9.20914 2 7C2 4.79086 3.79086 3 6 3C7.86658 3 9.43455 4.27853 9.87594 6.00762C9.91658 6.00259 9.95799 6 10 6H20C20.5523 6 21 6.44772 21 7C21 7.55228 20.5523 8 20 8H10C9.95799 8 9.91658 7.99741 9.87594 7.99238ZM3 16C2.44772 16 2 16.4477 2 17C2 17.5523 2.44772 18 3 18H13C13.042 18 13.0834 17.9974 13.1241 17.9924C13.5655 19.7215 15.1334 21 17 21C19.2091 21 21 19.2091 21 17C21 14.7909 19.2091 13 17 13C15.1334 13 13.5655 14.2785 13.1241 16.0076C13.0834 16.0026 13.042 16 13 16H3ZM17 19C18.1046 19 19 18.1046 19 17C19 15.8954 18.1046 15 17 15C15.8954 15 15 15.8954 15 17C15 18.1046 15.8954 19 17 19Z" fill="#F9C000"/>
</svg>
