<svg width="24" height="24" viewBox="0 0 24 24" fill="none" xmlns="http://www.w3.org/2000/svg">
<path fill-rule="evenodd" clip-rule="evenodd" d="M0 16C0 12.6863 2.68629 10 6 10H18C21.3137 10 24 12.6863 24 16C24 19.3137 21.3137 22 18 22C16.2224 22 14.6253 21.2261 13.5278 20H10.4722C9.37469 21.2261 7.7776 22 6 22C2.68629 22 0 19.3137 0 16ZM6 12C3.79086 12 2 13.7909 2 16C2 18.2091 3.79086 20 6 20C7.30801 20 8.46934 19.3732 9.2008 18.3994L9.50082 18H14.4992L14.7992 18.3994C15.5307 19.3732 16.692 20 18 20C20.2091 20 22 18.2091 22 16C22 13.7909 20.2091 12 18 12H6Z" fill="#F9C000"/>
<path fill-rule="evenodd" clip-rule="evenodd" d="M18 15C17.4477 15 17 14.5523 17 14C17 13.4477 17.4477 13 18 13C18.5523 13 19 13.4477 19 14C19 14.5523 18.5523 15 18 15ZM20 17C19.4477 17 19 16.5523 19 16C19 15.4477 19.4477 15 20 15C20.5523 15 21 15.4477 21 16C21 16.5523 20.5523 17 20 17ZM16 17C15.4477 17 15 16.5523 15 16C15 15.4477 15.4477 15 16 15C16.5523 15 17 15.4477 17 16C17 16.5523 16.5523 17 16 17ZM18 19C17.4477 19 17 18.5523 17 18C17 17.4477 17.4477 17 18 17C18.5523 17 19 17.4477 19 18C19 18.5523 18.5523 19 18 19Z" fill="#F9C000"/>
<path fill-rule="evenodd" clip-rule="evenodd" d="M7 15V13.9908C7 13.451 6.55228 13 6 13C5.44386 13 5 13.4436 5 13.9908V15H3.99078C3.45098 15 3 15.4477 3 16C3 16.5561 3.44359 17 3.99078 17H5V18.0092C5 18.549 5.44772 19 6 19C6.55614 19 7 18.5564 7 18.0092V17H8.00922C8.54902 17 9 16.5523 9 16C9 15.4439 8.55641 15 8.00922 15H7Z" fill="#F9C000"/>
<path fill-rule="evenodd" clip-rule="evenodd" d="M18 2C18.5523 2 19 2.44772 19 3C19 4.66182 17.6488 6 15.9915 6H7.49555C7.23031 6 7 6.22539 7 6.5C7 6.7803 7.2216 7 7.49858 7H10.0021C11.6543 7 13 8.34386 13 10.001V11C13 11.5523 12.5523 12 12 12C11.4477 12 11 11.5523 11 11V10.001C11 9.44793 10.5492 9 10.0021 9H7.49858C6.12027 9 5 7.8881 5 6.5C5 5.11776 6.1288 4 7.49555 4H15.9915C16.5527 4 17 3.54877 17 3C17 2.44772 17.4477 2 18 2Z" fill="#F9C000"/>
</svg>
