<svg width="24" height="24" viewBox="0 0 24 24" fill="none" xmlns="http://www.w3.org/2000/svg">
<path fill-rule="evenodd" clip-rule="evenodd" d="M5 0C2.79086 0 1 1.79086 1 4V12C1 14.2091 2.79086 16 5 16H5.42857C5.98086 16 6.42857 15.5523 6.42857 15C6.42857 14.4477 5.98086 14 5.42857 14H5C3.89543 14 3 13.1046 3 12V4C3 2.89543 3.89543 2 5 2H11C12.1046 2 13 2.89543 13 4V4.5C13 5.05228 13.4477 5.5 14 5.5C14.5523 5.5 15 5.05228 15 4.5V4C15 1.79086 13.2091 0 11 0H5ZM13 8C10.7909 8 9 9.79086 9 12V20C9 22.2091 10.7909 24 13 24H19C21.2091 24 23 22.2091 23 20V12C23 9.79086 21.2091 8 19 8H13ZM11 12C11 10.8954 11.8954 10 13 10H19C20.1046 10 21 10.8954 21 12V20C21 21.1046 20.1046 22 19 22H13C11.8954 22 11 21.1046 11 20V12Z" fill="#F9C000"/>
</svg>
