<svg width="24" height="24" viewBox="0 0 24 24" fill="none" xmlns="http://www.w3.org/2000/svg">
<path fill-rule="evenodd" clip-rule="evenodd" d="M6 4C4.89543 4 4 4.89543 4 6C4 7.10457 4.89543 8 6 8C7.10457 8 8 7.10457 8 6C8 4.89543 7.10457 4 6 4ZM2 6C2 3.79086 3.79086 2 6 2C8.20914 2 10 3.79086 10 6C10 6.77993 9.77678 7.50773 9.39075 8.12299L21.7113 20.2971C22.1042 20.6853 22.1042 21.3147 21.7113 21.7028C21.3185 22.091 20.6816 22.091 20.2887 21.7028L11.8688 13.3831L9.37308 15.8491C9.76996 16.4702 10 17.2082 10 18C10 20.2091 8.20914 22 6 22C3.79086 22 2 20.2091 2 18C2 15.7909 3.79086 14 6 14C6.69139 14 7.3418 14.1754 7.90917 14.4842L10.4462 11.9773L7.93866 9.49963C7.36439 9.81844 6.70339 10 6 10C3.79086 10 2 8.20914 2 6ZM14.1344 9.73851C13.7415 9.35033 13.7415 8.72096 14.1344 8.33278L20.2206 2.31893C20.6134 1.93075 21.2504 1.93075 21.6432 2.31893C22.0361 2.70711 22.0361 3.33648 21.6432 3.72466L15.557 9.73851C15.1642 10.1267 14.5272 10.1267 14.1344 9.73851ZM4 18C4 16.8954 4.89543 16 6 16C7.10457 16 8 16.8954 8 18C8 19.1046 7.10457 20 6 20C4.89543 20 4 19.1046 4 18Z" fill="#F9C000"/>
</svg>
