<svg width="24" height="24" viewBox="0 0 24 24" fill="none" xmlns="http://www.w3.org/2000/svg">
<g clip-path="url(#clip0_3031_6780)">
<path d="M6.49692 0.208123C6.80425 0.0741168 7.14365 0 7.5 0C7.85322 0 8.19065 0.0742123 8.49692 0.208123C8.80425 0.0741168 9.14365 0 9.5 0C10.8728 0 12 1.12063 12 2.50264V7C12 8.65668 11.6642 9.73856 10.965 10.904C10.9205 10.9781 10.772 11.2206 10.743 11.269C10.538 11.6106 10.5 11.7215 10.5 12C10.5 12.6883 10.5537 14.0527 10.647 15.8642C10.6641 16.1976 10.6825 16.5425 10.7018 16.8968C10.7463 17.7145 10.7941 18.5444 10.8419 19.3432C10.8586 19.6227 10.8742 19.8784 10.8881 20.1047C10.9024 20.3361 10.9024 20.3361 10.9058 20.3909C11.0249 22.3664 9.47788 24 7.5 24C5.51694 24 3.97406 22.3657 4.09449 20.3857C4.09761 20.3361 4.09761 20.3361 4.11192 20.1047C4.12584 19.8784 4.14137 19.6227 4.15809 19.3432C4.20588 18.5444 4.25366 17.7145 4.29824 16.8968C4.31755 16.5425 4.33586 16.1976 4.35303 15.8642C4.44627 14.0527 4.5 12.6883 4.5 12C4.5 11.7215 4.46198 11.6106 4.25701 11.269C4.22797 11.2206 4.07947 10.9781 4.03501 10.904C3.33576 9.73856 3 8.65668 3 7V2.50264C3 1.11824 4.11791 0 5.5 0C5.85322 0 6.19065 0.0742123 6.49692 0.208123ZM5 7C5 10 6.5 10 6.5 12C6.5 14 6.09055 20.5112 6.09055 20.5112C6.04054 21.3335 6.6658 22 7.5 22C8.32843 22 8.95908 21.3345 8.90945 20.5112C8.90945 20.5112 8.5 14 8.5 12C8.5 10 10 10 10 7V2.50264C10 2.22504 9.76807 2 9.5 2C9.22386 2 9 2.21484 9 2.4977V6.5023C9 6.77717 8.76807 7 8.5 7C8.22386 7 8 6.78516 8 6.5023V2.4977C8 2.22283 7.76807 2 7.5 2C7.22386 2 7 2.21484 7 2.4977V6.5023C7 6.77717 6.76807 7 6.5 7C6.22386 7 6 6.78516 6 6.5023V2.4977C6 2.22283 5.76807 2 5.5 2C5.22386 2 5 2.22143 5 2.50264V7Z" fill="#F9C000"/>
<path d="M17.4496 21.9992C17.4663 21.9997 17.4831 22 17.5 22V24H17.3975V22C17.415 22 17.4323 21.9997 17.4496 21.9992ZM17.169 2.86829C15.8368 4.06726 15 6.32656 15 10C15 10.5805 15.2553 11.0911 15.7071 11.5429C15.9958 11.8316 16.2855 12.0247 16.4472 12.1056C16.8183 12.2911 17.0363 12.6866 16.995 13.0995L16.2435 20.6147C16.1666 21.3836 16.6859 21.9743 17.4496 21.9992C18.2703 21.9733 18.8287 21.3368 18.7461 20.5112L18 13V2.29842C17.7187 2.43759 17.4394 2.62489 17.169 2.86829ZM14.2534 20.4157L14.9433 13.5167C14.7357 13.3645 14.5144 13.1786 14.2929 12.9571C13.4947 12.1589 13 11.1695 13 10C13 5.79844 14.0382 2.99524 15.831 1.38171C16.9753 0.351866 18.1482 0 19 0C19.5523 0 20 0.447715 20 1L19.995 12.9005L20.7362 20.3122C20.9299 22.2489 19.5515 23.8621 17.6457 23.9916C17.5808 23.996 17.5152 23.9987 17.4491 23.9996C17.432 23.9999 17.4147 24 17.3975 24C17.3451 24 17.2948 23.9969 17.2466 23.991C16.0662 23.846 16.1165 22 17.3975 22H17.5C18.7829 22 18.8314 23.8514 17.6457 23.9916C17.599 23.9971 17.5505 24 17.5 24C17.483 24 17.4661 23.9999 17.4491 23.9996C17.381 23.9987 17.3134 23.9958 17.2466 23.991C15.4026 23.859 14.0655 22.2949 14.2534 20.4157Z" fill="#F9C000"/>
</g>
<defs>
<clipPath id="clip0_3031_6780">
<rect width="24" height="24" fill="white"/>
</clipPath>
</defs>
</svg>
