<svg width="24" height="24" viewBox="0 0 24 24" fill="none" xmlns="http://www.w3.org/2000/svg">
<path fill-rule="evenodd" clip-rule="evenodd" d="M9 4V3C9 2.44772 9.44772 2 10 2H14C14.5523 2 15 2.44772 15 3V4H9ZM7 4V3C7 1.34315 8.34315 0 10 0H14C15.6569 0 17 1.34315 17 3V4H19.9975H22H23C23.5523 4 24 4.44772 24 5C24 5.55228 23.5523 6 23 6H21.9L21.19 20.1997C21.0836 22.3286 19.3265 24 17.195 24H6.805C4.6735 24 2.91643 22.3286 2.80999 20.1998L2.1 6H1C0.447715 6 0 5.55228 0 5C0 4.44772 0.447715 4 1 4H2H4.0025H7ZM4.1025 6L4.80749 20.0999C4.86071 21.1643 5.73925 22 6.805 22H17.195C18.2607 22 19.1393 21.1643 19.1925 20.0999L19.8975 6H17H15H9H7H4.1025ZM15 10C15.5523 10 16 10.4477 16 11V16C16 16.5523 15.5523 17 15 17C14.4477 17 14 16.5523 14 16V11C14 10.4477 14.4477 10 15 10ZM10 11C10 10.4477 9.55229 10 9 10C8.44771 10 8 10.4477 8 11V16C8 16.5523 8.44771 17 9 17C9.55229 17 10 16.5523 10 16V11Z" fill="#F9C000"/>
</svg>
