<svg width="24" height="24" viewBox="0 0 24 24" fill="none" xmlns="http://www.w3.org/2000/svg">
<path fill-rule="evenodd" clip-rule="evenodd" d="M0 16C0 9.39093 5.37156 4 12 4C15.3558 4 18.3554 5.56074 20.501 7.80469C22.6405 10.0424 24 13.0312 24 16C24 16.8252 23.5975 17.5668 23.0821 18.0821C22.5668 18.5975 21.8252 19 21 19H12V17H21C21.1748 17 21.4332 16.9025 21.6679 16.6679C21.9025 16.4332 22 16.1748 22 16C22 13.6242 20.8971 11.113 19.0554 9.18685C17.2197 7.26695 14.7193 6 12 6C6.47818 6 2 10.4934 2 16C2 16.1748 2.09745 16.4332 2.33211 16.6679C2.56676 16.9025 2.82523 17 3 17H12V19H3C2.17477 19 1.43324 18.5975 0.917893 18.0821C0.402547 17.5668 0 16.8252 0 16Z" fill="#F9C000"/>
<path fill-rule="evenodd" clip-rule="evenodd" d="M10.5697 15.6014C10.4553 15.7185 10.3536 15.8517 10.268 16C9.71566 16.9566 10.0434 18.1798 11 18.732C11.9566 19.2843 13.1798 18.9566 13.7321 18C13.8177 17.8517 13.8822 17.697 13.9264 17.5393L16.866 10.5718C17.1422 10.0935 16.9783 9.48191 16.5 9.20577C16.0217 8.92963 15.4101 9.0935 15.134 9.5718L10.5697 15.6014Z" fill="#F9C000"/>
</svg>
