<svg width="24" height="24" viewBox="0 0 24 24" fill="none" xmlns="http://www.w3.org/2000/svg">
<path fill-rule="evenodd" clip-rule="evenodd" d="M2 12C2 6.47715 6.47715 2 12 2C14.5072 2 16.7988 2.92266 18.554 4.44696L4.44696 18.554C2.92266 16.7988 2 14.5072 2 12ZM5.90268 19.9267C7.59035 21.2268 9.70488 22 12 22C17.5228 22 22 17.5228 22 12C22 9.70488 21.2268 7.59035 19.9267 5.90268L5.90268 19.9267ZM12 0C5.37258 0 0 5.37258 0 12C0 18.6274 5.37258 24 12 24C18.6274 24 24 18.6274 24 12C24 5.37258 18.6274 0 12 0Z" fill="#F9C000"/>
</svg>
