<svg width="24" height="24" viewBox="0 0 24 24" fill="none" xmlns="http://www.w3.org/2000/svg">
<path fill-rule="evenodd" clip-rule="evenodd" d="M12 2C12.5523 2 13 2.44772 13 3V14.5858L17.2929 10.2929C17.6834 9.90237 18.3166 9.90237 18.7071 10.2929C19.0976 10.6834 19.0976 11.3166 18.7071 11.7071L12.7071 17.7071C12.3166 18.0976 11.6834 18.0976 11.2929 17.7071L5.29289 11.7071C4.90237 11.3166 4.90237 10.6834 5.29289 10.2929C5.68342 9.90237 6.31658 9.90237 6.70711 10.2929L11 14.5858V3C11 2.44772 11.4477 2 12 2ZM3 17C3.55228 17 4 17.4477 4 18V20.0591C4 20.0602 4.00006 20.061 4.00012 20.0616H19.9997C19.9998 20.0614 19.9999 20.0612 19.9999 20.0611L20 20.061L20 20.0606L20.0001 20.0591V18C20.0001 17.4477 20.4478 17 21.0001 17C21.5524 17 22.0001 17.4477 22.0001 18V20.0591C22.0001 21.1516 21.1181 22.0616 20.0067 22.0616H3.9934C2.88424 22.0616 2 21.1566 2 20.0591V18C2 17.4477 2.44772 17 3 17Z" fill="#F9C000"/>
</svg>
