<svg width="24" height="24" viewBox="0 0 24 24" fill="none" xmlns="http://www.w3.org/2000/svg">
<path fill-rule="evenodd" clip-rule="evenodd" d="M21.6273 1.82844C19.4723 -0.326554 16.9989 0.799919 16.9989 0.799919L14.9743 2.82458L14.9742 2.82452L13.56 4.23873L13.5601 4.2388L2.59967 15.1992L2.07353 19.5836L1.82828 21.6274L3.87206 21.3822L8.25652 20.856L22.6558 6.45677C22.6558 6.45677 23.7823 3.98343 21.6273 1.82844ZM14.9743 5.65301L4.50301 16.1243L4.11731 19.3384L7.33143 18.9527L17.8027 8.48144L14.9743 5.65301ZM19.2169 7.06722L20.8983 5.38579C20.9251 5.25838 20.9474 5.1 20.9498 4.92314C20.956 4.47859 20.8453 3.8749 20.2131 3.24265C19.5808 2.61041 18.9771 2.49973 18.5326 2.50587C18.3557 2.50831 18.1973 2.53064 18.0699 2.55736L16.3885 4.2388L19.2169 7.06722Z" fill="#F9C000"/>
</svg>
