<svg width="24" height="24" viewBox="0 0 24 24" fill="none" xmlns="http://www.w3.org/2000/svg">
<path fill-rule="evenodd" clip-rule="evenodd" d="M19.5 2H4.5C3.67157 2 3 2.17157 3 3C3 3.82843 3.67157 3.99999 4.5 3.99999H5.06169C5.35535 6.32065 6.64493 7.80914 7.79289 8.9571C7.97762 9.14183 8.15203 9.31187 8.31652 9.47224C8.75774 9.90239 9.12772 10.2631 9.43387 10.6509C9.82532 11.1467 10 11.5578 10 12C10 12.4219 9.84256 12.7553 9.47881 13.1554C9.28761 13.3658 9.05281 13.5791 8.76593 13.8258C8.684 13.8962 8.59586 13.9711 8.50385 14.0491C8.29059 14.2301 8.05656 14.4287 7.83104 14.6317C7.1652 15.231 6.44338 15.9792 5.89633 17.0186C5.46206 17.8437 5.1556 18.818 5.0452 20H4.5C3.67157 20 3 20.1716 3 21C3 21.8284 3.67157 22 4.5 22H19.5C20.3284 22 21 21.8284 21 21C21 20.1716 20.3284 20 19.5 20H18.9548C18.8444 18.818 18.5379 17.8437 18.1037 17.0186C17.5566 15.9792 16.8348 15.231 16.169 14.6317C15.9435 14.4287 15.7094 14.2301 15.4962 14.0492C15.4043 13.9712 15.3159 13.8961 15.2341 13.8258C14.9472 13.5791 14.7124 13.3658 14.5212 13.1554C14.1574 12.7553 14 12.4219 14 12C14 11.6033 14.1512 11.2813 14.5144 10.8896C14.7879 10.5947 15.0959 10.3418 15.4742 10.0312C15.6782 9.86379 15.9026 9.67956 16.1531 9.4629C16.8135 8.89168 17.5376 8.17965 18.0877 7.19625C18.5743 6.32651 18.9024 5.28538 18.9756 3.99999H19.5C20.3284 3.99999 21 3.82843 21 3C21 2.17157 20.3284 2 19.5 2ZM16.9715 3.99999H16.9604H16.9407H16.9209H16.9009H16.8808H16.8606H16.8402H16.8196H16.799H16.7782H16.7572H16.7361H16.7149H16.6936H16.6721H16.6505H16.6288H16.6069H16.5849H16.5628H16.5406H16.5182H16.4957H16.4731H16.4503H16.4275H16.4045H16.3814H16.3581H16.3348H16.3113H16.2877H16.264H16.2402H16.2162H16.1922H16.168H16.1437H16.1193H16.0948H16.0702H16.0455H16.0206H15.9957H15.9706H15.9455H15.9202H15.8948H15.8693H15.8438H15.8181H15.7923H15.7664H15.7404H15.7143H15.6881H15.6618H15.6354H15.609H15.5824H15.5557H15.5289H15.5021H15.4751H15.4481H15.421H15.3937H15.3664H15.339H15.3115H15.284H15.2563H15.2285H15.2007H15.1728H15.1448H15.1167H15.0885H15.0603H15.032H15.0036H14.9751H14.9465H14.9179H14.8892H14.8604H14.8316H14.8026H14.7736H14.7445H14.7154H14.6862H14.6569H14.6275H14.5981H14.5686H14.5391H14.5095H14.4798H14.45H14.4202H14.3903H14.3604H14.3304H14.3004H14.2703H14.2401H14.2099H14.1796H14.1492H14.1188H14.0884H14.0579H14.0273H13.9967H13.9661H13.9354H13.9046H13.8738H13.843H13.8121H13.7811H13.7501H13.7191H13.688H13.6569H13.6258H13.5946H13.5633H13.532H13.5007H13.4694H13.438H13.4065H13.3751H13.3436H13.312H13.2805H13.2489H13.2173H13.1856H13.1539H13.1222H13.0904H13.0587H13.0269H12.995H12.9632H12.9313H12.8994H12.8675H12.8355H12.8036H12.7716H12.7396H12.7076H12.6755H12.6435H12.6114H12.5793H12.5472H12.5151H12.4829H12.4508H12.4187H12.3865H12.3543H12.3221H12.2899H12.2577H12.2255H12.1933H12.1611H12.1289H12.0967H12.0645H12.0322H12H11.9678H11.9355H11.9033H11.8711H11.8389H11.8067H11.7745H11.7423H11.7101H11.6779H11.6457H11.6135H11.5813H11.5492H11.5171H11.4849H11.4528H11.4207H11.3886H11.3565H11.3245H11.2924H11.2604H11.2284H11.1964H11.1645H11.1325H11.1006H11.0687H11.0368H11.005H10.9731H10.9413H10.9096H10.8778H10.8461H10.8144H10.7827H10.7511H10.7195H10.688H10.6564H10.6249H10.5935H10.562H10.5306H10.4993H10.468H10.4367H10.4054H10.3742H10.3431H10.312H10.2809H10.2499H10.2189H10.1879H10.157H10.1262H10.0954H10.0646H10.0339H10.0033H9.97266H9.9421H9.9116H9.88116H9.85076H9.82042H9.79014H9.75991H9.72974H9.69963H9.66958H9.63959H9.60965H9.57978H9.54997H9.52022H9.49054H9.46092H9.43137H9.40188H9.37246H9.3431H9.31382H9.2846H9.25546H9.22638H9.19738H9.16844H9.13959H9.1108H9.08209H9.05346H9.0249H8.99642H8.96802H8.9397H8.91145H8.88329H8.85521H8.82721H8.79929H8.77146H8.74371H8.71605H8.68847H8.66098H8.63358H8.60627H8.57904H8.55191H8.52486H8.49791H8.47105H8.44429H8.41761H8.39104H8.36456H8.33817H8.31188H8.28569H8.2596H8.23361H8.20772H8.18194H8.15625H8.13067H8.10519H8.07981H8.05454H8.02938H8.00432H7.97938H7.95454H7.92981H7.90519H7.88068H7.85628H7.832H7.80783H7.78377H7.75983H7.736H7.71229H7.6887H7.66523H7.64187H7.61864H7.59552H7.57253H7.54966H7.52692H7.50429H7.4818H7.45942H7.43718H7.41506H7.39307H7.3712H7.34947H7.32787H7.3064H7.28506H7.26385H7.24278H7.22184H7.20104H7.18037H7.15984H7.13945H7.11919H7.09908H7.08393C7.34995 5.51846 8.21553 6.55131 9.20711 7.54289C9.34279 7.67857 9.48641 7.81846 9.63347 7.9617C10.1039 8.41994 10.6096 8.91252 11.0036 9.4116C11.5497 10.1033 12 10.9421 12 12C12 13.078 11.5324 13.8697 10.9587 14.5008C10.6811 14.8061 10.3691 15.085 10.07 15.3422C9.96765 15.4302 9.86841 15.5144 9.77067 15.5973C9.56854 15.7688 9.3726 15.935 9.16896 16.1183C8.5848 16.644 8.05662 17.2083 7.66617 17.9501C7.38255 18.489 7.1564 19.151 7.05615 20H7.05927H7.0791H7.09908H7.11919H7.13945H7.15984H7.18037H7.20104H7.22184H7.24278H7.26385H7.28506H7.3064H7.32787H7.34947H7.3712H7.39307H7.41506H7.43718H7.45942H7.4818H7.50429H7.52692H7.54966H7.57253H7.59552H7.61864H7.64187H7.66523H7.6887H7.71229H7.736H7.75983H7.78377H7.80783H7.832H7.85628H7.88068H7.90519H7.92981H7.95454H7.97938H8.00432H8.02938H8.05454H8.07981H8.10519H8.13067H8.15625H8.18194H8.20772H8.23361H8.2596H8.28569H8.31188H8.33817H8.36456H8.39104H8.41761H8.44429H8.47105H8.49791H8.52486H8.55191H8.57904H8.60627H8.63358H8.66098H8.68847H8.71605H8.74371H8.77146H8.79929H8.82721H8.85521H8.88329H8.91145H8.9397H8.96802H8.99642H9.0249H9.05346H9.08209H9.1108H9.13959H9.16844H9.19738H9.22638H9.25546H9.2846H9.31382H9.3431H9.37246H9.40188H9.43137H9.46092H9.49054H9.52022H9.54997H9.57978H9.60965H9.63959H9.66958H9.69963H9.72974H9.75991H9.79014H9.82042H9.85076H9.88116H9.9116H9.9421H9.97266H10.0033H10.0339H10.0646H10.0954H10.1262H10.157H10.1879H10.2189H10.2499H10.2809H10.312H10.3431H10.3742H10.4054H10.4367H10.468H10.4993H10.5306H10.562H10.5935H10.6249H10.6564H10.688H10.7195H10.7511H10.7827H10.8144H10.8461H10.8778H10.9096H10.9413H10.9731H11.005H11.0368H11.0687H11.1006H11.1325H11.1645H11.1964H11.2284H11.2604H11.2924H11.3245H11.3565H11.3886H11.4207H11.4528H11.4849H11.5171H11.5492H11.5813H11.6135H11.6457H11.6779H11.7101H11.7423H11.7745H11.8067H11.8389H11.8711H11.9033H11.9355H11.9678H12H12.0322H12.0645H12.0967H12.1289H12.1611H12.1933H12.2255H12.2577H12.2899H12.3221H12.3543H12.3865H12.4187H12.4508H12.4829H12.5151H12.5472H12.5793H12.6114H12.6435H12.6755H12.7076H12.7396H12.7716H12.8036H12.8355H12.8675H12.8994H12.9313H12.9632H12.995H13.0269H13.0587H13.0904H13.1222H13.1539H13.1856H13.2173H13.2489H13.2805H13.312H13.3436H13.3751H13.4065H13.438H13.4694H13.5007H13.532H13.5633H13.5946H13.6258H13.6569H13.688H13.7191H13.7501H13.7811H13.8121H13.843H13.8738H13.9046H13.9354H13.9661H13.9967H14.0273H14.0579H14.0884H14.1188H14.1492H14.1796H14.2099H14.2401H14.2703H14.3004H14.3304H14.3604H14.3903H14.4202H14.45H14.4798H14.5095H14.5391H14.5686H14.5981H14.6275H14.6569H14.6862H14.7154H14.7445H14.7736H14.8026H14.8316H14.8604H14.8892H14.9179H14.9465H14.9751H15.0036H15.032H15.0603H15.0885H15.1167H15.1448H15.1728H15.2007H15.2285H15.2563H15.284H15.3115H15.339H15.3664H15.3937H15.421H15.4481H15.4751H15.5021H15.5289H15.5557H15.5824H15.609H15.6354H15.6618H15.6881H15.7143H15.7404H15.7664H15.7923H15.8181H15.8438H15.8693H15.8948H15.9202H15.9455H15.9706H15.9957H16.0206H16.0455H16.0702H16.0948H16.1193H16.1437H16.168H16.1922H16.2162H16.2402H16.264H16.2877H16.3113H16.3348H16.3581H16.3814H16.4045H16.4275H16.4503H16.4731H16.4957H16.5182H16.5406H16.5628H16.5849H16.6069H16.6288H16.6505H16.6721H16.6936H16.7149H16.7361H16.7572H16.7782H16.799H16.8196H16.8402H16.8606H16.8808H16.9009H16.9209H16.9407H16.9439C16.8436 19.151 16.6174 18.489 16.3338 17.9501C15.9434 17.2083 15.4152 16.644 14.831 16.1183C14.6274 15.935 14.4317 15.769 14.2295 15.5975C14.1317 15.5145 14.0324 15.4303 13.93 15.3422C13.6309 15.085 13.3189 14.8061 13.0413 14.5008C12.4676 13.8697 12 13.078 12 12C12 10.9336 12.4738 10.149 13.0478 9.52982C13.414 9.13486 13.896 8.7379 14.3358 8.37574C14.5162 8.22722 14.6894 8.08454 14.8447 7.95026C15.4332 7.4412 15.9574 6.90783 16.3423 6.21983C16.6599 5.65195 16.9028 4.94193 16.9715 3.99999Z" fill="#F9C000"/>
</svg>
