<svg width="24" height="24" viewBox="0 0 24 24" fill="none" xmlns="http://www.w3.org/2000/svg">
<path fill-rule="evenodd" clip-rule="evenodd" d="M2 12C2 6.47715 6.47715 2 12 2C17.5228 2 22 6.47715 22 12C22 17.5228 17.5228 22 12 22C6.47715 22 2 17.5228 2 12ZM12 0C5.37258 0 0 5.37258 0 12C0 18.6274 5.37258 24 12 24C18.6274 24 24 18.6274 24 12C24 5.37258 18.6274 0 12 0ZM9.80922 14.5C9.31527 14.5 8.81754 14.709 8.4917 15.1036C8.12849 15.5434 8.01123 16.2013 8.37896 16.7931C8.61697 17.1762 8.94682 17.4948 9.32398 17.7463C9.70162 17.998 10.1322 18.1864 10.5858 18.3117C11.0401 18.4372 11.52 18.5 12 18.5C12.48 18.5 12.9599 18.4372 13.4142 18.3117C13.8678 18.1864 14.2984 17.998 14.676 17.7463C15.0532 17.4948 15.383 17.1762 15.621 16.7931C15.9888 16.2013 15.8715 15.5434 15.5083 15.1036C15.1825 14.709 14.6847 14.5 14.1908 14.5H12H9.80922ZM6 10C6 8.89543 6.89543 8 8 8C9.10457 8 10 8.89543 10 10C10 11.1046 9.10457 12 8 12C6.89543 12 6 11.1046 6 10ZM16 8C14.8954 8 14 8.89543 14 10C14 11.1046 14.8954 12 16 12C17.1046 12 18 11.1046 18 10C18 8.89543 17.1046 8 16 8Z" fill="#F9C000"/>
</svg>
