<svg width="24" height="24" viewBox="0 0 24 24" fill="none" xmlns="http://www.w3.org/2000/svg">
<path fill-rule="evenodd" clip-rule="evenodd" d="M12 23C5.92487 23 1 18.0751 1 12C1 5.92487 5.92487 1 12 1C18.0751 1 23 5.92487 23 12C23 18.0751 18.0751 23 12 23ZM12 21C16.9706 21 21 16.9706 21 12C21 7.02944 16.9706 3 12 3C7.02944 3 3 7.02944 3 12C3 16.9706 7.02944 21 12 21Z" fill="#F9C000"/>
<path fill-rule="evenodd" clip-rule="evenodd" d="M8.5 12C7.67157 12 7 11.3284 7 10.5C7 9.67157 7.67157 9 8.5 9C9.32843 9 10 9.67157 10 10.5C10 11.3284 9.32843 12 8.5 12ZM15.5 12C14.6716 12 14 11.3284 14 10.5C14 9.67157 14.6716 9 15.5 9C16.3284 9 17 9.67157 17 10.5C17 11.3284 16.3284 12 15.5 12Z" fill="#F9C000"/>
<path fill-rule="evenodd" clip-rule="evenodd" d="M15 6.5C15 6.22386 15.2239 6 15.5 6C16.7074 6 17.3354 6.62818 17.8381 7.13094C17.8432 7.13612 17.8484 7.14129 17.8536 7.14645C18.0488 7.34171 18.0488 7.65829 17.8536 7.85355C17.6583 8.04882 17.3417 8.04882 17.1464 7.85355C16.6517 7.35881 16.2802 7 15.5 7C15.2239 7 15 6.77614 15 6.5Z" fill="#F9C000"/>
<path fill-rule="evenodd" clip-rule="evenodd" d="M9 6.5C9 6.22386 8.77614 6 8.5 6C7.2926 6 6.66458 6.62818 6.16195 7.13094C6.15677 7.13612 6.1516 7.14129 6.14645 7.14645C5.95118 7.34171 5.95118 7.65829 6.14645 7.85355C6.34171 8.04882 6.65829 8.04882 6.85355 7.85355C7.3483 7.35881 7.71984 7 8.5 7C8.77614 7 9 6.77614 9 6.5Z" fill="#F9C000"/>
<path fill-rule="evenodd" clip-rule="evenodd" d="M9.56714 13.5308C10.2064 13.1738 11.0144 13 12 13C12.9866 13 13.7953 13.1752 14.4348 13.5343C15.0931 13.9038 15.5016 14.4289 15.7356 14.9904C15.9603 15.5297 16.0142 16.0775 16.0232 16.5104C16.0278 16.7301 16.0208 16.9351 16.0138 17.1041C16.0121 17.1434 16.0106 17.1796 16.0091 17.2131C16.0038 17.3359 16 17.4233 16 17.5C16 18.1846 15.4874 18.5541 15.2401 18.6961C14.949 18.8632 14.6022 18.9686 14.2816 19.0406C13.6233 19.1885 12.7945 19.2553 12.0014 19.2564C11.2085 19.2575 10.3789 19.1931 9.71925 19.0456C9.39805 18.9738 9.04961 18.8679 8.75704 18.6986C8.50336 18.5518 8 18.1803 8 17.5C8 17.421 7.99614 17.3313 7.99077 17.2064C7.98934 17.1732 7.9878 17.1376 7.98621 17.0989C7.97917 16.9289 7.9722 16.7233 7.97678 16.5033C7.98579 16.0698 8.03963 15.522 8.26481 14.9831C8.49937 14.4217 8.90879 13.8984 9.56714 13.5308ZM9.98597 17.0511C10.0342 17.0648 10.0906 17.0792 10.1558 17.0938C10.6211 17.1979 11.2915 17.2574 11.9986 17.2564C12.7055 17.2554 13.3767 17.194 13.8434 17.0892C13.909 17.0745 13.9658 17.0599 14.0144 17.0461C14.0148 17.0376 14.0152 17.0292 14.0155 17.0209C14.0221 16.8618 14.0269 16.7074 14.0237 16.5521C14.017 16.235 13.9772 15.9703 13.8894 15.7596C13.8109 15.5711 13.6882 15.4087 13.4558 15.2782C13.2047 15.1373 12.7634 15 12 15C11.2356 15 10.7936 15.1366 10.5422 15.2769C10.31 15.4067 10.1881 15.5676 10.1102 15.7542C10.0229 15.9631 9.98296 16.2267 9.97635 16.5448C9.97311 16.7006 9.97786 16.8558 9.9845 17.0163C9.98497 17.0277 9.98546 17.0393 9.98597 17.0511Z" fill="#F9C000"/>
</svg>
