<svg width="24" height="24" viewBox="0 0 24 24" fill="none" xmlns="http://www.w3.org/2000/svg">
<path fill-rule="evenodd" clip-rule="evenodd" d="M12 23C5.92487 23 1 18.0751 1 12C1 5.92487 5.92487 1 12 1C18.0751 1 23 5.92487 23 12C23 18.0751 18.0751 23 12 23ZM12 21C16.9706 21 21 16.9706 21 12C21 7.02944 16.9706 3 12 3C7.02944 3 3 7.02944 3 12C3 16.9706 7.02944 21 12 21Z" fill="#F9C000"/>
<path fill-rule="evenodd" clip-rule="evenodd" d="M8.11328 13L8.11334 12.9972L8.11336 12.9956L8.11328 13L8.1132 13.0029L8.11323 13.0019L8.11328 13ZM7.11357 12.9759C8.11086 13.0041 8.1132 13.0029 8.1132 13.0029L8.11317 13.0041L7.11357 12.9759ZM7.11357 12.9759L6.12027 13.0915C6.1176 13.0686 6.11534 13.0457 6.11347 13.0229C6.11331 13.0058 6.11333 12.9912 6.11343 12.9793L6.11368 12.9605L6.11382 12.9533L6.1139 12.9503L6.11393 12.949C6.11393 12.949 6.11397 12.9477 7.11357 12.9759ZM17.884 13.0535C18.0134 11.8916 17.0846 11 16.0046 11H7.9954C6.9023 11 6.02144 11.8994 6.11347 13.0229C6.11351 13.0266 6.11355 13.0304 6.1136 13.0343C6.11418 13.0785 6.11594 13.1375 6.12028 13.2092C6.12895 13.3524 6.14806 13.5487 6.18957 13.7808C6.27194 14.2412 6.44658 14.8656 6.82166 15.498C7.61294 16.8323 9.17642 18 12 18C14.8222 18 16.3854 16.8365 17.1767 15.5048C17.5518 14.8735 17.7263 14.2504 17.8084 13.7908C17.8499 13.5591 17.8689 13.3632 17.8775 13.2202C17.8815 13.1528 17.8833 13.0966 17.884 13.0535ZM15.8844 13.0156C15.8844 13.0132 15.8843 13.0109 15.8843 13.0086L15.8843 13.0097L15.8844 13.0126L15.8844 13.0145L15.8844 13.0156ZM15.8841 13L8.11328 13L8.11343 13.0079C8.11362 13.0227 8.11431 13.0502 8.11663 13.0884C8.12128 13.1653 8.13236 13.2834 8.15833 13.4286C8.21092 13.7226 8.32038 14.1043 8.54191 14.4779C8.94385 15.1556 9.82358 16 12 16C14.1778 16 15.0566 15.1574 15.4573 14.4831C15.6783 14.1113 15.7873 13.7313 15.8397 13.4387C15.8655 13.2942 15.8765 13.1767 15.8811 13.1002C15.8834 13.0622 15.884 13.0349 15.8842 13.0203L15.8843 13.0086C15.8842 13.0057 15.8842 13.0029 15.8841 13ZM15.8841 13H16.0046C16.0014 12.9995 15.9719 12.9952 15.9406 12.9605C15.9242 12.9424 15.9103 12.9188 15.9022 12.8919C15.8938 12.8641 15.8946 12.8426 15.896 12.8335C15.8874 12.8886 15.8835 12.9443 15.8841 13Z" fill="#F9C000"/>
<path fill-rule="evenodd" clip-rule="evenodd" d="M13.6276 6.80439C14.0766 6.2992 14.7286 6 15.5 6C16.2714 6 16.9234 6.2992 17.3724 6.80439C17.8051 7.29117 18 7.91193 18 8.5C18 9.05228 17.5523 9.5 17 9.5C16.4477 9.5 16 9.05228 16 8.5C16 8.33807 15.9449 8.20883 15.8776 8.13311C15.8266 8.0758 15.7286 8 15.5 8C15.2714 8 15.1734 8.0758 15.1224 8.13311C15.0551 8.20883 15 8.33807 15 8.5C15 9.05228 14.5523 9.5 14 9.5C13.4477 9.5 13 9.05228 13 8.5C13 7.91193 13.1949 7.29117 13.6276 6.80439Z" fill="#F9C000"/>
<path fill-rule="evenodd" clip-rule="evenodd" d="M6.62759 6.80439C7.07664 6.2992 7.72864 6 8.5 6C9.27136 6 9.92336 6.2992 10.3724 6.80439C10.8051 7.29117 11 7.91193 11 8.5C11 9.05228 10.5523 9.5 10 9.5C9.44772 9.5 9 9.05228 9 8.5C9 8.33807 8.9449 8.20883 8.87759 8.13311C8.82664 8.0758 8.72864 8 8.5 8C8.27136 8 8.17336 8.0758 8.12241 8.13311C8.0551 8.20883 8 8.33807 8 8.5C8 9.05228 7.55228 9.5 7 9.5C6.44772 9.5 6 9.05228 6 8.5C6 7.91193 6.1949 7.29117 6.62759 6.80439Z" fill="#F9C000"/>
</svg>
