<svg width="24" height="24" viewBox="0 0 24 24" fill="none" xmlns="http://www.w3.org/2000/svg">
<path fill-rule="evenodd" clip-rule="evenodd" d="M12 23C5.92487 23 1 18.0751 1 12C1 5.92487 5.92487 1 12 1C18.0751 1 23 5.92487 23 12C23 18.0751 18.0751 23 12 23ZM12 21C16.9706 21 21 16.9706 21 12C21 7.02944 16.9706 3 12 3C7.02944 3 3 7.02944 3 12C3 16.9706 7.02944 21 12 21Z" fill="#F9C000"/>
<path fill-rule="evenodd" clip-rule="evenodd" d="M8.29289 18.7071C8.68342 19.0976 9.31658 19.0976 9.70711 18.7071C9.95065 18.4636 10.0847 18.3374 10.3314 18.2316C10.5982 18.1173 11.0739 18 12 18C12.9261 18 13.4018 18.1173 13.6686 18.2316C13.9153 18.3374 14.0494 18.4636 14.2929 18.7071C14.6834 19.0976 15.3166 19.0976 15.7071 18.7071C16.0976 18.3166 16.0976 17.6834 15.7071 17.2929C15.7018 17.2875 15.6964 17.2821 15.6909 17.2767C15.4353 17.0209 15.0716 16.657 14.4564 16.3934C13.8482 16.1327 13.0739 16 12 16C10.9261 16 10.1518 16.1327 9.54358 16.3934C8.92837 16.657 8.56473 17.0209 8.30908 17.2767C8.30363 17.2821 8.29824 17.2875 8.29289 17.2929C7.90237 17.6834 7.90237 18.3166 8.29289 18.7071Z" fill="#F9C000"/>
<path fill-rule="evenodd" clip-rule="evenodd" d="M8.5 15C7.67157 15 7 14.3284 7 13.5C7 12.6716 7.67157 12 8.5 12C9.32843 12 10 12.6716 10 13.5C10 14.3284 9.32843 15 8.5 15ZM15.5 15C14.6716 15 14 14.3284 14 13.5C14 12.6716 14.6716 12 15.5 12C16.3284 12 17 12.6716 17 13.5C17 14.3284 16.3284 15 15.5 15Z" fill="#F9C000"/>
<path fill-rule="evenodd" clip-rule="evenodd" d="M18.8944 10.5528C19.1414 11.0468 18.9412 11.6474 18.4472 11.8944L14.4472 13.8944C13.9532 14.1414 13.3526 13.9412 13.1056 13.4472C12.8586 12.9532 13.0588 12.3526 13.5528 12.1056L17.5528 10.1056C18.0468 9.85858 18.6474 10.0588 18.8944 10.5528Z" fill="#F9C000"/>
<path fill-rule="evenodd" clip-rule="evenodd" d="M5.10557 10.5528C4.85858 11.0468 5.05881 11.6474 5.55279 11.8944L9.55279 13.8944C10.0468 14.1414 10.6474 13.9412 10.8944 13.4472C11.1414 12.9532 10.9412 12.3526 10.4472 12.1056L6.44721 10.1056C5.95324 9.85858 5.35256 10.0588 5.10557 10.5528Z" fill="#F9C000"/>
</svg>
