<svg width="24" height="25" viewBox="0 0 24 25" fill="none" xmlns="http://www.w3.org/2000/svg">
<path fill-rule="evenodd" clip-rule="evenodd" d="M17.5941 7.26427C17.9859 6.87505 17.988 6.24189 17.5988 5.85006L12.4389 0.655607C12.2512 0.466626 11.9958 0.360352 11.7294 0.360352C11.463 0.360352 11.2077 0.466626 11.02 0.655607L5.86004 5.85006C5.47082 6.24189 5.47293 6.87505 5.86475 7.26427C6.25658 7.65349 6.88974 7.65137 7.27896 7.25955L10.7286 3.78678V14.3499C10.7286 14.9022 11.1764 15.3499 11.7286 15.3499C12.2809 15.3499 12.7286 14.9022 12.7286 14.3499V3.78522L16.1799 7.25955C16.5691 7.65137 17.2023 7.65349 17.5941 7.26427ZM4 13C4 12.4477 3.55228 12 3 12C2.44772 12 2 12.4477 2 13V18C2 21.3137 4.68629 24 8 24H15C18.3137 24 21 21.3137 21 18V13C21 12.4477 20.5523 12 20 12C19.4477 12 19 12.4477 19 13V18C19 20.2092 17.2091 22 15 22H8C5.79086 22 4 20.2092 4 18V13Z" fill="#F9C000"/>
</svg>
