<svg width="24" height="24" viewBox="0 0 24 24" fill="none" xmlns="http://www.w3.org/2000/svg">
<path fill-rule="evenodd" clip-rule="evenodd" d="M4.46299 4.01755C4.44637 4.03332 4.44335 4.04751 4.44304 4.05301L4.05388 11.0579C4.02428 11.5907 4 12.4651 4 12.9975V20H21.0001C21.0003 19.9998 20.9999 20.0002 21.0001 20L21.0069 10.0817L17.6329 12.7809C17.3327 13.021 16.9215 13.0678 16.575 12.9013C16.2285 12.7348 16.0082 12.3844 16.0082 12V10.0806L12.6329 12.7809C12.3327 13.021 11.9214 13.0678 11.5749 12.9013C11.2285 12.7347 11.0081 12.3843 11.0082 11.9999L11.0084 10.0807L7.63285 12.7809C7.34061 13.0147 6.9423 13.0657 6.60056 12.9132C6.25883 12.7606 6.03087 12.43 6.00977 12.0564L5.55792 4.05392C5.55775 4.05097 5.55556 4.03635 5.53703 4.01884C5.51847 4.0013 5.50378 4 5.50104 4H4.49896C4.49277 4 4.4792 4.00217 4.46299 4.01755ZM2.44612 3.94207C2.50601 2.8641 3.40906 2 4.49896 2H5.50104C6.58311 2 7.49371 2.86037 7.55474 3.94117L7.8973 10.0082L11.3839 7.21911C11.6841 6.97898 12.0953 6.93218 12.4418 7.09872C12.7883 7.26527 13.0086 7.61568 13.0085 8.00009L13.0084 9.91922L16.3835 7.21913C16.6837 6.979 17.0949 6.93218 17.4414 7.0987C17.7878 7.26522 18.0082 7.61559 18.0082 8V9.91938L21.3835 7.21913C21.6837 6.97892 22.0951 6.93215 22.4417 7.09883C22.7882 7.26551 23.0084 7.61611 23.0082 8.00063L23.0006 20.0021C22.9999 21.1057 22.101 22 21.0052 22H3.99477C2.89066 22 2 21.1035 2 20.0025V12.9975C2 12.4281 2.02531 11.5167 2.05696 10.947L2.44612 3.94207ZM6 16C6 15.4477 6.44772 15 7 15H8C8.55228 15 9 15.4477 9 16V17C9 17.5523 8.55228 18 8 18H7C6.44772 18 6 17.5523 6 17V16ZM11 16C11 15.4477 11.4477 15 12 15H13C13.5523 15 14 15.4477 14 16V17C14 17.5523 13.5523 18 13 18H12C11.4477 18 11 17.5523 11 17V16ZM16 16C16 15.4477 16.4477 15 17 15H18C18.5523 15 19 15.4477 19 16V17C19 17.5523 18.5523 18 18 18H17C16.4477 18 16 17.5523 16 17V16Z" fill="#F9C000"/>
</svg>
