<svg width="24" height="24" viewBox="0 0 24 24" fill="none" xmlns="http://www.w3.org/2000/svg">
<path fill-rule="evenodd" clip-rule="evenodd" d="M19 20C19 20.5523 18.5523 21 18 21H6C5.44772 21 5 20.5523 5 20V4C5 3.44772 5.44772 3 6 3H9.23393C9.36929 3 9.50419 3.00392 9.6385 3.01168C10.6408 3.12005 11.4211 3.9689 11.4211 5V7.5C11.4211 9.433 12.9881 11 14.9211 11H17C17.9925 11 18.8161 11.7229 18.973 12.6708C18.9909 12.8743 19 13.0791 19 13.2847V20ZM21 13.2847V13C21 12.8039 20.9859 12.6111 20.9586 12.4225C20.7844 10.612 20.0645 8.88912 18.8842 7.48749L16.1181 4.20278C14.5307 2.31767 12.2458 1.17246 9.80253 1.01795C9.67697 1.00608 9.54972 1 9.42105 1H9.23393H6C4.34315 1 3 2.34315 3 4V20C3 21.6569 4.34315 23 6 23H18C19.6569 23 21 21.6569 21 20V13.2847ZM13.3688 4.35167C13.8151 4.67837 14.2252 5.05982 14.5883 5.49105L17.3544 8.77576C17.4272 8.86221 17.4977 8.95023 17.566 9.03973C17.3811 9.01355 17.1921 9 17 9H14.9211C14.0926 9 13.4211 8.32843 13.4211 7.5V5C13.4211 4.77926 13.4032 4.56269 13.3688 4.35167Z" fill="#F9C000"/>
</svg>
