<svg width="24" height="24" viewBox="0 0 24 24" fill="none" xmlns="http://www.w3.org/2000/svg">
<path fill-rule="evenodd" clip-rule="evenodd" d="M8.82929 17H20.0066C20.5552 17 21 17.4439 21 18C21 18.5523 20.5551 19 20.0066 19H8.82929C8.41746 20.1652 7.30622 21 6 21C4.34315 21 3 19.6569 3 18C3 16.3431 4.34315 15 6 15C7.30622 15 8.41746 15.8348 8.82929 17ZM9.17071 13H3.9934C3.44476 13 3 12.5561 3 12C3 11.4477 3.44495 11 3.9934 11H9.17071C9.58254 9.83481 10.6938 9 12 9C13.3062 9 14.4175 9.83481 14.8293 11H20.0066C20.5552 11 21 11.4439 21 12C21 12.5523 20.5551 13 20.0066 13H14.8293C14.4175 14.1652 13.3062 15 12 15C10.6938 15 9.58254 14.1652 9.17071 13ZM15.166 6.98648C15.1125 6.99537 15.0575 7 15.0015 7H3.9985C3.44704 7 3 6.55614 3 6C3 5.44772 3.44749 5 3.9985 5H15.0015C15.0575 5 15.1125 5.00458 15.166 5.0134C15.574 3.84121 16.6888 3 18 3C19.6569 3 21 4.34315 21 6C21 7.65685 19.6569 9 18 9C16.6887 9 15.574 8.15873 15.166 6.98648ZM18 7C18.5523 7 19 6.55228 19 6C19 5.44772 18.5523 5 18 5C17.4477 5 17 5.44772 17 6C17 6.55228 17.4477 7 18 7ZM12 13C12.5523 13 13 12.5523 13 12C13 11.4477 12.5523 11 12 11C11.4477 11 11 11.4477 11 12C11 12.5523 11.4477 13 12 13ZM6 19C6.55228 19 7 18.5523 7 18C7 17.4477 6.55228 17 6 17C5.44772 17 5 17.4477 5 18C5 18.5523 5.44772 19 6 19Z" fill="#F9C000"/>
</svg>
