<svg width="24" height="24" viewBox="0 0 24 24" fill="none" xmlns="http://www.w3.org/2000/svg">
<path fill-rule="evenodd" clip-rule="evenodd" d="M8.37685 1.21791C8.65424 0.996894 9.02795 0.939346 9.35898 1.06667C11.1838 1.76854 12.328 2.83003 12.9776 4.1099C13.611 5.35761 13.7203 6.70881 13.6871 7.90278C13.6704 8.50346 13.6164 9.08869 13.5646 9.61722C13.5586 9.67797 13.5527 9.73776 13.5469 9.79663C13.5008 10.263 13.4604 10.6714 13.4444 11.0431C13.4262 11.4656 13.4444 11.7625 13.4932 11.9672C13.5377 12.1535 13.5895 12.1922 13.5996 12.1997L13.6 12.2C13.8756 12.4067 13.9992 12.3667 14.0587 12.3458C14.1908 12.2993 14.4133 12.1398 14.6679 11.7578C15.1768 10.9945 15.5 9.81484 15.5 9.00001C15.5 8.62124 15.714 8.27498 16.0528 8.10558C16.3916 7.93619 16.797 7.97275 17.1 8.20001C18.3352 9.12643 19.0466 10.5389 19.4513 11.7875C19.8597 13.0477 20 14.277 20 15C20 19.4183 16.4183 23 12 23C7.58172 23 4 19.4183 4 15C4 12.5072 5.12087 10.8308 6.10728 9.3554C6.2538 9.13625 6.39735 8.92154 6.53382 8.70925C7.0759 7.86602 7.54627 7.02519 7.83486 6.00826C8.12136 4.99868 8.2421 3.76577 8.01005 2.14143C7.95989 1.79033 8.09946 1.43892 8.37685 1.21791ZM10.1322 3.74649C10.1341 4.79579 9.99591 5.71903 9.75889 6.55427C9.39123 7.84983 8.7991 8.884 8.21618 9.79077C8.05585 10.0402 7.89863 10.278 7.74659 10.5079C6.76567 11.9917 6 13.1498 6 15C6 18.3137 8.68629 21 12 21C15.3137 21 18 18.3137 18 15C18 14.4787 17.8903 13.458 17.5487 12.4042C17.4223 12.0143 17.2701 11.6378 17.0903 11.289C16.8983 11.8542 16.6428 12.4011 16.3321 12.8672C15.9617 13.4227 15.4342 13.982 14.7225 14.2324C13.9383 14.5083 13.1244 14.3433 12.4 13.8C11.9088 13.4316 11.6648 12.9217 11.5478 12.4312C11.4345 11.9563 11.4254 11.4406 11.4462 10.9569C11.4648 10.5257 11.5112 10.0575 11.5565 9.60054C11.5624 9.54075 11.5683 9.48116 11.5741 9.42186C11.6258 8.89571 11.6733 8.37156 11.6879 7.84724C11.7172 6.79122 11.6078 5.82992 11.1942 5.01512C10.9692 4.57171 10.637 4.13846 10.1322 3.74649Z" fill="#F9C000"/>
</svg>
