<svg width="24" height="24" viewBox="0 0 24 24" fill="none" xmlns="http://www.w3.org/2000/svg">
<path fill-rule="evenodd" clip-rule="evenodd" d="M15.437 1.10051C15.8535 1.30288 16.0767 1.76482 15.9762 2.21693L14.2466 10H18C18.3864 10 18.7382 10.2226 18.9037 10.5718C19.0691 10.9209 19.0186 11.3342 18.774 11.6332L9.77397 22.6332C9.48069 22.9917 8.97966 23.1019 8.56307 22.8995C8.14648 22.6971 7.92335 22.2352 8.02382 21.7831L9.75339 14H6.00001C5.61362 14 5.2618 13.7774 5.09634 13.4282C4.93088 13.0791 4.98138 12.6658 5.22605 12.3668L14.2261 1.36676C14.5193 1.00831 15.0204 0.898144 15.437 1.10051ZM8.11025 12H11C11.3033 12 11.5903 12.1377 11.7801 12.3743C11.9698 12.6109 12.042 12.9208 11.9762 13.2169L10.8882 18.1131L15.8898 12H13C12.6967 12 12.4098 11.8623 12.22 11.6257C12.0302 11.3891 11.958 11.0792 12.0238 10.7831L13.1119 5.88693L8.11025 12Z" fill="#F9C000"/>
</svg>
