<svg width="24" height="24" viewBox="0 0 24 24" fill="none" xmlns="http://www.w3.org/2000/svg">
<path fill-rule="evenodd" clip-rule="evenodd" d="M11.9997 4C10.9234 4 10.0453 4.85055 10.0014 5.91555L9.94941 7.17806L8.73263 6.83737C7.70619 6.54998 6.62592 7.1223 6.29333 8.1459C5.96074 9.1695 6.4983 10.2675 7.49763 10.6383L8.68228 11.0779L7.98226 12.1298C7.39174 13.0172 7.60223 14.2215 8.47295 14.8541C9.34368 15.4867 10.554 15.3148 11.2155 14.4789L11.9997 13.4881L12.7838 14.4789C13.4453 15.3148 14.6557 15.4867 15.5264 14.8541C16.3971 14.2215 16.6076 13.0172 16.0171 12.1298L15.3171 11.0779L16.5017 10.6383C17.501 10.2675 18.0386 9.1695 17.706 8.1459C17.3734 7.1223 16.2931 6.54998 15.2667 6.83737L14.0499 7.17806L13.9979 5.91555C13.9541 4.85055 13.0759 4 11.9997 4ZM8.19473 4.76296C8.71582 3.15907 10.2222 2 11.9997 2C13.7771 2 15.2835 3.15908 15.8046 4.76296C17.491 4.76292 19.0589 5.8374 19.6081 7.52786C20.1574 9.21832 19.5205 11.0092 18.1562 12.0004C18.6774 13.6042 18.1399 15.4274 16.7019 16.4721C15.264 17.5169 13.364 17.4646 11.9997 16.4733C10.6354 17.4646 8.73538 17.5169 7.29738 16.4721C5.85939 15.4274 5.32198 13.6042 5.84315 12.0004C4.47879 11.0092 3.84195 9.21832 4.39121 7.52786C4.94048 5.83741 6.50832 4.76291 8.19473 4.76296ZM8.90218 10C8.90218 8.29883 10.3344 7 11.9997 7C13.665 7 15.0971 8.29883 15.0971 10C15.0971 11.7012 13.665 13 11.9997 13C10.3344 13 8.90218 11.7012 8.90218 10ZM11.9997 9C11.3482 9 10.9022 9.49203 10.9022 10C10.9022 10.508 11.3482 11 11.9997 11C12.6512 11 13.0971 10.508 13.0971 10C13.0971 9.49203 12.6512 9 11.9997 9Z" fill="#F9C000"/>
<path d="M12.9997 17C12.9997 16.4477 12.552 16 11.9997 16C11.4474 16 10.9997 16.4477 10.9997 17V21C10.9997 21.5523 11.4474 22 11.9997 22C12.552 22 12.9997 21.5523 12.9997 21V17Z" fill="#F9C000"/>
</svg>
