<svg width="24" height="24" viewBox="0 0 24 24" fill="none" xmlns="http://www.w3.org/2000/svg">
<path fill-rule="evenodd" clip-rule="evenodd" d="M4 5C2.89543 5 2 5.89543 2 7V18C2 19.1046 2.89543 20 4 20H20C21.1046 20 22 19.1046 22 18V10C22 8.89543 21.1046 8 20 8H14.1098C13.1549 8 12.2316 7.65843 11.5066 7.03703L9.69181 5.48149C9.32932 5.17078 8.86765 5 8.39023 5H4ZM0 7C0 4.79086 1.79086 3 4 3H8.39023C9.34507 3 10.2684 3.34157 10.9934 3.96297L12.8082 5.51851C13.1707 5.82922 13.6323 6 14.1098 6H20C22.2091 6 24 7.79086 24 10V18C24 20.2091 22.2091 22 20 22H4C1.79086 22 0 20.2091 0 18V7Z" fill="#F9C000"/>
</svg>
