<svg width="24" height="24" viewBox="0 0 24 24" fill="none" xmlns="http://www.w3.org/2000/svg">
<path fill-rule="evenodd" clip-rule="evenodd" d="M20.348 1.47001C20.0553 1.00168 19.4383 0.859303 18.97 1.15201C18.5017 1.44472 18.3593 2.06167 18.652 2.53001L20.2064 5.01706C18.964 5.16239 18 6.21861 18 7.5V9.5C18 10.7101 18.8597 11.7194 20.0017 11.9503C20.0006 11.9699 20 11.9894 20 12.009V19.4951C20 19.7759 19.7722 20 19.5 20C19.2246 20 19 19.7798 19 19.4936V13.9974C19 12.3427 17.6557 11.0006 16 11V3.9908C16 2.33983 14.6469 1 12.9915 1H5.00853C3.35893 1 2 2.32981 2 3.9908V21.0082C2 22.0997 2.89927 23 4.00247 23H13.9975C15.0819 23 16 22.1228 16 21.0082V13C16.5536 13.0006 17 13.4497 17 13.9974V19.4936C17 20.8713 18.107 22 19.5 22C20.8846 22 22 20.8726 22 19.4951V12.2442L22.8952 10.4456C22.9641 10.3072 23 10.1546 23 10V9.5V7.5V6.00001C23 5.81259 22.9473 5.62894 22.848 5.47001L20.348 1.47001ZM14 3.9908V12V20.9987L13.9979 20.9999L13.9977 21L13.9975 21H4.00327L4.00222 20.9993L4 20.9974V3.9908C4 3.45281 4.44498 3 5.00853 3H12.9915C13.5546 3 14 3.45659 14 3.9908ZM6 4C5.44772 4 5 4.44772 5 5V9C5 9.55228 5.44772 10 6 10H12C12.5523 10 13 9.55228 13 9V5C13 4.44772 12.5523 4 12 4H6ZM7 8V6H11V8H7ZM20 7.5C20 7.22386 20.2239 7 20.5 7C20.7761 7 21 7.22386 21 7.5V9.5C21 9.77614 20.7761 10 20.5 10C20.2239 10 20 9.77614 20 9.5V7.5Z" fill="#F9C000"/>
</svg>
