<svg width="24" height="24" viewBox="0 0 24 24" fill="none" xmlns="http://www.w3.org/2000/svg">
<path fill-rule="evenodd" clip-rule="evenodd" d="M11.9996 2C11.4474 2 10.9996 2.44772 10.9996 3C10.9996 3.55228 11.4474 4 11.9996 4C12.5519 4 12.9996 3.55228 12.9996 3C12.9996 2.44772 12.5519 2 11.9996 2ZM8.99964 3C8.99964 1.34315 10.3428 0 11.9996 0C13.6565 0 14.9996 1.34315 14.9996 3C14.9996 4.65685 13.6565 6 11.9996 6C10.3428 6 8.99964 4.65685 8.99964 3Z" fill="#F9C000"/>
<path fill-rule="evenodd" clip-rule="evenodd" d="M8.90686 9.04585C8.85903 9.08721 8.84914 9.12454 8.84843 9.1295L7.98959 15.1414C7.91148 15.6882 7.40495 16.0681 6.85822 15.99C6.31148 15.9118 5.93158 15.4053 6.00969 14.8586L6.86853 8.84666C7.01725 7.80565 7.95771 7 8.99667 7H15.0026C16.0507 7 16.9823 7.81071 17.1399 8.83515L17.988 14.3479C18.072 14.8938 17.6976 15.4044 17.1517 15.4884C16.6058 15.5724 16.0952 15.1979 16.0113 14.6521L15.1631 9.13927C15.1622 9.13287 15.1503 9.09219 15.0996 9.04847C15.0491 9.00501 15.0085 9 15.0026 9H8.99667C8.99389 9 8.9552 9.00406 8.90686 9.04585Z" fill="#F9C000"/>
<path fill-rule="evenodd" clip-rule="evenodd" d="M8.99964 7H14.9996V18H8.99964V7ZM10.9996 9V16H12.9996V9H10.9996Z" fill="#F9C000"/>
<path fill-rule="evenodd" clip-rule="evenodd" d="M13.9996 15C14.5519 15 14.9996 15.4477 14.9996 16V23C14.9996 23.5523 14.5519 24 13.9996 24C13.4474 24 12.9996 23.5523 12.9996 23V16C12.9996 15.4477 13.4474 15 13.9996 15Z" fill="#F9C000"/>
<path fill-rule="evenodd" clip-rule="evenodd" d="M9.99964 14C10.5519 14 10.9996 14.4477 10.9996 15V23C10.9996 23.5523 10.5519 24 9.99964 24C9.44735 24 8.99964 23.5523 8.99964 23V15C8.99964 14.4477 9.44735 14 9.99964 14Z" fill="#F9C000"/>
</svg>
