<svg width="24" height="24" viewBox="0 0 24 24" fill="none" xmlns="http://www.w3.org/2000/svg">
<path fill-rule="evenodd" clip-rule="evenodd" d="M11.9997 2C11.4474 2 10.9997 2.44772 10.9997 3C10.9997 3.55228 11.4474 4 11.9997 4C12.552 4 12.9997 3.55228 12.9997 3C12.9997 2.44772 12.552 2 11.9997 2ZM8.99968 3C8.99968 1.34315 10.3428 0 11.9997 0C13.6565 0 14.9997 1.34315 14.9997 3C14.9997 4.65685 13.6565 6 11.9997 6C10.3428 6 8.99968 4.65685 8.99968 3Z" fill="#F9C000"/>
<path fill-rule="evenodd" clip-rule="evenodd" d="M9.65079 9.11913C9.49079 9.21254 9.39915 9.3165 9.36941 9.36854L5.86793 15.4961C5.59392 15.9757 4.98306 16.1423 4.50354 15.8682C4.02403 15.5942 3.85743 14.9834 4.13144 14.5039L7.63292 8.37626C7.87851 7.94649 8.26161 7.61425 8.64247 7.39191C9.02226 7.1702 9.49889 7 9.99046 7H14.0089C14.5055 7 14.9838 7.17251 15.3633 7.39552C15.7435 7.61889 16.1234 7.9509 16.3664 8.37626L19.8679 14.5039C20.1419 14.9834 19.9753 15.5942 19.4958 15.8682C19.0163 16.1423 18.4054 15.9757 18.1314 15.4961L14.63 9.36854C14.601 9.31791 14.5098 9.21372 14.3502 9.11989C14.1898 9.02569 14.0595 9 14.0089 9H9.99046C9.94223 9 9.81187 9.0251 9.65079 9.11913Z" fill="#F9C000"/>
<path fill-rule="evenodd" clip-rule="evenodd" d="M10.9997 7H12.9997L17.6644 17.1775C17.707 17.2704 17.7711 17.416 17.8084 17.5741C17.8414 17.7141 17.9093 18.0898 17.671 18.464C17.4317 18.8397 17.0608 18.9363 16.9181 18.9653C16.7582 18.9977 16.5986 19 16.4969 19H7.50244C7.40199 19 7.24342 18.998 7.08555 18.967C6.94779 18.94 6.56947 18.8468 6.32655 18.4658C6.08456 18.0862 6.15842 17.7051 6.19108 17.57C6.22877 17.4141 6.29286 17.2694 6.33501 17.1775L10.9997 7ZM11.9997 9.61832L8.61641 17H15.383L11.9997 9.61832Z" fill="#F9C000"/>
<path fill-rule="evenodd" clip-rule="evenodd" d="M13.9997 17C14.552 17 14.9997 17.4477 14.9997 18V23C14.9997 23.5523 14.552 24 13.9997 24C13.4474 24 12.9997 23.5523 12.9997 23V18C12.9997 17.4477 13.4474 17 13.9997 17Z" fill="#F9C000"/>
<path fill-rule="evenodd" clip-rule="evenodd" d="M9.99968 17C10.552 17 10.9997 17.4477 10.9997 18V23C10.9997 23.5523 10.552 24 9.99968 24C9.4474 24 8.99968 23.5523 8.99968 23V18C8.99968 17.4477 9.4474 17 9.99968 17Z" fill="#F9C000"/>
</svg>
