<svg width="24" height="24" viewBox="0 0 24 24" fill="none" xmlns="http://www.w3.org/2000/svg">
<path fill-rule="evenodd" clip-rule="evenodd" d="M12 3C9.23858 3 7 5.23858 7 8C7 10.7614 9.23858 13 12 13C14.7614 13 17 10.7614 17 8C17 5.23858 14.7614 3 12 3ZM5 8C5 4.13401 8.13401 1 12 1C15.866 1 19 4.13401 19 8C19 11.5265 16.3923 14.4439 13 14.9291V18H15C15.5523 18 16 18.4477 16 19C16 19.5523 15.5523 20 15 20H13V22C13 22.5523 12.5523 23 12 23C11.4477 23 11 22.5523 11 22V20H9C8.44772 20 8 19.5523 8 19C8 18.4477 8.44772 18 9 18H11V14.9291C7.60771 14.4439 5 11.5265 5 8Z" fill="#F9C000"/>
</svg>
