<svg width="24" height="24" viewBox="0 0 24 24" fill="none" xmlns="http://www.w3.org/2000/svg">
<path fill-rule="evenodd" clip-rule="evenodd" d="M11.9997 2C11.4474 2 10.9997 2.44772 10.9997 3C10.9997 3.55228 11.4474 4 11.9997 4C12.552 4 12.9997 3.55228 12.9997 3C12.9997 2.44772 12.552 2 11.9997 2ZM8.99968 3C8.99968 1.34315 10.3428 0 11.9997 0C13.6565 0 14.9997 1.34315 14.9997 3C14.9997 4.65685 13.6565 6 11.9997 6C10.3428 6 8.99968 4.65685 8.99968 3Z" fill="#F9C000"/>
<path fill-rule="evenodd" clip-rule="evenodd" d="M9.64872 9.11912C9.49185 9.2107 9.40058 9.314 9.36941 9.36854L5.86793 15.4961C5.59392 15.9757 4.98306 16.1423 4.50354 15.8682C4.02403 15.5942 3.85743 14.9834 4.13144 14.5039L7.63292 8.37626C7.87708 7.94899 8.25639 7.61609 8.64036 7.39192C9.02415 7.16786 9.50246 7 9.99864 7C10.5509 7 10.9986 7.44772 10.9986 8C10.9986 8.55229 10.5509 9 9.99864 9C9.93853 9 9.80576 9.02744 9.64872 9.11912Z" fill="#F9C000"/>
<path fill-rule="evenodd" clip-rule="evenodd" d="M12.9997 8C12.9997 7.44772 13.4474 7 13.9997 7H14.9997C16.0472 7 16.982 7.8085 17.1399 8.83515L17.9881 14.3479C18.072 14.8938 17.6976 15.4044 17.1517 15.4884C16.6059 15.5724 16.0953 15.1979 16.0113 14.6521L15.1632 9.13927C15.1623 9.13373 15.1508 9.09324 15.0997 9.0493C15.049 9.00567 15.0073 9 14.9997 9H13.9997C13.4474 9 12.9997 8.55229 12.9997 8Z" fill="#F9C000"/>
<path fill-rule="evenodd" clip-rule="evenodd" d="M13.9997 17C14.552 17 14.9997 17.4477 14.9997 18V23C14.9997 23.5523 14.552 24 13.9997 24C13.4474 24 12.9997 23.5523 12.9997 23V18C12.9997 17.4477 13.4474 17 13.9997 17Z" fill="#F9C000"/>
<path fill-rule="evenodd" clip-rule="evenodd" d="M9.99968 17C10.552 17 10.9997 17.4477 10.9997 18V23C10.9997 23.5523 10.552 24 9.99968 24C9.4474 24 8.99968 23.5523 8.99968 23V18C8.99968 17.4477 9.4474 17 9.99968 17Z" fill="#F9C000"/>
<path fill-rule="evenodd" clip-rule="evenodd" d="M12.9997 7H14.9997V19H12.9997V7Z" fill="#F9C000"/>
<path d="M10.9997 7H9.99968C9.99968 7 10.1511 8.55996 9.93279 9.04512L6.08776 17.5896C5.78998 18.2514 6.27403 19 6.99968 19H10.9997V17H8.54627L10.9981 11.5516L10.9997 7Z" fill="#F9C000"/>
</svg>
