<svg width="24" height="24" viewBox="0 0 24 24" fill="none" xmlns="http://www.w3.org/2000/svg">
<path fill-rule="evenodd" clip-rule="evenodd" d="M15 2C14.4477 2 14 1.55228 14 1C14 0.447715 14.4477 0 15 0H20C20.5523 0 21 0.447715 21 1V6C21 6.55228 20.5523 7 20 7C19.4477 7 19 6.55228 19 6V3.41421L16.6064 5.80783C17.4816 6.97641 18 8.42766 18 10C18 13.5265 15.3923 16.4439 12 16.9291V19H14C14.5523 19 15 19.4477 15 20C15 20.5523 14.5523 21 14 21H12V23C12 23.5523 11.5523 24 11 24C10.4477 24 10 23.5523 10 23V21H8C7.44772 21 7 20.5523 7 20C7 19.4477 7.44772 19 8 19H10V16.9291C6.60771 16.4439 4 13.5265 4 10C4 6.13401 7.13401 3 11 3C12.5723 3 14.0236 3.5184 15.1922 4.39362L17.5858 2H15ZM11 5C8.23858 5 6 7.23858 6 10C6 12.7614 8.23858 15 11 15C13.7614 15 16 12.7614 16 10C16 7.23858 13.7614 5 11 5Z" fill="#F9C000"/>
</svg>
