<svg width="24" height="24" viewBox="0 0 24 24" fill="none" xmlns="http://www.w3.org/2000/svg">
<path fill-rule="evenodd" clip-rule="evenodd" d="M2 10C2 8.89543 2.89543 8 4 8H20C21.1046 8 22 8.89543 22 10V12C22 13.1046 21.1046 14 20 14H4C2.89543 14 2 13.1046 2 12V10ZM20 10H4V12H20V10Z" fill="#F9C000"/>
<path fill-rule="evenodd" clip-rule="evenodd" d="M3 14C3 12.8954 3.89543 12 5 12H19C20.1046 12 21 12.8954 21 14V20C21 21.1046 20.1046 22 19 22H5C3.89543 22 3 21.1046 3 20V14ZM19 14H5V20H19V14Z" fill="#F9C000"/>
<path d="M13 10H11V20H13V10Z" fill="#F9C000"/>
<path fill-rule="evenodd" clip-rule="evenodd" d="M11 6C11 3.79086 12.7909 2 15 2C17.2091 2 19 3.79086 19 6C19 8.20914 17.2091 10 15 10H11V6ZM15 4C13.8954 4 13 4.89543 13 6V8H15C16.1046 8 17 7.10457 17 6C17 4.89543 16.1046 4 15 4Z" fill="#F9C000"/>
<path fill-rule="evenodd" clip-rule="evenodd" d="M13 6C13 3.79086 11.2091 2 9 2C6.79086 2 5 3.79086 5 6C5 8.20914 6.79086 10 9 10H13V6ZM9 4C10.1046 4 11 4.89543 11 6V8H9C7.89543 8 7 7.10457 7 6C7 4.89543 7.89543 4 9 4Z" fill="#F9C000"/>
</svg>
