<svg width="24" height="24" viewBox="0 0 24 24" fill="none" xmlns="http://www.w3.org/2000/svg">
<g clip-path="url(#clip0_3031_6757)">
<path fill-rule="evenodd" clip-rule="evenodd" d="M5.58775 4.8752C6.40803 4.19164 7.65075 4.23649 8.41791 5.00365L9.70716 6.29289C10.0977 6.68342 10.0977 7.31658 9.70716 7.70711C9.31663 8.09763 8.68347 8.09763 8.29294 7.70711L7.0037 6.41786C6.9946 6.40876 6.97352 6.39513 6.93712 6.39357C6.89984 6.39197 6.87682 6.4044 6.86812 6.41165L3.73007 9.02669C3.86209 9.00908 3.99616 9.00001 4.13157 9.00001H8.13537C8.96105 9.00001 9.66934 9.32759 10.1559 9.85427C10.2046 9.83678 10.2557 9.81905 10.3088 9.80132C10.7337 9.65969 11.3488 9.50001 12.0001 9.50001C12.6513 9.50001 13.2664 9.65969 13.6913 9.80132C13.7486 9.82043 13.8035 9.83955 13.8555 9.85836C14.3422 9.32929 15.0521 9.00001 15.8799 9.00001H19.8837C20.0129 9.00001 20.141 9.00828 20.2672 9.02435L17.132 6.41165C17.1233 6.4044 17.1003 6.39197 17.063 6.39357C17.0266 6.39513 17.0055 6.40876 16.9964 6.41786L15.7072 7.70711C15.3166 8.09763 14.6835 8.09763 14.2929 7.70711C13.9024 7.31658 13.9024 6.68342 14.2929 6.29289L15.5822 5.00365C16.3493 4.23649 17.5921 4.19164 18.4123 4.8752L23.6402 9.23178C23.9637 9.50131 24.0836 9.94455 23.9403 10.3404C23.797 10.7363 23.4211 11 23.0001 11H22.7765C22.8831 11.2865 22.9469 11.5942 22.9592 11.9165C22.9625 11.9439 22.9666 11.9799 22.971 12.0237C22.981 12.1216 22.9929 12.2589 23.0019 12.4255C23.0197 12.7561 23.0266 13.2146 22.9795 13.7155C22.8934 14.6327 22.594 16.0603 21.4365 16.8321C19.6006 18.056 17.163 18.056 15.3271 16.8321C14.2508 16.1146 13.75 14.7859 13.5044 13.8744C13.3724 13.3842 13.2936 12.933 13.2475 12.6056C13.2243 12.441 13.2091 12.3053 13.1996 12.2087C13.1948 12.1604 13.1914 12.1217 13.1892 12.0939L13.1888 12.0884C13.1722 11.9687 13.1629 11.8504 13.1607 11.7339C13.1282 11.7223 13.0942 11.7105 13.0588 11.6987C12.7337 11.5903 12.3488 11.5 12.0001 11.5C11.6513 11.5 11.2664 11.5903 10.9413 11.6987C10.9114 11.7086 10.8825 11.7186 10.8547 11.7285C10.8526 11.8468 10.8433 11.9669 10.8265 12.0884L10.8261 12.0939C10.8238 12.1217 10.8204 12.1604 10.8156 12.2087C10.8061 12.3053 10.7909 12.441 10.7677 12.6056C10.7217 12.933 10.6428 13.3842 10.5108 13.8744C10.2653 14.7859 9.76443 16.1146 8.68817 16.8321C6.85227 18.056 4.41467 18.056 2.57877 16.8321C1.42121 16.0603 1.12186 14.6327 1.03572 13.7155C0.988689 13.2146 0.995564 12.7561 1.01336 12.4255C1.02232 12.2589 1.03424 12.1216 1.04422 12.0237C1.04867 11.9799 1.05276 11.9439 1.05605 11.9165C1.06831 11.5942 1.13211 11.2865 1.23876 11H1.00005C0.579031 11 0.203106 10.7363 0.0597797 10.3404C-0.0835461 9.94455 0.0364299 9.50131 0.359867 9.23178L5.58775 4.8752ZM8.13537 11C8.62923 11 8.91843 11.3353 8.84336 11.8279L8.83691 11.8703L8.8342 11.9115L8.83418 11.9118L8.83418 11.9118L8.83401 11.9142L8.83264 11.9317C8.83127 11.9486 8.82891 11.9758 8.82534 12.012C8.81817 12.0846 8.80613 12.1928 8.78725 12.327C8.74922 12.5974 8.6847 12.9641 8.57962 13.3542C8.3509 14.2034 8.00251 14.8855 7.57877 15.168C6.41467 15.944 4.85227 15.944 3.68817 15.168C3.34573 14.9397 3.10546 14.3643 3.02696 13.5285C2.99168 13.1528 2.99624 12.7973 3.01047 12.533C3.01751 12.4021 3.02674 12.2968 3.03391 12.2264C3.03749 12.1913 3.04054 12.1651 3.0425 12.149L3.04456 12.1327L3.04463 12.1321L3.04469 12.1316L3.04478 12.131L3.04479 12.1309L3.04484 12.1305L3.05294 12.0727L3.05405 12.0123C3.06378 11.4822 3.54356 11 4.13157 11H8.13537ZM15.8799 11C15.386 11 15.0968 11.3353 15.1719 11.8279L15.1783 11.8703L15.181 11.9115L15.1811 11.9118L15.1811 11.9118L15.1812 11.9142L15.1826 11.9317C15.184 11.9486 15.1863 11.9758 15.1899 12.012C15.1971 12.0846 15.2091 12.1928 15.228 12.327C15.266 12.5974 15.3305 12.9641 15.4356 13.3542C15.6643 14.2034 16.0127 14.8855 16.4365 15.168C17.6006 15.944 19.163 15.944 20.3271 15.168C20.6695 14.9397 20.9098 14.3643 20.9883 13.5285C21.0236 13.1528 21.019 12.7973 21.0048 12.533C20.9977 12.4021 20.9885 12.2968 20.9813 12.2264C20.9777 12.1913 20.9747 12.1651 20.9727 12.149L20.9707 12.1327L20.9706 12.1321L20.9706 12.1316L20.9705 12.131L20.9704 12.1309L20.9704 12.1305L20.9623 12.0727L20.9612 12.0123C20.9515 11.4822 20.4717 11 19.8837 11H15.8799Z" fill="#F9C000"/>
</g>
<defs>
<clipPath id="clip0_3031_6757">
<rect width="24" height="24" fill="white"/>
</clipPath>
</defs>
</svg>
