<svg width="24" height="24" viewBox="0 0 24 24" fill="none" xmlns="http://www.w3.org/2000/svg">
<path fill-rule="evenodd" clip-rule="evenodd" d="M3.05493 11H6.02572C6.20199 7.61854 7.25978 5.2891 8.4356 3.73342C5.52974 4.98806 3.41641 7.73003 3.05493 11ZM11 3.87578C10.7658 4.0881 10.5176 4.34126 10.2683 4.64048C9.27275 5.83545 8.21483 7.81943 8.02874 11H11V3.87578ZM11 13H8.02838C8.21344 16.1842 9.2721 18.17 10.2683 19.3658C10.5176 19.665 10.7658 19.9181 11 20.1305V13ZM8.4286 20.2636C7.25486 18.7069 6.20034 16.3781 6.02539 13H3.05493C3.41612 16.2673 5.52635 19.0075 8.4286 20.2636ZM11.7867 22.998C5.81003 22.8843 1 18.0039 1 12C1 5.92487 5.92487 1 12 1C18.0751 1 23 5.92487 23 12C23 18.0039 18.19 22.8843 12.2133 22.998L12 23.0833L11.7867 22.998ZM15.5714 20.2636C18.4737 19.0075 20.5839 16.2673 20.9451 13H17.9746C17.7997 16.3781 16.7451 18.7069 15.5714 20.2636ZM15.9716 13H13V20.1305C13.2342 19.9181 13.4824 19.665 13.7317 19.3658C14.7279 18.17 15.7866 16.1842 15.9716 13ZM15.9713 11H13V3.87578C13.2342 4.0881 13.4824 4.34126 13.7317 4.64048C14.7272 5.83545 15.7852 7.81943 15.9713 11ZM17.9743 11H20.9451C20.5836 7.73003 18.4703 4.98805 15.5644 3.73341C16.7402 5.2891 17.798 7.61854 17.9743 11Z" fill="#F9C000"/>
</svg>
