<svg width="24" height="24" viewBox="0 0 24 24" fill="none" xmlns="http://www.w3.org/2000/svg">
<path fill-rule="evenodd" clip-rule="evenodd" d="M2.4736 15.5C-0.563962 10.2388 1.23866 3.51128 6.49988 0.473717C6.73903 0.335646 7.04483 0.417584 7.1829 0.65673C7.32097 0.895876 7.23903 1.20167 6.99988 1.33974C2.21696 4.10117 0.578206 10.2171 3.33963 15C6.10105 19.7829 12.217 21.4217 16.9999 18.6602C17.239 18.5222 17.5448 18.6041 17.6829 18.8433C17.821 19.0824 17.739 19.3882 17.4999 19.5263C12.2387 22.5638 5.51117 20.7612 2.4736 15.5Z" fill="#F9C000"/>
<path fill-rule="evenodd" clip-rule="evenodd" d="M11.9999 20C12.5522 20 12.9999 20.4477 12.9999 21V22H14.9999C15.5522 22 15.9999 22.4477 15.9999 23C15.9999 23.5523 15.5522 24 14.9999 24H8.99988C8.4476 24 7.99988 23.5523 7.99988 23C7.99988 22.4477 8.4476 22 8.99988 22H10.9999V21C10.9999 20.4477 11.4476 20 11.9999 20Z" fill="#F9C000"/>
<path fill-rule="evenodd" clip-rule="evenodd" d="M8.54808 3.906C5.20003 5.839 4.05291 10.1201 5.9859 13.4682C7.9189 16.8162 12.2 17.9634 15.5481 16.0304C18.8961 14.0974 20.0433 9.81623 18.1103 6.46818C16.1773 3.12013 11.8961 1.973 8.54808 3.906ZM4.25385 14.4682C1.76857 10.1635 3.24345 4.65923 7.54808 2.17395C11.8527 -0.311332 17.357 1.16354 19.8423 5.46818C22.3276 9.77281 20.8527 15.2771 16.5481 17.7624C12.2434 20.2477 6.73913 18.7728 4.25385 14.4682Z" fill="#F9C000"/>
<path fill-rule="evenodd" clip-rule="evenodd" d="M7.18206 3.53998L8.91411 2.53998L16.918 16.4031L15.186 17.4031L7.18206 3.53998Z" fill="#F9C000"/>
<path fill-rule="evenodd" clip-rule="evenodd" d="M7.12814 2.64793C7.1283 2.64753 7.12847 2.64716 8.04808 3.03998C8.9677 3.4328 8.96784 3.43245 8.96798 3.43213L8.96857 3.43074L8.96708 3.43433L8.9562 3.46132C8.94578 3.4876 8.9293 3.53019 8.9083 3.58792C8.86625 3.70348 8.80629 3.87907 8.74045 4.10539C8.60846 4.55917 8.45485 5.21016 8.373 5.98528C8.20882 7.54027 8.33777 9.54173 9.45 11.4682C10.5623 13.3947 12.2323 14.5089 13.6624 15.146C14.3752 15.4635 15.0164 15.6568 15.4759 15.77C15.705 15.8265 15.8873 15.8626 16.0085 15.8841C16.0691 15.8949 16.1143 15.902 16.1423 15.9061L16.1712 15.9102L16.1736 15.9106C16.1732 15.9105 16.1728 15.9105 16.052 16.9031C15.9311 17.8958 15.9307 17.8958 15.9303 17.8957L15.9271 17.8953L15.9213 17.8946L15.9042 17.8923C15.8904 17.8905 15.8719 17.8879 15.8489 17.8845C15.8029 17.8777 15.7389 17.8675 15.6588 17.8533C15.4985 17.8248 15.2731 17.7799 14.9975 17.712C14.4473 17.5764 13.6902 17.3479 12.8486 16.9729C11.1697 16.225 9.10565 14.8717 7.71795 12.4682C6.33019 10.0645 6.19119 7.60186 6.38406 5.77528C6.48074 4.85961 6.6619 4.09045 6.82005 3.54678C6.89929 3.27437 6.97324 3.05691 7.02884 2.90409C7.05666 2.82763 7.07994 2.76721 7.09707 2.72402C7.10563 2.70242 7.11266 2.68512 7.11796 2.67226L7.12459 2.65632L7.12688 2.65089L7.12814 2.64793Z" fill="#F9C000"/>
<path fill-rule="evenodd" clip-rule="evenodd" d="M8.16853 2.04726C8.1681 2.0472 8.1677 2.04716 8.04808 3.03998C7.92847 4.0328 7.9281 4.03275 7.92775 4.03271L7.92625 4.03253L7.93011 4.03303L7.95892 4.0371C7.98689 4.04122 8.03201 4.04825 8.09251 4.05892C8.2136 4.08029 8.39566 4.11615 8.62457 4.1723C9.08356 4.28487 9.72413 4.47734 10.4363 4.79402C11.8651 5.42932 13.5339 6.54173 14.6462 8.46818C15.7585 10.3947 15.8884 12.3981 15.725 13.9551C15.6436 14.7312 15.4904 15.3832 15.3587 15.8377C15.293 16.0643 15.2332 16.2402 15.1912 16.356C15.1702 16.4138 15.1538 16.4565 15.1434 16.4828L15.1325 16.5099L15.1316 16.5121C15.1317 16.5118 15.1319 16.5115 16.052 16.9031C16.9721 17.2948 16.9723 17.2944 16.9724 17.294L16.9737 17.2911L16.976 17.2857L16.9826 17.2697C16.9878 17.2568 16.9949 17.2395 17.0034 17.2179C17.0205 17.1747 17.0437 17.1142 17.0715 17.0377C17.1269 16.8847 17.2007 16.667 17.2797 16.3943C17.4374 15.8501 17.618 15.0802 17.7141 14.1638C17.9059 12.3359 17.7659 9.87174 16.3782 7.46818C14.9904 5.0645 12.9272 3.71281 11.2489 2.96654C10.4076 2.59244 9.65091 2.36475 9.101 2.22987C8.82546 2.16229 8.60017 2.1176 8.44002 2.08934C8.3599 2.07521 8.29593 2.06516 8.24996 2.05839C8.22697 2.05501 8.20847 2.05245 8.19469 2.05061L8.17758 2.04838L8.17172 2.04765L8.16853 2.04726Z" fill="#F9C000"/>
<path fill-rule="evenodd" clip-rule="evenodd" d="M19.4763 6.8342L5.61988 14.8342L4.61988 13.1022L18.4763 5.10215L19.4763 6.8342Z" fill="#F9C000"/>
</svg>
