<svg width="24" height="24" viewBox="0 0 24 24" fill="none" xmlns="http://www.w3.org/2000/svg">
<path fill-rule="evenodd" clip-rule="evenodd" d="M11.9994 5.26331C11.7838 5.26349 11.6209 5.3077 11.5455 5.34539L2.24396 9.99615C2.2414 9.99743 2.23886 9.99871 2.23635 9.99999C2.23886 10.0013 2.2414 10.0025 2.24396 10.0038L11.5455 14.6546C11.6223 14.693 11.7856 14.7369 12.0011 14.7367C12.2167 14.7365 12.3796 14.6923 12.455 14.6546L21.7565 10.0038C21.759 10.0025 21.7616 10.0013 21.7641 9.99998C21.7616 9.99871 21.759 9.99743 21.7565 9.99615L12.455 5.34539C12.3782 5.30699 12.2149 5.26312 11.9994 5.26331ZM11.9976 3.26331C12.4339 3.26293 12.9235 3.34358 13.3494 3.55653L22.6509 8.2073C23.2894 8.52652 23.9478 9.118 23.9472 10.0009C23.9467 10.8832 23.2883 11.474 22.6509 11.7927L13.3494 16.4434C12.9266 16.6548 12.4389 16.7363 12.0028 16.7367C11.5666 16.737 11.077 16.6564 10.6511 16.4434L1.34953 11.7927C0.71108 11.4734 0.0526606 10.882 0.053223 9.99904C0.053785 9.11679 0.712097 8.52601 1.34953 8.2073L10.6511 3.55653C11.0738 3.34515 11.5615 3.26369 11.9976 3.26331Z" fill="#F9C000"/>
<path fill-rule="evenodd" clip-rule="evenodd" d="M5.00022 17.9986V12.5H7.00022V17.9986C7.00022 18.0258 7.01553 18.1034 7.08172 18.192C7.14794 18.2807 7.21247 18.3103 7.22844 18.3147L7.2624 18.3241L7.29367 18.3352L7.29465 18.3355L7.30526 18.3391C7.31615 18.3428 7.33462 18.3489 7.36041 18.3572C7.41199 18.3737 7.49278 18.3987 7.6007 18.4294C7.81665 18.4907 8.14056 18.5747 8.55587 18.6594C9.3875 18.829 10.5792 19 12.0002 19C13.4207 19 14.6173 18.8278 15.4543 18.6568C15.8723 18.5715 16.1988 18.4868 16.4169 18.4249C16.5258 18.3939 16.6075 18.3687 16.6597 18.352C16.6858 18.3436 16.7046 18.3374 16.7156 18.3337L16.7257 18.3303L16.7525 18.3208L16.7799 18.3129C16.7931 18.309 16.8558 18.2801 16.9203 18.1928C16.9843 18.1063 17.0002 18.0294 17.0002 17.9986V12.5H19.0002V17.9986C19.0002 18.5224 18.8054 19.0073 18.5285 19.3818C18.2571 19.7489 17.8585 20.0749 17.3638 20.2257L17.3539 20.2291C17.3333 20.236 17.3049 20.2454 17.2689 20.257C17.1968 20.28 17.0943 20.3116 16.9634 20.3487C16.7017 20.4231 16.3262 20.5201 15.8545 20.6164C14.9123 20.8088 13.5797 21 12.0002 21C10.4212 21 9.09381 20.8103 8.1563 20.6191C7.68704 20.5234 7.31389 20.4271 7.05391 20.3532C6.92387 20.3162 6.82198 20.2848 6.75038 20.2619C6.71457 20.2504 6.68631 20.2411 6.66588 20.2342L6.66162 20.2327C6.15867 20.0844 5.75432 19.7569 5.47947 19.389C5.19846 19.0129 5.00022 18.5245 5.00022 17.9986Z" fill="#F9C000"/>
<path d="M12.0002 11C13.1048 11 14.0002 10.5523 14.0002 9.99999C14.0002 9.4477 13.1048 8.99999 12.0002 8.99999C10.8957 8.99999 10.0002 9.4477 10.0002 9.99999C10.0002 10.5523 10.8957 11 12.0002 11Z" fill="#F9C000"/>
<path fill-rule="evenodd" clip-rule="evenodd" d="M21.0002 11.4501L11.9479 10.4972L12.0526 9.50273L21.5526 10.5027C21.807 10.5295 22.0002 10.7441 22.0002 11V16H21.0002V11.4501Z" fill="#F9C000"/>
<path fill-rule="evenodd" clip-rule="evenodd" d="M21.5002 15C21.9591 15 22.3591 15.3123 22.4704 15.7574L22.9704 17.7574C23.0451 18.0562 22.9779 18.3727 22.7884 18.6154C22.5989 18.8581 22.3082 19 22.0002 19H21.0002C20.6923 19 20.4015 18.8581 20.212 18.6154C20.0225 18.3727 19.9554 18.0562 20.0301 17.7574L20.5301 15.7574C20.6414 15.3123 21.0414 15 21.5002 15Z" fill="#F9C000"/>
</svg>
