<svg width="24" height="24" viewBox="0 0 24 24" fill="none" xmlns="http://www.w3.org/2000/svg">
<path fill-rule="evenodd" clip-rule="evenodd" d="M10.6218 4.47926C8.64943 2.50691 5.45161 2.50691 3.47926 4.47926C1.50691 6.45162 1.50691 9.64943 3.47926 11.6218L12.0001 20.1426L20.5208 11.6219C22.4932 9.64951 22.4932 6.45169 20.5208 4.47934C18.5484 2.50699 15.3506 2.50699 13.3783 4.47934L13.0607 4.79689C12.4749 5.38268 11.5252 5.38268 10.9394 4.79689L10.6218 4.47926ZM11.9994 22.4918C11.9787 22.4931 11.9579 22.4937 11.937 22.4937C11.6718 22.4937 11.4174 22.3884 11.2299 22.2008L2.06505 13.036C-0.688349 10.2826 -0.688351 5.81845 2.06505 3.06505C4.80651 0.323593 9.2439 0.311701 12.0001 3.02938C14.7562 0.311781 19.1936 0.323695 21.935 3.06513C24.6884 5.81853 24.6884 10.2827 21.935 13.0361L12.7702 22.2009C12.5826 22.3885 12.3283 22.4938 12.0631 22.4938C12.0418 22.4938 12.0206 22.4931 11.9994 22.4918Z" fill="#F9C000"/>
</svg>
