<svg width="24" height="24" viewBox="0 0 24 24" fill="none" xmlns="http://www.w3.org/2000/svg">
<path fill-rule="evenodd" clip-rule="evenodd" d="M4.97258 2.29289C5.3631 1.90237 5.99627 1.90237 6.38679 2.29289L22.3868 18.2929C22.7773 18.6834 22.7773 19.3166 22.3868 19.7071C21.9963 20.0976 21.3631 20.0976 20.9726 19.7071L19.6371 18.3716C17.4071 20.3594 14.6673 21.5564 11.6798 21.5564C6.99415 21.5564 2.94527 18.6255 0.467746 14.3103C-0.155911 13.2241 -0.155916 11.8888 0.467735 10.8025C1.9169 8.27842 3.89631 6.2336 6.23174 4.96627L4.97258 3.70711C4.58206 3.31658 4.58206 2.68342 4.97258 2.29289ZM15.3686 14.1031L18.2203 16.9548C16.3204 18.6177 14.0689 19.5564 11.6798 19.5564C7.89339 19.5564 4.42466 17.1854 2.2022 13.3145C1.9326 12.8449 1.9326 12.2679 2.2022 11.7983C3.61452 9.33841 5.5387 7.47787 7.71966 6.45419L10.133 8.86753C10.0827 8.88861 10.0328 8.91075 9.98325 8.93395C9.19661 9.30235 8.55126 9.9168 8.14475 10.6844C7.73824 11.4521 7.59266 12.3312 7.73001 13.1889C7.86737 14.0466 8.28019 14.8363 8.90609 15.4386C9.53199 16.0409 10.3369 16.4231 11.1993 16.5274C12.0616 16.6318 12.9345 16.4525 13.686 16.0169C14.4375 15.5812 15.0267 14.9127 15.3646 14.1125C15.3659 14.1094 15.3672 14.1062 15.3686 14.1031ZM13.6742 12.4088L11.8273 10.5619C11.4866 10.5366 11.1435 10.599 10.8315 10.7452C10.4381 10.9294 10.1155 11.2366 9.91222 11.6204C9.70896 12.0042 9.63617 12.4438 9.70485 12.8727C9.77353 13.3015 9.97994 13.6964 10.2929 13.9975C10.6058 14.2987 11.0083 14.4898 11.4395 14.5419C11.8707 14.5941 12.3071 14.5045 12.6828 14.2866C13.0586 14.0688 13.3532 13.7345 13.5221 13.3344C13.6461 13.0408 13.6975 12.7234 13.6742 12.4088ZM14.0546 4.79034C14.2347 4.26823 14.8039 3.99094 15.326 4.171C18.4478 5.24759 21.0835 7.65277 22.8918 10.8024C23.3668 11.6297 23.4799 12.6014 23.2316 13.4974C23.084 14.0296 22.5329 14.3414 22.0007 14.1939C21.4685 14.0463 21.1567 13.4953 21.3042 12.9631C21.4117 12.5756 21.3626 12.1557 21.1573 11.7982C19.5394 8.98025 17.2514 6.95057 14.674 6.06172C14.1519 5.88167 13.8746 5.31245 14.0546 4.79034Z" fill="#F9C000"/>
</svg>
