<svg width="24" height="24" viewBox="0 0 24 24" fill="none" xmlns="http://www.w3.org/2000/svg">
<path fill-rule="evenodd" clip-rule="evenodd" d="M11.4071 0.19476C11.7597 -0.0649201 12.2403 -0.0649201 12.5929 0.19476L21.3718 6.65919C22.3956 7.41306 23 8.60874 23 9.88014V20.5C23 22.433 21.433 24 19.5 24H16C14.8954 24 14 23.1046 14 22V16.5H10V22C10 23.1046 9.10457 24 8 24H4.5C2.567 24 1 22.433 1 20.5V9.88015C1 8.60874 1.60442 7.41306 2.6282 6.65918L11.4071 0.19476ZM12 2.24187L3.8141 8.26966C3.30221 8.6466 3 9.24444 3 9.88015V20.5C3 21.3284 3.67157 22 4.5 22H8V16C8 15.1716 8.67157 14.5 9.5 14.5H14.5C15.3284 14.5 16 15.1716 16 16V22H19.5C20.3284 22 21 21.3284 21 20.5V9.88014C21 9.24444 20.6978 8.6466 20.1859 8.26966L12 2.24187Z" fill="#F9C000"/>
</svg>
