<svg width="24" height="24" viewBox="0 0 24 24" fill="none" xmlns="http://www.w3.org/2000/svg">
<path fill-rule="evenodd" clip-rule="evenodd" d="M5.64464 5.03718C5.70237 5.10594 5.79571 5.17647 6.00375 5.17647H6.50375C6.99089 5.17647 7.40715 5.52749 7.4894 6.00764C7.57164 6.48778 7.29594 6.95733 6.83657 7.11946C6.24557 7.32805 5.54613 7.74933 4.9943 8.49297C4.44912 9.22765 4.00375 10.3361 4.00375 12V16.7647C4.00375 17.6867 4.22415 18.4984 4.66457 19.058C5.07347 19.5776 5.76478 20 7.00375 20H17.0038C18.2427 20 18.934 19.5776 19.3429 19.058C19.7834 18.4984 20.0038 17.6867 20.0038 16.7647V12C20.0038 9.69202 18.9028 8.31882 18.0038 7.62225V10.4118C18.0038 12.6092 16.7431 14.1912 15.0038 14.1912C13.6181 14.1912 12.5363 13.1872 12.1536 11.6679C11.6727 11.6999 11.1544 11.623 10.6609 11.3617C9.57346 10.7861 9.00375 9.54039 9.00375 7.76471C9.00375 7.21242 9.45147 6.76471 10.0038 6.76471C10.556 6.76471 11.0038 7.21242 11.0038 7.76471C11.0038 9.16551 11.434 9.50808 11.5966 9.59416C11.8356 9.72065 12.2208 9.69477 12.5359 9.52798C12.8458 9.36388 13.2191 9.37416 13.5196 9.55506C13.82 9.73596 14.0038 10.061 14.0038 10.4118C14.0038 11.9202 14.7431 12.1912 15.0038 12.1912C15.2644 12.1912 16.0038 11.9202 16.0038 10.4118V6.70586C16.0038 6.55405 16.037 6.42891 16.0508 6.37936C16.0702 6.30968 16.0942 6.24285 16.1191 6.18235C16.168 6.06324 16.2382 5.92518 16.3309 5.79125C16.4163 5.66801 16.5653 5.48312 16.7927 5.34483C16.9967 5.22076 17.2893 5.12431 17.617 5.17647H18.0038C18.2118 5.17647 18.3051 5.10594 18.3629 5.03718C18.4394 4.94596 18.5038 4.78712 18.5038 4.58824C18.5038 4.38935 18.4394 4.23051 18.3629 4.13929C18.3051 4.07053 18.2118 4 18.0038 4H6.00375C5.79571 4 5.70237 4.07053 5.64464 4.13929C5.56807 4.23051 5.50375 4.38935 5.50375 4.58824C5.50375 4.78712 5.56807 4.94596 5.64464 5.03718ZM19.7439 6.4867C19.7966 6.43462 19.8469 6.38004 19.8946 6.32312C20.3181 5.81875 20.5038 5.18347 20.5038 4.58824C20.5038 3.993 20.3181 3.35772 19.8946 2.85335C19.4524 2.32653 18.7957 2 18.0038 2H6.00375C5.21179 2 4.55514 2.32653 4.11286 2.85335C3.68944 3.35772 3.50375 3.993 3.50375 4.58824C3.50375 5.18347 3.68944 5.81875 4.11286 6.32312C4.13897 6.35421 4.16582 6.38461 4.1934 6.41429C3.91086 6.66905 3.63898 6.9632 3.38821 7.30114C2.55839 8.4194 2.00375 9.95795 2.00375 12V16.7647C2.00375 17.9604 2.28335 19.2663 3.09294 20.2949C3.93404 21.3636 5.24273 22 7.00375 22H17.0038C18.7648 22 20.0735 21.3636 20.9146 20.2949C21.7242 19.2663 22.0038 17.9604 22.0038 16.7647V12C22.0038 9.352 20.8942 7.57284 19.7439 6.4867Z" fill="#F9C000"/>
</svg>
