<svg width="24" height="24" viewBox="0 0 24 24" fill="none" xmlns="http://www.w3.org/2000/svg">
<path fill-rule="evenodd" clip-rule="evenodd" d="M0 6C0 4.34315 1.34315 3 3 3H21C22.6569 3 24 4.34315 24 6V18C24 19.6569 22.6569 21 21 21H3C1.34314 21 0 19.6569 0 18V6ZM3 5C2.44772 5 2 5.44772 2 6V17.1139L14.174 8.86035C15.1081 8.22706 16.3185 8.17157 17.3067 8.71674L22 11.3062V6C22 5.44771 21.5523 5 21 5H3ZM3 19C2.93465 19 2.87077 18.9937 2.80892 18.9818L15.2963 10.5158C15.6076 10.3047 16.0111 10.2862 16.3405 10.4679L22 13.5904V18C22 18.5523 21.5523 19 21 19H3ZM6 7C4.89543 7 4 7.89543 4 9C4 10.1046 4.89543 11 6 11C7.10457 11 8 10.1046 8 9C8 7.89543 7.10457 7 6 7Z" fill="#F9C000"/>
</svg>
