<svg width="24" height="24" viewBox="0 0 24 24" fill="none" xmlns="http://www.w3.org/2000/svg">
<path fill-rule="evenodd" clip-rule="evenodd" d="M8.94964 16.4706C8.95186 16.4728 8.95408 16.475 8.95629 16.4772L10.3573 17.8781C10.7514 18.2723 10.7571 18.9057 10.3639 19.299C9.97335 19.6895 9.34327 19.6926 8.94304 19.2924L7.54208 17.8914C7.53987 17.8892 7.53767 17.887 7.53548 17.8847L6.12121 19.299C6.12343 19.3012 6.12565 19.3034 6.12786 19.3056L7.52883 20.7066C7.92301 21.1008 7.9287 21.7342 7.53545 22.1274C7.14493 22.5179 6.51485 22.521 6.11461 22.1208L4.71365 20.7198C4.71144 20.7176 4.70924 20.7154 4.70705 20.7132L4.70597 20.7143C4.31603 21.1042 3.68606 21.1064 3.29281 20.7132C2.90229 20.3227 2.90213 19.6897 3.29175 19.3L11.072 11.5197C11.0913 11.5005 11.1112 11.4822 11.1315 11.4648C9.45955 9.12141 9.67507 5.84565 11.7781 3.74263C14.1212 1.39949 17.9202 1.39949 20.2634 3.74263C22.6065 6.08578 22.6065 9.88477 20.2634 12.2279C18.1603 14.3309 14.8846 14.5465 12.5412 12.8745C12.5238 12.8948 12.5055 12.9147 12.4863 12.934L8.94964 16.4706ZM18.8492 5.1568C17.2871 3.59468 14.7544 3.59468 13.1923 5.1568C11.6301 6.71892 11.6301 9.25163 13.1923 10.8137C14.7544 12.3759 17.2871 12.3759 18.8492 10.8137C20.4113 9.25162 20.4113 6.71893 18.8492 5.1568Z" fill="#F9C000"/>
</svg>
