<svg width="24" height="24" viewBox="0 0 24 24" fill="none" xmlns="http://www.w3.org/2000/svg">
<path fill-rule="evenodd" clip-rule="evenodd" d="M18.5777 5.43552C16.625 3.4829 13.4592 3.4829 11.5066 5.43552C9.98792 6.9542 9.63162 9.24041 10.5239 11.1164C10.7069 11.5011 10.6261 11.9595 10.3225 12.2584L5 17.5L5 20L7 20L7.36926 18.1537C7.44843 17.7579 7.75786 17.4484 8.15372 17.3692L10 17L10.4169 14.9156C10.47 14.65 10.6287 14.4172 10.8565 14.2707L11.9546 13.5645C12.244 13.3783 12.6088 13.3541 12.9203 13.5003C14.7963 14.3805 17.0683 14.0159 18.5777 12.5066C20.5303 10.554 20.5303 7.38814 18.5777 5.43552ZM10.0924 4.02131C12.8261 1.28764 17.2582 1.28764 19.9919 4.02131C22.7255 6.75498 22.7255 11.1871 19.9919 13.9208C18.0166 15.896 15.1107 16.47 12.5943 15.531L12.2949 15.7235L11.8304 18.0459C11.7512 18.4418 11.4418 18.7512 11.046 18.8304L9.19967 19.1997L8.80038 21.1961C8.7069 21.6635 8.29649 22 7.8198 22L4 22C3.73478 22 3.48043 21.8946 3.29289 21.7071C3.10536 21.5196 3 21.2652 3 21L3 17.0813C3 16.8134 3.10747 16.5567 3.29833 16.3688L8.44066 11.3047C7.56271 8.81993 8.14324 5.97045 10.0924 4.02131ZM14.6142 6.61422C15.3953 5.83317 16.6616 5.83317 17.4427 6.61422C18.2237 7.39527 18.2237 8.6616 17.4427 9.44264C16.6616 10.2237 15.3953 10.2237 14.6142 9.44264C13.8332 8.6616 13.8332 7.39527 14.6142 6.61422Z" fill="#F9C000"/>
</svg>
