<svg width="24" height="24" viewBox="0 0 24 24" fill="none" xmlns="http://www.w3.org/2000/svg">
<path d="M19.3333 18.1176C20.3417 18.1176 21.1575 17.2706 21.1575 16.2353L21.1667 5.88235C21.1667 4.84706 20.3417 4 19.3333 4H4.66667C3.65833 4 2.83333 4.84706 2.83333 5.88235V16.2353C2.83333 17.2706 3.65833 18.1176 4.66667 18.1176H1C1 19.1529 1.825 20 2.83333 20H21.1667C22.175 20 23 19.1529 23 18.1176H19.3333ZM4.66667 5.88235H19.3333V16.2353H4.66667V5.88235ZM12 19.0588C11.4958 19.0588 11.0833 18.6353 11.0833 18.1176C11.0833 17.6 11.4958 17.1765 12 17.1765C12.5042 17.1765 12.9167 17.6 12.9167 18.1176C12.9167 18.6353 12.5042 19.0588 12 19.0588Z" fill="#F9C000"/>
</svg>
