<svg width="24" height="24" viewBox="0 0 24 24" fill="none" xmlns="http://www.w3.org/2000/svg">
<path fill-rule="evenodd" clip-rule="evenodd" d="M18.999 3H4.99902C4.44674 3 3.99902 3.44772 3.99902 4V7H9.49902H19.999V4C19.999 3.44771 19.5513 3 18.999 3ZM8.49902 9H3.99902V20C3.99902 20.5523 4.44674 21 4.99902 21H8.49902V9ZM10.499 21V9H19.999V20C19.999 20.5523 19.5513 21 18.999 21H10.499ZM9.49902 23H4.99902C3.34217 23 1.99902 21.6569 1.99902 20V8V4C1.99902 2.34315 3.34217 1 4.99902 1H18.999C20.6559 1 21.999 2.34315 21.999 4V8V20C21.999 21.6569 20.6559 23 18.999 23H9.49902Z" fill="#F9C000"/>
</svg>
