<svg width="24" height="24" viewBox="0 0 24 24" fill="none" xmlns="http://www.w3.org/2000/svg">
<path fill-rule="evenodd" clip-rule="evenodd" d="M5.34665 20.0676C11.2344 20.9558 15.4892 19.9485 18.2399 16.9227C21.0049 13.8812 22 9.0499 22 3C22 2.44772 21.5523 2 21 2C14.9501 2 10.1188 2.99509 7.07733 5.76006C4.05147 8.51084 3.04421 12.7656 3.93244 18.6533L2.29289 20.2929C1.90237 20.6834 1.90237 21.3166 2.29289 21.7071C2.68342 22.0976 3.31658 22.0976 3.70711 21.7071L5.34665 20.0676ZM7.13831 18.2759L9.41421 16H13C13.5523 16 14 15.5523 14 15C14 14.4477 13.5523 14 13 14H11.4142L12.4142 13H16C16.5523 13 17 12.5523 17 12C17 11.4477 16.5523 11 16 11H14.4142L16.7071 8.70711C17.0976 8.31658 17.0976 7.68342 16.7071 7.29289C16.3166 6.90237 15.6834 6.90237 15.2929 7.29289L13 9.58579V8C13 7.44772 12.5523 7 12 7C11.4477 7 11 7.44772 11 8V11.5858L10 12.5858V11C10 10.4477 9.55228 10 9 10C8.44772 10 8 10.4477 8 11V14.5858L5.72409 16.8617C5.2721 12.165 6.31671 9.15445 8.42267 7.23994C10.7397 5.13359 14.5755 4.11979 19.99 4.01004C19.8802 9.42446 18.8664 13.2603 16.7601 15.5773C14.8455 17.6833 11.835 18.7279 7.13831 18.2759Z" fill="#F9C000"/>
</svg>
