<svg width="24" height="24" viewBox="0 0 24 24" fill="none" xmlns="http://www.w3.org/2000/svg">
<path fill-rule="evenodd" clip-rule="evenodd" d="M13.0963 2.87855C15.2452 0.729611 18.7293 0.72961 20.8783 2.87855C23.0272 5.02749 23.0272 8.51161 20.8783 10.6606L17.3466 14.1923C15.1976 16.3412 11.7135 16.3412 9.56458 14.1923C9.37592 14.0036 9.20383 13.8047 9.0483 13.5972C8.59482 12.9924 9.08914 12.2233 9.84437 12.1909C10.2422 12.1738 10.6089 12.3812 10.8788 12.674C10.9113 12.7092 10.9446 12.7439 10.9788 12.778C12.3467 14.1459 14.5645 14.1459 15.9324 12.778L19.4641 9.24634C20.832 7.87845 20.832 5.66066 19.4641 4.29276C18.0962 2.92487 15.8784 2.92487 14.5105 4.29277L12.1881 6.61511C11.983 6.82028 11.7083 6.94101 11.4184 6.95344L9.86189 7.02022C9.51861 7.03495 9.32161 6.65322 9.56458 6.41026L13.0963 2.87855ZM14.1666 10.2578C14.6915 10.8641 14.1863 11.6964 13.3848 11.7237L13.2884 11.727C12.9807 11.7374 12.6929 11.5919 12.4752 11.3742C11.0758 9.97481 8.80696 9.97481 7.40759 11.3742L3.9899 14.7919C2.59052 16.1913 2.59052 18.4601 3.9899 19.8595C5.38928 21.2589 7.65812 21.2589 9.0575 19.8595L11.1219 17.7951C11.323 17.594 11.5929 17.4767 11.8772 17.4671L13.6784 17.4058C13.9273 17.3973 14.0655 17.6799 13.8894 17.856L10.4717 21.2737C8.29129 23.4541 4.75612 23.4541 2.57569 21.2737C0.395262 19.0933 0.395262 15.5581 2.57569 13.3777L5.99337 9.95998C8.1738 7.77955 11.709 7.77955 13.8894 9.95998C13.9861 10.0567 14.0785 10.156 14.1666 10.2578Z" fill="#F9C000"/>
</svg>
