<svg width="24" height="24" viewBox="0 0 24 24" fill="none" xmlns="http://www.w3.org/2000/svg">
<path fill-rule="evenodd" clip-rule="evenodd" d="M16.2095 22.1627C14.1995 22.9952 11.9878 23.2131 9.854 22.7886C7.72021 22.3642 5.7602 21.3165 4.22182 19.7782C2.68345 18.2398 1.6358 16.2798 1.21136 14.146C0.786924 12.0122 1.00476 9.80046 1.83733 7.79048C2.66989 5.78049 4.07979 4.06252 5.88873 2.85383C7.69767 1.64513 9.82441 0.999994 12 0.999994C12.5523 0.999994 13 1.44771 13 1.99999C13 2.55228 12.5523 2.99999 12 2.99999C10.22 2.99999 8.47991 3.52783 6.99987 4.51677C5.51982 5.5057 4.36627 6.91131 3.68509 8.55584C3.00389 10.2004 2.82567 12.01 3.17293 13.7558C3.5202 15.5016 4.37737 17.1053 5.63604 18.364C6.89471 19.6226 8.49836 20.4798 10.2442 20.8271C11.99 21.1743 13.7996 20.9961 15.4441 20.3149C17.0887 19.6337 18.4943 18.4802 19.4832 17.0001C20.4722 15.5201 21 13.78 21 12C21 11.4477 21.4477 11 22 11C22.5523 11 23 11.4477 23 12C23 14.1756 22.3549 16.3023 21.1462 18.1113C19.9375 19.9202 18.2195 21.3301 16.2095 22.1627Z" fill="#F9C000"/>
</svg>
