<svg width="24" height="25" viewBox="0 0 24 25" fill="none" xmlns="http://www.w3.org/2000/svg">
<path fill-rule="evenodd" clip-rule="evenodd" d="M3 11C3 6.02944 7.02944 2 12 2C16.9706 2 21 6.02944 21 11C21 11.8594 20.6898 12.8547 20.1088 13.9441C19.5324 15.0251 18.724 16.1343 17.8128 17.2035C15.9902 19.3423 13.8336 21.2311 12.5334 22.3004C12.2177 22.5601 11.7823 22.5601 11.4666 22.3004C10.1664 21.2311 8.00985 19.3423 6.18715 17.2035C5.27596 16.1343 4.46762 15.0251 3.89117 13.9441C3.31024 12.8547 3 11.8594 3 11ZM12 0C5.92487 0 1 4.92487 1 11C1 12.3136 1.4638 13.6426 2.12641 14.8851C2.79349 16.1361 3.69817 17.3664 4.66494 18.5008C6.59816 20.7693 8.85726 22.7439 10.1961 23.8451C11.25 24.7119 12.75 24.7119 13.8039 23.8451C15.1427 22.7439 17.4018 20.7693 19.3351 18.5008C20.3018 17.3664 21.2065 16.1361 21.8736 14.8851C22.5362 13.6426 23 12.3136 23 11C23 4.92487 18.0751 0 12 0ZM10 11C10 9.89543 10.8954 9 12 9C13.1046 9 14 9.89543 14 11C14 12.1046 13.1046 13 12 13C10.8954 13 10 12.1046 10 11ZM12 7C9.79086 7 8 8.79086 8 11C8 13.2091 9.79086 15 12 15C14.2091 15 16 13.2091 16 11C16 8.79086 14.2091 7 12 7Z" fill="#F9C000"/>
</svg>
