<svg width="24" height="24" viewBox="0 0 24 24" fill="none" xmlns="http://www.w3.org/2000/svg">
<path fill-rule="evenodd" clip-rule="evenodd" d="M12 0C9.23858 0 7 2.23858 7 5V8.75463C5.17107 10.2207 4 12.4736 4 15C4 19.4183 7.58172 23 12 23C16.4183 23 20 19.4183 20 15C20 10.5817 16.4183 7 12 7C10.9391 7 9.92643 7.20651 9 7.58152V5C9 3.34315 10.3431 2 12 2C13.6569 2 15 3.34315 15 5C15 5.55228 15.4477 6 16 6C16.5523 6 17 5.55228 17 5C17 2.23858 14.7614 0 12 0ZM6 15C6 11.6863 8.68629 9 12 9C15.3137 9 18 11.6863 18 15C18 18.3137 15.3137 21 12 21C8.68629 21 6 18.3137 6 15ZM14 14C14 14.7403 13.5978 15.3866 13 15.7324V17C13 17.5523 12.5523 18 12 18C11.4477 18 11 17.5523 11 17V15.7324C10.4022 15.3866 10 14.7403 10 14C10 12.8954 10.8954 12 12 12C13.1046 12 14 12.8954 14 14Z" fill="#F9C000"/>
</svg>
