<svg width="24" height="24" viewBox="0 0 24 24" fill="none" xmlns="http://www.w3.org/2000/svg">
<g clip-path="url(#clip0_3031_6821)">
<path fill-rule="evenodd" clip-rule="evenodd" d="M15.1419 4.60001C15.923 3.81896 17.1893 3.81896 17.9704 4.60001L19.3846 6.01422C20.1656 6.79527 20.1656 8.0616 19.3846 8.84265L4.82061 23.4066C4.03957 24.1877 2.77324 24.1877 1.99219 23.4066L0.577974 21.9924C-0.203074 21.2113 -0.203075 19.945 0.577974 19.164L15.1419 4.60001ZM17.9704 7.42843L16.5561 6.01422L1.99219 20.5782L3.4064 21.9924L17.9704 7.42843Z" fill="#F9C000"/>
<path fill-rule="evenodd" clip-rule="evenodd" d="M14.2927 12.7071L11.2927 9.70711L12.7069 8.29289L15.7069 11.2929L14.2927 12.7071Z" fill="#F9C000"/>
<path fill-rule="evenodd" clip-rule="evenodd" d="M21.9998 0.497699C21.9998 0.214844 21.7759 0 21.4998 0C21.2317 0 20.9998 0.222827 20.9998 0.497699V1.00631C20.9998 1.55511 20.5572 2 20.0061 2H19.4975C19.2146 2 18.9998 2.22386 18.9998 2.5C18.9998 2.76807 19.2226 3 19.4975 3H20.0061C20.5549 3 20.9998 3.44261 20.9998 3.99369V4.5023C20.9998 4.78516 21.2237 5 21.4998 5C21.7679 5 21.9998 4.77717 21.9998 4.5023V3.99369C21.9998 3.44489 22.4424 3 22.9935 3H23.5021C23.785 3 23.9998 2.77614 23.9998 2.5C23.9998 2.23193 23.777 2 23.5021 2H22.9935C22.4447 2 21.9998 1.55739 21.9998 1.00631V0.497699Z" fill="#F9C000"/>
<path d="M22.9998 10C23.5521 10 23.9998 9.55228 23.9998 9C23.9998 8.44771 23.5521 8 22.9998 8C22.4475 8 21.9998 8.44771 21.9998 9C21.9998 9.55228 22.4475 10 22.9998 10Z" fill="#F9C000"/>
<path fill-rule="evenodd" clip-rule="evenodd" d="M12.4998 1C12.2237 1 11.9998 1.22386 11.9998 1.5C11.9998 1.77614 12.2237 2 12.4998 2C12.7759 2 12.9998 1.77614 12.9998 1.5C12.9998 1.22386 12.7759 1 12.4998 1ZM10.9998 1.5C10.9998 0.671573 11.6714 0 12.4998 0C13.3282 0 13.9998 0.671573 13.9998 1.5C13.9998 2.32843 13.3282 3 12.4998 3C11.6714 3 10.9998 2.32843 10.9998 1.5Z" fill="#F9C000"/>
<path fill-rule="evenodd" clip-rule="evenodd" d="M20.9998 12.4954C20.9998 12.2158 20.7759 12 20.4998 12C20.2317 12 19.9998 12.2218 19.9998 12.4954V12.5011C19.9998 12.7766 19.7711 13 19.5009 13H19.4952C19.2155 13 18.9998 13.2239 18.9998 13.5C18.9998 13.7681 19.2216 14 19.4952 14H19.5009C19.7764 14 19.9998 14.2287 19.9998 14.4989V14.5046C19.9998 14.7842 20.2237 15 20.4998 15C20.7679 15 20.9998 14.7782 20.9998 14.5046V14.4989C20.9998 14.2234 21.2285 14 21.4987 14H21.5044C21.784 14 21.9998 13.7761 21.9998 13.5C21.9998 13.2319 21.778 13 21.5044 13H21.4987C21.2232 13 20.9998 12.7713 20.9998 12.5011V12.4954Z" fill="#F9C000"/>
<path fill-rule="evenodd" clip-rule="evenodd" d="M7.9998 4.49539C7.9998 4.21575 7.77594 4 7.4998 4C7.23173 4 6.9998 4.22179 6.9998 4.49539V4.50106C6.9998 4.77662 6.77111 5 6.50085 5H6.49519C6.21555 5 5.9998 5.22386 5.9998 5.5C5.9998 5.76807 6.22159 6 6.49519 6H6.50085C6.77641 6 6.9998 6.22868 6.9998 6.49894V6.50461C6.9998 6.78425 7.22365 7 7.4998 7C7.76786 7 7.9998 6.77821 7.9998 6.50461V6.49894C7.9998 6.22338 8.22848 6 8.49874 6H8.50441C8.78405 6 8.9998 5.77614 8.9998 5.5C8.9998 5.23193 8.778 5 8.50441 5H8.49874C8.22318 5 7.9998 4.77132 7.9998 4.50106V4.49539Z" fill="#F9C000"/>
</g>
<defs>
<clipPath id="clip0_3031_6821">
<rect width="24" height="24" fill="white"/>
</clipPath>
</defs>
</svg>
