<svg width="25" height="24" viewBox="0 0 25 24" fill="none" xmlns="http://www.w3.org/2000/svg">
<path fill-rule="evenodd" clip-rule="evenodd" d="M3.49478 3.04154C2.07609 3.27971 0.995117 4.51362 0.995117 6V18.0013C0.995117 19.6581 2.33826 21.0013 3.99512 21.0013H21.996C23.6528 21.0013 24.996 19.6581 24.996 18.0013V6C24.996 4.51362 23.915 3.27971 22.4963 3.04154C22.3724 3.01444 22.2416 3 22.1048 3H3.88624C3.74944 3 3.61871 3.01444 3.49478 3.04154ZM2.99512 6.31449V18.0013C2.99512 18.5536 3.44283 19.0013 3.99512 19.0013H21.996C22.5482 19.0013 22.996 18.5536 22.996 18.0013V6.31449L15.7371 13.1467C14.1968 14.5964 11.7942 14.5964 10.254 13.1467L2.99512 6.31449ZM21.4745 5H4.51662L11.6248 11.6903C12.3949 12.4152 13.5962 12.4152 14.3663 11.6903L21.4745 5Z" fill="#F9C000"/>
</svg>
