<svg width="24" height="24" viewBox="0 0 24 24" fill="none" xmlns="http://www.w3.org/2000/svg">
<g clip-path="url(#clip0_3031_6777)">
<path fill-rule="evenodd" clip-rule="evenodd" d="M16.7793 5.20455C17.3617 4.62217 18.3046 4.62086 18.8945 5.21073C19.4803 5.79651 19.4822 6.74432 18.9007 7.32587L2.62483 23.6017C2.04246 24.1841 1.09956 24.1854 0.509693 23.5955C-0.076093 23.0097 -0.078034 22.0619 0.503511 21.4804L16.7793 5.20455ZM15.7125 6.27139L10.0556 11.9282L12.177 14.0496L17.8338 8.39271L15.7125 6.27139Z" fill="#F9C000"/>
<path fill-rule="evenodd" clip-rule="evenodd" d="M11.4691 3.44369L7.2299 7.68291C7.2299 7.68297 7.2299 7.68285 7.2299 7.68291C7.22991 7.68571 7.2305 7.68794 7.23084 7.68878C7.23084 7.68879 7.23142 7.68981 7.2325 7.69089L16.4143 16.8727C16.4156 16.874 16.4167 16.8749 16.4174 16.8755C16.4179 16.8759 16.4183 16.8762 16.4186 16.8763L16.4201 16.8772C16.4201 16.8772 16.42 16.8771 16.4201 16.8772L20.6595 12.638C20.6595 12.638 20.6595 12.6381 20.6595 12.638C20.6595 12.6352 20.6589 12.633 20.6586 12.6322C20.6586 12.6322 20.658 12.6311 20.6569 12.6301L11.4751 3.44825C11.473 3.44608 11.4715 3.44504 11.4709 3.4446L11.4691 3.44369C11.4692 3.44372 11.469 3.44366 11.4691 3.44369ZM10.0577 2.02665C10.8436 1.2408 12.1099 1.25454 12.8894 2.03404L22.0712 11.2158C22.8512 11.9959 22.8576 13.2684 22.0785 14.0475L17.8317 18.2943C17.0459 19.0802 15.7796 19.0664 15.0001 18.2869L5.81829 9.10511C5.03821 8.32503 5.03182 7.05256 5.81089 6.27349L10.0577 2.02665Z" fill="#F9C000"/>
<path d="M23.1371 12.9889C23.7229 12.4031 23.7229 11.4534 23.1371 10.8676C22.5513 10.2818 21.6016 10.2818 21.0158 10.8676L14.6518 17.2315C14.066 17.8173 14.066 18.7671 14.6518 19.3529C15.2376 19.9386 16.1874 19.9386 16.7731 19.3529L23.1371 12.9889Z" fill="#F9C000"/>
<path d="M13.2376 3.08941C13.8234 2.50362 13.8234 1.55387 13.2376 0.968087C12.6518 0.382301 11.7021 0.382301 11.1163 0.968087L4.75233 7.33205C4.16655 7.91783 4.16655 8.86758 4.75233 9.45337C5.33812 10.0392 6.28787 10.0392 6.87365 9.45337L13.2376 3.08941Z" fill="#F9C000"/>
</g>
<defs>
<clipPath id="clip0_3031_6777">
<rect width="24" height="24" fill="white"/>
</clipPath>
</defs>
</svg>
