<svg width="24" height="24" viewBox="0 0 24 24" fill="none" xmlns="http://www.w3.org/2000/svg">
<path fill-rule="evenodd" clip-rule="evenodd" d="M7.50386 0.131757C7.79416 -0.0341284 8.14816 -0.0439541 8.44721 0.105573L15.9685 3.86623L22.5039 0.131757C22.8134 -0.0451016 23.1936 -0.0438317 23.5019 0.13509C23.8102 0.314012 24 0.64353 24 1V19C24 19.3589 23.8077 19.6902 23.4961 19.8682L16.4961 23.8682C16.2058 24.0341 15.8518 24.044 15.5528 23.8944L8.03147 20.1338L1.49614 23.8682C1.18664 24.0451 0.806388 24.0438 0.498073 23.8649C0.189758 23.686 0 23.3565 0 23V5C0 4.64114 0.192286 4.3098 0.503861 4.13176L7.50386 0.131757ZM7 2.72318L2 5.58032V21.2768L7 18.4197V2.72318ZM9 2.61803V18.382L15 21.382V5.61803L9 2.61803ZM22 18.4197L17 21.2768V5.58032L22 2.72318V18.4197Z" fill="#F9C000"/>
</svg>
