<svg width="24" height="24" viewBox="0 0 24 24" fill="none" xmlns="http://www.w3.org/2000/svg">
<path fill-rule="evenodd" clip-rule="evenodd" d="M18.5028 19C19.3299 18.9985 20 18.3275 20 17.5V13C21.1046 13 22 12.1046 22 11C22 9.89543 21.1046 9 20 9V4.5C20 3.67157 19.3284 3 18.5 3C18.0224 3 17.5969 3.22322 17.3222 3.57103C11.8555 7.00033 7.40177 7.00006 6.51037 7L6.5 7C3.93521 7 2 9.02731 2 11.5C2 13.9851 4.01446 15.9997 6.49951 16C6.49954 16.1572 6.52446 16.317 6.57689 16.4744L8.07689 20.9744C8.33887 21.7603 9.18835 22.185 9.97426 21.923C10.7602 21.6611 11.1849 20.8116 10.9229 20.0257L9.65864 16.2328C11.6715 16.5226 14.4409 17.1732 17.5178 18.6337C17.7796 18.8607 18.1207 18.9985 18.494 19C18.496 19 18.498 19 18.5 19C18.5009 19 18.5019 19 18.5028 19ZM17 6.07961V16.2147C14.288 15.0862 11.857 14.5328 10 14.2613V8.65613C11.8583 8.29842 14.2892 7.56859 17 6.07961ZM7 8.99421C7.46625 8.98188 8.14693 8.94337 9 8.82307V14.1345C8.14521 14.0429 7.46437 14.0137 7 14.0044V8.99421ZM6 9.04649V13.95C4.85888 13.7184 4 12.7095 4 11.5C4 10.2741 4.82433 9.27004 6 9.04649Z" fill="#F9C000"/>
</svg>
