<svg width="24" height="24" viewBox="0 0 24 24" fill="none" xmlns="http://www.w3.org/2000/svg">
<path fill-rule="evenodd" clip-rule="evenodd" d="M3 7C3 6.45235 3.44035 6 3.9934 6H20.0066C20.561 6 21 6.44968 21 7C21 7.54765 20.5597 8 20.0066 8H3.9934C3.43898 8 3 7.55032 3 7ZM3 12C3 11.4523 3.44035 11 3.9934 11H20.0066C20.561 11 21 11.4497 21 12C21 12.5477 20.5597 13 20.0066 13H3.9934C3.43898 13 3 12.5503 3 12ZM3 17C3 16.4523 3.44035 16 3.9934 16H20.0066C20.561 16 21 16.4497 21 17C21 17.5477 20.5597 18 20.0066 18H3.9934C3.43898 18 3 17.5503 3 17Z" fill="#F9C000"/>
</svg>
