<svg width="24" height="24" viewBox="0 0 24 24" fill="none" xmlns="http://www.w3.org/2000/svg">
<path fill-rule="evenodd" clip-rule="evenodd" d="M12 0C9.79086 0 8 1.79086 8 4V12C8 14.2091 9.79086 16 12 16C14.2091 16 16 14.2091 16 12V4C16 1.79086 14.2091 0 12 0ZM10 4C10 2.89543 10.8954 2 12 2C13.1046 2 14 2.89543 14 4V12C14 13.1046 13.1046 14 12 14C10.8954 14 10 13.1046 10 12V4ZM6 9.5C6 8.94771 5.55228 8.5 5 8.5C4.44772 8.5 4 8.94771 4 9.5V12C4 16.0796 7.05369 19.446 11 19.9381V22H8C7.44772 22 7 22.4477 7 23C7 23.5523 7.44772 24 8 24H12H16C16.5523 24 17 23.5523 17 23C17 22.4477 16.5523 22 16 22H13V19.9381C16.9463 19.446 20 16.0796 20 12V9.5C20 8.94771 19.5523 8.5 19 8.5C18.4477 8.5 18 8.94771 18 9.5V12C18 15.3137 15.3137 18 12 18C8.68629 18 6 15.3137 6 12V9.5Z" fill="#F9C000"/>
</svg>
