<svg width="24" height="24" viewBox="0 0 24 24" fill="none" xmlns="http://www.w3.org/2000/svg">
<path fill-rule="evenodd" clip-rule="evenodd" d="M19.4007 4.04497L17.4695 4.56242C17.5795 4.97272 17.9259 5.40629 18.443 5.70479C18.96 6.0033 19.5087 6.08657 19.919 5.97663L19.4029 4.05046C19.402 4.04702 19.4011 4.04556 19.4007 4.04497ZM18.8917 2.11081C19.9675 1.82254 21.0518 2.47691 21.3348 3.53282L22.2464 6.93517L22.2475 6.93913L22.4275 7.60023C22.7829 7.96481 23 8.46309 23 9.0025V18.9976C23 20.1008 22.0997 21 21.0082 21H2.9918C1.87723 21 0.999996 20.0819 0.999996 18.9976V12.6439L0.0844413 9.22704C-0.200727 8.16278 0.431585 7.05717 1.48916 6.7738L18.8917 2.11081ZM8.37225 7.00003L15.5377 5.08006C15.7457 5.85638 16.2263 6.51124 16.8153 7.00003H8.37225ZM3 9.0033V11C3.42476 11 3.93324 10.7776 4.35539 10.3554C4.77754 9.93327 5 9.4248 5 9.00003H3.00255C3.00125 9.00138 3.00043 9.00257 3 9.0033ZM17 9.00003H7C7 10.0753 6.47245 11.0668 5.7696 11.7696C5.06676 12.4725 4.07523 13 3 13V15C4.07523 15 5.06676 15.5276 5.7696 16.2304C6.47245 16.9333 7 17.9248 7 19H17C17 17.9248 17.5275 16.9333 18.2304 16.2304C18.9332 15.5276 19.9248 15 21 15V13C19.9248 13 18.9332 12.4725 18.2304 11.7696C17.5275 11.0668 17 10.0753 17 9.00003ZM20.9987 9.00003H19C19 9.4248 19.2224 9.93327 19.6446 10.3554C20.0668 10.7776 20.5752 11 21 11V9.0025C21 9.0023 21 9.00229 21 9.00228C21 9.00228 21 9.00228 20.9999 9.00214C20.9997 9.00163 20.9993 9.00088 20.9987 9.00003ZM3 17V18.9976C3 18.9979 2.99993 18.9976 3.00005 18.9979C3.00026 18.9984 3.00067 18.9992 3.00125 19H5C5 18.5753 4.77754 18.0668 4.35539 17.6446C3.93324 17.2225 3.42476 17 3 17ZM21 18.9968V17C20.5752 17 20.0668 17.2225 19.6446 17.6446C19.2224 18.0668 19 18.5753 19 19H20.9974C20.9987 18.9987 20.9996 18.9975 21 18.9968ZM9 14C9 12.3432 10.3431 11 12 11C13.6569 11 15 12.3432 15 14C15 15.6569 13.6569 17 12 17C10.3431 17 9 15.6569 9 14ZM12 13C11.4477 13 11 13.4477 11 14C11 14.5523 11.4477 15 12 15C12.5523 15 13 14.5523 13 14C13 13.4477 12.5523 13 12 13Z" fill="#F9C000"/>
</svg>
