<svg width="24" height="24" viewBox="0 0 24 24" fill="none" xmlns="http://www.w3.org/2000/svg">
<path fill-rule="evenodd" clip-rule="evenodd" d="M3 7.00327V9C3.42477 9 3.93324 8.77755 4.35539 8.35539C4.77755 7.93324 5 7.42477 5 7H3.00255C3.00125 7.00135 3.00044 7.00254 3 7.00327ZM1 7.00247C1 5.89926 1.9003 5 2.9918 5H21.0082C22.1228 5 23 5.91812 23 7.00247V16.9975C23 18.1007 22.0997 19 21.0082 19H2.9918C1.87723 19 1 18.0819 1 16.9975V7.00247ZM17 7H7C7 8.07523 6.47245 9.06676 5.76961 9.76961C5.06676 10.4725 4.07523 11 3 11V13C4.07523 13 5.06676 13.5275 5.76961 14.2304C6.47245 14.9332 7 15.9248 7 17H17C17 15.9248 17.5275 14.9332 18.2304 14.2304C18.9332 13.5275 19.9248 13 21 13V11C19.9248 11 18.9332 10.4725 18.2304 9.76961C17.5275 9.06676 17 8.07523 17 7ZM20.9987 7H19C19 7.42477 19.2225 7.93324 19.6446 8.35539C20.0668 8.77755 20.5752 9 21 9V7.00247C21 7.00225 21 7.00226 21 7.00225C21 7.00224 21 7.00223 20.9999 7.00211C20.9997 7.0016 20.9993 7.00085 20.9987 7ZM3 15V16.9975C3 16.9978 2.99998 16.9977 2.99998 16.9977C2.99999 16.9978 3.00001 16.9978 3.00005 16.9979C3.00027 16.9984 3.00067 16.9992 3.00126 17H5C5 16.5752 4.77755 16.0668 4.35539 15.6446C3.93324 15.2225 3.42477 15 3 15ZM21 16.9967V15C20.5752 15 20.0668 15.2225 19.6446 15.6446C19.2225 16.0668 19 16.5752 19 17H20.9974C20.9988 16.9986 20.9996 16.9975 21 16.9967ZM9 12C9 10.3431 10.3431 9 12 9C13.6569 9 15 10.3431 15 12C15 13.6569 13.6569 15 12 15C10.3431 15 9 13.6569 9 12ZM12 11C11.4477 11 11 11.4477 11 12C11 12.5523 11.4477 13 12 13C12.5523 13 13 12.5523 13 12C13 11.4477 12.5523 11 12 11Z" fill="#F9C000"/>
</svg>
