<svg width="24" height="24" viewBox="0 0 24 24" fill="none" xmlns="http://www.w3.org/2000/svg">
<path fill-rule="evenodd" clip-rule="evenodd" d="M14 2C14 3.10457 13.1046 4 12 4C10.8954 4 10 3.10457 10 2C10 0.895431 10.8954 0 12 0C13.1046 0 14 0.895431 14 2ZM14 12C14 13.1046 13.1046 14 12 14C10.8954 14 10 13.1046 10 12C10 10.8954 10.8954 10 12 10C13.1046 10 14 10.8954 14 12ZM12 24C13.1046 24 14 23.1046 14 22C14 20.8954 13.1046 20 12 20C10.8954 20 10 20.8954 10 22C10 23.1046 10.8954 24 12 24Z" fill="#F9C000"/>
</svg>
