<svg width="24" height="24" viewBox="0 0 24 24" fill="none" xmlns="http://www.w3.org/2000/svg">
<path fill-rule="evenodd" clip-rule="evenodd" d="M2 10C3.10457 10 4 10.8954 4 12C4 13.1046 3.10457 14 2 14C0.895431 14 0 13.1046 0 12C0 10.8954 0.895431 10 2 10ZM12 10C13.1046 10 14 10.8954 14 12C14 13.1046 13.1046 14 12 14C10.8954 14 10 13.1046 10 12C10 10.8954 10.8954 10 12 10ZM24 12C24 10.8954 23.1046 10 22 10C20.8954 10 20 10.8954 20 12C20 13.1046 20.8954 14 22 14C23.1046 14 24 13.1046 24 12Z" fill="#F9C000"/>
</svg>
