<svg width="24" height="24" viewBox="0 0 24 24" fill="none" xmlns="http://www.w3.org/2000/svg">
<path fill-rule="evenodd" clip-rule="evenodd" d="M3 6C3.55228 6 4 6.44772 4 7V19.0015C4 19.0792 4.03186 19.2375 4.12636 19.4231C4.22112 19.6092 4.32895 19.7249 4.38755 19.7671C4.44266 19.8068 4.49354 19.852 4.53944 19.9019C4.54992 19.9115 4.58227 19.9398 4.64176 19.9814C4.76126 20.0651 4.9943 20.2055 5.38543 20.3559C6.16947 20.6573 7.59183 21 10 21C12.4082 21 13.8305 20.6573 14.6146 20.3559C15.0057 20.2055 15.2387 20.0651 15.3582 19.9814C15.4177 19.9398 15.4501 19.9115 15.4606 19.9019C15.5169 19.8406 15.5808 19.7864 15.6507 19.7409C15.6856 19.7181 15.7832 19.6249 15.8759 19.4386C15.9663 19.257 16 19.0902 16 19.0015V7C16 6.44772 16.4477 6 17 6C17.5523 6 18 6.44772 18 7V19.0015C18 19.4643 17.8625 19.9358 17.6665 20.3296C17.4886 20.6872 17.2177 21.0702 16.845 21.3454C16.8342 21.3557 16.8228 21.3664 16.8107 21.3774C16.7359 21.4458 16.6357 21.5285 16.5053 21.6198C16.2442 21.8026 15.8655 22.0176 15.3324 22.2226C14.2679 22.6319 12.5918 23 10 23C7.40817 23 5.73207 22.6319 4.66764 22.2226C4.13453 22.0176 3.75584 21.8026 3.49466 21.6198C3.36428 21.5285 3.26409 21.4458 3.18933 21.3774C3.17087 21.3606 3.15399 21.3446 3.13861 21.3296C2.79277 21.0567 2.52617 20.6882 2.34407 20.3305C2.14791 19.9453 2 19.4748 2 19.0015V7C2 6.44772 2.44772 6 3 6Z" fill="#F9C000"/>
<path fill-rule="evenodd" clip-rule="evenodd" d="M3.95454 7.17974C3.95418 7.17971 3.95611 7.17656 3.96144 7.1704C3.95757 7.1767 3.95491 7.17977 3.95454 7.17974ZM4.18867 7C4.42735 6.85628 4.80251 6.69658 5.32497 6.54731C6.47958 6.21742 8.13278 6 10 6C11.8672 6 13.5204 6.21742 14.675 6.54731C15.1975 6.69658 15.5726 6.85628 15.8113 7C15.5726 7.14372 15.1975 7.30342 14.675 7.45269C13.5204 7.78258 11.8672 8 10 8C8.13278 8 6.47958 7.78258 5.32497 7.45269C4.80251 7.30342 4.42735 7.14372 4.18867 7ZM16.0455 7.17974C16.0451 7.17977 16.0424 7.1767 16.0386 7.1704C16.0439 7.17656 16.0458 7.17971 16.0455 7.17974ZM16.0386 6.8296C16.0424 6.8233 16.0451 6.82023 16.0455 6.82026C16.0458 6.82029 16.0439 6.82344 16.0386 6.8296ZM3.96144 6.8296C3.95611 6.82344 3.95418 6.82029 3.95454 6.82026C3.95491 6.82023 3.95757 6.8233 3.96144 6.8296ZM4.77553 4.62426C6.15442 4.23029 8.00123 4 10 4C11.9988 4 13.8456 4.23029 15.2245 4.62426C15.9071 4.8193 16.5322 5.07035 17.0097 5.39285C17.4522 5.69178 18 6.21636 18 7C18 7.78364 17.4522 8.30822 17.0097 8.60715C16.5322 8.92965 15.9071 9.1807 15.2245 9.37574C13.8456 9.76971 11.9988 10 10 10C8.00123 10 6.15442 9.76971 4.77553 9.37574C4.09289 9.1807 3.46776 8.92965 2.99033 8.60715C2.54781 8.30822 2 7.78364 2 7C2 6.21636 2.54781 5.69178 2.99033 5.39285C3.46776 5.07035 4.09289 4.8193 4.77553 4.62426Z" fill="#F9C000"/>
<path fill-rule="evenodd" clip-rule="evenodd" d="M17.9699 11.2434C17.97 11.243 17.9701 11.2425 17 11C16.0299 10.7575 16.03 10.757 16.0301 10.7565L16.0309 10.7535L16.0321 10.7488L16.0351 10.7371L16.044 10.7049C16.0511 10.6798 16.0608 10.6471 16.0734 10.6081C16.0984 10.5302 16.1352 10.4255 16.1863 10.3029C16.2874 10.0603 16.4504 9.73279 16.7 9.4C17.2115 8.71802 18.1071 8 19.5 8C20.7913 8 21.7489 8.50809 22.3321 9.3828C22.8675 10.1859 23 11.1705 23 12C23 13.0389 22.5659 13.9357 22.0114 14.6566C21.4583 15.3756 20.7452 15.974 20.0735 16.4442C19.3966 16.9181 18.7261 17.2862 18.2285 17.5351C17.9784 17.6601 17.7688 17.7566 17.6198 17.8226C17.5452 17.8556 17.4856 17.8811 17.4434 17.8988L17.3934 17.9195L17.3788 17.9255L17.3742 17.9274L17.3726 17.928C17.3723 17.9281 17.3714 17.9285 17 17C16.6286 16.0715 16.6284 16.0716 16.6282 16.0717L16.6352 16.0688L16.6689 16.0548C16.7 16.0418 16.7478 16.0214 16.8099 15.9939C16.9343 15.9388 17.1154 15.8555 17.334 15.7462C17.7739 15.5263 18.3534 15.2069 18.9265 14.8058C19.5048 14.401 20.0417 13.9369 20.4261 13.4372C20.8091 12.9393 21 12.4611 21 12C21 11.3295 20.8825 10.8141 20.6679 10.4922C20.5011 10.2419 20.2087 10 19.5 10C18.8929 10 18.5385 10.282 18.3 10.6C18.1746 10.7672 18.0876 10.9397 18.0325 11.0721C18.0054 11.137 17.9875 11.1886 17.9774 11.2201C17.9724 11.2357 17.9694 11.246 17.9682 11.2501C17.9676 11.2522 17.9675 11.2527 17.9679 11.2514L17.9687 11.2483L17.9693 11.2458L17.9699 11.2434Z" fill="#F9C000"/>
</svg>
