<svg width="24" height="24" viewBox="0 0 24 24" fill="none" xmlns="http://www.w3.org/2000/svg">
<path fill-rule="evenodd" clip-rule="evenodd" d="M10 4C10 2.89543 10.8954 2 12 2C13.1046 2 14 2.89543 14 4V20C14 21.1046 13.1046 22 12 22C10.8954 22 10 21.1046 10 20V4ZM3 14C3 12.8954 3.89543 12 5 12C6.10457 12 7 12.8954 7 14V20C7 21.1046 6.10457 22 5 22C3.89543 22 3 21.1046 3 20V14ZM19 8C17.8954 8 17 8.89543 17 10V20C17 21.1046 17.8954 22 19 22C20.1046 22 21 21.1046 21 20V10C21 8.89543 20.1046 8 19 8Z" fill="#F9C000"/>
</svg>
