<svg width="24" height="24" viewBox="0 0 24 24" fill="none" xmlns="http://www.w3.org/2000/svg">
<path fill-rule="evenodd" clip-rule="evenodd" d="M5.99509 5C5.44644 5 5 5.44525 5 5.99791V12H3V5.99791C3 4.34374 4.33881 3 5.99509 3H20.0049C21.6638 3 23 4.34954 23 6.00586V17.9941C23 19.6489 21.6649 21 20.0049 21H2.5V19H20.0049C20.5498 19 21 18.5549 21 17.9941V6.00586C21 5.44459 20.5497 5 20.0049 5H5.99509Z" fill="#F9C000"/>
<path fill-rule="evenodd" clip-rule="evenodd" d="M7 8C7 7.44772 7.44772 7 8 7H18C18.5523 7 19 7.44772 19 8C19 8.55228 18.5523 9 18 9H8C7.44772 9 7 8.55228 7 8Z" fill="#F9C000"/>
<path fill-rule="evenodd" clip-rule="evenodd" d="M2.5 7C2.21949 7 2 7.22166 2 7.49825V18.5018C2 18.7733 2.22469 19 2.5 19C2.78051 19 3 18.7783 3 18.5018V7H2.5ZM0 7.49825C0 6.11991 1.11211 5 2.5 5H4C4.55228 5 5 5.44772 5 6V18.5018C5 19.8801 3.88789 21 2.5 21C1.11845 21 0 19.8762 0 18.5018V7.49825Z" fill="#F9C000"/>
<path d="M12 11H7V16H12V11Z" fill="#F9C000"/>
<path d="M18.5 11H13.5C13.2239 11 13 11.2239 13 11.5C13 11.7761 13.2239 12 13.5 12H18.5C18.7761 12 19 11.7761 19 11.5C19 11.2239 18.7761 11 18.5 11Z" fill="#F9C000"/>
<path d="M18.5 13H13.5C13.2239 13 13 13.2239 13 13.5C13 13.7761 13.2239 14 13.5 14H18.5C18.7761 14 19 13.7761 19 13.5C19 13.2239 18.7761 13 18.5 13Z" fill="#F9C000"/>
<path d="M18.5 15H13.5C13.2239 15 13 15.2239 13 15.5C13 15.7761 13.2239 16 13.5 16H18.5C18.7761 16 19 15.7761 19 15.5C19 15.2239 18.7761 15 18.5 15Z" fill="#F9C000"/>
</svg>
