<svg width="26" height="24" viewBox="0 0 26 24" fill="none" xmlns="http://www.w3.org/2000/svg">
<path fill-rule="evenodd" clip-rule="evenodd" d="M7.12334 3.33186C8.68921 1.83407 10.8039 1 13 1C15.1962 1 17.3108 1.83407 18.8767 3.33186C20.4441 4.83109 21.3333 6.87421 21.3333 9.01449C21.3333 14.6267 23.6353 17.2143 24.7762 18.1651C25.3046 18.6055 25.2777 19.2488 25.1686 19.597C25.0607 19.9413 24.6923 20.5362 23.943 20.5362H17.9949C17.7937 21.0256 17.4512 21.6876 16.8981 22.3037C16.0849 23.2097 14.8259 24 13 24C11.1741 24 9.91517 23.2097 9.10192 22.3037C8.54881 21.6876 8.20631 21.0256 8.00512 20.5362H2.05707C1.30769 20.5362 0.939297 19.9413 0.831456 19.597C0.72236 19.2488 0.695471 18.6055 1.22384 18.1651C2.36474 17.2143 4.66668 14.6267 4.66668 9.01449C4.66668 6.87421 5.55596 4.83109 7.12334 3.33186ZM13 3C11.3063 3 9.69045 3.64398 8.50579 4.77714C7.32263 5.90885 6.66668 7.43406 6.66668 9.01449C6.66668 13.8666 5.09929 16.8405 3.66938 18.5362H8.52215C9.10228 18.5362 9.57433 18.9252 9.73079 19.4324C9.82143 19.7262 10.0727 20.3912 10.5902 20.9677C11.0831 21.5168 11.8246 22 13 22C14.1754 22 14.9169 21.5168 15.4098 20.9677C15.9273 20.3912 16.1786 19.7262 16.2692 19.4324C16.4257 18.9252 16.8977 18.5362 17.4779 18.5362H22.3306C20.9007 16.8405 19.3333 13.8666 19.3333 9.01449C19.3333 7.43406 18.6774 5.90885 17.4942 4.77714C16.3096 3.64398 14.6937 3 13 3Z" fill="#F9C000"/>
</svg>
