<svg width="24" height="24" viewBox="0 0 24 24" fill="none" xmlns="http://www.w3.org/2000/svg">
<path fill-rule="evenodd" clip-rule="evenodd" d="M6 4C4.89543 4 4 4.89543 4 6V20C4 21.1046 4.89543 22 6 22H18C19.1046 22 20 21.1046 20 20V6C20 4.89543 19.1046 4 18 4C18 5.65685 16.6569 7 15 7H9C7.34315 7 6 5.65685 6 4ZM17.8293 2H18C20.2091 2 22 3.79086 22 6V20C22 22.2091 20.2091 24 18 24H6C3.79086 24 2 22.2091 2 20V6C2 3.79086 3.79086 2 6 2H6.17071C6.58254 0.834808 7.69378 0 9 0H15C16.3062 0 17.4175 0.834808 17.8293 2ZM8 3C8 2.44772 8.44772 2 9 2H15C15.5523 2 16 2.44772 16 3V4C16 4.55228 15.5523 5 15 5H9C8.44772 5 8 4.55228 8 4V3Z" fill="#F9C000"/>
</svg>
