<svg width="24" height="24" viewBox="0 0 24 24" fill="none" xmlns="http://www.w3.org/2000/svg">
<path fill-rule="evenodd" clip-rule="evenodd" d="M4.5 3C3.11929 3 2 4.11929 2 5.5V18.5C2 19.8807 3.11929 21 4.5 21H7.5C8.88071 21 10 19.8807 10 18.5V5.5C10 4.11929 8.88071 3 7.5 3H4.5ZM4 5.5C4 5.22386 4.22386 5 4.5 5H7.5C7.77614 5 8 5.22386 8 5.5V18.5C8 18.7761 7.77614 19 7.5 19H4.5C4.22386 19 4 18.7761 4 18.5V5.5ZM16.5 3C15.1193 3 14 4.11929 14 5.5V18.5C14 19.8807 15.1193 21 16.5 21H19.5C20.8807 21 22 19.8807 22 18.5V5.5C22 4.11929 20.8807 3 19.5 3H16.5ZM16 5.5C16 5.22386 16.2239 5 16.5 5H19.5C19.7761 5 20 5.22386 20 5.5V18.5C20 18.7761 19.7761 19 19.5 19H16.5C16.2239 19 16 18.7761 16 18.5V5.5Z" fill="#F9C000"/>
</svg>
