<svg width="24" height="24" viewBox="0 0 24 24" fill="none" xmlns="http://www.w3.org/2000/svg">
<path fill-rule="evenodd" clip-rule="evenodd" d="M15.3634 1.61421C15.7539 1.22369 16.3871 1.22369 16.7776 1.61421L22.4345 7.27107C22.622 7.4586 22.7274 7.71296 22.7274 7.97817C22.7274 8.24339 22.622 8.49774 22.4345 8.68528L20.3132 10.8066C20.0175 11.1023 19.5828 11.1741 19.2195 11.0221C18.9789 11.5281 18.6885 12.1514 18.3985 12.8037C18.049 13.5902 17.706 14.406 17.4523 15.1037C17.3252 15.453 17.2253 15.76 17.1583 16.0112C17.0865 16.2803 17.0705 16.421 17.0705 16.4635C17.0705 17.0157 16.6228 17.4635 16.0705 17.4635C16.0755 17.4635 16.0754 17.4635 16.0692 17.4642C16.0536 17.466 15.9995 17.4724 15.8926 17.4944C15.7592 17.522 15.5845 17.5651 15.369 17.6248C14.9387 17.7438 14.3855 17.9172 13.7461 18.1303C12.4695 18.5558 10.8909 19.1258 9.34763 19.699C7.8062 20.2715 6.30787 20.8444 5.19436 21.2744C4.63777 21.4893 4.1777 21.6684 3.85693 21.7936C3.69655 21.8563 3.57101 21.9055 3.48566 21.9389L3.35602 21.9899C3.35595 21.9899 3.35557 21.9901 2.98904 21.0596C2.05863 20.6931 2.05864 20.6931 2.05867 20.693L2.10975 20.563C2.14323 20.4777 2.19242 20.3521 2.25506 20.1918C2.38034 19.871 2.55941 19.4109 2.77433 18.8543C3.2043 17.7408 3.77718 16.2425 4.34971 14.7011C4.92291 13.1578 5.49285 11.5792 5.9184 10.3025C6.13152 9.66316 6.30492 9.10998 6.42393 8.67972C6.48354 8.4642 6.5267 8.28954 6.55425 8.15605C6.57629 8.04924 6.58265 7.99511 6.58449 7.97949C6.58522 7.97329 6.58523 7.97315 6.58523 7.97817C6.58523 7.42589 7.03295 6.97817 7.58523 6.97817C7.62771 6.97817 7.76836 6.96216 8.03744 6.8904C8.28871 6.8234 8.59565 6.72346 8.94497 6.59644C9.64274 6.3427 10.4585 5.9997 11.245 5.65015C11.8974 5.36018 12.5208 5.06968 13.0269 4.82905C12.9761 4.70783 12.9492 4.57662 12.9492 4.44264C12.9492 4.17742 13.0546 3.92307 13.2421 3.73553L15.3634 1.61421ZM15.3634 4.44264L19.6061 8.68528L20.3132 7.97817L16.0705 3.73553L15.3634 4.44264ZM17.6864 9.59406L14.4546 6.36229C14.3707 6.40295 14.2799 6.44674 14.1831 6.49321C13.6251 6.76105 12.8644 7.11902 12.0572 7.47777C11.2527 7.83533 10.3891 8.19943 9.62845 8.47603C9.24857 8.61417 8.88155 8.7352 8.55277 8.82287C8.51794 8.83216 8.48267 8.84132 8.44707 8.85026C8.41712 8.97169 8.38449 9.09379 8.35155 9.21289C8.21921 9.69137 8.03353 10.2817 7.81576 10.935C7.37953 12.2437 6.80041 13.8471 6.22456 15.3974C6.02004 15.9481 5.81556 16.493 5.61756 17.0169L9.89575 12.7387C9.71757 12.0715 9.8902 11.3301 10.4137 10.8066C11.1947 10.0256 12.461 10.0256 13.2421 10.8066C14.0231 11.5876 14.0231 12.854 13.2421 13.635C12.7186 14.1585 11.9772 14.3311 11.31 14.1529L7.03177 18.4311C7.55568 18.2331 8.10062 18.0287 8.65126 17.8241C10.2016 17.2483 11.805 16.6692 13.1137 16.2329C13.767 16.0152 14.3573 15.8295 14.8358 15.6971C14.9549 15.6642 15.077 15.6316 15.1984 15.6016C15.2074 15.566 15.2165 15.5308 15.2258 15.4959C15.3135 15.1671 15.4345 14.8001 15.5727 14.4202C15.8493 13.6596 16.2134 12.796 16.5709 11.9915C16.9297 11.1843 17.2876 10.4236 17.5555 9.86564C17.6019 9.76883 17.6457 9.67804 17.6864 9.59406ZM2.98904 21.0596L2.05867 20.693C1.91275 21.0634 2.00042 21.4852 2.28193 21.7668C2.56345 22.0483 2.9856 22.1358 3.35602 21.9899L2.98904 21.0596Z" fill="#F9C000"/>
</svg>
