<svg width="24" height="24" viewBox="0 0 24 24" fill="none" xmlns="http://www.w3.org/2000/svg">
<path fill-rule="evenodd" clip-rule="evenodd" d="M16.5547 5.16795C17.0142 5.4743 17.1384 6.09517 16.8321 6.5547L8.83205 18.5547C8.5257 19.0142 7.90483 19.1384 7.4453 18.832C6.98577 18.5257 6.8616 17.9048 7.16795 17.4453L15.1679 5.4453C15.4743 4.98577 16.0952 4.8616 16.5547 5.16795ZM8 7C7.44772 7 7 7.44771 7 8C7 8.55228 7.44772 9 8 9C8.55228 9 9 8.55228 9 8C9 7.44771 8.55228 7 8 7ZM5 8C5 6.34315 6.34315 5 8 5C9.65685 5 11 6.34315 11 8C11 9.65685 9.65685 11 8 11C6.34315 11 5 9.65685 5 8ZM16 15C15.4477 15 15 15.4477 15 16C15 16.5523 15.4477 17 16 17C16.5523 17 17 16.5523 17 16C17 15.4477 16.5523 15 16 15ZM13 16C13 14.3431 14.3431 13 16 13C17.6569 13 19 14.3431 19 16C19 17.6569 17.6569 19 16 19C14.3431 19 13 17.6569 13 16Z" fill="#F9C000"/>
</svg>
