<svg width="24" height="24" viewBox="0 0 24 24" fill="none" xmlns="http://www.w3.org/2000/svg">
<path fill-rule="evenodd" clip-rule="evenodd" d="M10 3C10 2.44772 9.55228 2 9 2C8.44772 2 8 2.44772 8 3V6H6C5.44772 6 5 6.44772 5 7V10C5 12.9742 7.16399 15.4429 10.0033 15.9176C10.0011 15.9448 10 15.9723 10 16C10 17.7305 10.5906 19.5956 12.4453 20.8321C14.1987 22.001 15.9719 22.0005 17.8821 22L18 22C18.5523 22 19 21.5523 19 21C19 20.4477 18.5523 20 18 20C15.9553 20 14.7653 19.975 13.5547 19.1679C12.4094 18.4044 12 17.2695 12 16C12 15.9723 11.9989 15.9448 11.9967 15.9176C14.836 15.4429 17 12.9742 17 10V7C17 6.44772 16.5523 6 16 6H14V3C14 2.44772 13.5523 2 13 2C12.4477 2 12 2.44772 12 3V6H10V3ZM13 8H9H7V10C7 12.2091 8.79086 14 11 14C13.2091 14 15 12.2091 15 10V8H13Z" fill="#F9C000"/>
</svg>
