<svg width="24" height="24" viewBox="0 0 24 24" fill="none" xmlns="http://www.w3.org/2000/svg">
<path fill-rule="evenodd" clip-rule="evenodd" d="M12 2C12.5523 2 13 2.44772 13 3V12C13 12.5523 12.5523 13 12 13C11.4477 13 11 12.5523 11 12V3C11 2.44772 11.4477 2 12 2ZM8.91058 5.55068C9.18422 6.03041 9.01716 6.64114 8.53743 6.91478C6.42229 8.12129 5 10.3952 5 13C5 16.866 8.13401 20 12 20C15.866 20 19 16.866 19 13C19 10.4119 17.596 8.15063 15.5033 6.93821C15.0255 6.66135 14.8625 6.04951 15.1394 5.57164C15.4162 5.09376 16.0281 4.93081 16.5059 5.20767C19.1906 6.76304 21 9.66963 21 13C21 17.9706 16.9706 22 12 22C7.02944 22 3 17.9706 3 13C3 9.648 4.83297 6.72536 7.54648 5.17754C8.02621 4.90389 8.63693 5.07096 8.91058 5.55068Z" fill="#F9C000"/>
</svg>
