<svg width="24" height="24" viewBox="0 0 24 24" fill="none" xmlns="http://www.w3.org/2000/svg">
<path fill-rule="evenodd" clip-rule="evenodd" d="M4.99902 0C4.44674 0 3.99902 0.447715 3.99902 1V5C1.78988 5 -0.000976562 6.79086 -0.000976562 9V17C-0.000976562 17.5523 0.446739 18 0.999023 18H3.99902V23C3.99902 23.5523 4.44674 24 4.99902 24H18.999C19.5513 24 19.999 23.5523 19.999 23V18H22.999C23.5513 18 23.999 17.5523 23.999 17V9C23.999 6.79086 22.2082 5 19.999 5V1C19.999 0.447715 19.5513 0 18.999 0H4.99902ZM17.999 5H5.99902V2H17.999V5ZM5.99902 22V18H17.999V22H5.99902ZM4.99902 7H18.999H19.999C21.1036 7 21.999 7.89543 21.999 9V16H18.999H4.99902H1.99902V9C1.99902 7.89543 2.89445 7 3.99902 7H4.99902ZM17.999 10C16.8945 10 15.999 10.8954 15.999 12C15.999 13.1046 16.8945 14 17.999 14C19.1036 14 19.999 13.1046 19.999 12C19.999 10.8954 19.1036 10 17.999 10Z" fill="#F9C000"/>
</svg>
