<svg width="24" height="24" viewBox="0 0 24 24" fill="none" xmlns="http://www.w3.org/2000/svg">
<path fill-rule="evenodd" clip-rule="evenodd" d="M8 7C8 4.79086 9.79086 3 12 3C14.2091 3 16 4.79086 16 7C16 9.20914 14.2091 11 12 11C9.79086 11 8 9.20914 8 7ZM12 1C8.68629 1 6 3.68629 6 7C6 10.3137 8.68629 13 12 13C15.3137 13 18 10.3137 18 7C18 3.68629 15.3137 1 12 1ZM5.84014 18.5021C7.37887 18.0271 9.62728 17.5 12.0001 17.5C14.373 17.5 16.6214 18.0271 18.1601 18.5021C19.0409 18.774 19.6882 19.5717 19.8466 20.5899L20.012 21.6537C20.0969 22.1994 20.6081 22.573 21.1539 22.4881C21.6996 22.4032 22.0731 21.892 21.9883 21.3463L21.8228 20.2825C21.564 18.6191 20.4625 17.1197 18.7501 16.5911C17.1058 16.0835 14.6462 15.5 12.0001 15.5C9.35405 15.5 6.89449 16.0835 5.25022 16.5911C3.53776 17.1197 2.43626 18.6191 2.1775 20.2825L2.01203 21.3463C1.92714 21.892 2.30071 22.4032 2.84644 22.4881C3.39216 22.573 3.90337 22.1994 3.98826 21.6537L4.15373 20.5899C4.31213 19.5717 4.95936 18.774 5.84014 18.5021Z" fill="#F9C000"/>
</svg>
