<svg width="24" height="24" viewBox="0 0 24 24" fill="none" xmlns="http://www.w3.org/2000/svg">
<path fill-rule="evenodd" clip-rule="evenodd" d="M7 7C7 4.23858 9.23858 2 12 2C14.7614 2 17 4.23858 17 7V8H18.0059C20.0564 8 21.9508 9.5562 22.3515 11.5596L23.5708 17.6559C24.0338 19.971 22.3644 22 20.0092 22H3.9908C1.6308 22 -0.0315073 19.9595 0.429207 17.6559L1.64847 11.5596C2.05122 9.54586 3.9421 8 5.99406 8H7V7ZM7 10V12C7 12.5523 7.44772 13 8 13C8.55229 13 9 12.5523 9 12V10H15V12C15 12.5523 15.4477 13 16 13C16.5523 13 17 12.5523 17 12V10H18.0059C19.103 10 20.1766 10.8832 20.3904 11.9518L21.6096 18.0482C21.8247 19.1234 21.1045 20 20.0092 20H3.9908C2.8965 20 2.17646 19.1177 2.39037 18.0482L3.60963 11.9518C3.82497 10.8752 4.89318 10 5.99406 10H7ZM15 8H9V7C9 5.34315 10.3431 4 12 4C13.6569 4 15 5.34315 15 7V8Z" fill="#F9C000"/>
</svg>
