<svg width="24" height="24" viewBox="0 0 24 24" fill="none" xmlns="http://www.w3.org/2000/svg">
<path fill-rule="evenodd" clip-rule="evenodd" d="M10.5277 3.37375C10.5165 3.39159 10.5 3.42435 10.5 3.5C10.5 3.64201 10.5604 3.78727 10.7809 4.0628C10.8008 4.08775 10.8287 4.12152 10.8611 4.1607C10.9514 4.26985 11.0764 4.42103 11.1607 4.5405C11.2809 4.71083 11.5 5.05141 11.5 5.5C11.5 6.02719 11.2093 6.40069 10.9051 6.61125C10.6389 6.79557 10.3425 6.8763 10.1336 6.91808C9.72215 7.00037 9.2641 7.00013 9.02583 7.00001C9.01691 7 9.00829 7 9 7H8.00602C7.44175 7 7 7.4481 7 7.99547V9.02014C7 9.02924 7.00001 9.03869 7.00001 9.04847C7.00015 9.29402 7.00042 9.74956 6.91714 10.1559C6.87455 10.3637 6.79176 10.6595 6.60185 10.9245C6.38316 11.2296 6.00957 11.5 5.5 11.5C5.25043 11.5 5.06615 11.4079 5.01673 11.3832C4.94109 11.3453 4.87963 11.3045 4.84282 11.279C4.76887 11.2277 4.69194 11.1659 4.63797 11.1224C4.62379 11.111 4.60966 11.0996 4.59554 11.0882C4.4841 10.9981 4.37348 10.9088 4.24501 10.8187C3.93558 10.6016 3.68427 10.5 3.5 10.5C3.42435 10.5 3.39159 10.5165 3.37375 10.5277C3.35103 10.5419 3.30207 10.5807 3.24324 10.6836C3.11453 10.9089 3 11.3366 3 12C3 12.6634 3.11453 13.0911 3.24324 13.3164C3.30207 13.4193 3.35103 13.4581 3.37375 13.4723C3.39159 13.4835 3.42435 13.5 3.5 13.5C3.63391 13.5 3.76132 13.448 4.03178 13.2264C4.05389 13.2083 4.08174 13.1849 4.11368 13.158C4.22439 13.0648 4.38413 12.9302 4.52364 12.8338C4.71926 12.6985 5.05729 12.5 5.5 12.5C5.89883 12.5 6.16505 12.7117 6.28079 12.823C6.40733 12.9446 6.49221 13.0771 6.54505 13.1701C6.65386 13.3616 6.73438 13.5798 6.79243 13.7685C6.90725 14.1418 7 14.6197 7 15V17.9909L6 17.9916L5 17.9916V15.003C4.64897 15.2472 4.15173 15.5 3.5 15.5C2.59205 15.5 1.90903 15.0126 1.50676 14.3086C1.13547 13.6589 1 12.8366 1 12C1 11.1634 1.13547 10.3411 1.50676 9.69136C1.90903 8.98738 2.59205 8.5 3.5 8.5C4.09045 8.5 4.60683 8.70871 5 8.9313V7.99605C5 6.33928 6.34119 5 8.00521 5H8.9873C8.74621 4.64242 8.5 4.14213 8.5 3.5C8.5 2.59205 8.98738 1.90903 9.69136 1.50676C10.3411 1.13547 11.1634 1 12 1C12.8366 1 13.6589 1.13547 14.3086 1.50676C15.0126 1.90903 15.5 2.59205 15.5 3.5C15.5 4.14213 15.2538 4.64242 15.0127 5H17.9909L17.9916 6L17.9916 7H15C14.9917 7 14.9831 7 14.9742 7.00001C14.7359 7.00013 14.2778 7.00037 13.8664 6.91808C13.6575 6.8763 13.3611 6.79557 13.0949 6.61125C12.7907 6.40069 12.5 6.02719 12.5 5.5C12.5 5.05141 12.7191 4.71083 12.8393 4.5405C12.9236 4.42103 13.0486 4.26985 13.1389 4.1607C13.1713 4.12152 13.1992 4.08775 13.2191 4.0628C13.4396 3.78727 13.5 3.64201 13.5 3.5C13.5 3.42435 13.4835 3.39159 13.4723 3.37375C13.4581 3.35103 13.4193 3.30207 13.3164 3.24324C13.0911 3.11453 12.6634 3 12 3C11.3366 3 10.9089 3.11453 10.6836 3.24324C10.5807 3.30207 10.5419 3.35103 10.5277 3.37375ZM19 8.9873V8.00573C19 7.45293 18.5494 7 17.9916 7L17.9916 6L17.9909 5C19.6515 5 21 6.34633 21 8.00544V9.01343C21 9.02146 21 9.02982 21 9.03849C21.0001 9.27094 21.0004 9.72603 20.9179 10.1363C20.876 10.3445 20.7951 10.6404 20.6107 10.9062C20.4002 11.2096 20.0269 11.5 19.5 11.5C19.0514 11.5 18.7108 11.2809 18.5405 11.1607C18.421 11.0764 18.2698 10.9514 18.1607 10.8611C18.1215 10.8287 18.0877 10.8008 18.0628 10.7809C17.7873 10.5604 17.642 10.5 17.5 10.5C17.4243 10.5 17.3916 10.5165 17.3737 10.5277C17.351 10.5419 17.3021 10.5807 17.2432 10.6836C17.1145 10.9089 17 11.3366 17 12C17 12.6634 17.1145 13.0911 17.2432 13.3164C17.3021 13.4193 17.351 13.4581 17.3737 13.4723C17.3916 13.4835 17.4243 13.5 17.5 13.5C17.642 13.5 17.7873 13.4396 18.0628 13.2191C18.0877 13.1992 18.1215 13.1713 18.1607 13.1389C18.2698 13.0486 18.421 12.9236 18.5405 12.8393C18.7108 12.7191 19.0514 12.5 19.5 12.5C20.0272 12.5 20.4007 12.7907 20.6113 13.0949C20.7956 13.3611 20.8763 13.6575 20.9181 13.8664C21.0004 14.2778 21.0001 14.7359 21 14.9742C21 14.9831 21 14.9917 21 15V17.9909C21 19.6529 19.6512 21 17.9916 21H15C14.9917 21 14.9831 21 14.9742 21C14.7359 21.0001 14.2778 21.0004 13.8664 20.9181C13.6575 20.8763 13.3611 20.7956 13.0949 20.6113C12.7907 20.4007 12.5 20.0272 12.5 19.5C12.5 19.0514 12.7191 18.7108 12.8393 18.5405C12.9236 18.421 13.0486 18.2698 13.1389 18.1607C13.1713 18.1215 13.1992 18.0877 13.2191 18.0628C13.4396 17.7873 13.5 17.642 13.5 17.5C13.5 17.4243 13.4835 17.3916 13.4723 17.3737C13.4581 17.351 13.4193 17.3021 13.3164 17.2432C13.0911 17.1145 12.6634 17 12 17C11.3366 17 10.9089 17.1145 10.6836 17.2432C10.5807 17.3021 10.5419 17.351 10.5277 17.3737C10.5165 17.3916 10.5 17.4243 10.5 17.5C10.5 17.642 10.5604 17.7873 10.7809 18.0628C10.8008 18.0877 10.8287 18.1215 10.8611 18.1607C10.9514 18.2698 11.0764 18.421 11.1607 18.5405C11.2809 18.7108 11.5 19.0514 11.5 19.5C11.5 20.0272 11.2093 20.4007 10.9051 20.6113C10.6389 20.7956 10.3425 20.8763 10.1336 20.9181C9.72215 21.0004 9.26409 21.0001 9.02583 21C9.0169 21 9.00829 21 9 21H8.00602C6.34431 21 5 19.6496 5 17.9916L6 17.9916L7 17.9909C7 18.5483 7.45202 19 8.00521 19H8.9873C8.74621 18.6424 8.5 18.1421 8.5 17.5C8.5 16.5921 8.98738 15.909 9.69136 15.5068C10.3411 15.1355 11.1634 15 12 15C12.8366 15 13.6589 15.1355 14.3086 15.5068C15.0126 15.909 15.5 16.5921 15.5 17.5C15.5 18.1421 15.2538 18.6424 15.0127 19H17.9916C18.5475 19 19 18.548 19 17.9916V15.0127C18.6424 15.2538 18.1421 15.5 17.5 15.5C16.5921 15.5 15.909 15.0126 15.5068 14.3086C15.1355 13.6589 15 12.8366 15 12C15 11.1634 15.1355 10.3411 15.5068 9.69136C15.909 8.98738 16.5921 8.5 17.5 8.5C18.1421 8.5 18.6424 8.74621 19 8.9873ZM19.7319 9.551C19.732 9.55129 19.7285 9.54955 19.721 9.54493C19.7281 9.54841 19.7318 9.55071 19.7319 9.551ZM19.7319 14.449C19.7319 14.4493 19.7281 14.4516 19.721 14.4551C19.7285 14.4505 19.732 14.4487 19.7319 14.449ZM14.449 19.7319C14.4487 19.732 14.4505 19.7285 14.4551 19.721C14.4516 19.7281 14.4493 19.7319 14.449 19.7319ZM9.551 19.7319C9.55072 19.7319 9.54842 19.7281 9.54493 19.721C9.54954 19.7285 9.55128 19.732 9.551 19.7319ZM14.449 5.73195C14.4487 5.73204 14.4505 5.72848 14.4551 5.72102C14.4516 5.72813 14.4493 5.73186 14.449 5.73195ZM9.551 5.73195C9.55072 5.73186 9.54842 5.72814 9.54493 5.72102C9.54954 5.72848 9.55128 5.73203 9.551 5.73195Z" fill="#F9C000"/>
</svg>
