<svg width="24" height="24" viewBox="0 0 24 24" fill="none" xmlns="http://www.w3.org/2000/svg">
<path fill-rule="evenodd" clip-rule="evenodd" d="M11.609 4.00488C13.2974 3.94592 14.9611 4.42298 16.3617 5.3677C17.5547 6.17236 18.5046 7.28109 19.117 8.57311L17.9866 8.74074C17.4403 8.82175 17.0631 9.3303 17.1441 9.87661C17.2251 10.4229 17.7337 10.8001 18.28 10.7191L20.8469 10.3385C21.1583 10.2923 21.4297 10.1022 21.5796 9.82543L22.8153 7.54348C23.0782 7.05782 22.8977 6.45093 22.4121 6.18796C21.9264 5.92498 21.3195 6.1055 21.0565 6.59115L20.6939 7.26086C19.9295 5.84056 18.8291 4.61956 17.4801 3.70963C15.7294 2.52873 13.6497 1.93239 11.5392 2.00609C9.42868 2.07979 7.39568 2.81974 5.73156 4.11989C4.06745 5.42004 2.85765 7.21364 2.27556 9.24363C2.12333 9.77452 2.43029 10.3283 2.96118 10.4805C3.49208 10.6328 4.04585 10.3258 4.19808 9.7949C4.66376 8.17091 5.63159 6.73603 6.96289 5.69592C8.29418 4.6558 9.92058 4.06384 11.609 4.00488ZM12.0364 19.9986C10.4886 20.0273 8.96574 19.6063 7.65247 18.7867C6.55464 18.1015 5.6427 17.1623 4.99086 16.053L5.86055 15.9241C6.40686 15.843 6.78406 15.3345 6.70304 14.7882C6.62203 14.2419 6.11348 13.8647 5.56717 13.9457L3.00022 14.3263C2.68887 14.3725 2.41743 14.5626 2.26755 14.8394L1.03191 17.1213C0.768929 17.607 0.949447 18.2139 1.4351 18.4768C1.92076 18.7398 2.52765 18.5593 2.79062 18.0736L3.30287 17.1276C4.11509 18.4876 5.24154 19.6395 6.59355 20.4833C8.23513 21.5079 10.1387 22.0341 12.0735 21.9983C14.0082 21.9624 15.891 21.366 17.4935 20.2813C19.096 19.1967 20.3494 17.6704 21.1016 15.8875C21.3163 15.3787 21.0779 14.7921 20.569 14.5774C20.0602 14.3627 19.4736 14.6012 19.2589 15.11C18.6571 16.5363 17.6544 17.7573 16.3724 18.6251C15.0904 19.4928 13.5842 19.9699 12.0364 19.9986Z" fill="#F9C000"/>
</svg>
