<svg width="24" height="24" viewBox="0 0 24 24" fill="none" xmlns="http://www.w3.org/2000/svg">
<path fill-rule="evenodd" clip-rule="evenodd" d="M13.0873 2.64435C12.5356 2.64435 12.0884 3.09257 12.0884 3.64547C12.0884 4.19838 12.5356 4.6466 13.0873 4.6466L17.8348 4.6466L12.912 9.58048C12.5219 9.97145 12.5219 10.6053 12.912 10.9963C13.3021 11.3873 13.9346 11.3873 14.3246 10.9963L19.3628 5.94673V10.9363C19.3628 11.4892 19.81 11.9374 20.3617 11.9374C20.9134 11.9374 21.3606 11.4892 21.3606 10.9363V3.64547C21.3606 3.37996 21.2553 3.12532 21.068 2.93757C20.8807 2.74982 20.6266 2.64435 20.3617 2.64435H13.0873ZM10.9119 21.3557H3.63744C3.37252 21.3557 3.11845 21.2502 2.93113 21.0625C2.7438 20.8747 2.63857 20.6201 2.63857 20.3546V13.0637C2.63857 12.5108 3.08578 12.0626 3.63744 12.0626C4.1891 12.0626 4.63631 12.5108 4.63631 13.0637V17.8177L9.67646 12.7662C10.0665 12.3752 10.699 12.3752 11.0891 12.7662C11.4792 13.1572 11.4792 13.791 11.0891 14.182L5.92927 19.3534H10.9119C11.4635 19.3534 11.9107 19.8017 11.9107 20.3546C11.9107 20.9075 11.4635 21.3557 10.9119 21.3557Z" fill="#F9C000"/>
</svg>
