<svg width="24" height="24" viewBox="0 0 24 24" fill="none" xmlns="http://www.w3.org/2000/svg">
<path fill-rule="evenodd" clip-rule="evenodd" d="M12 3C8.6863 3 6 5.68629 6 9C6 12.3137 8.6863 15 12 15C15.3137 15 18 12.3137 18 9C18 5.68629 15.3137 3 12 3ZM4 9C4 4.58172 7.58173 1 12 1C16.4183 1 20 4.58172 20 9C20 10.5453 19.5618 11.9884 18.803 13.2116L21.8622 18.5103C22.0644 18.8605 22.0357 19.2981 21.7895 19.619C21.5433 19.9399 21.128 20.0809 20.7373 19.9762L17.6052 19.1369L16.7659 22.2691C16.6612 22.6598 16.3315 22.9489 15.9305 23.0017C15.5295 23.0545 15.1362 22.8605 14.934 22.5103L11.9981 17.4251L9.06218 22.5103C8.85995 22.8605 8.46663 23.0545 8.06563 23.0017C7.66463 22.9489 7.33491 22.6598 7.23023 22.2691L6.39097 19.1369L3.25882 19.9762C2.86814 20.0809 2.45287 19.9399 2.20665 19.619C1.96043 19.2981 1.93175 18.8605 2.13398 18.5103L5.19504 13.2083C4.4374 11.9858 4 10.544 4 9ZM6.55189 14.8582L5.07314 17.4195L6.83926 16.9463C7.37273 16.8033 7.92106 17.1199 8.06401 17.6534L8.53724 19.4195L10.0695 16.7655C8.7327 16.4343 7.52853 15.7669 6.55189 14.8582ZM13.9271 16.7664L15.4589 19.4195L15.9321 17.6534C16.0751 17.1199 16.6234 16.8033 17.1569 16.9463L18.923 17.4195L17.4456 14.8605C16.4686 15.7688 15.2641 16.4357 13.9271 16.7664ZM12 5C12.3821 5 12.7308 5.21774 12.8985 5.56108L13.5418 6.87791L14.993 7.08277C15.3713 7.13618 15.6862 7.40053 15.8042 7.76393C15.9223 8.12734 15.823 8.52626 15.5483 8.79186L14.4947 9.81057L14.7483 11.254C14.8144 11.6303 14.6603 12.0115 14.3511 12.2361C14.042 12.4607 13.6319 12.4895 13.2944 12.3103L12 11.623L10.7056 12.3103C10.3681 12.4895 9.95799 12.4607 9.64886 12.2361C9.33973 12.0115 9.18561 11.6303 9.25173 11.254L9.50534 9.81057L8.45173 8.79186C8.17703 8.52626 8.0777 8.12734 8.19578 7.76393C8.31385 7.40053 8.6287 7.13618 9.00705 7.08277L10.4582 6.87791L11.1015 5.56108C11.2692 5.21774 11.6179 5 12 5ZM12 8.27564C11.8565 8.53675 11.6038 8.72036 11.3111 8.77616C11.5151 8.99334 11.6116 9.29042 11.5742 9.58602C11.8438 9.45913 12.1562 9.45913 12.4258 9.58602C12.3884 9.29042 12.4849 8.99334 12.6889 8.77616C12.3962 8.72036 12.1435 8.53675 12 8.27564Z" fill="#F9C000"/>
</svg>
