<svg width="24" height="24" viewBox="0 0 24 24" fill="none" xmlns="http://www.w3.org/2000/svg">
<path fill-rule="evenodd" clip-rule="evenodd" d="M19.9617 1.72529C20.0542 2.04929 19.9759 2.38165 19.7801 2.62602L22.9661 10.8188C22.9909 10.8824 23.0017 10.948 23.0001 11.0122C22.9935 13.2158 21.2052 15 19.0001 15C16.7951 15 15.0067 13.2157 15.0002 11.0122C14.9986 10.948 15.0094 10.8824 15.0341 10.8188L17.9416 3.34247L14.9946 4.18448C14.9202 5.41006 14.1101 6.437 13.0001 6.82931V20H14.0559C14.6082 20 15.0559 20.4532 15.0559 21H18.9996C19.5522 21 20.0001 21.4439 20.0001 22V23H4.00013V22C4.00013 21.4477 4.44385 21 4.99994 21H9.00013C9.00013 20.4477 9.4553 20 10.0001 20H11.0001V6.82931C10.413 6.6218 9.90983 6.23674 9.55501 5.73864L5.84697 6.79808L8.96614 14.8188C8.99087 14.8824 9.00171 14.948 9.00012 15.0122C8.99354 17.2157 7.20521 19 5.00013 19C2.79506 19 1.00672 17.2157 1.00015 15.0122C0.998561 14.948 1.0094 14.8824 1.03413 14.8188L4.53413 5.81879C4.59174 5.67065 4.85227 5.00225 5.00013 4.96L9.00571 3.81555C9.10101 2.2446 10.4052 1.00001 12.0001 1.00001C13.0089 1.00001 13.9014 1.49792 14.4453 2.26139L18.7254 1.03849C19.2564 0.886765 19.8099 1.19426 19.9617 1.72529ZM19.0001 3.37953L21.9637 11H16.0366L19.0001 3.37953ZM7.96366 15L5.00013 7.37953L2.03661 15H7.96366ZM12.0001 3.00001C11.4478 3.00001 11.0001 3.44773 11.0001 4.00001C11.0001 4.5523 11.4478 5.00001 12.0001 5.00001C12.5524 5.00001 13.0001 4.5523 13.0001 4.00001C13.0001 3.44773 12.5524 3.00001 12.0001 3.00001Z" fill="#F9C000"/>
</svg>
