<svg width="24" height="24" viewBox="0 0 24 24" fill="none" xmlns="http://www.w3.org/2000/svg">
<path fill-rule="evenodd" clip-rule="evenodd" d="M17.1717 3H17.1527H17.1229H17.0931H17.0632H17.0331H17.003H16.9728H16.9425H16.912H16.8815H16.8509H16.8202H16.7894H16.7586H16.7276H16.6965H16.6654H16.6342H16.6028H16.5714H16.5399H16.5084H16.4767H16.445H16.4131H16.3812H16.3493H16.3172H16.2851H16.2529H16.2206H16.1882H16.1558H16.1233H16.0907H16.058H16.0253H15.9925H15.9597H15.9267H15.8937H15.8607H15.8276H15.7944H15.7611H15.7278H15.6944H15.661H15.6275H15.5939H15.5603H15.5267H15.4929H15.4591H15.4253H15.3914H15.3575H15.3235H15.2894H15.2554H15.2212H15.187H15.1528H15.1185H15.0842H15.0498H15.0154H14.9809H14.9464H14.9119H14.8773H14.8427H14.808H14.7734H14.7386H14.7039H14.6691H14.6342H14.5994H14.5645H14.5295H14.4946H14.4596H14.4246H14.3895H14.3544H14.3194H14.2842H14.2491H14.2139H14.1787H14.1435H14.1083H14.073H14.0378H14.0025H13.9672H13.9319H13.8965H13.8612H13.8258H13.7904H13.7551H13.7197H13.6843H13.6489H13.6134H13.578H13.5426H13.5071H13.4717H13.4362H13.4008H13.3654H13.3299H13.2945H13.259H13.2236H13.1881H13.1527H13.1172H13.0818H13.0464H13.011H12.9756H12.9402H12.9048H12.8694H12.8341H12.7987H12.7634H12.7281H12.6927H12.6575H12.6222H12.5869H12.5517H12.5165H12.4813H12.4461H12.411H12.3758H12.3407H12.3057H12.2706H12.2356H12.2006H12.1656H12.1307H12.0958H12.0609H12.0261H11.9913H11.9565H11.9218H11.8871H11.8524H11.8178H11.7832H11.7486H11.7141H11.6797H11.6452H11.6109H11.5765H11.5422H11.508H11.4738H11.4396H11.4055H11.3715H11.3375H11.3035H11.2696H11.2358H11.202H11.1683H11.1346H11.101H11.0674H11.0339H11.0004H10.967H10.9337H10.9005H10.8672H10.8341H10.801H10.768H10.7351H10.7022H10.6694H10.6367H10.604H10.5714H10.5389H10.5064H10.4741H10.4418H10.4095H10.3774H10.3453H10.3133H10.2814H10.2496H10.2178H10.1861H10.1545H10.123H10.0916H10.0603H10.029H9.99785H9.96678H9.93579H9.90489H9.87408H9.84337H9.81275H9.78222H9.75178H9.72144H9.69119H9.66105H9.631H9.60105H9.57119H9.54144H9.51179H9.48225H9.4528H9.42346H9.39423H9.3651H9.33607H9.30716H9.27835H9.24966H9.22107H9.19259H9.16423H9.13598H9.10784H9.07982H9.05192H9.02413H8.99646H8.9689H8.94147H8.91415H8.88696H8.85989H8.83294H8.80612H8.77942H8.75284H8.72639H8.70007H8.67388H8.64782H8.62189H8.59608H8.57041H8.54487H8.51947H8.4942H8.46907H8.44407H8.41921H8.39448H8.3699H8.34546H8.32115H8.29699H8.27297H8.24909H8.22536H8.20178H8.17834H8.15504H8.1319H8.1089H8.08605H8.06336H8.04081H8.01842H7.99618H7.97409H7.95216H7.93039H7.90877H7.88731H7.86601H7.84487H7.82389H7.80307H7.78241H7.76192H7.74158H7.72142H7.70142H7.68158H7.66192H7.64242H7.62309H7.60393H7.58495H7.56613H7.54749H7.52902H7.51073H7.49261H7.47467H7.45691H7.43932H7.42191H7.40469H7.38764H7.37078H7.3541H7.3376H7.32129H7.30516H7.28922H7.27347H7.2579H7.24252H7.22734H7.21234H7.19754H7.18293H7.16851H7.15428H7.14025H7.12642H7.11279H7.09935H7.08611H7.07307H7.06023H7.0476H7.03516H7.02293H7.01091H6.99908C6.67407 3 6.49679 3.07838 6.39753 3.14455C6.29202 3.21489 6.2092 3.31584 6.14351 3.44721C6.07587 3.5825 6.03706 3.72989 6.01673 3.8519C6.00696 3.91053 6.00246 3.95721 6.00045 3.98531C5.99962 3.99696 5.99924 4.00504 5.99908 4.00902V16H13.9991C14.5514 16 14.9991 16.4477 14.9991 17V19.991C14.9992 19.995 14.9996 20.003 15.0004 20.0147C15.0025 20.0428 15.007 20.0895 15.0167 20.1481C15.0371 20.2701 15.0759 20.4175 15.1435 20.5528C15.2092 20.6842 15.292 20.7851 15.3975 20.8554C15.4968 20.9216 15.6741 21 15.9991 21C16.3241 21 16.5014 20.9216 16.6006 20.8554C16.7061 20.7851 16.789 20.6842 16.8547 20.5528C16.9223 20.4175 16.9611 20.2701 16.9814 20.1481C16.9912 20.0895 16.9957 20.0428 16.9977 20.0147C16.9986 20.003 16.9989 19.995 16.9991 19.991V7V4H17.9991C16.9991 4 16.9991 3.9995 16.9991 3.999L16.9991 3.99795L16.9991 3.9957L16.9991 3.99061L16.9993 3.97814C16.9994 3.96881 16.9997 3.95746 17.0001 3.94422C17.001 3.91778 17.0026 3.88362 17.0055 3.84282C17.0113 3.76154 17.0225 3.65197 17.0439 3.5231C17.0684 3.37651 17.1076 3.19646 17.1717 3ZM3.99908 16V4H4.99908C3.99908 4 3.99908 3.9995 3.99908 3.999L3.99909 3.99795L3.99909 3.9957L3.99912 3.99061L3.99928 3.97814C3.99943 3.96881 3.99969 3.95746 4.00013 3.94422C4.00101 3.91778 4.00262 3.88362 4.00553 3.84282C4.01134 3.76154 4.02246 3.65197 4.04394 3.5231C4.08611 3.27011 4.1723 2.9175 4.35466 2.55279C4.53897 2.18416 4.83115 1.78511 5.28813 1.48045C5.75138 1.17162 6.3241 1 6.99908 1H7.01091H7.02293H7.03516H7.0476H7.06023H7.07307H7.08611H7.09935H7.11279H7.12642H7.14025H7.15428H7.16851H7.18293H7.19754H7.21234H7.22734H7.24252H7.2579H7.27347H7.28922H7.30516H7.32129H7.3376H7.3541H7.37078H7.38764H7.40469H7.42191H7.43932H7.45691H7.47467H7.49261H7.51073H7.52902H7.54749H7.56613H7.58495H7.60393H7.62309H7.64242H7.66192H7.68158H7.70142H7.72142H7.74158H7.76192H7.78241H7.80307H7.82389H7.84487H7.86601H7.88731H7.90877H7.93039H7.95216H7.97409H7.99618H8.01842H8.04081H8.06336H8.08605H8.1089H8.1319H8.15504H8.17834H8.20178H8.22536H8.24909H8.27297H8.29699H8.32115H8.34546H8.3699H8.39448H8.41921H8.44407H8.46907H8.4942H8.51947H8.54487H8.57041H8.59608H8.62189H8.64782H8.67388H8.70007H8.72639H8.75284H8.77942H8.80612H8.83294H8.85989H8.88696H8.91415H8.94147H8.9689H8.99646H9.02413H9.05192H9.07982H9.10784H9.13598H9.16423H9.19259H9.22107H9.24966H9.27835H9.30716H9.33607H9.3651H9.39423H9.42346H9.4528H9.48225H9.51179H9.54144H9.57119H9.60105H9.631H9.66105H9.69119H9.72144H9.75178H9.78222H9.81275H9.84337H9.87408H9.90489H9.93579H9.96678H9.99785H10.029H10.0603H10.0916H10.123H10.1545H10.1861H10.2178H10.2496H10.2814H10.3133H10.3453H10.3774H10.4095H10.4418H10.4741H10.5064H10.5389H10.5714H10.604H10.6367H10.6694H10.7022H10.7351H10.768H10.801H10.8341H10.8672H10.9005H10.9337H10.967H11.0004H11.0339H11.0674H11.101H11.1346H11.1683H11.202H11.2358H11.2696H11.3035H11.3375H11.3715H11.4055H11.4396H11.4738H11.508H11.5422H11.5765H11.6109H11.6452H11.6797H11.7141H11.7486H11.7832H11.8178H11.8524H11.8871H11.9218H11.9565H11.9913H12.0261H12.0609H12.0958H12.1307H12.1656H12.2006H12.2356H12.2706H12.3057H12.3407H12.3758H12.411H12.4461H12.4813H12.5165H12.5517H12.5869H12.6222H12.6575H12.6927H12.7281H12.7634H12.7987H12.8341H12.8694H12.9048H12.9402H12.9756H13.011H13.0464H13.0818H13.1172H13.1527H13.1881H13.2236H13.259H13.2945H13.3299H13.3654H13.4008H13.4362H13.4717H13.5071H13.5426H13.578H13.6134H13.6489H13.6843H13.7197H13.7551H13.7904H13.8258H13.8612H13.8965H13.9319H13.9672H14.0025H14.0378H14.073H14.1083H14.1435H14.1787H14.2139H14.2491H14.2842H14.3194H14.3544H14.3895H14.4246H14.4596H14.4946H14.5295H14.5645H14.5994H14.6342H14.6691H14.7039H14.7386H14.7734H14.808H14.8427H14.8773H14.9119H14.9464H14.9809H15.0154H15.0498H15.0842H15.1185H15.1528H15.187H15.2212H15.2554H15.2894H15.3235H15.3575H15.3914H15.4253H15.4591H15.4929H15.5267H15.5603H15.5939H15.6275H15.661H15.6944H15.7278H15.7611H15.7944H15.8276H15.8607H15.8937H15.9267H15.9597H15.9925H16.0253H16.058H16.0907H16.1233H16.1558H16.1882H16.2206H16.2529H16.2851H16.3172H16.3493H16.3812H16.4131H16.445H16.4767H16.5084H16.5399H16.5714H16.6028H16.6342H16.6654H16.6965H16.7276H16.7586H16.7894H16.8202H16.8509H16.8815H16.912H16.9425H16.9728H17.003H17.0331H17.0632H17.0931H17.1229H17.1527H17.1823H17.2118H17.2412H17.2706H17.2998H17.3289H17.3579H17.3868H17.4156H17.4442H17.4728H17.5013H17.5296H17.5578H17.5859H17.6139H17.6418H17.6696H17.6972H17.7248H17.7522H17.7795H17.8066H17.8337H17.8606H17.8874H17.9141H17.9406H17.967H17.9933H18.0195H18.0455H18.0715H18.0972H18.1229H18.1484H18.1738H18.199H18.2241H18.2491H18.2739H18.2986H18.3232H18.3476H18.3719H18.396H18.42H18.4438H18.4675H18.4911H18.5145H18.5378H18.5609H18.5839H18.6067H18.6293H18.6518H18.6742H18.6964H18.7185H18.7404H18.7621H18.7837H18.8051H18.8264H18.8475H18.8685H18.8892H18.9099H18.9303H18.9506H18.9708H18.9907H19.0105H19.0302H19.0496H19.0689H19.088H19.107H19.1258H19.1444H19.1628H19.1811H19.1992H19.2171H19.2348H19.2523H19.2697H19.2869H19.3039H19.3207H19.3374H19.3538H19.3701H19.3862H19.4021H19.4178H19.4334H19.4487H19.4638H19.4788H19.4936H19.5081H19.5225H19.5367H19.5507H19.5645H19.5781H19.5915H19.6047H19.6177H19.6305H19.6431H19.6555H19.6677H19.6796H19.6914H19.703H19.7144H19.7255H19.7365H19.7472H19.7577H19.7681H19.7782H19.7881H19.7977H19.8072H19.8165H19.8255H19.8343H19.8429H19.8513H19.8594H19.8674H19.8751H19.8825H19.8898H19.8969H19.9037H19.9102H19.9166H19.9227H19.9286H19.9343H19.9397H19.945H19.9499H19.9547H19.9592H19.9634H19.9675H19.9713H19.9748H19.9781H19.9812H19.9841H19.9866H19.989H19.9911H19.993H19.9946H19.996H19.9971H19.998H19.9986H19.999H19.9991C20.6741 1 21.2468 1.17162 21.71 1.48045C22.167 1.78511 22.4592 2.18416 22.6435 2.55279C22.8259 2.9175 22.9121 3.27011 22.9542 3.5231C22.9757 3.65197 22.9868 3.76154 22.9926 3.84282C22.9956 3.88362 22.9972 3.91778 22.998 3.94422L22.9986 3.9625L22.9989 3.97814L22.999 3.99061L22.9991 3.9957L22.9991 3.99795L22.9991 3.999C22.9991 3.9995 22.9991 4 21.9991 4H22.9991V7C22.9991 7.55228 22.5514 8 21.9991 8H18.9991V20H17.9991C18.9991 20 18.9991 20.0005 18.9991 20.001L18.9991 20.0021L18.9991 20.0043L18.999 20.0094L18.9989 20.0219C18.9987 20.0312 18.9985 20.0425 18.998 20.0558C18.9972 20.0822 18.9956 20.1164 18.9926 20.1572C18.9868 20.2385 18.9757 20.348 18.9542 20.4769C18.9121 20.7299 18.8259 21.0825 18.6435 21.4472C18.4592 21.8158 18.167 22.2149 17.71 22.5196C17.2468 22.8284 16.6741 23 15.9991 23H15.9873H15.9754H15.9633H15.9511H15.9388H15.9263H15.9137H15.901H15.8881H15.8751H15.862H15.8487H15.8353H15.8218H15.8082H15.7944H15.7805H15.7664H15.7523H15.738H15.7235H15.709H15.6943H15.6795H15.6646H15.6496H15.6344H15.6191H15.6037H15.5881H15.5725H15.5567H15.5408H15.5248H15.5086H15.4924H15.476H15.4595H15.4429H15.4262H15.4094H15.3924H15.3753H15.3581H15.3408H15.3234H15.3059H15.2883H15.2705H15.2527H15.2347H15.2166H15.1984H15.1801H15.1617H15.1432H15.1246H15.1059H15.087H15.0681H15.049H15.0299H15.0106H14.9913H14.9718H14.9522H14.9326H14.9128H14.893H14.873H14.8529H14.8327H14.8125H14.7921H14.7717H14.7511H14.7304H14.7097H14.6888H14.6679H14.6469H14.6257H14.6045H14.5832H14.5618H14.5403H14.5187H14.497H14.4753H14.4534H14.4314H14.4094H14.3873H14.3651H14.3428H14.3204H14.2979H14.2753H14.2527H14.23H14.2072H14.1843H14.1613H14.1382H14.1151H14.0919H14.0686H14.0452H14.0217H13.9982H13.9746H13.9509H13.9271H13.9032H13.8793H13.8553H13.8312H13.8071H13.7829H13.7586H13.7342H13.7097H13.6852H13.6606H13.636H13.6113H13.5865H13.5616H13.5366H13.5116H13.4866H13.4614H13.4362H13.411H13.3856H13.3602H13.3347H13.3092H13.2836H13.258H13.2322H13.2065H13.1806H13.1547H13.1288H13.1027H13.0767H13.0505H13.0243H12.9981H12.9718H12.9454H12.919H12.8925H12.866H12.8394H12.8127H12.786H12.7593H12.7325H12.7056H12.6787H12.6518H12.6248H12.5977H12.5706H12.5435H12.5163H12.489H12.4617H12.4344H12.407H12.3796H12.3521H12.3246H12.2971H12.2695H12.2418H12.2141H12.1864H12.1586H12.1308H12.103H12.0751H12.0472H12.0192H11.9912H11.9632H11.9351H11.907H11.8788H11.8506H11.8224H11.7942H11.7659H11.7376H11.7092H11.6809H11.6524H11.624H11.5955H11.567H11.5385H11.51H11.4814H11.4528H11.4241H11.3954H11.3668H11.338H11.3093H11.2805H11.2517H11.2229H11.1941H11.1652H11.1364H11.1075H11.0785H11.0496H11.0206H10.9917H10.9627H10.9337H10.9046H10.8756H10.8465H10.8174H10.7883H10.7592H10.7301H10.701H10.6718H10.6427H10.6135H10.5843H10.5551H10.5259H10.4967H10.4675H10.4382H10.409H10.3797H10.3505H10.3212H10.292H10.2627H10.2334H10.2041H10.1748H10.1456H10.1163H10.087H10.0577H10.0284H9.99908H9.96979H9.94049H9.9112H9.8819H9.85261H9.82332H9.79404H9.76476H9.73548H9.70621H9.67694H9.64768H9.61842H9.58917H9.55993H9.5307H9.50148H9.47226H9.44306H9.41386H9.38468H9.3555H9.32634H9.2972H9.26806H9.23894H9.20983H9.18073H9.15166H9.12259H9.09354H9.06451H9.0355H9.00651H8.97753H8.94857H8.91963H8.89071H8.86181H8.83293H8.80407H8.77524H8.74643H8.71764H8.68887H8.66013H8.63141H8.60272H8.57406H8.54542H8.5168H8.48822H8.45966H8.43113H8.40263H8.37416H8.34572H8.31731H8.28893H8.26058H8.23227H8.20399H8.17574H8.14752H8.11934H8.0912H8.06308H8.03501H8.00697H7.97897H7.95101H7.92308H7.89519H7.86735H7.83954H7.81177H7.78404H7.75636H7.72871H7.70111H7.67355H7.64604H7.61857H7.59114H7.56376H7.53642H7.50913H7.48189H7.45469H7.42754H7.40044H7.37339H7.34639H7.31944H7.29254H7.26569H7.23889H7.21214H7.18545H7.1588H7.13222H7.10568H7.0792H7.05278H7.02641H7.0001H6.97385H6.94765H6.92151H6.89543H6.86941H6.84344H6.81754H6.7917H6.76592H6.7402H6.71455H6.68895H6.66342H6.63795H6.61255H6.58722H6.56194H6.53674H6.5116H6.48653H6.46152H6.43658H6.41172H6.38692H6.36219H6.33753H6.31294H6.28843H6.26398H6.23961H6.21531H6.19108H6.16693H6.14285H6.11885H6.09493H6.07108H6.0473H6.02361H5.99999H5.97645H5.95299H5.9296H5.9063H5.88308H5.85994H5.83688H5.8139H5.79101H5.7682H5.74547H5.72283H5.70027H5.6778H5.65541H5.63311H5.61089H5.58877H5.56673H5.54478H5.52292H5.50114H5.47946H5.45787H5.43637H5.41496H5.39365H5.37243H5.3513H5.33026H5.30932H5.28847H5.26772H5.24707H5.22651H5.20605H5.18569H5.16542H5.14525H5.12519H5.10522H5.08535H5.06559H5.04592H5.02636H5.0069H4.98754H4.96829H4.94914H4.93009H4.91115H4.89232H4.87359H4.85497H4.83645H4.81804H4.79975H4.78156H4.76348H4.74551H4.72765H4.7099H4.69226H4.67474H4.65733H4.64003H4.62284H4.60577H4.58882H4.57198H4.55525H4.53864H4.52215H4.50578H4.48952H4.47338H4.45737H4.44147H4.42569H4.41003H4.39449H4.37908H4.36379H4.34862H4.33357H4.31865H4.30385H4.28918H4.27463H4.26021H4.24592H4.23175H4.21771H4.2038H4.19001H4.17636H4.16284H4.14944H4.13618H4.12305H4.11005H4.09718H4.08445H4.07185H4.05938H4.04705H4.03486H4.0228H4.01087H3.99908C3.3241 23 2.75138 22.8284 2.28813 22.5196C1.83115 22.2149 1.53897 21.8158 1.35466 21.4472C1.1723 21.0825 1.08611 20.7299 1.04394 20.4769C1.02246 20.348 1.01134 20.2385 1.00553 20.1572C1.00262 20.1164 1.00101 20.0822 1.00013 20.0558C0.999687 20.0425 0.999426 20.0312 0.999276 20.0219L0.999124 20.0094L0.999093 20.0043L0.999086 20.0021L0.999084 20.001C0.999084 20.0005 0.999084 20 1.99908 20H0.999084V17C0.999084 16.4477 1.4468 16 1.99908 16H3.99908ZM18.9991 6V4.00903C18.9992 4.00504 18.9996 3.99697 19.0005 3.98531C19.0025 3.95721 19.007 3.91053 19.0167 3.8519C19.0371 3.72989 19.0759 3.5825 19.1435 3.44721C19.2092 3.31584 19.292 3.21489 19.3975 3.14455C19.4968 3.07838 19.6741 3 19.9991 3C20.3241 3 20.5014 3.07838 20.6006 3.14455C20.7061 3.21489 20.789 3.31584 20.8547 3.44721C20.9223 3.5825 20.9611 3.72989 20.9814 3.8519C20.9912 3.91053 20.9957 3.95721 20.9977 3.98531C20.9986 3.99697 20.9989 4.00504 20.9991 4.00903V6H18.9991ZM13.0439 20.4769C13.0684 20.6235 13.1076 20.8035 13.1717 21H13.1547H13.1288H13.1027H13.0767H13.0505H13.0243H12.9981H12.9718H12.9454H12.919H12.8925H12.866H12.8394H12.8127H12.786H12.7593H12.7325H12.7056H12.6787H12.6518H12.6248H12.5977H12.5706H12.5435H12.5163H12.489H12.4617H12.4344H12.407H12.3796H12.3521H12.3246H12.2971H12.2695H12.2418H12.2141H12.1864H12.1586H12.1308H12.103H12.0751H12.0472H12.0192H11.9912H11.9632H11.9351H11.907H11.8788H11.8506H11.8224H11.7942H11.7659H11.7376H11.7092H11.6809H11.6524H11.624H11.5955H11.567H11.5385H11.51H11.4814H11.4528H11.4241H11.3954H11.3668H11.338H11.3093H11.2805H11.2517H11.2229H11.1941H11.1652H11.1364H11.1075H11.0785H11.0496H11.0206H10.9917H10.9627H10.9337H10.9046H10.8756H10.8465H10.8174H10.7883H10.7592H10.7301H10.701H10.6718H10.6427H10.6135H10.5843H10.5551H10.5259H10.4967H10.4675H10.4382H10.409H10.3797H10.3505H10.3212H10.292H10.2627H10.2334H10.2041H10.1748H10.1456H10.1163H10.087H10.0577H10.0284H9.99908H9.96979H9.94049H9.9112H9.8819H9.85261H9.82332H9.79404H9.76476H9.73548H9.70621H9.67694H9.64768H9.61842H9.58917H9.55993H9.5307H9.50148H9.47226H9.44306H9.41386H9.38468H9.3555H9.32634H9.2972H9.26806H9.23894H9.20983H9.18073H9.15166H9.12259H9.09354H9.06451H9.0355H9.00651H8.97753H8.94857H8.91963H8.89071H8.86181H8.83293H8.80407H8.77524H8.74643H8.71764H8.68887H8.66013H8.63141H8.60272H8.57406H8.54542H8.5168H8.48822H8.45966H8.43113H8.40263H8.37416H8.34572H8.31731H8.28893H8.26058H8.23227H8.20399H8.17574H8.14752H8.11934H8.0912H8.06308H8.03501H8.00697H7.97897H7.95101H7.92308H7.89519H7.86735H7.83954H7.81177H7.78404H7.75636H7.72871H7.70111H7.67355H7.64604H7.61857H7.59114H7.56376H7.53642H7.50913H7.48189H7.45469H7.42754H7.40044H7.37339H7.34639H7.31944H7.29254H7.26569H7.23889H7.21214H7.18545H7.1588H7.13222H7.10568H7.0792H7.05278H7.02641H7.0001H6.97385H6.94765H6.92151H6.89543H6.86941H6.84344H6.81754H6.7917H6.76592H6.7402H6.71455H6.68895H6.66342H6.63795H6.61255H6.58722H6.56194H6.53674H6.5116H6.48653H6.46152H6.43658H6.41172H6.38692H6.36219H6.33753H6.31294H6.28843H6.26398H6.23961H6.21531H6.19108H6.16693H6.14285H6.11885H6.09493H6.07108H6.0473H6.02361H5.99999H5.97645H5.95299H5.9296H5.9063H5.88308H5.85994H5.83688H5.8139H5.79101H5.7682H5.74547H5.72283H5.70027H5.6778H5.65541H5.63311H5.61089H5.58877H5.56673H5.54478H5.52292H5.50114H5.47946H5.45787H5.43637H5.41496H5.39365H5.37243H5.3513H5.33026H5.30932H5.28847H5.26772H5.24707H5.22651H5.20605H5.18569H5.16542H5.14525H5.12519H5.10522H5.08535H5.06559H5.04592H5.02636H5.0069H4.98754H4.96829H4.94914H4.93009H4.91115H4.89232H4.87359H4.85497H4.83645H4.81804H4.79975H4.78156H4.76348H4.74551H4.72765H4.7099H4.69226H4.67474H4.65733H4.64003H4.62284H4.60577H4.58882H4.57198H4.55525H4.53864H4.52215H4.50578H4.48952H4.47338H4.45737H4.44147H4.42569H4.41003H4.39449H4.37908H4.36379H4.34862H4.33357H4.31865H4.30385H4.28918H4.27463H4.26021H4.24592H4.23175H4.21771H4.2038H4.19001H4.17636H4.16284H4.14944H4.13618H4.12305H4.11005H4.09718H4.08445H4.07185H4.05938H4.04705H4.03486H4.0228H4.01087H3.99908C3.67407 21 3.49679 20.9216 3.39753 20.8554C3.29202 20.7851 3.2092 20.6842 3.14351 20.5528C3.07587 20.4175 3.03706 20.2701 3.01673 20.1481C3.00696 20.0895 3.00246 20.0428 3.00045 20.0147C2.99962 20.003 2.99924 19.995 2.99908 19.991V18H4.99908H12.9991V20H13.9991C12.9991 20 12.9991 20.0005 12.9991 20.001L12.9991 20.0021L12.9991 20.0043L12.9991 20.0094L12.9993 20.0219L12.9997 20.042L13.0001 20.0558C13.001 20.0822 13.0026 20.1164 13.0055 20.1572C13.0113 20.2385 13.0225 20.348 13.0439 20.4769ZM7.99908 8C7.99908 7.44772 8.4468 7 8.99908 7H13.9991C14.5514 7 14.9991 7.44772 14.9991 8C14.9991 8.55228 14.5514 9 13.9991 9H8.99908C8.4468 9 7.99908 8.55228 7.99908 8ZM8.99908 11C8.4468 11 7.99908 11.4477 7.99908 12C7.99908 12.5523 8.4468 13 8.99908 13H13.9991C14.5514 13 14.9991 12.5523 14.9991 12C14.9991 11.4477 14.5514 11 13.9991 11H8.99908Z" fill="#F9C000"/>
</svg>
