<svg width="24" height="24" viewBox="0 0 24 24" fill="none" xmlns="http://www.w3.org/2000/svg">
<path fill-rule="evenodd" clip-rule="evenodd" d="M3 11C3 6.58172 6.58172 3 11 3C15.4183 3 19 6.58172 19 11C19 15.4183 15.4183 19 11 19C6.58172 19 3 15.4183 3 11ZM11 1C5.47715 1 1 5.47715 1 11C1 16.5228 5.47715 21 11 21C13.4013 21 15.6049 20.1536 17.3287 18.7429L21.2929 22.7071C21.6834 23.0976 22.3166 23.0976 22.7071 22.7071C23.0976 22.3166 23.0976 21.6834 22.7071 21.2929L18.7429 17.3287C20.1536 15.6049 21 13.4013 21 11C21 5.47715 16.5228 1 11 1Z" fill="#F9C000"/>
</svg>
