<svg width="26" height="26" viewBox="0 0 26 26" fill="none" xmlns="http://www.w3.org/2000/svg">
<path fill-rule="evenodd" clip-rule="evenodd" d="M15.5733 2.34892C14.4085 0.404976 11.5915 0.404971 10.4267 2.34892L9.72089 3.52669C9.49444 3.90459 9.04737 4.08977 8.62003 3.98268L7.28818 3.64892C5.0899 3.09804 3.09803 5.08991 3.64891 7.28818L3.98267 8.62004C4.08976 9.04738 3.90458 9.49445 3.52668 9.7209L2.34892 10.4267C0.404969 11.5915 0.404963 14.4085 2.34891 15.5734L3.52668 16.2791C3.90458 16.5056 4.08976 16.9526 3.98267 17.38L3.64891 18.7118C3.09803 20.9101 5.0899 22.902 7.28818 22.3511L8.62003 22.0173C9.04737 21.9102 9.49444 22.0954 9.72089 22.4733L10.4267 23.6511C11.5915 25.595 14.4085 25.595 15.5733 23.6511L16.2791 22.4733C16.5056 22.0954 16.9526 21.9102 17.38 22.0173L18.7118 22.3511C20.9101 22.902 22.902 20.9101 22.3511 18.7118L22.0173 17.38C21.9102 16.9526 22.0954 16.5056 22.4733 16.2791L23.6511 15.5734C25.595 14.4085 25.595 11.5915 23.6511 10.4267L22.4733 9.7209C22.0954 9.49445 21.9102 9.04738 22.0173 8.62004L22.3511 7.28818C22.902 5.08991 20.9101 3.09804 18.7118 3.64892L17.38 3.98268C16.9526 4.08977 16.5056 3.90459 16.2791 3.52669L15.5733 2.34892ZM12.1422 3.37695C12.5305 2.72897 13.4695 2.72896 13.8578 3.37695L14.5635 4.55472C15.2429 5.68841 16.5841 6.24396 17.8661 5.92269L19.198 5.58893C19.9307 5.4053 20.5947 6.06926 20.4111 6.80202L20.0773 8.13388C19.756 9.41589 20.3116 10.7571 21.4453 11.4365L22.6231 12.1422C23.271 12.5305 23.271 13.4695 22.6231 13.8578L21.4453 14.5635C20.3116 15.2429 19.756 16.5841 20.0773 17.8661L20.4111 19.198C20.5947 19.9308 19.9307 20.5947 19.198 20.4111L17.8661 20.0773C16.5841 19.7561 15.2429 20.3116 14.5635 21.4453L13.8578 22.6231C13.4695 23.271 12.5305 23.2711 12.1422 22.6231L11.4365 21.4453C10.7571 20.3116 9.41588 19.7561 8.13387 20.0773L6.80201 20.4111C6.06925 20.5947 5.4053 19.9308 5.58893 19.198L5.92269 17.8661C6.24396 16.5841 5.6884 15.2429 4.55471 14.5635L3.37694 13.8578C2.72896 13.4695 2.72896 12.5305 3.37694 12.1422L4.55471 11.4365C5.6884 10.7571 6.24396 9.41588 5.92269 8.13387L5.58892 6.80202C5.4053 6.06926 6.06925 5.4053 6.80201 5.58893L8.13387 5.92269C9.41588 6.24396 10.7571 5.68841 11.4365 4.55471L12.1422 3.37695ZM10 13C10 11.3432 11.3431 10 13 10C14.6569 10 16 11.3432 16 13C16 14.6569 14.6569 16 13 16C11.3431 16 10 14.6569 10 13ZM13 8.00001C10.2386 8.00001 8 10.2386 8 13C8 15.7614 10.2386 18 13 18C15.7614 18 18 15.7614 18 13C18 10.2386 15.7614 8.00001 13 8.00001Z" fill="#F9C000"/>
</svg>
