<svg width="24" height="24" viewBox="0 0 24 24" fill="none" xmlns="http://www.w3.org/2000/svg">
<path fill-rule="evenodd" clip-rule="evenodd" d="M11.4 1.2C11.7556 0.933333 12.2444 0.933333 12.6 1.2C16.5631 4.17236 18.3403 5 21 5C21.5523 5 22 5.44772 22 6C22 13.2361 19.6643 17.4999 17.2071 19.9571C15.9899 21.1743 14.7676 21.9231 13.8401 22.3698C13.3762 22.5931 12.985 22.7414 12.7029 22.8354C12.5619 22.8824 12.4478 22.916 12.3654 22.9386C12.3242 22.9499 12.2908 22.9584 12.2659 22.9646L12.2349 22.9721L12.2243 22.9745L12.2202 22.9755L12.2184 22.9758C12.2177 22.976 12.2169 22.9762 12 22C11.7831 22.9762 11.7823 22.976 11.7816 22.9758L11.7798 22.9755L11.7757 22.9745L11.7651 22.9721L11.7341 22.9646C11.7092 22.9584 11.6758 22.9499 11.6346 22.9386C11.5522 22.916 11.4381 22.8824 11.2971 22.8354C11.015 22.7414 10.6238 22.5931 10.1599 22.3698C9.23237 21.9231 8.01012 21.1743 6.79289 19.9571C4.33572 17.4999 2 13.2361 2 6C2 5.44772 2.44772 5 3 5C5.65967 5 7.43686 4.17236 11.4 1.2ZM12 22L11.7831 22.9762C11.9259 23.0079 12.0741 23.0079 12.2169 22.9762L12 22ZM12 20.961C12.022 20.954 12.0455 20.9464 12.0705 20.938C12.2807 20.868 12.5925 20.7507 12.9724 20.5677C13.7324 20.2019 14.7601 19.5757 15.7929 18.5429C17.7369 16.5989 19.7908 13.1215 19.9851 6.96073C17.3338 6.74723 15.2611 5.6462 12 3.24599C8.73888 5.6462 6.66621 6.74723 4.01494 6.96073C4.20916 13.1215 6.26312 16.5989 8.20711 18.5429C9.23988 19.5757 10.2676 20.2019 11.0276 20.5677C11.4075 20.7507 11.7193 20.868 11.9295 20.938C11.9545 20.9464 11.978 20.954 12 20.961ZM15.7071 9.29289C16.0976 9.68342 16.0976 10.3166 15.7071 10.7071L11.7071 14.7071C11.3166 15.0976 10.6834 15.0976 10.2929 14.7071L8.29289 12.7071C7.90237 12.3166 7.90237 11.6834 8.29289 11.2929C8.68342 10.9024 9.31658 10.9024 9.70711 11.2929L11 12.5858L14.2929 9.29289C14.6834 8.90237 15.3166 8.90237 15.7071 9.29289Z" fill="#F9C000"/>
</svg>
