<svg width="24" height="24" viewBox="0 0 24 24" fill="none" xmlns="http://www.w3.org/2000/svg">
<path fill-rule="evenodd" clip-rule="evenodd" d="M11.2929 3.29289C11.6834 2.90237 12.3166 2.90237 12.7071 3.29289L21.7071 12.2929C21.9931 12.5789 22.0787 13.009 21.9239 13.3827C21.7691 13.7564 21.4045 14 21 14H17V18.9971C17 20.1161 16.1042 21 15.003 21H8.99703C7.89952 21 7 20.102 7 18.9971V14H3C2.59554 14 2.2309 13.7564 2.07612 13.3827C1.92134 13.009 2.00689 12.5789 2.29289 12.2929L11.2929 3.29289ZM5.41421 12H8C8.55228 12 9 12.4477 9 13V18.997C9.00035 18.9976 9.001 18.9985 9.00208 18.9996C9.00222 18.9997 9.00236 18.9999 9.00249 19H14.9999C15 18.9991 15 18.9982 15 18.9971V13C15 12.4477 15.4477 12 16 12H18.5858L12 5.41421L5.41421 12Z" fill="#F9C000"/>
</svg>
