<svg width="24" height="24" viewBox="0 0 24 24" fill="none" xmlns="http://www.w3.org/2000/svg">
<path fill-rule="evenodd" clip-rule="evenodd" d="M16.2752 2.39121C16.0242 2.1051 15.6324 1.98634 15.2648 2.08486C14.8971 2.18338 14.6172 2.48209 14.5429 2.85539L13.9968 5.59612L11.4295 6.70006C11.0798 6.85043 10.8458 7.18628 10.8259 7.5664C10.806 7.94652 11.0036 8.30499 11.3356 8.49108L13.7735 9.85733L14.0301 12.6401C14.065 13.0192 14.3121 13.3455 14.6675 13.4819C15.0228 13.6183 15.4248 13.5411 15.7044 13.2828L17.7571 11.3865L20.483 12.0024C20.8543 12.0863 21.241 11.9521 21.4806 11.6563C21.7201 11.3605 21.7709 10.9544 21.6117 10.6086L20.4425 8.07038L21.8706 5.66825C22.0651 5.34106 22.057 4.93181 21.8497 4.61258C21.6424 4.29335 21.2718 4.11949 20.8938 4.16411L18.1185 4.49173L16.2752 2.39121ZM15.8555 6.50251L16.1084 5.23334L16.962 6.20604C17.1791 6.45343 17.504 6.57815 17.8308 6.53957L19.116 6.38786L18.4547 7.50023C18.2865 7.78314 18.2683 8.13069 18.406 8.42963L18.9474 9.60503L17.6851 9.31982C17.3641 9.24728 17.0279 9.33736 16.7862 9.5607L15.8356 10.4388L15.7168 9.1502C15.6866 8.82246 15.497 8.53058 15.2099 8.36967L14.081 7.73699L15.2698 7.22578C15.5722 7.09577 15.7912 6.82529 15.8555 6.50251ZM9.37143 8.92851C9.88421 8.7234 10.1336 8.14143 9.92851 7.62864C9.7234 7.11586 9.14143 6.86644 8.62865 7.07156C5.93197 8.15023 3.2998 10.2745 1.21917 12.8753C0.874158 13.3066 0.94408 13.9359 1.37534 14.2809C1.8066 14.6259 2.4359 14.556 2.78091 14.1247C4.70027 11.7255 7.0681 9.84984 9.37143 8.92851ZM11.9859 11.8742C12.4686 11.606 12.6426 10.9972 12.3744 10.5144C12.1062 10.0316 11.4974 9.85764 11.0146 10.1259C6.26054 12.767 3.64553 16.4733 1.10579 21.5528C0.858803 22.0468 1.05903 22.6474 1.55301 22.8944C2.04698 23.1414 2.64766 22.9412 2.89465 22.4472C5.35491 17.5267 7.73989 14.233 11.9859 11.8742ZM13.2811 13.8753C13.6261 14.3066 13.5562 14.9358 13.1249 15.2809C10.7734 17.162 9.85396 18.5286 8.39465 21.4472C8.14766 21.9412 7.54698 22.1414 7.05301 21.8944C6.55903 21.6474 6.3588 21.0468 6.60579 20.5528C8.14648 17.4714 9.227 15.8379 11.8755 13.7191C12.3068 13.3741 12.9361 13.444 13.2811 13.8753Z" fill="#F9C000"/>
</svg>
