<svg width="24" height="24" viewBox="0 0 24 24" fill="none" xmlns="http://www.w3.org/2000/svg">
<path fill-rule="evenodd" clip-rule="evenodd" d="M1 7C1 6.44772 1.44772 6 2 6V8C1.44772 8 1 7.55229 1 7ZM2 8H4C5.19277 8 6.22379 8.48819 7.23496 9.33075C8.26793 10.1915 9.20465 11.3561 10.2201 12.6249L10.2532 12.6662C11.2294 13.886 12.2834 15.203 13.4881 16.206C14.7281 17.2385 16.1983 18 18.0069 18H20C20.5523 18 21 17.5523 21 17C21 16.4477 20.5523 16 20 16H18.0069C16.8121 16 15.7797 15.5115 14.7678 14.669C13.7341 13.8083 12.797 12.6438 11.7816 11.3751L11.7455 11.33C10.7702 10.1114 9.71763 8.79613 8.51526 7.79425C7.27621 6.76181 5.80723 6 4 6H2V8Z" fill="#F9C000"/>
<path fill-rule="evenodd" clip-rule="evenodd" d="M1 17C1 17.5523 1.44772 18 2 18V16C1.44772 16 1 16.4477 1 17ZM2 16H4C5.19284 16 6.22434 15.5118 7.23612 14.6691C8.26963 13.8083 9.20702 12.6437 10.2229 11.375L10.2575 11.3318C11.2336 10.1125 12.2873 8.79649 13.4909 7.7941C14.7304 6.76176 16.1998 6 18.0069 6H21C21.5523 6 22 6.44772 22 7C22 7.55229 21.5523 8 21 8H18.0069C16.8141 8 15.7826 8.48825 14.7708 9.33091C13.7373 10.1917 12.7999 11.3563 11.7841 12.625L11.7495 12.6682C10.7733 13.8875 9.71961 15.2035 8.51605 16.2059C7.27653 17.2382 5.80716 18 4 18H2V16Z" fill="#F9C000"/>
<path d="M19.5547 9.83205C18.8901 10.2751 18 9.7987 18 9V5C18 4.20131 18.8901 3.72492 19.5547 4.16795L22.5547 6.16795C23.1484 6.56377 23.1484 7.43623 22.5547 7.83205L19.5547 9.83205Z" fill="#F9C000"/>
<path d="M19.5547 19.8321C18.8901 20.2751 18 19.7987 18 19V15C18 14.2013 18.8901 13.7249 19.5547 14.168L22.5547 16.168C23.1484 16.5638 23.1484 17.4362 22.5547 17.8321L19.5547 19.8321Z" fill="#F9C000"/>
</svg>
