<svg width="24" height="24" viewBox="0 0 24 24" fill="none" xmlns="http://www.w3.org/2000/svg">
<path fill-rule="evenodd" clip-rule="evenodd" d="M12 4C12.5523 4 13 4.44772 13 5V19C13 19.5523 12.5523 20 12 20C11.4477 20 11 19.5523 11 19V5C11 4.44772 11.4477 4 12 4Z" fill="#F9C000"/>
<path fill-rule="evenodd" clip-rule="evenodd" d="M9.29289 21.7071C9.68342 22.0976 10.3166 22.0976 10.7071 21.7071L12 20.4142L13.2929 21.7071C13.6834 22.0976 14.3166 22.0976 14.7071 21.7071C15.0976 21.3166 15.0976 20.6834 14.7071 20.2929L12.7071 18.2929C12.3166 17.9024 11.6834 17.9024 11.2929 18.2929L9.29289 20.2929C8.90237 20.6834 8.90237 21.3166 9.29289 21.7071Z" fill="#F9C000"/>
<path fill-rule="evenodd" clip-rule="evenodd" d="M9.29289 2.29289C9.68342 1.90237 10.3166 1.90237 10.7071 2.29289L12 3.58579L13.2929 2.29289C13.6834 1.90237 14.3166 1.90237 14.7071 2.29289C15.0976 2.68342 15.0976 3.31658 14.7071 3.70711L12.7071 5.70711C12.3166 6.09763 11.6834 6.09763 11.2929 5.70711L9.29289 3.70711C8.90237 3.31658 8.90237 2.68342 9.29289 2.29289Z" fill="#F9C000"/>
<path fill-rule="evenodd" clip-rule="evenodd" d="M5.29289 5.29289C5.68342 4.90237 6.31658 4.90237 6.70711 5.29289L18.7071 17.2929C19.0976 17.6834 19.0976 18.3166 18.7071 18.7071C18.3166 19.0976 17.6834 19.0976 17.2929 18.7071L5.29289 6.70711C4.90237 6.31658 4.90237 5.68342 5.29289 5.29289Z" fill="#F9C000"/>
<path fill-rule="evenodd" clip-rule="evenodd" d="M18.7071 5.29289C18.3166 4.90237 17.6834 4.90237 17.2929 5.29289L5.29289 17.2929C4.90237 17.6834 4.90237 18.3166 5.29289 18.7071C5.68342 19.0976 6.31658 19.0976 6.70711 18.7071L18.7071 6.70711C19.0976 6.31658 19.0976 5.68342 18.7071 5.29289Z" fill="#F9C000"/>
<path fill-rule="evenodd" clip-rule="evenodd" d="M4 12C4 11.4477 4.44772 11 5 11H19C19.5523 11 20 11.4477 20 12C20 12.5523 19.5523 13 19 13H5C4.44772 13 4 12.5523 4 12Z" fill="#F9C000"/>
<path fill-rule="evenodd" clip-rule="evenodd" d="M21.7071 14.7071C22.0976 14.3166 22.0976 13.6834 21.7071 13.2929L20.4142 12L21.7071 10.7071C22.0976 10.3166 22.0976 9.68342 21.7071 9.29289C21.3166 8.90237 20.6834 8.90237 20.2929 9.29289L18.2929 11.2929C17.9024 11.6834 17.9024 12.3166 18.2929 12.7071L20.2929 14.7071C20.6834 15.0976 21.3166 15.0976 21.7071 14.7071Z" fill="#F9C000"/>
<path fill-rule="evenodd" clip-rule="evenodd" d="M2.29289 14.7071C1.90237 14.3166 1.90237 13.6834 2.29289 13.2929L3.58579 12L2.29289 10.7071C1.90237 10.3166 1.90237 9.68342 2.29289 9.29289C2.68342 8.90237 3.31658 8.90237 3.70711 9.29289L5.70711 11.2929C6.09763 11.6834 6.09763 12.3166 5.70711 12.7071L3.70711 14.7071C3.31658 15.0976 2.68342 15.0976 2.29289 14.7071Z" fill="#F9C000"/>
</svg>
