<svg width="24" height="24" viewBox="0 0 24 24" fill="none" xmlns="http://www.w3.org/2000/svg">
<path d="M12.9997 9.6V7.41421L15.7068 4.70711C16.0974 4.31658 16.0974 3.68342 15.7068 3.29289C15.3163 2.90237 14.6832 2.90237 14.2926 3.29289L12.9997 4.58579V3C12.9997 2.44772 12.552 2 11.9997 2C11.4475 2 10.9997 2.44772 10.9997 3V4.58579L9.70685 3.29289C9.31632 2.90237 8.68316 2.90237 8.29263 3.29289C7.90211 3.68342 7.90211 4.31658 8.29263 4.70711L10.9997 7.41421V9.6L11.9997 9L12.9997 9.6ZM12.9997 14.4V16.5858L15.7068 19.2929C16.0974 19.6834 16.0974 20.3166 15.7068 20.7071C15.3163 21.0976 14.6832 21.0976 14.2926 20.7071L12.9997 19.4142V21C12.9997 21.5523 12.552 22 11.9997 22C11.4475 22 10.9997 21.5523 10.9997 21V19.4142L9.70685 20.7071C9.31632 21.0976 8.68316 21.0976 8.29263 20.7071C7.90211 20.3166 7.90211 19.6834 8.29263 19.2929L10.9997 16.5858V14.4L11.9997 15L12.9997 14.4Z" fill="#F9C000"/>
<path d="M10.4324 9.9404L8.52833 8.84108L7.53746 5.14311C7.39452 4.60964 6.84618 4.29306 6.31272 4.436C5.77925 4.57894 5.46267 5.12728 5.60561 5.66074L6.07884 7.42687L4.70551 6.63398C4.22722 6.35783 3.61563 6.52171 3.33949 7C3.06334 7.47829 3.22722 8.08988 3.70551 8.36603L5.07884 9.15892L3.31272 9.63215C2.77925 9.77509 2.46267 10.3234 2.60561 10.8569C2.74855 11.3904 3.29689 11.7069 3.83036 11.564L7.52833 10.5731L9.49974 11.7113V10.5L10.4324 9.9404ZM14.4997 12.2887L16.4711 13.4269L20.1691 12.436C20.7026 12.2931 21.2509 12.6096 21.3939 13.1431C21.5368 13.6766 21.2202 14.2249 20.6868 14.3679L18.9206 14.8411L20.294 15.634C20.7723 15.9101 20.9361 16.5217 20.66 17C20.3839 17.4783 19.7723 17.6422 19.294 17.366L17.9206 16.5731L18.3939 18.3393C18.5368 18.8727 18.2202 19.4211 17.6868 19.564C17.1533 19.7069 16.605 19.3904 16.462 18.8569L15.4711 15.1589L13.5671 14.0596L14.4997 13.5V12.2887Z" fill="#F9C000"/>
<path d="M9.49974 12.2887L7.52833 13.4269L3.83036 12.436C3.29689 12.2931 2.74855 12.6096 2.60561 13.1431C2.46267 13.6766 2.77925 14.2249 3.31272 14.3678L5.07884 14.8411L3.70551 15.634C3.22722 15.9101 3.06334 16.5217 3.33949 17C3.61563 17.4783 4.22722 17.6422 4.70551 17.366L6.07884 16.5731L5.60561 18.3393C5.46267 18.8727 5.77925 19.4211 6.31272 19.564C6.84618 19.7069 7.39452 19.3904 7.53746 18.8569L8.52833 15.1589L10.4324 14.0596L9.49974 13.5V12.2887ZM13.5671 9.9404L15.4711 8.84108L16.462 5.14311C16.605 4.60964 17.1533 4.29306 17.6868 4.436C18.2202 4.57894 18.5368 5.12728 18.3939 5.66074L17.9206 7.42687L19.294 6.63398C19.7723 6.35783 20.3839 6.52171 20.66 7C20.9361 7.47829 20.7723 8.08988 20.294 8.36603L18.9206 9.15892L20.6868 9.63215C21.2202 9.77509 21.5368 10.3234 21.3939 10.8569C21.2509 11.3904 20.7026 11.7069 20.1691 11.564L16.4711 10.5731L14.4997 11.7113V10.5L13.5671 9.9404Z" fill="#F9C000"/>
<path fill-rule="evenodd" clip-rule="evenodd" d="M11.9997 7.83381L15.4997 9.93381V14.0662L11.9997 16.1662L8.49974 14.0662V9.93381L11.9997 7.83381ZM10.4997 11.0662V12.9338L11.9997 13.8338L13.4997 12.9338V11.0662L11.9997 10.1662L10.4997 11.0662Z" fill="#F9C000"/>
</svg>
