<svg width="25" height="24" viewBox="0 0 25 24" fill="none" xmlns="http://www.w3.org/2000/svg">
<path fill-rule="evenodd" clip-rule="evenodd" d="M10.4322 4.09871C10.7787 4.26523 10.999 4.6156 10.999 5.00001V19C10.999 19.3844 10.7787 19.7348 10.4322 19.9013C10.0857 20.0678 9.6745 20.021 9.37433 19.7809L4.64824 16H0.999023C0.446739 16 -0.000976562 15.5523 -0.000976562 15V9.00001C-0.000976562 8.44772 0.446739 8.00001 0.999023 8.00001H4.64824L9.37433 4.21914C9.6745 3.979 10.0857 3.93219 10.4322 4.09871ZM8.99902 7.08063L5.62372 9.78088C5.44641 9.92273 5.22609 10 4.99902 10H1.99902V14H4.99902C5.22609 14 5.44641 14.0773 5.62372 14.2191L8.99902 16.9194V7.08063ZM14.2919 8.2929C14.6824 7.90238 15.3156 7.90238 15.7061 8.2929L18.181 10.7678L20.6559 8.29296C21.0464 7.90243 21.6796 7.90243 22.0701 8.29296C22.4606 8.68348 22.4606 9.31665 22.0701 9.70717L19.5952 12.182L22.0701 14.6569C22.4606 15.0474 22.4606 15.6806 22.0701 16.0711C21.6796 16.4616 21.0464 16.4616 20.6559 16.0711L18.181 13.5962L15.7061 16.0711C15.3156 16.4617 14.6824 16.4617 14.2919 16.0711C13.9014 15.6806 13.9014 15.0474 14.2919 14.6569L16.7668 12.182L14.2919 9.70712C13.9014 9.31659 13.9014 8.68343 14.2919 8.2929Z" fill="#F9C000"/>
</svg>
