<svg width="24" height="24" viewBox="0 0 24 24" fill="none" xmlns="http://www.w3.org/2000/svg">
<path fill-rule="evenodd" clip-rule="evenodd" d="M2 11.0094C2 10.4519 2.44386 10 3 10C3.55228 10 4 10.4434 4 11.0094V12.9906C4 13.5481 3.55614 14 3 14C2.44772 14 2 13.5566 2 12.9906V11.0094ZM5 9.99078C5 9.44359 5.44386 9 6 9C6.55228 9 7 9.45098 7 9.99078V14.0092C7 14.5564 6.55614 15 6 15C5.44772 15 5 14.549 5 14.0092V9.99078ZM8 7.00247C8 6.44882 8.44386 6 9 6C9.55228 6 10 6.45576 10 7.00247V16.9975C10 17.5512 9.55614 18 9 18C8.44772 18 8 17.5442 8 16.9975V7.00247ZM11 5.00087C11 4.44811 11.4439 4 12 4C12.5523 4 13 4.44463 13 5.00087V18.9991C13 19.5519 12.5561 20 12 20C11.4477 20 11 19.5554 11 18.9991V5.00087ZM14 8.99703C14 8.44639 14.4439 8 15 8C15.5523 8 16 8.45304 16 8.99703V15.003C16 15.5536 15.5561 16 15 16C14.4477 16 14 15.547 14 15.003V8.99703ZM17 7.00247C17 6.44882 17.4439 6 18 6C18.5523 6 19 6.45576 19 7.00247V16.9975C19 17.5512 18.5561 18 18 18C17.4477 18 17 17.5442 17 16.9975V7.00247ZM20 9.99078C20 9.44359 20.4439 9 21 9C21.5523 9 22 9.45098 22 9.99078V14.0092C22 14.5564 21.5561 15 21 15C20.4477 15 20 14.549 20 14.0092V9.99078Z" fill="#F9C000"/>
</svg>
