<svg width="24" height="24" viewBox="0 0 24 24" fill="none" xmlns="http://www.w3.org/2000/svg">
<path fill-rule="evenodd" clip-rule="evenodd" d="M21.9229 11.7782C21.9229 10.465 21.6642 9.1646 21.1616 7.95134C20.6591 6.73808 19.9225 5.63569 18.9939 4.70711C18.6034 4.31658 18.6034 3.68342 18.9939 3.29289C19.3844 2.90237 20.0176 2.90237 20.4081 3.29289C21.5224 4.4072 22.4063 5.73007 23.0094 7.18597C23.6125 8.64188 23.9229 10.2023 23.9229 11.7782C23.9229 13.354 23.6125 14.9145 23.0094 16.3704C22.4064 17.8263 21.5224 19.1492 20.4081 20.2635C20.0176 20.654 19.3844 20.654 18.9939 20.2635C18.6034 19.8729 18.6034 19.2398 18.9939 18.8492C19.9225 17.9207 20.6591 16.8183 21.1616 15.605C21.6642 14.3918 21.9229 13.0914 21.9229 11.7782ZM10.4322 4.26593C10.7787 4.43245 10.999 4.78283 10.999 5.16724V19.1672C10.999 19.5516 10.7787 19.902 10.4322 20.0685C10.0857 20.2351 9.6745 20.1882 9.37433 19.9481L4.64824 16.1672H0.999023C0.446739 16.1672 -0.000976562 15.7195 -0.000976562 15.1672V9.16724C-0.000976562 8.61495 0.446739 8.16724 0.999023 8.16724H4.64824L9.37433 4.38637C9.6745 4.14623 10.0857 4.09941 10.4322 4.26593ZM8.99902 7.24786L5.62372 9.94811C5.44641 10.09 5.22609 10.1672 4.99902 10.1672H1.99902V14.1672H4.99902C5.22609 14.1672 5.44641 14.2445 5.62372 14.3864L8.99902 17.0866V7.24786ZM15.8108 10.1324C16.0621 10.7391 16.1914 11.3893 16.1914 12.0459C16.1914 12.7025 16.0621 13.3527 15.8108 13.9593C15.5595 14.5659 15.1912 15.1171 14.7269 15.5814C14.3364 15.9719 14.3364 16.6051 14.7269 16.9956C15.1175 17.3861 15.7506 17.3861 16.1412 16.9956C16.7912 16.3456 17.3068 15.5739 17.6586 14.7246C18.0103 13.8754 18.1914 12.9651 18.1914 12.0459C18.1914 11.1266 18.0103 10.2164 17.6586 9.36708C17.3068 8.5178 16.7912 7.74613 16.1412 7.09612C15.7506 6.70559 15.1175 6.70559 14.7269 7.09612C14.3364 7.48664 14.3364 8.11981 14.7269 8.51033C15.1912 8.97462 15.5595 9.52582 15.8108 10.1324Z" fill="#F9C000"/>
</svg>
