<svg width="24" height="24" viewBox="0 0 24 24" fill="none" xmlns="http://www.w3.org/2000/svg">
<path fill-rule="evenodd" clip-rule="evenodd" d="M10.3851 2.27275C10.9839 0.838284 13.0161 0.838282 13.6149 2.27275L15.7613 7.41442L21.4217 8.18052C22.9388 8.38586 23.4795 10.3027 22.2934 11.2706L17.9338 14.8282L19.3311 20.8664C19.6929 22.4301 17.9345 23.6154 16.6208 22.6934L12 19.4502L7.37919 22.6934C6.06544 23.6155 4.30706 22.4302 4.66889 20.8665L6.06611 14.8282L1.70656 11.2706C0.520466 10.3026 1.0612 8.38586 2.57828 8.18053L8.23869 7.41442L10.3851 2.27275ZM12 3.59586L10.0291 8.31709C9.78983 8.89037 9.26453 9.29381 8.64892 9.37713L3.41732 10.0852L7.4512 13.3771C7.96797 13.7988 8.20008 14.4776 8.04972 15.1274L6.76458 20.6813L10.9947 17.7124C11.598 17.2889 12.402 17.2889 13.0053 17.7124L17.2354 20.6813L15.9502 15.1274C15.7998 14.4776 16.0319 13.7988 16.5487 13.377L20.5826 10.0852L15.3511 9.37713C14.7355 9.29381 14.2102 8.89037 13.9709 8.31709L12 3.59586Z" fill="#F9C000"/>
</svg>
