<svg width="24" height="24" viewBox="0 0 24 24" fill="none" xmlns="http://www.w3.org/2000/svg">
<path d="M10.3855 2.27275C10.9843 0.838284 13.0165 0.838282 13.6153 2.27275L15.7617 7.41442L21.4221 8.18052C22.9392 8.38586 23.4799 10.3027 22.2938 11.2706L17.9342 14.8282L19.3315 20.8664C19.6933 22.4301 17.9349 23.6154 16.6212 22.6934L12.0004 19.4502L7.37958 22.6934C6.06583 23.6155 4.30746 22.4302 4.66929 20.8665L6.06651 14.8282L1.70695 11.2706C0.520862 10.3026 1.0616 8.38586 2.57867 8.18053L8.23909 7.41442L10.3855 2.27275Z" fill="#F9C000"/>
<mask id="mask0_5560_11950" style="mask-type:alpha" maskUnits="userSpaceOnUse" x="1" y="1" width="22" height="23">
<path d="M10.3855 2.27275C10.9843 0.838284 13.0165 0.838282 13.6153 2.27275L15.7617 7.41442L21.4221 8.18052C22.9392 8.38586 23.4799 10.3027 22.2938 11.2706L17.9342 14.8282L19.3315 20.8664C19.6933 22.4301 17.9349 23.6154 16.6212 22.6934L12.0004 19.4502L7.37958 22.6934C6.06583 23.6155 4.30746 22.4302 4.66929 20.8665L6.06651 14.8282L1.70695 11.2706C0.520862 10.3026 1.0616 8.38586 2.57867 8.18053L8.23909 7.41442L10.3855 2.27275Z" fill="#F9C000"/>
</mask>
<g mask="url(#mask0_5560_11950)">
<rect x="12" y="1" width="11" height="22" fill="#E2E8EC"/>
</g>
</svg>
