<svg width="24" height="24" viewBox="0 0 24 24" fill="none" xmlns="http://www.w3.org/2000/svg">
<path fill-rule="evenodd" clip-rule="evenodd" d="M3.21995 12.3743C3.40975 12.1377 3.69667 12 3.99999 12H20C20.3033 12 20.5902 12.1377 20.78 12.3743C20.9698 12.6109 21.042 12.9208 20.9762 13.2169L18.9762 22.2169C18.8745 22.6745 18.4687 23 18 23H5.99999C5.53129 23 5.12548 22.6745 5.02381 22.2169L3.02381 13.2169C2.95801 12.9208 3.03016 12.6109 3.21995 12.3743ZM5.24661 14L6.80217 21H17.1978L18.7534 14H5.24661Z" fill="#F9C000"/>
<path fill-rule="evenodd" clip-rule="evenodd" d="M12.3939 3.08085L12 4L11.6061 3.08085C11.8576 2.97305 12.1424 2.97305 12.3939 3.08085ZM12 5.1164C11.8599 5.1923 11.6903 5.28956 11.5027 5.40799C10.9621 5.74948 10.3041 6.24718 9.76822 6.89018C9.23587 7.52901 8.85005 8.27849 8.77779 9.14555C8.70631 10.0033 8.93165 11.0947 9.83205 12.4453L8.16795 13.5547C7.06834 11.9053 6.66869 10.3717 6.7847 8.97945C6.89995 7.59651 7.51413 6.47099 8.23178 5.60982C8.94594 4.75282 9.78794 4.12552 10.4348 3.71701C10.7613 3.51077 11.0461 3.35529 11.2523 3.25002C11.3555 3.19729 11.4396 3.15688 11.5 3.12875C11.5302 3.11468 11.5545 3.10365 11.5723 3.09568L11.5942 3.08599L11.6014 3.08286L11.6041 3.08171L11.6052 3.08125C11.6056 3.08105 11.6061 3.08085 12 4C12.3939 3.08085 12.3944 3.08105 12.3948 3.08125L12.3959 3.08171L12.3986 3.08286L12.4058 3.08599L12.4277 3.09568C12.4455 3.10365 12.4698 3.11468 12.5 3.12875C12.5604 3.15688 12.6445 3.19729 12.7477 3.25002C12.9539 3.35529 13.2387 3.51077 13.5652 3.71701C14.2121 4.12552 15.0541 4.75282 15.7682 5.60982C16.4859 6.47099 17.1 7.59651 17.2153 8.97945C17.3313 10.3717 16.9317 11.9053 15.832 13.5547L14.1679 12.4453C15.0683 11.0947 15.2937 10.0033 15.2222 9.14555C15.1499 8.27849 14.7641 7.52901 14.2318 6.89018C13.6959 6.24718 13.0379 5.74948 12.4973 5.40799C12.3097 5.28956 12.1401 5.1923 12 5.1164ZM11.604 4.91824C11.6037 4.91812 11.6038 4.91817 11.6043 4.9184L11.604 4.91824Z" fill="#F9C000"/>
<path fill-rule="evenodd" clip-rule="evenodd" d="M18.6058 6.29611C17.6512 6.61012 17.0336 7.12336 16.9993 8.03765L15.0007 7.9627C15.0818 5.79969 16.7142 4.81293 17.9808 4.39627C18.6278 4.18344 19.2567 4.08633 19.7147 4.04104C19.9462 4.01814 20.1402 4.00789 20.279 4.00339C20.3485 4.00114 20.4046 4.00031 20.445 4.00008C20.4652 3.99996 20.4815 3.99999 20.4937 4.00007L20.5089 4.00021L20.5141 4.00027L20.5161 4.00031L20.5169 4.00032C20.5173 4.00033 20.5176 4.00033 20.5 5.00018C21.348 4.47018 21.3484 4.47075 21.3487 4.47134L21.3495 4.4726L21.3513 4.47541L21.3554 4.48219L21.3663 4.50029C21.3747 4.51437 21.3853 4.53248 21.3977 4.55448C21.4225 4.59847 21.4549 4.65819 21.4921 4.73265C21.5664 4.88134 21.661 5.09028 21.7542 5.35134C21.9402 5.87199 22.125 6.61189 22.125 7.50018C22.125 9.32669 21.3436 11.6059 18.6247 13.781L17.3753 12.2193C19.6564 10.3944 20.125 8.67366 20.125 7.50018C20.125 6.8948 19.9999 6.38894 19.8747 6.03507C19.5124 6.0728 19.054 6.14865 18.6058 6.29611ZM20.5 5.00018L21.348 4.47018C21.1686 4.18311 20.8561 4.0063 20.5176 4.00033L20.5 5.00018Z" fill="#F9C000"/>
<path fill-rule="evenodd" clip-rule="evenodd" d="M5.51924 6.29611C6.47378 6.61012 7.09141 7.12336 7.1257 8.03765L9.1243 7.9627C9.04318 5.79969 7.41082 4.81293 6.14421 4.39627C5.49724 4.18344 4.86831 4.08633 4.41033 4.04104C4.17884 4.01814 3.98485 4.00789 3.84605 4.00339C3.77652 4.00114 3.72045 4.00031 3.68003 4.00008C3.65981 3.99996 3.64346 3.99999 3.63127 4.00007L3.61612 4.00021L3.61093 4.00027L3.60895 4.00031L3.60811 4.00032C3.60773 4.00033 3.60737 4.00033 3.625 5.00018C2.777 4.47018 2.77664 4.47075 2.77628 4.47134L2.77549 4.4726L2.77375 4.47541L2.76959 4.48219L2.75869 4.50029C2.75031 4.51437 2.73974 4.53248 2.72732 4.55448C2.70249 4.59847 2.67015 4.65819 2.63292 4.73265C2.55857 4.88134 2.46399 5.09028 2.37076 5.35134C2.18481 5.87199 2 6.61189 2 7.50018C2 9.32669 2.78143 11.6059 5.50031 13.781L6.7497 12.2193C4.46857 10.3944 4 8.67366 4 7.50018C4 6.8948 4.12506 6.38894 4.25031 6.03507C4.61259 6.0728 5.07097 6.14865 5.51924 6.29611ZM3.625 5.00018L2.777 4.47018C2.95642 4.18311 3.2689 4.0063 3.60737 4.00033L3.625 5.00018Z" fill="#F9C000"/>
<path fill-rule="evenodd" clip-rule="evenodd" d="M8.44721 2.10556L8 2.99999L7.55279 2.10556L8 1.88196L8.44721 2.10556ZM8 4.17231C7.89144 4.24898 7.77418 4.33886 7.6585 4.44007C7.21825 4.82529 7 5.19643 7 5.49999H5C5 4.30355 5.78175 3.4247 6.3415 2.93492C6.64238 2.67164 6.93854 2.46853 7.1575 2.33168C7.26802 2.26261 7.36155 2.20875 7.42975 2.171C7.46391 2.15209 7.4919 2.13711 7.51271 2.12619L7.53846 2.11283L7.54709 2.10843L7.55031 2.10681L7.55279 2.10556C7.55306 2.10543 7.55279 2.10556 8 2.99999C8.44721 2.10556 8.44694 2.10543 8.44721 2.10556L8.44969 2.10681L8.45291 2.10843L8.46154 2.11283L8.48729 2.12619C8.5081 2.13711 8.53609 2.15209 8.57025 2.171C8.63845 2.20875 8.73198 2.26261 8.8425 2.33168C9.06146 2.46853 9.35762 2.67164 9.6585 2.93492C10.2183 3.4247 11 4.30355 11 5.49999H9C9 5.19643 8.78175 4.82529 8.3415 4.44007C8.22582 4.33886 8.10856 4.24898 8 4.17231ZM8.45007 3.89299C8.45054 3.89275 8.45049 3.89277 8.45007 3.89299V3.89299Z" fill="#F9C000"/>
<path fill-rule="evenodd" clip-rule="evenodd" d="M16.4472 2.10556L16 2.99999L15.5528 2.10556L16 1.88196L16.4472 2.10556ZM16 4.17231C15.8914 4.24898 15.7742 4.33886 15.6585 4.44007C15.2183 4.82529 15 5.19643 15 5.49999H13C13 4.30355 13.7817 3.4247 14.3415 2.93492C14.6424 2.67164 14.9385 2.46853 15.1575 2.33168C15.268 2.26261 15.3616 2.20875 15.4297 2.171C15.4639 2.15209 15.4919 2.13711 15.5127 2.12619L15.5385 2.11283L15.5471 2.10843L15.5503 2.10681L15.5528 2.10556C15.5531 2.10543 15.5528 2.10556 16 2.99999C16.4472 2.10556 16.4469 2.10543 16.4472 2.10556L16.4497 2.10681L16.4529 2.10843L16.4615 2.11283L16.4873 2.12619C16.5081 2.13711 16.5361 2.15209 16.5703 2.171C16.6384 2.20875 16.732 2.26261 16.8425 2.33168C17.0615 2.46853 17.3576 2.67164 17.6585 2.93492C18.2183 3.4247 19 4.30355 19 5.49999H17C17 5.19643 16.7817 4.82529 16.3415 4.44007C16.2258 4.33886 16.1086 4.24898 16 4.17231ZM16.4501 3.89299C16.4505 3.89275 16.4505 3.89277 16.4501 3.89299V3.89299Z" fill="#F9C000"/>
</svg>
