<svg width="25" height="25" viewBox="0 0 25 25" fill="none" xmlns="http://www.w3.org/2000/svg">
<path fill-rule="evenodd" clip-rule="evenodd" d="M14.1711 1.4434C13.3817 0.653989 12.2983 0.230401 11.1828 0.27502L2.53899 0.620772C1.4972 0.662444 0.662199 1.49745 0.620528 2.53924L0.274776 11.183C0.230157 12.2985 0.653746 13.3819 1.44315 14.1713L10.1419 22.8701C11.704 24.4322 14.2367 24.4322 15.7988 22.8701L22.8698 15.799C24.4319 14.2369 24.4319 11.7042 22.8698 10.1421L14.1711 1.4434ZM11.2627 2.27342C11.8205 2.25111 12.3622 2.46291 12.7569 2.85761L21.4556 11.5564C22.2367 12.3374 22.2367 13.6037 21.4556 14.3848L14.3845 21.4559C13.6035 22.2369 12.3372 22.2369 11.5561 21.4559L2.85737 12.7571C2.46266 12.3624 2.25087 11.8207 2.27318 11.263L2.61893 2.61917L11.2627 2.27342ZM8.14062 5.55641C7.03606 5.55641 6.14062 6.45184 6.14062 7.55641C6.14062 8.66098 7.03606 9.55641 8.14062 9.55641C9.24519 9.55641 10.1406 8.66098 10.1406 7.55641C10.1406 6.45184 9.24519 5.55641 8.14062 5.55641Z" fill="#F9C000"/>
</svg>
