<svg width="25" height="24" viewBox="0 0 25 24" fill="none" xmlns="http://www.w3.org/2000/svg">
<path fill-rule="evenodd" clip-rule="evenodd" d="M11.3035 2.25432C11.369 2.10012 11.5204 2 11.6879 2C12.7862 2 13.6387 2.95817 13.5108 4.04904L13.1405 7.20902C12.9664 8.69489 14.1275 10 15.6235 10H20.289C21.5623 10 22.5114 11.174 22.2446 12.4191L20.5304 20.4191C20.3328 21.3412 19.5178 22 18.5748 22H8V10.0272L11.3035 2.25432ZM6 11.885C5.7364 11.9602 5.45985 12 5.17687 12H4C2.89543 12 2 12.8954 2 14V20C2 21.1046 2.89543 22 4 22H6V11.885ZM11.6879 0C10.7181 0 9.84215 0.579501 9.46282 1.47204L6.0972 9.39114C5.9403 9.76031 5.57799 10 5.17687 10H4C1.79086 10 0 11.7909 0 14V20C0 22.2091 1.79086 24 4 24H18.5748C20.4609 24 22.0908 22.6824 22.486 20.8381L24.2002 12.8381C24.7338 10.3481 22.8356 8 20.289 8H15.6235C15.3243 8 15.0921 7.73898 15.1269 7.44181L15.4973 4.28182C15.7644 2.00226 13.9831 0 11.6879 0Z" fill="#F9C000"/>
</svg>
