<svg width="25" height="24" viewBox="0 0 25 24" fill="none" xmlns="http://www.w3.org/2000/svg">
<path fill-rule="evenodd" clip-rule="evenodd" d="M11.3035 21.7457C11.369 21.8999 11.5204 22 11.6879 22C12.7862 22 13.6387 21.0418 13.5108 19.951L13.1405 16.791C12.9664 15.3051 14.1275 14 15.6235 14H20.289C21.5623 14 22.5114 12.826 22.2446 11.5809L20.5304 3.58094C20.3328 2.6588 19.5178 2 18.5748 2H8V13.9728L11.3035 21.7457ZM6 12.115C5.7364 12.0398 5.45985 12 5.17687 12H4C2.89543 12 2 11.1046 2 10V4C2 2.89543 2.89543 2 4 2H6V12.115ZM11.6879 24C10.7181 24 9.84215 23.4205 9.46282 22.528L6.0972 14.6089C5.9403 14.2397 5.57799 14 5.17687 14H4C1.79086 14 0 12.2091 0 10V4C0 1.79086 1.79086 0 4 0H18.5748C20.4609 0 22.0908 1.3176 22.486 3.16189L24.2002 11.1619C24.7338 13.6519 22.8356 16 20.289 16H15.6235C15.3243 16 15.0921 16.261 15.1269 16.5582L15.4973 19.7182C15.7644 21.9977 13.9831 24 11.6879 24Z" fill="#F9C000"/>
</svg>
