<svg width="24" height="24" viewBox="0 0 24 24" fill="none" xmlns="http://www.w3.org/2000/svg">
<path fill-rule="evenodd" clip-rule="evenodd" d="M2 12C2 6.47715 6.47715 2 12 2C17.5228 2 22 6.47715 22 12C22 17.5228 17.5228 22 12 22C6.47715 22 2 17.5228 2 12ZM12 0C5.37258 0 0 5.37258 0 12C0 18.6274 5.37258 24 12 24C18.6274 24 24 18.6274 24 12C24 5.37258 18.6274 0 12 0ZM13 7C13 6.44772 12.5523 6 12 6C11.4477 6 11 6.44772 11 7V13C11 13.2652 11.1054 13.5196 11.2929 13.7071L13.7929 16.2071C14.1834 16.5976 14.8166 16.5976 15.2071 16.2071C15.5976 15.8166 15.5976 15.1834 15.2071 14.7929L13 12.5858V7Z" fill="#F9C000"/>
</svg>
