<svg width="24" height="24" viewBox="0 0 24 24" fill="none" xmlns="http://www.w3.org/2000/svg">
<path fill-rule="evenodd" clip-rule="evenodd" d="M9.73204 3.29289C10.1226 3.68342 10.1226 4.31658 9.73204 4.70711L6.43915 8H15C18.3137 8 21 10.6863 21 14C21 17.3137 18.3137 20 15 20C14.4477 20 14 19.5523 14 19C14 18.4477 14.4477 18 15 18C17.2091 18 19 16.2091 19 14C19 11.7909 17.2091 10 15 10H6.38928L9.73459 13.3453C10.1251 13.7358 10.1251 14.369 9.73459 14.7595C9.34406 15.1501 8.7109 15.1501 8.32037 14.7595L3.29289 9.73204C2.90237 9.34152 2.90237 8.70835 3.29289 8.31783L8.31783 3.29289C8.70835 2.90237 9.34152 2.90237 9.73204 3.29289Z" fill="#F9C000"/>
</svg>
