<svg width="24" height="24" viewBox="0 0 24 24" fill="none" xmlns="http://www.w3.org/2000/svg">
<path fill-rule="evenodd" clip-rule="evenodd" d="M4.00012 4C4.00006 4.00053 4 4.00133 4 4.00247V6.06155C4 6.61384 3.55228 7.06155 3 7.06155C2.44772 7.06155 2 6.61384 2 6.06155V4.00247C2 2.90499 2.88424 2 3.9934 2H20.0067C21.1181 2 22.0001 2.90995 22.0001 4.00247V6.06155C22.0001 6.61384 21.5524 7.06155 21.0001 7.06155C20.4478 7.06155 20.0001 6.61384 20.0001 6.06155V4.00247L20 4.00099L20 4.00059L19.9999 4.00043C19.9999 4.00032 19.9998 4.00017 19.9997 4H4.00012ZM11.2929 6.29289C11.6834 5.90237 12.3166 5.90237 12.7071 6.29289L18.7071 12.2929C19.0976 12.6834 19.0976 13.3166 18.7071 13.7071C18.3166 14.0976 17.6834 14.0976 17.2929 13.7071L13 9.41421V21C13 21.5523 12.5523 22 12 22C11.4477 22 11 21.5523 11 21V9.41421L6.70711 13.7071C6.31658 14.0976 5.68342 14.0976 5.29289 13.7071C4.90237 13.3166 4.90237 12.6834 5.29289 12.2929L11.2929 6.29289Z" fill="#F9C000"/>
</svg>
