<svg width="24" height="24" viewBox="0 0 24 24" fill="none" xmlns="http://www.w3.org/2000/svg">
<path fill-rule="evenodd" clip-rule="evenodd" d="M8 8C8 5.79086 9.79086 4 12 4C14.2091 4 16 5.79086 16 8C16 10.2091 14.2091 12 12 12C9.79086 12 8 10.2091 8 8ZM12 2C8.68629 2 6 4.68629 6 8C6 11.3137 8.68629 14 12 14C15.3137 14 18 11.3137 18 8C18 4.68629 15.3137 2 12 2ZM19 18V16.4977C19 16.2228 18.7681 16 18.5 16C18.2239 16 18 16.2148 18 16.4977V18H16.4977C16.2148 18 16 18.2239 16 18.5C16 18.7681 16.2228 19 16.4977 19H18V20.5023C18 20.7772 18.2319 21 18.5 21C18.7761 21 19 20.7852 19 20.5023V19H20.5023C20.7852 19 21 18.7761 21 18.5C21 18.2319 20.7772 18 20.5023 18H19ZM18.5 23C16.0147 23 14 20.9853 14 18.5C14 16.0147 16.0147 14 18.5 14C20.9853 14 23 16.0147 23 18.5C23 20.9853 20.9853 23 18.5 23ZM14.257 15H6.99988C4.20052 15 2.39023 16.1679 1.52546 18.0896C1.07412 19.0926 0.9489 20.1109 0.99543 20.9699C0.998488 21.0263 1.00137 21.0633 1.00485 21.0995C1.0598 21.649 1.54984 22.05 2.09939 21.995C2.64893 21.9401 3.04987 21.45 2.99492 20.9005C2.99544 20.9071 2.99388 20.8872 2.9925 20.8617C2.96174 20.2938 3.05009 19.5753 3.3493 18.9104C3.89079 17.7071 4.98675 17 6.99988 17H12.007H13.2069C13.4169 16.2576 13.7788 15.579 14.257 15Z" fill="#F9C000"/>
</svg>
