<svg width="24" height="24" viewBox="0 0 24 24" fill="none" xmlns="http://www.w3.org/2000/svg">
<g clip-path="url(#clip0_3031_6763)">
<path fill-rule="evenodd" clip-rule="evenodd" d="M4 7C4 9.51504 5.85693 11.5964 8.27455 11.9478C8.0958 11.3294 8 10.6759 8 10C8 9.94318 8.00068 9.88651 8.00202 9.83001C6.83577 9.41874 6 8.30697 6 7C6 5.34315 7.34315 4 9 4C9.61582 4 10.1883 4.18555 10.6646 4.5038C11.2215 4.06388 11.8469 3.70681 12.5222 3.45118C11.6185 2.55417 10.3739 2 9 2C6.23858 2 4 4.23858 4 7ZM5 13H8.67363C9.02973 13.7496 9.51513 14.4259 10.101 15H5C3.64283 15 2.85564 15.5248 2.39443 16.4472C2.22417 16.7877 2.11167 17.1627 2.04889 17.5394C2.01177 17.7622 2 17.9269 2 18C2 18.5523 1.55228 19 1 19C0.447715 19 0 18.5523 0 18C0 17.3586 0.14867 16.4666 0.605573 15.5528C1.39436 13.9752 2.85717 13 5 13ZM7.99999 21.0049L7.99999 21.0047L8.00042 20.9884C8.00101 20.9709 8.00233 20.9406 8.00527 20.8994C8.01118 20.8166 8.0235 20.6918 8.04889 20.5394C8.10048 20.2299 8.20178 19.8325 8.39443 19.4472C8.58511 19.0658 8.85544 18.7149 9.2422 18.4571C9.62271 18.2034 10.175 18 11 18H11.0234H11.0467H11.0699H11.093H11.116H11.139H11.1618H11.1846H11.2073H11.2298H11.2523H11.2748H11.2971H11.3193H11.3414H11.3635H11.3855H11.4074H11.4292H11.4509H11.4725H11.4941H11.5155H11.5369H11.5582H11.5794H11.6006H11.6216H11.6426H11.6635H11.6843H11.705H11.7257H11.7462H11.7667H11.7871H11.8074H11.8277H11.8479H11.868H11.888H11.9079H11.9278H11.9476H11.9673H11.9869H12.0065H12.026H12.0454H12.0647H12.084H12.1032H12.1223H12.1413H12.1603H12.1792H12.198H12.2168H12.2355H12.2541H12.2726H12.2911H12.3095H12.3279H12.3461H12.3643H12.3825H12.4005H12.4185H12.4365H12.4543H12.4721H12.4899H12.5075H12.5251H12.5427H12.5601H12.5775H12.5949H12.6122H12.6294H12.6465H12.6636H12.6807H12.6976H12.7145H12.7314H12.7482H12.7649H12.7816H12.7982H12.8147H12.8312H12.8476H12.864H12.8803H12.8966H12.9128H12.9289H12.945H12.961H12.977H12.9929H13.0088H13.0246H13.0404H13.0561H13.0717H13.0873H13.1029H13.1184H13.1338H13.1492H13.1645H13.1798H13.1951H13.2103H13.2254H13.2405H13.2555H13.2705H13.2855H13.3004H13.3152H13.33H13.3448H13.3595H13.3741H13.3887H13.4033H13.4178H13.4323H13.4467H13.4611H13.4755H13.4898H13.504H13.5183H13.5324H13.5466H13.5607H13.5747H13.5887H13.6027H13.6166H13.6305H13.6444H13.6582H13.6719H13.6857H13.6994H13.713H13.7267H13.7402H13.7538H13.7673H13.7808H13.7942H13.8076H13.821H13.8343H13.8476H13.8609H13.8742H13.8874H13.9005H13.9137H13.9268H13.9399H13.9529H13.9659H13.9789H13.9918H14.0048H14.0177H14.0305H14.0434H14.0562H14.069H14.0817H14.0944H14.1071H14.1198H14.1325H14.1451H14.1577H14.1702H14.1828H14.1953H14.2078H14.2203H14.2327H14.2452H14.2576H14.2699H14.2823H14.2946H14.307H14.3193H14.3315H14.3438H14.356H14.3683H14.3805H14.3926H14.4048H14.4169H14.4291H14.4412H14.4533H14.4654H14.4774H14.4895H14.5015H14.5135H14.5255H14.5375H14.5495H14.5614H14.5734H14.5853H14.5972H14.6091H14.621H14.6329H14.6448H14.6567H14.6685H14.6803H14.6922H14.704H14.7158H14.7276H14.7394H14.7512H14.763H14.7748H14.7865H14.7983H14.8101H14.8218H14.8336H14.8453H14.857H14.8688H14.8805H14.8922H14.904H14.9157H14.9274H14.9391H14.9508H14.9625H14.9742H14.9859H14.9977H15.0094H15.0211H15.0328H15.0445H15.0562H15.0679H15.0796H15.0914H15.1031H15.1148H15.1265H15.1383H15.15H15.1618H15.1735H15.1853H15.197H15.2088H15.2206H15.2323H15.2441H15.2559H15.2677H15.2795H15.2914H15.3032H15.315H15.3269H15.3387H15.3506H15.3625H15.3744H15.3863H15.3982H15.4101H15.422H15.434H15.446H15.4579H15.4699H15.4819H15.4939H15.506H15.518H15.5301H15.5422H15.5543H15.5664H15.5785H15.5907H15.6029H15.6151H15.6273H15.6395H15.6517H15.664H15.6763H15.6886H15.7009H15.7133H15.7256H15.738H15.7504H15.7629H15.7753H15.7878H15.8003H15.8129H15.8254H15.838H15.8506H15.8632H15.8759H15.8886H15.9013H15.914H15.9268H15.9396H15.9524H15.9652H15.9781H15.991H16.004H16.0169H16.0299H16.0429H16.056H16.0691H16.0822H16.0954H16.1085H16.1218H16.135H16.1483H16.1616H16.175H16.1884H16.2018H16.2152H16.2287H16.2422H16.2558H16.2694H16.283H16.2967H16.3104H16.3242H16.338H16.3518H16.3657H16.3796H16.3935H16.4075H16.4215H16.4356H16.4497H16.4639H16.4781H16.4923H16.5066H16.5209H16.5352H16.5497H16.5641H16.5786H16.5931H16.6077H16.6224H16.637H16.6518H16.6665H16.6814H16.6962H16.7111H16.7261H16.7411H16.7562H16.7713H16.7864H16.8016H16.8169H16.8322H16.8476H16.863H16.8784H16.894H16.9095H16.9251H16.9408H16.9565H16.9723H16.9882H17.004H17.02H17.036H17.052H17.0681H17.0843H17.1005H17.1168H17.1332H17.1496H17.166H17.1825H17.1991H17.2157H17.2324H17.2492H17.266H17.2828H17.2998H17.3168H17.3338H17.3509H17.3681H17.3854H17.4027H17.42H17.4375H17.455H17.4725H17.4902H17.5079H17.5256H17.5434H17.5613H17.5793H17.5973H17.6154H17.6336H17.6518H17.6701H17.6884H17.7069H17.7254H17.744H17.7626H17.7813H17.8001H17.819H17.8379H17.8569H17.876H17.8951H17.9143H17.9336H17.953H17.9724H17.992H18.0115H18.0312H18.0509H18.0708H18.0907H18.1106H18.1307H18.1508H18.171H18.1913H18.2117H18.2321H18.2526H18.2732H18.2939H18.3147H18.3355H18.3564H18.3774H18.3985H18.4197H18.4409H18.4622H18.4837H18.5052H18.5267H18.5484H18.5702H18.592H18.6139H18.6359H18.658H18.6802H18.7025H18.7248H18.7473H18.7698H18.7924H18.8151H18.8379H18.8608H18.8838H18.9068H18.93H18.9532H18.9766H19C19.8269 18 20.3806 18.2035 20.762 18.4574C21.1496 18.7155 21.4204 19.0665 21.6113 19.4478C21.8042 19.833 21.9057 20.2302 21.9573 20.5396C21.9827 20.692 21.9951 20.8167 22.001 20.8995C22.0039 20.9407 22.0052 20.971 22.0058 20.9884L22.0063 21.0047L22.0063 21.0049C22.0089 21.5549 22.4556 22 23.0062 22C23.5585 22 24.0062 21.5523 24.0062 21H23.0062C24.0062 21 24.0062 20.9995 24.0062 20.999L24.0062 20.9979L24.0062 20.9953L24.0062 20.9892L24.006 20.9724C24.0058 20.9593 24.0054 20.9423 24.0047 20.9217C24.0033 20.8806 24.0008 20.8249 23.9959 20.7568C23.9861 20.6208 23.9672 20.433 23.93 20.2104C23.8565 19.7698 23.7075 19.167 23.3996 18.5522C23.0898 17.9335 22.6093 17.2845 21.8702 16.7926C21.1249 16.2965 20.1762 16 19 16H18.9766H18.9532H18.93H18.9068H18.8838H18.8608H18.8379H18.8151H18.7924H18.7698H18.7473H18.7248H18.7025H18.6802H18.658H18.6359H18.6139H18.592H18.5702H18.5484H18.5267H18.5052H18.4837H18.4622H18.4409H18.4197H18.3985H18.3774H18.3564H18.3355H18.3147H18.2939H18.2732H18.2526H18.2321H18.2117H18.1913H18.171H18.1508H18.1307H18.1106H18.0907H18.0708H18.0509H18.0312H18.0115H17.992H17.9724H17.953H17.9336H17.9143H17.8951H17.876H17.8569H17.8379H17.819H17.8001H17.7813H17.7626H17.744H17.7254H17.7069H17.6884H17.6701H17.6518H17.6336H17.6154H17.5973H17.5793H17.5613H17.5434H17.5256H17.5079H17.4902H17.4725H17.455H17.4375H17.42H17.4027H17.3854H17.3681H17.3509H17.3338H17.3168H17.2998H17.2828H17.266H17.2492H17.2324H17.2157H17.1991H17.1825H17.166H17.1496H17.1332H17.1168H17.1005H17.0843H17.0681H17.052H17.036H17.02H17.004H16.9882H16.9723H16.9565H16.9408H16.9251H16.9095H16.894H16.8784H16.863H16.8476H16.8322H16.8169H16.8016H16.7864H16.7713H16.7562H16.7411H16.7261H16.7111H16.6962H16.6814H16.6665H16.6518H16.637H16.6224H16.6077H16.5931H16.5786H16.5641H16.5497H16.5352H16.5209H16.5066H16.4923H16.4781H16.4639H16.4497H16.4356H16.4215H16.4075H16.3935H16.3796H16.3657H16.3518H16.338H16.3242H16.3104H16.2967H16.283H16.2694H16.2558H16.2422H16.2287H16.2152H16.2018H16.1884H16.175H16.1616H16.1483H16.135H16.1218H16.1085H16.0954H16.0822H16.0691H16.056H16.0429H16.0299H16.0169H16.004H15.991H15.9781H15.9652H15.9524H15.9396H15.9268H15.914H15.9013H15.8886H15.8759H15.8632H15.8506H15.838H15.8254H15.8129H15.8003H15.7878H15.7753H15.7629H15.7504H15.738H15.7256H15.7133H15.7009H15.6886H15.6763H15.664H15.6517H15.6395H15.6273H15.6151H15.6029H15.5907H15.5785H15.5664H15.5543H15.5422H15.5301H15.518H15.506H15.4939H15.4819H15.4699H15.4579H15.446H15.434H15.422H15.4101H15.3982H15.3863H15.3744H15.3625H15.3506H15.3387H15.3269H15.315H15.3032H15.2914H15.2795H15.2677H15.2559H15.2441H15.2323H15.2206H15.2088H15.197H15.1853H15.1735H15.1618H15.15H15.1383H15.1265H15.1148H15.1031H15.0914H15.0796H15.0679H15.0562H15.0445H15.0328H15.0211H15.0094H14.9977H14.9859H14.9742H14.9625H14.9508H14.9391H14.9274H14.9157H14.904H14.8922H14.8805H14.8688H14.857H14.8453H14.8336H14.8218H14.8101H14.7983H14.7865H14.7748H14.763H14.7512H14.7394H14.7276H14.7158H14.704H14.6922H14.6803H14.6685H14.6567H14.6448H14.6329H14.621H14.6091H14.5972H14.5853H14.5734H14.5614H14.5495H14.5375H14.5255H14.5135H14.5015H14.4895H14.4774H14.4654H14.4533H14.4412H14.4291H14.4169H14.4048H14.3926H14.3805H14.3683H14.356H14.3438H14.3315H14.3193H14.307H14.2946H14.2823H14.2699H14.2576H14.2452H14.2327H14.2203H14.2078H14.1953H14.1828H14.1702H14.1577H14.1451H14.1325H14.1198H14.1071H14.0944H14.0817H14.069H14.0562H14.0434H14.0305H14.0177H14.0048H13.9918H13.9789H13.9659H13.9529H13.9399H13.9268H13.9137H13.9005H13.8874H13.8742H13.8609H13.8476H13.8343H13.821H13.8076H13.7942H13.7808H13.7673H13.7538H13.7402H13.7267H13.713H13.6994H13.6857H13.6719H13.6582H13.6444H13.6305H13.6166H13.6027H13.5887H13.5747H13.5607H13.5466H13.5324H13.5183H13.504H13.4898H13.4755H13.4611H13.4467H13.4323H13.4178H13.4033H13.3887H13.3741H13.3595H13.3448H13.33H13.3152H13.3004H13.2855H13.2705H13.2555H13.2405H13.2254H13.2103H13.1951H13.1798H13.1645H13.1492H13.1338H13.1184H13.1029H13.0873H13.0717H13.0561H13.0404H13.0246H13.0088H12.9929H12.977H12.961H12.945H12.9289H12.9128H12.8966H12.8803H12.864H12.8476H12.8312H12.8147H12.7982H12.7816H12.7649H12.7482H12.7314H12.7145H12.6976H12.6807H12.6636H12.6465H12.6294H12.6122H12.5949H12.5775H12.5601H12.5427H12.5251H12.5075H12.4899H12.4721H12.4543H12.4365H12.4185H12.4005H12.3825H12.3643H12.3461H12.3279H12.3095H12.2911H12.2726H12.2541H12.2355H12.2168H12.198H12.1792H12.1603H12.1413H12.1223H12.1032H12.084H12.0647H12.0454H12.026H12.0065H11.9869H11.9673H11.9476H11.9278H11.9079H11.888H11.868H11.8479H11.8277H11.8074H11.7871H11.7667H11.7462H11.7257H11.705H11.6843H11.6635H11.6426H11.6216H11.6006H11.5794H11.5582H11.5369H11.5155H11.4941H11.4725H11.4509H11.4292H11.4074H11.3855H11.3635H11.3414H11.3193H11.2971H11.2748H11.2523H11.2298H11.2073H11.1846H11.1618H11.139H11.116H11.093H11.0699H11.0467H11.0234H11C9.82502 16 8.87729 16.2966 8.1328 16.7929C7.39456 17.2851 6.91489 17.9342 6.60557 18.5528C6.29822 19.1675 6.14952 19.7701 6.07611 20.2106C6.039 20.4332 6.02007 20.6209 6.01035 20.7569C6.00549 20.825 6.0029 20.8807 6.00153 20.9218C6.00085 20.9423 6.00046 20.9593 6.00025 20.9724L6.00005 20.9892L6.00001 20.9953L6 20.9979L6 20.999C6 20.9995 6 21 7 21H6C6 21.5523 6.44772 22 7 22C7.55066 22 7.99736 21.5549 7.99999 21.0049ZM7.99998 21.005L7.99999 21.0049L7.99998 21.005ZM22.0063 21.0051C22.0063 21.0058 22.0063 21.0057 22.0063 21.0049L22.0063 21.0051ZM15 7C13.3431 7 12 8.34315 12 10C12 11.6569 13.3431 13 15 13C16.6569 13 18 11.6569 18 10C18 8.34315 16.6569 7 15 7ZM10 10C10 7.23858 12.2386 5 15 5C17.7614 5 20 7.23858 20 10C20 12.7614 17.7614 15 15 15C12.2386 15 10 12.7614 10 10Z" fill="#F9C000"/>
</g>
<defs>
<clipPath id="clip0_3031_6763">
<rect width="24" height="24" fill="white"/>
</clipPath>
</defs>
</svg>
