<svg width="24" height="24" viewBox="0 0 24 24" fill="none" xmlns="http://www.w3.org/2000/svg">
<path fill-rule="evenodd" clip-rule="evenodd" d="M2.2022 11.242C4.42466 7.37101 7.8934 5 11.6798 5C15.4662 5 18.9349 7.37097 21.1573 11.2419C21.4269 11.7115 21.4269 12.2885 21.1574 12.7581C18.9349 16.629 15.4661 19 11.6798 19C7.89339 19 4.42466 16.6291 2.2022 12.7581C1.9326 12.2886 1.9326 11.7115 2.2022 11.242ZM11.6798 3C6.99416 3 2.94526 5.93094 0.467735 10.2462C-0.155916 11.3324 -0.155911 12.6677 0.467746 13.754C2.94527 18.0691 6.99415 21 11.6798 21C16.3654 21 20.4143 18.0691 22.8918 13.7539C23.5155 12.6676 23.5155 11.3323 22.8918 10.2461C20.4143 5.9309 16.3654 3 11.6798 3ZM9.67969 12C9.67969 10.8954 10.5751 10 11.6797 10C12.7843 10 13.6797 10.8954 13.6797 12C13.6797 13.1046 12.7843 14 11.6797 14C10.5751 14 9.67969 13.1046 9.67969 12ZM11.6797 8C9.47055 8 7.67969 9.79086 7.67969 12C7.67969 14.2091 9.47055 16 11.6797 16C13.8888 16 15.6797 14.2091 15.6797 12C15.6797 9.79086 13.8888 8 11.6797 8Z" fill="#F9C000"/>
</svg>
