<svg width="24" height="24" viewBox="0 0 24 24" fill="none" xmlns="http://www.w3.org/2000/svg">
<path fill-rule="evenodd" clip-rule="evenodd" d="M1 6H19.0026C20.6602 6 22 7.35359 22 8.99456V10.0674H20V8.99456C20 8.45386 19.5513 8 19.0026 8H3V18.9941C3 19.5543 3.45021 20 3.99742 20H19.0026C19.5539 20 20 19.5546 20 18.9988V17.9998H22V18.9988C22 20.6534 20.6642 22 19.0026 22H3.99742C2.33834 22 1 20.6516 1 18.9941V6Z" fill="#F9C000"/>
<path fill-rule="evenodd" clip-rule="evenodd" d="M17.0017 12C15.8918 12 15 12.8949 15 14C15 15.1014 15.8964 16 17.0017 16H21V12H17.0017ZM13 14C13 11.7914 14.7862 10 17.0017 10H22C22.5523 10 23 10.4477 23 11V17C23 17.5523 22.5523 17.9998 22 17.9998L17.0017 18C14.7914 18 13 16.2056 13 14Z" fill="#F9C000"/>
<path d="M17 15C17.5523 15 18 14.5523 18 14C18 13.4477 17.5523 13 17 13C16.4477 13 16 13.4477 16 14C16 14.5523 16.4477 15 17 15Z" fill="#F9C000"/>
<path fill-rule="evenodd" clip-rule="evenodd" d="M1 5.5C1 4.12313 2.11777 3 3.49639 3H18.5036C19.8907 3 21 4.13558 21 5.5V8H3.49639C2.10935 8 1 6.86442 1 5.5ZM3.49639 5C3.22651 5 3 5.22353 3 5.5C3 5.77374 3.22776 6 3.49639 6H19V5.5C19 5.22626 18.7722 5 18.5036 5H3.49639Z" fill="#F9C000"/>
</svg>
