<svg width="24" height="24" viewBox="0 0 24 24" fill="none" xmlns="http://www.w3.org/2000/svg">
<path fill-rule="evenodd" clip-rule="evenodd" d="M3.00592 8C2.44256 8 2 8.44661 2 9.00586V18.9941C2 19.5573 2.45036 20 2.99115 20H21.0088C21.5505 20 22 19.5572 22 18.9941V9.00586C22 8.4497 21.55 8 20.9941 8H16V6H20.9941C22.6539 6 24 7.34442 24 9.00586V18.9941C24 20.6467 22.6701 22 21.0088 22H2.99115C1.33258 22 0 20.6486 0 18.9941V9.00586C0 7.34949 1.33055 6 3.00592 6H8V8H3.00592Z" fill="#F9C000"/>
<path fill-rule="evenodd" clip-rule="evenodd" d="M1 5.5C1 4.12557 2.10391 3 3.4977 3H10V8H1V5.5ZM3.4977 5C3.21961 5 3 5.21897 3 5.5V6H8V5H3.4977ZM14 3H19.5095C20.9021 3 22 4.14431 22 5.5V8H14V3ZM19.5095 5H16V6H20V5.5C20 5.22276 19.7716 5 19.5095 5Z" fill="#F9C000"/>
<path fill-rule="evenodd" clip-rule="evenodd" d="M8 3C8 2.44772 8.44771 2 9 2H15C15.5523 2 16 2.44772 16 3V10.9942C16 13.2055 14.2069 15 12 15C9.78838 15 8 13.201 8 10.9942V3ZM10 4V10.9942C10 12.1014 10.8979 13 12 13C13.1001 13 14 12.1031 14 10.9942V4H10Z" fill="#F9C000"/>
<path d="M12 12C12.5523 12 13 11.5523 13 11C13 10.4477 12.5523 10 12 10C11.4477 10 11 10.4477 11 11C11 11.5523 11.4477 12 12 12Z" fill="#F9C000"/>
</svg>
