<svg width="25" height="24" viewBox="0 0 25 24" fill="none" xmlns="http://www.w3.org/2000/svg">
<path fill-rule="evenodd" clip-rule="evenodd" d="M6.57346 6.14181C8.39334 5.38799 10.3439 5 12.3137 5C14.2835 5 16.2341 5.38799 18.054 6.14181C19.8738 6.89563 21.5274 8.00052 22.9203 9.3934C23.3108 9.78392 23.944 9.78392 24.3345 9.3934C24.725 9.00287 24.725 8.36971 24.3345 7.97918C22.7559 6.40059 20.8819 5.14838 18.8193 4.29405C16.7568 3.43972 14.5462 3 12.3137 3C10.0812 3 7.87062 3.43972 5.80809 4.29405C3.74555 5.14838 1.87149 6.40059 0.292893 7.97919C-0.0976312 8.36971 -0.0976309 9.00288 0.292893 9.3934C0.683418 9.78393 1.31658 9.78393 1.70711 9.3934C3.09999 8.00052 4.75357 6.89563 6.57346 6.14181ZM8.4865 10.7612C9.69975 10.2587 11.0001 10 12.3133 10C13.6265 10 14.9269 10.2587 16.1402 10.7612C17.3534 11.2638 18.4558 12.0003 19.3844 12.9289C19.7749 13.3195 20.4081 13.3195 20.7986 12.9289C21.1891 12.5384 21.1891 11.9052 20.7986 11.5147C19.6843 10.4004 18.3614 9.5165 16.9055 8.91344C15.4496 8.31039 13.8892 8 12.3133 8C10.7375 8 9.17704 8.31039 7.72113 8.91345C6.26522 9.5165 4.94235 10.4004 3.82805 11.5147C3.43753 11.9052 3.43753 12.5384 3.82805 12.9289C4.21857 13.3195 4.85174 13.3195 5.24226 12.9289C6.17085 12.0003 7.27324 11.2638 8.4865 10.7612ZM12.3139 15C11.6573 15 11.0071 15.1293 10.4005 15.3806C9.79388 15.6319 9.24269 16.0002 8.7784 16.4645C8.38787 16.855 7.75471 16.855 7.36418 16.4645C6.97366 16.0739 6.97366 15.4408 7.36418 15.0503C8.01419 14.4002 8.78587 13.8846 9.63515 13.5328C10.4844 13.1811 11.3947 13 12.3139 13C13.2332 13 14.1434 13.1811 14.9927 13.5328C15.842 13.8846 16.6137 14.4002 17.2637 15.0503C17.6542 15.4408 17.6542 16.0739 17.2637 16.4645C16.8732 16.855 16.24 16.855 15.8495 16.4645C15.3852 16.0002 14.834 15.6319 14.2273 15.3806C13.6207 15.1293 12.9705 15 12.3139 15ZM13.3135 19.5C13.3135 20.0523 12.8658 20.5 12.3135 20.5C11.7612 20.5 11.3135 20.0523 11.3135 19.5C11.3135 18.9477 11.7612 18.5 12.3135 18.5C12.8658 18.5 13.3135 18.9477 13.3135 19.5Z" fill="#F9C000"/>
</svg>
