<svg width="24" height="24" viewBox="0 0 24 24" fill="none" xmlns="http://www.w3.org/2000/svg">
<path fill-rule="evenodd" clip-rule="evenodd" d="M22.2391 3.85097C22.5693 3.91997 22.8425 4.15085 22.9656 4.46498C23.8085 6.61596 23.3625 9.15875 21.6217 10.8996C19.2785 13.2428 15.4795 13.2428 13.1364 10.8996C10.7932 8.55646 10.7932 4.75747 13.1364 2.41433C14.8712 0.679491 17.4025 0.230541 19.5487 1.06165C19.6817 1.11004 19.8066 1.18759 19.9133 1.2943C20.3038 1.68482 20.3038 2.31799 19.9133 2.70851L17.7905 4.83131C17.4032 5.21853 17.4016 5.85369 17.7919 6.24405L18.4924 6.94453C18.4955 6.94756 18.4979 6.94949 18.4995 6.95069L21.3275 4.12273C21.566 3.88416 21.9088 3.78197 22.2391 3.85097ZM17.1287 2.6646C16.1894 2.7232 15.2675 3.11164 14.5506 3.82854C12.9885 5.39064 12.9885 7.9233 14.5506 9.48539C16.1127 11.0475 18.6454 11.0475 20.2074 9.48539C20.9243 8.7685 21.3128 7.84654 21.3714 6.90724L19.9067 8.37189C19.1208 9.15779 17.8605 9.14099 17.0782 8.35874L16.3777 7.65826C15.206 6.48652 15.2083 4.58502 16.3763 3.4171L17.1287 2.6646Z" fill="#F9C000"/>
<path fill-rule="evenodd" clip-rule="evenodd" d="M12.1807 7.70383L16.3322 11.8553L7.67862 21.7451C6.27127 23.3535 3.87863 23.4434 2.35983 21.9246L2.11136 21.6762C0.600317 20.1651 0.671665 17.7742 2.2909 16.3574L12.1807 7.70383ZM12.0895 10.4411L3.60791 17.8625C2.86138 18.5157 2.8307 19.5671 3.52557 20.2619L3.77404 20.5104C4.47062 21.207 5.52408 21.1702 6.17346 20.4281L13.5949 11.9465L12.0895 10.4411Z" fill="#F9C000"/>
<path d="M4.35691 19.6791C4.74744 20.0696 5.3806 20.0696 5.77113 19.6791C6.16165 19.2886 6.16165 18.6554 5.77113 18.2649C5.3806 17.8743 4.74744 17.8743 4.35691 18.2649C3.96639 18.6554 3.96639 19.2886 4.35691 19.6791Z" fill="#F9C000"/>
</svg>
