<svg width="216" height="130" viewBox="0 0 216 130" fill="none" xmlns="http://www.w3.org/2000/svg"><path d="M211.455 116.035c0-27.396-10.887-53.67-30.267-73.042a103.358 103.358 0 00-73.071-30.255 103.36 103.36 0 00-73.072 30.255 103.276 103.276 0 00-30.267 73.042h206.677z" fill="#F4F6F8"/><path d="M163.4 28.505c3.429-4.846 10.181-6.034 14.662-2.14a107.476 107.476 0 0128.459 39.184 107.416 107.416 0 018.364 47.694c-.318 5.928-5.869 9.95-11.737 9.041-5.869-.909-9.817-6.408-9.647-12.342a85.955 85.955 0 00-27.942-65.924c-4.383-4.005-5.588-10.667-2.159-15.513z" fill="#F9C000"/><path d="M11.894 122.293c-5.868.909-11.42-3.113-11.739-9.04a107.439 107.439 0 019.098-49.396 107.483 107.483 0 0130.558-39.87c4.613-3.737 11.32-2.318 14.58 2.643 3.26 4.962 1.827 11.578-2.691 15.43a85.984 85.984 0 00-22.793 30.52 85.95 85.95 0 00-7.367 37.369c.17 5.934-3.778 11.433-9.646 12.343z" fill="#EFF2F4"/><path d="M39.42 24.306A107.547 107.547 0 01111.46.072a107.543 107.543 0 0170.072 29.445L166.73 45.109A86.039 86.039 0 0053.04 40.94L39.42 24.306z" fill="#E2E8EC"/><path d="M114.187 128.693c-6.937 3.212-15.23.13-18.523-6.884-3.294-7.014-.341-15.304 6.595-18.516 6.937-3.212 15.23-.13 18.523 6.884 3.294 7.014.341 15.304-6.595 18.516z" fill="#343A40"/><path d="M190.906 72.178a5.401 5.401 0 016.997 2.68 5.363 5.363 0 01-2.491 7.089l-85.874 42.271-6.846-14.627 88.214-37.413z" fill="#343A40"/></svg>